<?xml version="1.0" encoding="utf-8"?>
<!-- Generator: Adobe Illustrator 16.0.3, SVG Export Plug-In . SVG Version: 6.00 Build 0)  -->
<!DOCTYPE svg PUBLIC "-//W3C//DTD SVG 1.1//EN" "http://www.w3.org/Graphics/SVG/1.1/DTD/svg11.dtd">
<svg version="1.1" id="Layer_1" xmlns="http://www.w3.org/2000/svg" xmlns:xlink="http://www.w3.org/1999/xlink" x="0px" y="0px"
	 width="1163.054px" height="193.957px" viewBox="0 0 1163.054 193.957" enable-background="new 0 0 1163.054 193.957"
	 xml:space="preserve">
<g id="Layer_1_1_" display="none">
	
		<image display="inline" overflow="visible" enable-background="new    " width="231" height="218" xlink:href="8B013C.jpeg"  transform="matrix(1 0 0 1 -6.9385 0)">
	</image>
</g>
<g id="book">
	<g>
		<path fill="#F2F2F2" d="M111.692,191.064c0,0,48.564-47.658,101.786-44.908v9.164C213.479,155.32,169.126,153.029,111.692,191.064
			z"/>
		<path fill="#F2F2F2" d="M111.692,187.4c0,0,38.483-53.607,96.142-57.275v9.166C207.834,139.291,162.278,138.824,111.692,187.4z"/>
		<path fill="#F2F2F2" d="M111.692,193.957c0,0,54.209-34.828,107.432-32.078v9.164
			C219.124,171.042,174.339,167.093,111.692,193.957z"/>
		<path fill="#F2F2F2" d="M107.434,191.064c0,0-48.565-47.658-101.789-44.908v9.164C5.645,155.32,49.998,153.029,107.434,191.064z"
			/>
		<path fill="#F2F2F2" d="M107.434,187.4c0,0-38.485-53.607-96.143-57.275v9.166C11.291,139.291,56.845,138.824,107.434,187.4z"/>
		<path fill="#F2F2F2" d="M107.434,193.957c0,0-54.21-34.828-107.434-32.078v9.164C0,171.042,44.784,167.093,107.434,193.957z"/>
	</g>
</g>
<g id="green_man">
	<g>
		<path fill="#F2F2F2" d="M58.229,82c0,0-15.833,5.833-31.5-9.667c0,0,7.833,15.833,27.833,20.333c0,0-14.833,13.501-7.667,37.833
			c0,0,8.5-41.334,42-21.5c0,0-35.667-27,1.667-56C90.562,53,85.896,50,58.229,82z"/>
		<circle fill="#F2F2F2" cx="54.562" cy="70.833" r="8.5"/>
	</g>
</g>
<g id="blue_man">
	<g>
		<path fill="#F2F2F2" d="M77.312,14.168c0,0,0.625,26.332,19.125,35.832v1.5c0,0-12.25,10.875-13.125,35.625
			c0,0,22.751-51.542,53.084,0c0,0-4.334-29.607-14.667-34.199c0,0,24.333-17.923,29.333-38.758
			C151.062,14.168,109.228,70.669,77.312,14.168z"/>
		<circle fill="#F2F2F2" cx="109.395" cy="23.918" r="9.75"/>
	</g>
</g>
<g id="hat">
	<g>
		<path fill="#F2F2F2" d="M93.562,7l15.834-7l15.666,7l-5.833,3.167L119.062,18c0,0-8.5,7.5-19.5,0v-7.333L93.562,7z"/>
		<g>
			<polygon fill="#F2F2F2" points="95.886,12.769 95.886,6.835 94.98,7.142 94.98,12.769 			"/>
			<path fill="#F2F2F2" d="M94.363,14.159v3.464c0,0.591,0.479,1.07,1.07,1.07c0.591,0,1.07-0.479,1.07-1.07v-3.464
				c0-0.292-0.118-0.558-0.308-0.751h-1.524C94.481,13.602,94.363,13.867,94.363,14.159z"/>
			<polygon fill="#F2F2F2" points="94.535,12.769 94.535,13.408 94.671,13.408 96.195,13.408 96.331,13.408 96.331,12.769 
				95.886,12.769 94.98,12.769 			"/>
		</g>
	</g>
</g>
<g id="red_man">
	<g>
		<path fill="#F2F2F2" d="M128.062,52.926c0,0,38.5,26.574,1.5,54.824c0,0,32.168-17.998,43.334,22.752
			c0,0,5.75-29.252-8.542-37.251c0,0,24.708-9.5,28.458-20.75c0,0-20.5,13.5-29.75,10.25c0,0-8.25-5.25-10.25-9
			C152.812,73.75,143.812,56.102,128.062,52.926z"/>
		<circle fill="#F2F2F2" cx="164.354" cy="70.792" r="8.542"/>
	</g>
</g>
<g id="sun">
	<path fill="#E57200" d="M90.562,155"/>
	<circle fill="#E57200" cx="110.895" cy="138.834" r="25.833"/>
</g>
<g id="sxivi">
	<polygon fill="#E57200" points="109.812,90.5 108.062,110 112.812,110 	"/>
</g>
<g id="sxivi_2">
	<polygon fill="#E57200" points="127.724,94.846 120.607,110.266 125.323,112.365 	"/>
</g>
<g id="sxivi_3">
	<polygon fill="#E57200" points="144.312,106.25 131.062,116.875 134.437,120 	"/>
</g>
<g id="sxivi_4">
	<polygon fill="#E57200" points="140.562,138.25 156.437,140.625 140.562,143.125 	"/>
</g>
<g id="sxivi_5">
	<polygon fill="#E57200" points="152.937,123 137.687,126.25 139.812,130.501 	"/>
</g>
<g id="sxivi_6">
	<polygon fill="#E57200" points="90.562,97 96.437,113.875 100.812,111.625 	"/>
</g>
<g id="sxivi_7">
	<polygon fill="#E57200" points="75.062,109 90.562,118.25 87.312,122 	"/>
</g>
<g id="sxivi_8">
	<polygon fill="#E57200" points="67.187,125.375 83.812,128.25 82.187,133.125 	"/>
</g>
<g id="sxivi_9">
	<polygon fill="#E57200" points="65.437,144.625 81.812,139.625 81.812,144.625 	"/>
</g>
<g>
	<path fill="#F2F2F2" d="M300.562,66.771c0,1.659-0.258,3.191-0.774,4.596c-0.517,1.405-1.236,2.62-2.158,3.644
		c-0.923,1.024-2.023,1.824-3.301,2.399c-1.278,0.576-2.67,0.863-4.177,0.863c-1.523,0-2.92-0.237-4.189-0.711
		c-1.27-0.474-2.361-1.197-3.275-2.171c-0.914-0.973-1.629-2.2-2.146-3.682c-0.517-1.481-0.774-3.229-0.774-5.243V39.425h3.529
		v27.041c0,1.608,0.169,2.967,0.508,4.075c0.338,1.109,0.813,2.015,1.422,2.717c0.609,0.703,1.333,1.21,2.171,1.523
		c0.838,0.313,1.756,0.47,2.755,0.47c1.134,0,2.133-0.216,2.996-0.647s1.583-1.032,2.158-1.803c0.575-0.77,1.007-1.697,1.295-2.78
		c0.288-1.083,0.432-2.285,0.432-3.605v-1.473c0-0.88-0.152-1.718-0.457-2.514c-0.305-0.795-0.686-1.553-1.143-2.272
		c-0.457-0.719-0.948-1.409-1.473-2.069c-0.525-0.66-1.016-1.308-1.473-1.942s-0.838-1.261-1.143-1.879
		c-0.305-0.618-0.457-1.248-0.457-1.892c0-0.711,0.084-1.4,0.254-2.069c0.169-0.668,0.516-1.384,1.041-2.146l3.555,0.99
		c-0.254,0.339-0.474,0.631-0.66,0.876c-0.187,0.246-0.343,0.487-0.47,0.724c-0.127,0.237-0.225,0.482-0.292,0.736
		c-0.068,0.254-0.102,0.55-0.102,0.889c0,0.626,0.156,1.236,0.47,1.828c0.313,0.593,0.707,1.181,1.181,1.765
		c0.474,0.584,0.981,1.185,1.523,1.803c0.542,0.618,1.049,1.27,1.523,1.955c0.474,0.686,0.867,1.414,1.181,2.184
		c0.313,0.771,0.47,1.612,0.47,2.526V66.771z"/>
	<path fill="#F2F2F2" d="M326.46,67.024c0,7.499-3.47,11.248-10.41,11.248c-1.71,0-3.216-0.288-4.52-0.863
		c-1.304-0.575-2.391-1.358-3.263-2.349c-0.872-0.99-1.528-2.146-1.968-3.466c-0.44-1.32-0.66-2.717-0.66-4.189v-1.727
		c0-1.016,0.254-2.078,0.762-3.187c0.508-1.108,1.143-2.196,1.904-3.263l2.438,1.244c-0.254,0.474-0.479,0.957-0.673,1.447
		c-0.195,0.491-0.355,0.965-0.482,1.422s-0.225,0.885-0.292,1.282c-0.068,0.398-0.102,0.749-0.102,1.054v1.879
		c0,1.236,0.118,2.332,0.355,3.288c0.237,0.957,0.622,1.761,1.155,2.412c0.533,0.652,1.24,1.147,2.12,1.485
		c0.88,0.339,1.955,0.508,3.225,0.508c1.185,0,2.209-0.152,3.072-0.457s1.574-0.787,2.133-1.447s0.973-1.523,1.244-2.59
		c0.271-1.066,0.406-2.361,0.406-3.885v-2.869c0-1.235-0.161-2.357-0.482-3.364c-0.322-1.007-0.745-1.946-1.27-2.818
		c-0.525-0.872-1.126-1.688-1.803-2.45c-0.677-0.762-1.363-1.515-2.057-2.26c-0.694-0.745-1.38-1.498-2.057-2.26
		c-0.677-0.762-1.278-1.565-1.803-2.412c-0.525-0.846-0.948-1.76-1.27-2.742c-0.322-0.981-0.482-2.065-0.482-3.25v-3.021h3.275
		v3.021c0,1.304,0.283,2.497,0.851,3.58c0.567,1.083,1.278,2.133,2.133,3.148c0.854,1.016,1.777,2.031,2.768,3.047
		s1.913,2.104,2.768,3.263c0.854,1.16,1.565,2.434,2.133,3.821c0.567,1.388,0.851,2.954,0.851,4.697V67.024z"/>
	<path fill="#F2F2F2" d="M355.405,67.126c-0.017,0.813-0.131,1.65-0.343,2.514c-0.212,0.863-0.533,1.706-0.965,2.526
		c-0.432,0.821-0.978,1.604-1.638,2.349c-0.66,0.745-1.439,1.393-2.336,1.942c-0.897,0.55-1.917,0.99-3.06,1.32
		s-2.417,0.495-3.821,0.495c-1.287,0-2.472-0.173-3.555-0.521c-1.083-0.347-2.069-0.808-2.958-1.384
		c-0.889-0.575-1.672-1.244-2.349-2.006c-0.677-0.762-1.244-1.557-1.701-2.387c-0.457-0.829-0.804-1.663-1.041-2.501
		c-0.237-0.838-0.355-1.621-0.355-2.349V64.13c0-1.473,0.258-2.898,0.774-4.278c0.516-1.379,1.303-2.615,2.361-3.707
		c1.058-1.092,2.395-1.98,4.012-2.666c1.616-0.686,3.533-1.07,5.751-1.155l2.539-5.104c0-0.423-0.114-0.91-0.343-1.46
		c-0.229-0.55-0.555-1.066-0.978-1.549c-0.423-0.482-0.923-0.889-1.498-1.219c-0.576-0.33-1.21-0.495-1.904-0.495
		c-1.727,0-3,0.326-3.821,0.978c-0.821,0.652-1.231,1.485-1.231,2.501v3.275h-3.174v-3.275c0-0.965,0.232-1.849,0.698-2.653
		c0.465-0.804,1.079-1.494,1.841-2.069c0.762-0.575,1.638-1.024,2.628-1.346c0.99-0.321,2.01-0.482,3.06-0.482
		c1.32,0,2.476,0.182,3.466,0.546c0.99,0.364,1.815,0.88,2.476,1.549c0.66,0.669,1.151,1.485,1.473,2.45
		c0.321,0.965,0.482,2.048,0.482,3.25l-2.488,5.408c0.863,0.271,1.773,0.711,2.729,1.32c0.956,0.609,1.832,1.375,2.628,2.298
		c0.795,0.923,1.447,1.998,1.955,3.225c0.508,1.228,0.753,2.603,0.736,4.126L355.405,67.126z M351.825,63.546
		c0-0.863-0.152-1.773-0.457-2.729c-0.305-0.956-0.762-1.836-1.371-2.641c-0.609-0.804-1.375-1.468-2.298-1.993
		c-0.923-0.524-1.993-0.787-3.212-0.787h-1.701c-1.253,0-2.37,0.208-3.352,0.622c-0.982,0.415-1.815,1.007-2.501,1.777
		c-0.686,0.771-1.21,1.701-1.574,2.793c-0.364,1.092-0.546,2.323-0.546,3.694v2.438c0,0.999,0.173,2.01,0.521,3.034
		c0.347,1.024,0.876,1.947,1.587,2.768c0.711,0.821,1.604,1.49,2.679,2.006c1.075,0.517,2.34,0.774,3.796,0.774
		c1.438,0,2.691-0.211,3.758-0.635c1.066-0.423,1.942-1.016,2.628-1.777s1.197-1.667,1.536-2.717c0.338-1.049,0.508-2.2,0.508-3.453
		V63.546z"/>
	<path fill="#F2F2F2" d="M381.126,67.024c0,7.499-3.47,11.248-10.41,11.248c-1.71,0-3.216-0.288-4.52-0.863
		c-1.304-0.575-2.391-1.358-3.263-2.349c-0.872-0.99-1.528-2.146-1.968-3.466c-0.44-1.32-0.66-2.717-0.66-4.189v-1.727
		c0-1.016,0.254-2.078,0.762-3.187c0.508-1.108,1.143-2.196,1.904-3.263l2.438,1.244c-0.254,0.474-0.479,0.957-0.673,1.447
		c-0.195,0.491-0.355,0.965-0.482,1.422s-0.225,0.885-0.292,1.282c-0.068,0.398-0.102,0.749-0.102,1.054v1.879
		c0,1.236,0.118,2.332,0.355,3.288c0.237,0.957,0.622,1.761,1.155,2.412c0.533,0.652,1.24,1.147,2.12,1.485
		c0.88,0.339,1.955,0.508,3.225,0.508c1.185,0,2.209-0.152,3.072-0.457s1.574-0.787,2.133-1.447s0.973-1.523,1.244-2.59
		c0.271-1.066,0.406-2.361,0.406-3.885v-2.869c0-1.235-0.161-2.357-0.482-3.364c-0.322-1.007-0.745-1.946-1.27-2.818
		c-0.525-0.872-1.126-1.688-1.803-2.45c-0.677-0.762-1.363-1.515-2.057-2.26c-0.694-0.745-1.38-1.498-2.057-2.26
		c-0.677-0.762-1.278-1.565-1.803-2.412c-0.525-0.846-0.948-1.76-1.27-2.742c-0.322-0.981-0.482-2.065-0.482-3.25v-3.021h3.275
		v3.021c0,1.304,0.283,2.497,0.851,3.58c0.567,1.083,1.278,2.133,2.133,3.148c0.854,1.016,1.777,2.031,2.768,3.047
		s1.913,2.104,2.768,3.263c0.854,1.16,1.565,2.434,2.133,3.821c0.567,1.388,0.851,2.954,0.851,4.697V67.024z"/>
	<path fill="#F2F2F2" d="M407.532,67.862c0,1.591-0.229,3.026-0.686,4.304c-0.457,1.278-1.122,2.37-1.993,3.275
		c-0.872,0.906-1.951,1.604-3.237,2.095c-1.287,0.491-2.768,0.736-4.443,0.736c-1.523,0-2.92-0.241-4.189-0.724
		s-2.37-1.176-3.301-2.082c-0.931-0.905-1.655-2.006-2.171-3.301c-0.517-1.295-0.774-2.746-0.774-4.354v-21.1
		c0-1.168,0.161-2.184,0.482-3.047c0.321-0.863,0.757-1.574,1.308-2.133c0.55-0.559,1.197-0.973,1.942-1.244
		c0.745-0.271,1.54-0.406,2.387-0.406c0.711,0,1.413,0.063,2.107,0.19c0.694,0.127,1.384,0.271,2.069,0.432
		c0.686,0.161,1.354,0.305,2.006,0.432c0.651,0.127,1.282,0.19,1.892,0.19c0.508,0,0.986-0.038,1.435-0.114
		c0.448-0.076,0.897-0.186,1.346-0.33c0.448-0.144,0.922-0.321,1.422-0.533c0.499-0.211,1.054-0.453,1.663-0.724v2.641
		c-1.117,0.677-2.158,1.16-3.123,1.447c-0.965,0.288-1.98,0.432-3.047,0.432c-0.626,0-1.231-0.051-1.815-0.152
		s-1.16-0.216-1.727-0.343c-0.567-0.127-1.139-0.241-1.714-0.343c-0.576-0.102-1.168-0.152-1.777-0.152
		c-0.66-0.017-1.223,0.072-1.688,0.267c-0.466,0.195-0.847,0.47-1.143,0.825c-0.296,0.355-0.512,0.774-0.647,1.257
		c-0.136,0.482-0.203,1.003-0.203,1.562v8.455c0.524-0.813,1.092-1.489,1.701-2.031c0.609-0.542,1.231-0.973,1.866-1.295
		c0.635-0.321,1.261-0.546,1.879-0.673c0.618-0.127,1.206-0.19,1.765-0.19c1.676,0,3.157,0.292,4.443,0.876
		c1.286,0.584,2.374,1.358,3.263,2.323s1.562,2.078,2.019,3.339c0.457,1.261,0.686,2.561,0.686,3.897V67.862z M404.003,61.718
		c0-1.083-0.144-2.09-0.432-3.021c-0.288-0.931-0.715-1.735-1.282-2.412c-0.567-0.677-1.278-1.206-2.133-1.587
		c-0.855-0.381-1.85-0.571-2.983-0.571c-0.406,0-0.859,0.013-1.358,0.038c-0.5,0.025-1.003,0.114-1.511,0.267
		s-1.003,0.385-1.485,0.698c-0.482,0.313-0.914,0.749-1.295,1.308s-0.686,1.274-0.914,2.146c-0.229,0.872-0.343,1.934-0.343,3.187
		v6.043c0,1.016,0.14,1.977,0.419,2.882c0.279,0.906,0.698,1.693,1.257,2.361c0.559,0.669,1.27,1.202,2.133,1.6
		c0.863,0.398,1.879,0.597,3.047,0.597c2.319,0,4.045-0.664,5.18-1.993c1.134-1.329,1.701-3.246,1.701-5.751V61.718z"/>
	<path fill="#F2F2F2" d="M433.151,68.015c0,1.574-0.25,2.996-0.749,4.266c-0.5,1.27-1.198,2.349-2.095,3.237
		c-0.897,0.889-1.972,1.57-3.225,2.044c-1.253,0.474-2.641,0.711-4.164,0.711c-1.71,0-3.225-0.275-4.545-0.825
		c-1.32-0.55-2.425-1.312-3.313-2.285c-0.889-0.973-1.562-2.12-2.019-3.44s-0.686-2.759-0.686-4.316v-5.357
		c0-1.27,0.229-2.552,0.686-3.847s1.13-2.467,2.019-3.517c0.889-1.049,1.993-1.904,3.313-2.564s2.835-0.99,4.545-0.99
		c0.575,0,1.181,0.055,1.815,0.165c0.635,0.11,1.261,0.326,1.879,0.647c0.618,0.322,1.21,0.766,1.777,1.333
		c0.567,0.567,1.062,1.308,1.485,2.222v-8.48c0-0.711-0.199-1.346-0.597-1.904c-0.398-0.559-0.914-1.032-1.549-1.422
		c-0.635-0.389-1.35-0.686-2.146-0.889c-0.796-0.203-1.6-0.305-2.412-0.305c-1.016,0-1.904,0.098-2.666,0.292
		c-0.762,0.195-1.396,0.453-1.904,0.774c-0.508,0.322-0.889,0.694-1.143,1.117c-0.254,0.423-0.381,0.872-0.381,1.346v2.92h-3.58
		v-2.92c0-0.88,0.275-1.718,0.825-2.514c0.55-0.795,1.278-1.498,2.184-2.107c0.905-0.609,1.942-1.092,3.11-1.447
		s2.37-0.533,3.605-0.533c1.303,0,2.556,0.182,3.758,0.546c1.202,0.364,2.264,0.88,3.187,1.549c0.922,0.669,1.659,1.469,2.209,2.399
		c0.55,0.931,0.825,1.964,0.825,3.098L433.151,68.015z M429.622,61.946c0-1.405-0.174-2.603-0.521-3.593
		c-0.347-0.99-0.825-1.798-1.435-2.425c-0.609-0.626-1.329-1.083-2.158-1.371c-0.83-0.288-1.727-0.432-2.691-0.432
		c-1.134,0-2.133,0.237-2.996,0.711c-0.863,0.474-1.587,1.088-2.171,1.841c-0.584,0.753-1.024,1.604-1.32,2.552
		c-0.296,0.948-0.444,1.888-0.444,2.818v5.357c0,1.202,0.165,2.285,0.495,3.25s0.804,1.794,1.422,2.488
		c0.618,0.694,1.367,1.228,2.247,1.6c0.88,0.373,1.87,0.559,2.971,0.559c2.149,0,3.787-0.681,4.913-2.044
		c1.125-1.362,1.688-3.313,1.688-5.853V61.946z"/>
	<path fill="#F2F2F2" d="M459.837,67.024c0,7.499-3.47,11.248-10.41,11.248c-1.71,0-3.216-0.288-4.52-0.863
		c-1.304-0.575-2.391-1.358-3.263-2.349c-0.872-0.99-1.528-2.146-1.968-3.466c-0.44-1.32-0.66-2.717-0.66-4.189v-1.727
		c0-1.016,0.254-2.078,0.762-3.187c0.508-1.108,1.143-2.196,1.904-3.263l2.438,1.244c-0.254,0.474-0.479,0.957-0.673,1.447
		c-0.195,0.491-0.355,0.965-0.482,1.422s-0.225,0.885-0.292,1.282c-0.068,0.398-0.102,0.749-0.102,1.054v1.879
		c0,1.236,0.118,2.332,0.355,3.288c0.237,0.957,0.622,1.761,1.155,2.412c0.533,0.652,1.24,1.147,2.12,1.485
		c0.88,0.339,1.955,0.508,3.225,0.508c1.185,0,2.209-0.152,3.072-0.457s1.574-0.787,2.133-1.447s0.973-1.523,1.244-2.59
		c0.271-1.066,0.406-2.361,0.406-3.885v-2.869c0-1.235-0.161-2.357-0.482-3.364c-0.322-1.007-0.745-1.946-1.27-2.818
		c-0.525-0.872-1.126-1.688-1.803-2.45c-0.677-0.762-1.363-1.515-2.057-2.26c-0.694-0.745-1.38-1.498-2.057-2.26
		c-0.677-0.762-1.278-1.565-1.803-2.412c-0.525-0.846-0.948-1.76-1.27-2.742c-0.322-0.981-0.482-2.065-0.482-3.25v-3.021h3.275
		v3.021c0,1.304,0.283,2.497,0.851,3.58c0.567,1.083,1.278,2.133,2.133,3.148c0.854,1.016,1.777,2.031,2.768,3.047
		s1.913,2.104,2.768,3.263c0.854,1.16,1.565,2.434,2.133,3.821c0.567,1.388,0.851,2.954,0.851,4.697V67.024z"/>
	<path fill="#F2F2F2" d="M486.243,67.862c0,1.591-0.229,3.026-0.686,4.304c-0.457,1.278-1.122,2.37-1.993,3.275
		c-0.872,0.906-1.951,1.604-3.237,2.095c-1.287,0.491-2.768,0.736-4.443,0.736c-1.523,0-2.92-0.241-4.189-0.724
		s-2.37-1.176-3.301-2.082c-0.931-0.905-1.655-2.006-2.171-3.301c-0.517-1.295-0.774-2.746-0.774-4.354v-21.1
		c0-1.168,0.161-2.184,0.482-3.047c0.321-0.863,0.757-1.574,1.308-2.133c0.55-0.559,1.197-0.973,1.942-1.244
		c0.745-0.271,1.54-0.406,2.387-0.406c0.711,0,1.413,0.063,2.107,0.19c0.694,0.127,1.384,0.271,2.069,0.432
		c0.686,0.161,1.354,0.305,2.006,0.432c0.651,0.127,1.282,0.19,1.892,0.19c0.508,0,0.986-0.038,1.435-0.114
		c0.448-0.076,0.897-0.186,1.346-0.33c0.448-0.144,0.922-0.321,1.422-0.533c0.499-0.211,1.054-0.453,1.663-0.724v2.641
		c-1.117,0.677-2.158,1.16-3.123,1.447c-0.965,0.288-1.98,0.432-3.047,0.432c-0.626,0-1.231-0.051-1.815-0.152
		s-1.16-0.216-1.727-0.343c-0.567-0.127-1.139-0.241-1.714-0.343c-0.576-0.102-1.168-0.152-1.777-0.152
		c-0.66-0.017-1.223,0.072-1.688,0.267c-0.466,0.195-0.847,0.47-1.143,0.825c-0.296,0.355-0.512,0.774-0.647,1.257
		c-0.136,0.482-0.203,1.003-0.203,1.562v8.455c0.524-0.813,1.092-1.489,1.701-2.031c0.609-0.542,1.231-0.973,1.866-1.295
		c0.635-0.321,1.261-0.546,1.879-0.673c0.618-0.127,1.206-0.19,1.765-0.19c1.676,0,3.157,0.292,4.443,0.876
		c1.286,0.584,2.374,1.358,3.263,2.323s1.562,2.078,2.019,3.339c0.457,1.261,0.686,2.561,0.686,3.897V67.862z M482.714,61.718
		c0-1.083-0.144-2.09-0.432-3.021c-0.288-0.931-0.715-1.735-1.282-2.412c-0.567-0.677-1.278-1.206-2.133-1.587
		c-0.855-0.381-1.85-0.571-2.983-0.571c-0.406,0-0.859,0.013-1.358,0.038c-0.5,0.025-1.003,0.114-1.511,0.267
		s-1.003,0.385-1.485,0.698c-0.482,0.313-0.914,0.749-1.295,1.308s-0.686,1.274-0.914,2.146c-0.229,0.872-0.343,1.934-0.343,3.187
		v6.043c0,1.016,0.14,1.977,0.419,2.882c0.279,0.906,0.698,1.693,1.257,2.361c0.559,0.669,1.27,1.202,2.133,1.6
		c0.863,0.398,1.879,0.597,3.047,0.597c2.319,0,4.045-0.664,5.18-1.993c1.134-1.329,1.701-3.246,1.701-5.751V61.718z"/>
	<path fill="#F2F2F2" d="M512.142,67.024c0,7.499-3.47,11.248-10.41,11.248c-1.71,0-3.216-0.288-4.52-0.863
		c-1.304-0.575-2.391-1.358-3.263-2.349c-0.872-0.99-1.528-2.146-1.968-3.466c-0.44-1.32-0.66-2.717-0.66-4.189v-1.727
		c0-1.016,0.254-2.078,0.762-3.187c0.508-1.108,1.143-2.196,1.904-3.263l2.438,1.244c-0.254,0.474-0.479,0.957-0.673,1.447
		c-0.195,0.491-0.355,0.965-0.482,1.422s-0.225,0.885-0.292,1.282c-0.068,0.398-0.102,0.749-0.102,1.054v1.879
		c0,1.236,0.118,2.332,0.355,3.288c0.237,0.957,0.622,1.761,1.155,2.412c0.533,0.652,1.24,1.147,2.12,1.485
		c0.88,0.339,1.955,0.508,3.225,0.508c1.185,0,2.209-0.152,3.072-0.457s1.574-0.787,2.133-1.447s0.973-1.523,1.244-2.59
		c0.271-1.066,0.406-2.361,0.406-3.885v-2.869c0-1.235-0.161-2.357-0.482-3.364c-0.322-1.007-0.745-1.946-1.27-2.818
		c-0.525-0.872-1.126-1.688-1.803-2.45c-0.677-0.762-1.363-1.515-2.057-2.26c-0.694-0.745-1.38-1.498-2.057-2.26
		c-0.677-0.762-1.278-1.565-1.803-2.412c-0.525-0.846-0.948-1.76-1.27-2.742c-0.322-0.981-0.482-2.065-0.482-3.25v-3.021h3.275
		v3.021c0,1.304,0.283,2.497,0.851,3.58c0.567,1.083,1.278,2.133,2.133,3.148c0.854,1.016,1.777,2.031,2.768,3.047
		s1.913,2.104,2.768,3.263c0.854,1.16,1.565,2.434,2.133,3.821c0.567,1.388,0.851,2.954,0.851,4.697V67.024z"/>
	<path fill="#F2F2F2" d="M553.274,61.769c0,1.253-0.081,2.526-0.241,3.821c-0.161,1.295-0.415,2.556-0.762,3.783
		c-0.347,1.228-0.796,2.378-1.346,3.453c-0.55,1.075-1.21,2.019-1.98,2.831c-0.771,0.813-1.659,1.452-2.666,1.917
		c-1.007,0.466-2.146,0.698-3.415,0.698v-3.021c1.134,0,2.133-0.376,2.996-1.13c0.863-0.753,1.578-1.743,2.146-2.971
		c0.567-1.227,0.994-2.628,1.282-4.202c0.288-1.574,0.432-3.19,0.432-4.85v-7.338c0-0.965-0.017-1.938-0.051-2.92
		c-0.034-0.981-0.114-1.93-0.241-2.844s-0.313-1.765-0.559-2.552c-0.246-0.787-0.584-1.473-1.016-2.057s-0.969-1.045-1.612-1.384
		c-0.644-0.338-1.422-0.508-2.336-0.508c-1.456,0-2.577,0.203-3.364,0.609s-1.367,0.936-1.739,1.587
		c-0.373,0.652-0.593,1.388-0.66,2.209c-0.068,0.821-0.102,1.638-0.102,2.45v14.879c0,1.71-0.174,3.398-0.521,5.065
		c-0.347,1.667-0.918,3.17-1.714,4.507c-0.796,1.337-1.841,2.417-3.136,3.237c-1.295,0.821-2.891,1.231-4.786,1.231
		c-2.031,0-3.703-0.423-5.015-1.27c-1.312-0.846-2.345-1.963-3.098-3.352c-0.753-1.388-1.278-2.962-1.574-4.723
		c-0.296-1.76-0.444-3.555-0.444-5.383v-10.41c0-1.1,0.055-2.2,0.165-3.301c0.11-1.1,0.305-2.154,0.584-3.161
		c0.279-1.007,0.664-1.946,1.155-2.818c0.491-0.872,1.108-1.629,1.854-2.272c0.745-0.643,1.642-1.151,2.691-1.523
		c1.049-0.372,2.276-0.567,3.682-0.584c0.711-0.017,1.468,0.03,2.272,0.14c0.804,0.11,1.591,0.36,2.361,0.749
		c0.77,0.39,1.494,0.957,2.171,1.701c0.677,0.745,1.235,1.735,1.676,2.971c0.457-1.286,0.939-2.302,1.447-3.047
		c0.508-0.745,1.062-1.308,1.663-1.688c0.601-0.381,1.265-0.622,1.993-0.724c0.728-0.102,1.54-0.152,2.438-0.152
		c1.388,0,2.581,0.203,3.58,0.609c0.999,0.406,1.845,0.961,2.539,1.663c0.694,0.703,1.257,1.528,1.688,2.476
		c0.432,0.948,0.762,1.955,0.99,3.021s0.381,2.171,0.457,3.313s0.114,2.264,0.114,3.364V61.769z M534.485,49.353
		c0-0.813-0.119-1.629-0.355-2.45c-0.237-0.821-0.614-1.557-1.13-2.209c-0.517-0.651-1.193-1.181-2.031-1.587
		s-1.866-0.609-3.085-0.609c-1.405,0-2.539,0.347-3.402,1.041c-0.863,0.694-1.532,1.596-2.006,2.704
		c-0.474,1.109-0.792,2.357-0.952,3.745c-0.161,1.388-0.241,2.768-0.241,4.139v9.014c0,2.015,0.097,3.775,0.292,5.281
		c0.194,1.507,0.542,2.768,1.041,3.783c0.499,1.016,1.172,1.777,2.019,2.285c0.846,0.508,1.93,0.762,3.25,0.762
		c1.219,0,2.247-0.25,3.085-0.749c0.838-0.499,1.515-1.219,2.031-2.158c0.516-0.939,0.893-2.078,1.13-3.415
		c0.237-1.337,0.355-2.852,0.355-4.545V49.353z"/>
	<path fill="#F2F2F2" d="M605.63,53.974c0,0.711-0.094,1.498-0.279,2.361c-0.188,0.863-0.445,1.752-0.775,2.666
		s-0.732,1.828-1.205,2.742c-0.475,0.914-1,1.777-1.574,2.59c-0.576,0.813-1.203,1.553-1.879,2.222
		c-0.678,0.669-1.381,1.206-2.107,1.612l-2.234-2.031c0.98-0.728,1.869-1.616,2.666-2.666c0.795-1.049,1.473-2.146,2.031-3.288
		s0.99-2.281,1.295-3.415c0.305-1.134,0.457-2.149,0.457-3.047v-3.174c0-1.27-0.145-2.391-0.432-3.364
		c-0.289-0.973-0.682-1.79-1.182-2.45c-0.498-0.66-1.082-1.155-1.752-1.485c-0.668-0.33-1.383-0.495-2.145-0.495
		c-1.203,0-2.184,0.182-2.945,0.546c-0.762,0.364-1.355,0.868-1.777,1.511c-0.424,0.644-0.711,1.396-0.863,2.26
		s-0.229,1.794-0.229,2.793v7.871h-3.275V49.86c0-0.965-0.068-1.892-0.203-2.78c-0.137-0.889-0.391-1.671-0.762-2.349
		c-0.373-0.677-0.902-1.219-1.588-1.625s-1.57-0.609-2.652-0.609c-1,0-1.829,0.208-2.489,0.622c-0.66,0.415-1.193,0.961-1.6,1.638
		c-0.406,0.677-0.694,1.447-0.863,2.311c-0.169,0.863-0.254,1.744-0.254,2.641v8.023h-3.326v-8.023c0-0.897-0.042-1.765-0.127-2.603
		c-0.085-0.838-0.309-1.578-0.673-2.222c-0.364-0.643-0.927-1.159-1.688-1.549c-0.762-0.389-1.82-0.584-3.174-0.584
		c-0.999,0-1.85,0.225-2.552,0.673c-0.703,0.449-1.282,1.066-1.739,1.854s-0.792,1.706-1.003,2.755
		c-0.212,1.05-0.317,2.184-0.317,3.402l0.051,3.479c-0.017,1.93,0.3,3.75,0.952,5.459c0.651,1.71,1.578,3.284,2.78,4.723
		c1.202,1.439,2.641,2.729,4.316,3.872s3.529,2.112,5.561,2.907c2.031,0.796,4.202,1.405,6.512,1.828
		c2.311,0.423,4.701,0.635,7.174,0.635h3.631v3.402h-3.529c-3.336,0-6.408-0.3-9.217-0.901c-2.81-0.601-5.357-1.43-7.643-2.488
		c-2.285-1.058-4.295-2.311-6.03-3.758c-1.735-1.447-3.195-3.017-4.38-4.71c-1.185-1.692-2.086-3.47-2.704-5.332
		c-0.618-1.862-0.944-3.741-0.978-5.637l-0.051-3.631c0-1.642,0.178-3.174,0.533-4.596s0.905-2.649,1.65-3.682
		c0.745-1.032,1.692-1.845,2.844-2.438c1.151-0.592,2.53-0.889,4.139-0.889c0.846,0,1.621,0.072,2.323,0.216
		c0.702,0.144,1.358,0.415,1.968,0.813c0.609,0.398,1.189,0.952,1.739,1.663c0.55,0.711,1.087,1.634,1.612,2.768
		c0.355-1.134,0.745-2.069,1.168-2.806c0.423-0.736,0.901-1.32,1.435-1.752s1.125-0.732,1.777-0.901
		c0.651-0.169,1.375-0.254,2.171-0.254c0.762,0,1.463,0.085,2.107,0.254c0.643,0.169,1.244,0.461,1.803,0.876
		c0.559,0.415,1.07,0.974,1.535,1.676c0.467,0.703,0.902,1.587,1.309,2.653c0.473-1.066,1.002-1.938,1.586-2.615
		c0.584-0.677,1.203-1.206,1.854-1.587c0.652-0.381,1.32-0.643,2.006-0.787c0.686-0.144,1.367-0.216,2.045-0.216
		c1.27,0,2.463,0.233,3.58,0.698c1.117,0.466,2.09,1.151,2.92,2.057c0.828,0.906,1.48,2.019,1.955,3.339
		c0.473,1.32,0.711,2.827,0.711,4.52V53.974z"/>
	<path fill="#F2F2F2" d="M631.25,69.538c0,1.541-0.283,2.861-0.851,3.961c-0.567,1.101-1.329,2.006-2.285,2.717
		s-2.061,1.231-3.313,1.562s-2.564,0.495-3.936,0.495c-1.507,0-2.898-0.232-4.177-0.698c-1.278-0.465-2.378-1.113-3.301-1.942
		c-0.923-0.829-1.642-1.811-2.158-2.945c-0.517-1.134-0.774-2.361-0.774-3.682c0-1.235,0.123-2.323,0.368-3.263
		s0.584-1.786,1.016-2.539c0.432-0.753,0.939-1.422,1.523-2.006s1.215-1.138,1.892-1.663l2.184,2.184
		c-0.644,0.593-1.185,1.122-1.625,1.587c-0.44,0.466-0.796,0.961-1.066,1.485c-0.271,0.525-0.466,1.122-0.584,1.79
		c-0.118,0.669-0.178,1.494-0.178,2.476c0,1.98,0.559,3.508,1.676,4.583c1.117,1.075,2.853,1.612,5.205,1.612
		c1.032,0,1.972-0.135,2.818-0.406c0.847-0.271,1.57-0.66,2.171-1.168s1.063-1.121,1.384-1.841c0.321-0.719,0.482-1.527,0.482-2.425
		V47.854c0-0.795-0.14-1.523-0.419-2.184s-0.673-1.223-1.181-1.688c-0.508-0.465-1.126-0.829-1.854-1.092
		c-0.728-0.262-1.549-0.394-2.463-0.394c-0.931,0-1.781,0.127-2.552,0.381s-1.435,0.614-1.993,1.079
		c-0.559,0.466-0.99,1.033-1.295,1.701c-0.305,0.669-0.457,1.418-0.457,2.247c0,0.576,0.076,1.155,0.229,1.739
		s0.474,1.266,0.965,2.044l-2.615,1.98c-1.27-1.692-1.904-3.614-1.904-5.764c0-1.27,0.22-2.425,0.66-3.466s1.066-1.934,1.879-2.679
		c0.813-0.745,1.79-1.32,2.933-1.727s2.416-0.609,3.821-0.609c1.371,0,2.653,0.182,3.847,0.546c1.193,0.364,2.23,0.901,3.11,1.612
		s1.57,1.591,2.069,2.641c0.499,1.05,0.749,2.26,0.749,3.631V69.538z"/>
	<path fill="#F2F2F2" d="M643.691,39.425c0,0.711,0.174,1.299,0.521,1.765c0.347,0.466,0.787,0.868,1.32,1.206
		c0.533,0.339,1.104,0.647,1.714,0.927s1.181,0.58,1.714,0.901c0.533,0.322,0.974,0.698,1.32,1.13s0.521,0.969,0.521,1.612
		c0,0.508-0.025,0.961-0.076,1.358c-0.051,0.398-0.131,0.779-0.241,1.143c-0.11,0.364-0.25,0.728-0.419,1.092
		c-0.169,0.364-0.372,0.774-0.609,1.231c1.371,0.322,2.564,0.863,3.58,1.625s1.866,1.638,2.552,2.628s1.197,2.04,1.536,3.148
		c0.339,1.109,0.508,2.163,0.508,3.161l0.051,5.662c0,1.05-0.225,2.171-0.673,3.364s-1.108,2.302-1.98,3.326
		c-0.872,1.024-1.959,1.875-3.263,2.552c-1.304,0.677-2.802,1.016-4.494,1.016c-1.71,0-3.216-0.313-4.52-0.939
		c-1.304-0.626-2.391-1.435-3.263-2.425s-1.527-2.095-1.968-3.313s-0.66-2.429-0.66-3.631v-5.561c0-1.134,0.169-2.276,0.508-3.428
		c0.339-1.151,0.885-2.217,1.638-3.199c0.753-0.981,1.718-1.828,2.895-2.539s2.603-1.193,4.278-1.447
		c0.254-0.609,0.453-1.125,0.597-1.549c0.144-0.423,0.254-0.808,0.33-1.155c0.076-0.347,0.123-0.673,0.14-0.978
		s0.025-0.651,0.025-1.041c-0.017-0.423-0.203-0.787-0.559-1.092s-0.8-0.601-1.333-0.889c-0.533-0.288-1.104-0.584-1.714-0.889
		s-1.177-0.673-1.701-1.104s-0.961-0.939-1.308-1.523s-0.521-1.299-0.521-2.146H643.691z M640.416,67.405
		c0,1.016,0.131,1.998,0.394,2.945c0.263,0.948,0.673,1.786,1.231,2.514c0.559,0.728,1.27,1.308,2.133,1.739
		s1.896,0.647,3.098,0.647c1.253,0,2.314-0.237,3.187-0.711c0.872-0.474,1.578-1.079,2.12-1.815s0.936-1.549,1.181-2.438
		s0.368-1.748,0.368-2.577v-5.154c0-0.88-0.14-1.79-0.419-2.729s-0.702-1.79-1.27-2.552s-1.282-1.388-2.146-1.879
		c-0.863-0.491-1.87-0.736-3.021-0.736c-1.235,0-2.289,0.216-3.161,0.647s-1.578,1.012-2.12,1.739
		c-0.542,0.728-0.939,1.583-1.193,2.564c-0.254,0.982-0.381,2.015-0.381,3.098V67.405z"/>
	<path fill="#F2F2F2" d="M709.529,53.974c0,0.711-0.093,1.498-0.279,2.361s-0.444,1.752-0.774,2.666s-0.732,1.828-1.206,2.742
		s-0.999,1.777-1.574,2.59s-1.202,1.553-1.879,2.222c-0.677,0.669-1.38,1.206-2.107,1.612l-2.234-2.031
		c0.981-0.728,1.87-1.616,2.666-2.666c0.796-1.049,1.473-2.146,2.031-3.288s0.99-2.281,1.295-3.415
		c0.305-1.134,0.457-2.149,0.457-3.047v-3.174c0-1.27-0.144-2.391-0.432-3.364c-0.288-0.973-0.682-1.79-1.181-2.45
		s-1.083-1.155-1.752-1.485s-1.384-0.495-2.146-0.495c-1.202,0-2.184,0.182-2.945,0.546c-0.762,0.364-1.354,0.868-1.777,1.511
		c-0.423,0.644-0.711,1.396-0.863,2.26s-0.229,1.794-0.229,2.793v7.871h-3.275V49.86c0-0.965-0.067-1.892-0.203-2.78
		s-0.39-1.671-0.762-2.349c-0.372-0.677-0.901-1.219-1.587-1.625s-1.57-0.609-2.653-0.609c-0.999,0-1.828,0.208-2.488,0.622
		c-0.66,0.415-1.193,0.961-1.6,1.638c-0.406,0.677-0.694,1.447-0.863,2.311s-0.254,1.744-0.254,2.641v8.023h-3.326v-8.023
		c0-0.897-0.042-1.765-0.127-2.603s-0.309-1.578-0.673-2.222c-0.364-0.643-0.927-1.159-1.688-1.549
		c-0.762-0.389-1.819-0.584-3.174-0.584c-0.999,0-1.85,0.225-2.552,0.673c-0.702,0.449-1.282,1.066-1.739,1.854
		s-0.791,1.706-1.003,2.755c-0.212,1.05-0.317,2.184-0.317,3.402l0.051,3.479c-0.017,1.93,0.301,3.75,0.952,5.459
		c0.651,1.71,1.578,3.284,2.78,4.723c1.202,1.439,2.641,2.729,4.316,3.872s3.529,2.112,5.561,2.907
		c2.031,0.796,4.202,1.405,6.513,1.828c2.311,0.423,4.701,0.635,7.173,0.635h3.631v3.402h-3.529c-3.335,0-6.407-0.3-9.217-0.901
		c-2.81-0.601-5.357-1.43-7.643-2.488c-2.285-1.058-4.295-2.311-6.03-3.758s-3.195-3.017-4.38-4.71
		c-1.185-1.692-2.086-3.47-2.704-5.332c-0.618-1.862-0.943-3.741-0.978-5.637l-0.051-3.631c0-1.642,0.178-3.174,0.533-4.596
		s0.905-2.649,1.65-3.682c0.745-1.032,1.692-1.845,2.844-2.438c1.151-0.592,2.53-0.889,4.139-0.889c0.847,0,1.621,0.072,2.323,0.216
		c0.702,0.144,1.358,0.415,1.968,0.813c0.609,0.398,1.189,0.952,1.739,1.663s1.088,1.634,1.612,2.768
		c0.355-1.134,0.745-2.069,1.168-2.806s0.901-1.32,1.435-1.752s1.126-0.732,1.777-0.901c0.651-0.169,1.375-0.254,2.171-0.254
		c0.762,0,1.464,0.085,2.107,0.254c0.644,0.169,1.244,0.461,1.803,0.876c0.559,0.415,1.07,0.974,1.536,1.676
		c0.466,0.703,0.901,1.587,1.308,2.653c0.474-1.066,1.003-1.938,1.587-2.615c0.584-0.677,1.202-1.206,1.854-1.587
		s1.32-0.643,2.006-0.787c0.686-0.144,1.367-0.216,2.044-0.216c1.27,0,2.463,0.233,3.58,0.698c1.117,0.466,2.091,1.151,2.92,2.057
		c0.829,0.906,1.481,2.019,1.955,3.339s0.711,2.827,0.711,4.52V53.974z"/>
	<path fill="#F2F2F2" d="M747.792,54.558c0-1.727-0.051-3.326-0.152-4.799s-0.364-2.746-0.787-3.821
		c-0.423-1.075-1.054-1.917-1.892-2.526s-1.993-0.914-3.466-0.914c-4.231,0-6.348,2.514-6.348,7.541v15.641h-3.529V50.038
		c0-2.641-0.524-4.558-1.574-5.751s-2.657-1.79-4.824-1.79c-1.371,0-2.467,0.305-3.288,0.914s-1.456,1.46-1.904,2.552
		s-0.745,2.391-0.889,3.897c-0.144,1.507-0.216,3.157-0.216,4.951v6.652c0,1.101,0.055,2.205,0.165,3.313
		c0.11,1.109,0.279,2.175,0.508,3.199c0.229,1.024,0.524,1.977,0.889,2.856c0.364,0.88,0.8,1.65,1.308,2.311
		s1.096,1.177,1.765,1.549c0.669,0.373,1.418,0.559,2.247,0.559v3.021c-1.388,0-2.611-0.237-3.669-0.711
		c-1.058-0.474-1.972-1.117-2.742-1.93s-1.418-1.765-1.942-2.856s-0.943-2.26-1.257-3.504s-0.533-2.522-0.66-3.834
		c-0.127-1.312-0.19-2.603-0.19-3.872v-6.754c0-1.27,0.042-2.53,0.127-3.783c0.085-1.252,0.254-2.446,0.508-3.58
		c0.254-1.134,0.605-2.192,1.054-3.174c0.448-0.981,1.041-1.832,1.777-2.552c0.736-0.719,1.634-1.282,2.691-1.688
		s2.314-0.609,3.771-0.609c1.05,0,1.984,0.127,2.806,0.381s1.549,0.622,2.184,1.104s1.193,1.071,1.676,1.765
		c0.482,0.694,0.918,1.481,1.308,2.361c0.339-0.88,0.745-1.667,1.219-2.361c0.474-0.694,1.041-1.282,1.701-1.765
		s1.426-0.851,2.298-1.104s1.883-0.381,3.034-0.381c1.388,0,2.603,0.199,3.644,0.597c1.041,0.398,1.926,0.948,2.653,1.65
		c0.728,0.703,1.329,1.532,1.803,2.488c0.474,0.957,0.847,1.989,1.117,3.098c0.271,1.109,0.457,2.272,0.559,3.491
		s0.152,2.438,0.152,3.656l-0.051,7.16c0,1.202-0.072,2.45-0.216,3.745s-0.381,2.561-0.711,3.796
		c-0.33,1.236-0.758,2.408-1.282,3.517c-0.524,1.109-1.168,2.082-1.93,2.92s-1.654,1.502-2.679,1.993
		c-1.024,0.491-2.196,0.736-3.517,0.736v-3.021c1.134,0,2.124-0.402,2.971-1.206c0.847-0.804,1.549-1.862,2.107-3.174
		c0.559-1.312,0.978-2.801,1.257-4.469c0.279-1.667,0.419-3.364,0.419-5.091V54.558z"/>
	<path fill="#F2F2F2" d="M787.224,68.065c0,1.405-0.232,2.726-0.698,3.961c-0.466,1.236-1.143,2.319-2.031,3.25
		c-0.889,0.931-1.98,1.663-3.275,2.196s-2.764,0.8-4.405,0.8c-1.574,0-3.005-0.262-4.291-0.787
		c-1.286-0.524-2.378-1.202-3.275-2.031c-0.897-0.829-1.591-1.756-2.082-2.78c-0.491-1.024-0.736-2.035-0.736-3.034v-2.234
		c0-0.575,0.098-1.151,0.292-1.727c0.194-0.575,0.457-1.121,0.787-1.638c0.33-0.516,0.707-0.99,1.13-1.422s0.863-0.8,1.32-1.104
		l1.879,2.133c-0.677,0.525-1.159,1.177-1.447,1.955c-0.288,0.779-0.432,1.532-0.432,2.26v1.193c0,0.745,0.14,1.485,0.419,2.222
		s0.702,1.401,1.27,1.993c0.567,0.593,1.282,1.071,2.146,1.435c0.863,0.364,1.87,0.546,3.021,0.546c1.27,0,2.345-0.182,3.225-0.546
		c0.88-0.364,1.591-0.872,2.133-1.523c0.542-0.651,0.931-1.413,1.168-2.285c0.237-0.872,0.355-1.815,0.355-2.831v-2.539
		c0-1.032-0.14-2.035-0.419-3.009c-0.279-0.973-0.669-1.836-1.168-2.59c-0.499-0.753-1.096-1.354-1.79-1.803
		c-0.694-0.448-1.456-0.673-2.285-0.673h-4.951v-3.047h4.723c0.66,0,1.286-0.102,1.879-0.305s1.113-0.508,1.562-0.914
		s0.804-0.91,1.066-1.511c0.263-0.601,0.394-1.308,0.394-2.12v-1.828c0-0.643-0.14-1.278-0.419-1.904
		c-0.279-0.626-0.644-1.185-1.092-1.676c-0.448-0.491-0.961-0.889-1.536-1.193s-1.159-0.457-1.752-0.457v-3.072
		c0.863,0,1.781,0.208,2.755,0.622c0.974,0.415,1.875,0.99,2.704,1.727s1.515,1.612,2.057,2.628s0.813,2.125,0.813,3.326v1.092
		c0,0.999-0.123,1.875-0.368,2.628c-0.245,0.753-0.593,1.414-1.041,1.98c-0.448,0.567-0.994,1.05-1.638,1.447
		c-0.644,0.398-1.362,0.741-2.158,1.028c1.202,0.373,2.2,0.868,2.996,1.485c0.796,0.618,1.431,1.337,1.904,2.158
		c0.474,0.821,0.809,1.735,1.003,2.742c0.194,1.007,0.292,2.086,0.292,3.237V68.065z"/>
	<path fill="#F2F2F2" d="M825.488,54.558c0-1.727-0.051-3.326-0.152-4.799s-0.364-2.746-0.787-3.821
		c-0.423-1.075-1.054-1.917-1.892-2.526s-1.993-0.914-3.466-0.914c-4.231,0-6.348,2.514-6.348,7.541v15.641h-3.529V50.038
		c0-2.641-0.524-4.558-1.574-5.751s-2.657-1.79-4.824-1.79c-1.371,0-2.467,0.305-3.288,0.914s-1.456,1.46-1.904,2.552
		s-0.745,2.391-0.889,3.897c-0.144,1.507-0.216,3.157-0.216,4.951v6.652c0,1.101,0.055,2.205,0.165,3.313
		c0.11,1.109,0.279,2.175,0.508,3.199c0.229,1.024,0.524,1.977,0.889,2.856c0.364,0.88,0.8,1.65,1.308,2.311
		s1.096,1.177,1.765,1.549c0.669,0.373,1.418,0.559,2.247,0.559v3.021c-1.388,0-2.611-0.237-3.669-0.711
		c-1.058-0.474-1.972-1.117-2.742-1.93s-1.418-1.765-1.942-2.856s-0.943-2.26-1.257-3.504s-0.533-2.522-0.66-3.834
		c-0.127-1.312-0.19-2.603-0.19-3.872v-6.754c0-1.27,0.042-2.53,0.127-3.783c0.085-1.252,0.254-2.446,0.508-3.58
		c0.254-1.134,0.605-2.192,1.054-3.174c0.448-0.981,1.041-1.832,1.777-2.552c0.736-0.719,1.634-1.282,2.691-1.688
		s2.314-0.609,3.771-0.609c1.05,0,1.984,0.127,2.806,0.381s1.549,0.622,2.184,1.104s1.193,1.071,1.676,1.765
		c0.482,0.694,0.918,1.481,1.308,2.361c0.339-0.88,0.745-1.667,1.219-2.361c0.474-0.694,1.041-1.282,1.701-1.765
		s1.426-0.851,2.298-1.104s1.883-0.381,3.034-0.381c1.388,0,2.603,0.199,3.644,0.597c1.041,0.398,1.926,0.948,2.653,1.65
		c0.728,0.703,1.329,1.532,1.803,2.488c0.474,0.957,0.847,1.989,1.117,3.098c0.271,1.109,0.457,2.272,0.559,3.491
		s0.152,2.438,0.152,3.656l-0.051,7.16c0,1.202-0.072,2.45-0.216,3.745s-0.381,2.561-0.711,3.796
		c-0.33,1.236-0.758,2.408-1.282,3.517c-0.524,1.109-1.168,2.082-1.93,2.92s-1.654,1.502-2.679,1.993
		c-1.024,0.491-2.196,0.736-3.517,0.736v-3.021c1.134,0,2.124-0.402,2.971-1.206c0.847-0.804,1.549-1.862,2.107-3.174
		c0.559-1.312,0.978-2.801,1.257-4.469c0.279-1.667,0.419-3.364,0.419-5.091V54.558z"/>
	<path fill="#F2F2F2" d="M881.246,53.974c0,0.711-0.093,1.498-0.279,2.361s-0.444,1.752-0.774,2.666s-0.732,1.828-1.206,2.742
		s-0.999,1.777-1.574,2.59s-1.202,1.553-1.879,2.222c-0.677,0.669-1.38,1.206-2.107,1.612l-2.234-2.031
		c0.981-0.728,1.87-1.616,2.666-2.666c0.796-1.049,1.473-2.146,2.031-3.288s0.99-2.281,1.295-3.415
		c0.305-1.134,0.457-2.149,0.457-3.047v-3.174c0-1.27-0.144-2.391-0.432-3.364c-0.288-0.973-0.682-1.79-1.181-2.45
		s-1.083-1.155-1.752-1.485s-1.384-0.495-2.146-0.495c-1.202,0-2.184,0.182-2.945,0.546c-0.762,0.364-1.354,0.868-1.777,1.511
		c-0.423,0.644-0.711,1.396-0.863,2.26s-0.229,1.794-0.229,2.793v7.871h-3.275V49.86c0-0.965-0.067-1.892-0.203-2.78
		s-0.39-1.671-0.762-2.349c-0.372-0.677-0.901-1.219-1.587-1.625s-1.57-0.609-2.653-0.609c-0.999,0-1.828,0.208-2.488,0.622
		c-0.66,0.415-1.193,0.961-1.6,1.638c-0.406,0.677-0.694,1.447-0.863,2.311s-0.254,1.744-0.254,2.641v8.023h-3.326v-8.023
		c0-0.897-0.042-1.765-0.127-2.603s-0.309-1.578-0.673-2.222c-0.364-0.643-0.927-1.159-1.688-1.549
		c-0.762-0.389-1.819-0.584-3.174-0.584c-0.999,0-1.85,0.225-2.552,0.673c-0.702,0.449-1.282,1.066-1.739,1.854
		s-0.791,1.706-1.003,2.755c-0.212,1.05-0.317,2.184-0.317,3.402l0.051,3.479c-0.017,1.93,0.301,3.75,0.952,5.459
		c0.651,1.71,1.578,3.284,2.78,4.723c1.202,1.439,2.641,2.729,4.316,3.872s3.529,2.112,5.561,2.907
		c2.031,0.796,4.202,1.405,6.513,1.828c2.311,0.423,4.701,0.635,7.173,0.635h3.631v3.402h-3.529c-3.335,0-6.407-0.3-9.217-0.901
		c-2.81-0.601-5.357-1.43-7.643-2.488c-2.285-1.058-4.295-2.311-6.03-3.758s-3.195-3.017-4.38-4.71
		c-1.185-1.692-2.086-3.47-2.704-5.332c-0.618-1.862-0.943-3.741-0.978-5.637l-0.051-3.631c0-1.642,0.178-3.174,0.533-4.596
		s0.905-2.649,1.65-3.682c0.745-1.032,1.692-1.845,2.844-2.438c1.151-0.592,2.53-0.889,4.139-0.889c0.847,0,1.621,0.072,2.323,0.216
		c0.702,0.144,1.358,0.415,1.968,0.813c0.609,0.398,1.189,0.952,1.739,1.663s1.088,1.634,1.612,2.768
		c0.355-1.134,0.745-2.069,1.168-2.806s0.901-1.32,1.435-1.752s1.126-0.732,1.777-0.901c0.651-0.169,1.375-0.254,2.171-0.254
		c0.762,0,1.464,0.085,2.107,0.254c0.644,0.169,1.244,0.461,1.803,0.876c0.559,0.415,1.07,0.974,1.536,1.676
		c0.466,0.703,0.901,1.587,1.308,2.653c0.474-1.066,1.003-1.938,1.587-2.615c0.584-0.677,1.202-1.206,1.854-1.587
		s1.32-0.643,2.006-0.787c0.686-0.144,1.367-0.216,2.044-0.216c1.27,0,2.463,0.233,3.58,0.698c1.117,0.466,2.091,1.151,2.92,2.057
		c0.829,0.906,1.481,2.019,1.955,3.339s0.711,2.827,0.711,4.52V53.974z"/>
	<path fill="#F2F2F2" d="M906.865,69.538c0,1.541-0.283,2.861-0.851,3.961c-0.567,1.101-1.329,2.006-2.285,2.717
		s-2.061,1.231-3.313,1.562s-2.564,0.495-3.936,0.495c-1.507,0-2.898-0.232-4.177-0.698c-1.278-0.465-2.378-1.113-3.301-1.942
		c-0.923-0.829-1.642-1.811-2.158-2.945c-0.517-1.134-0.774-2.361-0.774-3.682c0-1.235,0.123-2.323,0.368-3.263
		s0.584-1.786,1.016-2.539c0.432-0.753,0.939-1.422,1.523-2.006s1.215-1.138,1.892-1.663l2.184,2.184
		c-0.644,0.593-1.185,1.122-1.625,1.587c-0.44,0.466-0.796,0.961-1.066,1.485c-0.271,0.525-0.466,1.122-0.584,1.79
		c-0.118,0.669-0.178,1.494-0.178,2.476c0,1.98,0.559,3.508,1.676,4.583c1.117,1.075,2.853,1.612,5.205,1.612
		c1.032,0,1.972-0.135,2.818-0.406c0.847-0.271,1.57-0.66,2.171-1.168s1.063-1.121,1.384-1.841c0.321-0.719,0.482-1.527,0.482-2.425
		V47.854c0-0.795-0.14-1.523-0.419-2.184s-0.673-1.223-1.181-1.688c-0.508-0.465-1.126-0.829-1.854-1.092
		c-0.728-0.262-1.549-0.394-2.463-0.394c-0.931,0-1.781,0.127-2.552,0.381s-1.435,0.614-1.993,1.079
		c-0.559,0.466-0.99,1.033-1.295,1.701c-0.305,0.669-0.457,1.418-0.457,2.247c0,0.576,0.076,1.155,0.229,1.739
		s0.474,1.266,0.965,2.044l-2.615,1.98c-1.27-1.692-1.904-3.614-1.904-5.764c0-1.27,0.22-2.425,0.66-3.466s1.066-1.934,1.879-2.679
		c0.813-0.745,1.79-1.32,2.933-1.727s2.416-0.609,3.821-0.609c1.371,0,2.653,0.182,3.847,0.546c1.193,0.364,2.23,0.901,3.11,1.612
		s1.57,1.591,2.069,2.641c0.499,1.05,0.749,2.26,0.749,3.631V69.538z"/>
	<path fill="#F2F2F2" d="M912.476,45.239h7.592v-0.051v-5.764h3.275v5.764v0.051h8.912v3.072h-8.582
		c0.271,1.32,0.698,2.455,1.282,3.402c0.584,0.948,1.231,1.807,1.942,2.577c0.711,0.771,1.443,1.507,2.196,2.209
		c0.753,0.703,1.443,1.469,2.069,2.298c0.626,0.83,1.139,1.777,1.536,2.844s0.597,2.345,0.597,3.834v2.742
		c0,1.371-0.225,2.666-0.673,3.885s-1.108,2.285-1.98,3.199s-1.951,1.638-3.237,2.171s-2.776,0.8-4.469,0.8
		c-1.727,0-3.241-0.326-4.545-0.978c-1.304-0.651-2.396-1.473-3.275-2.463s-1.54-2.061-1.98-3.212
		c-0.44-1.151-0.66-2.226-0.66-3.225v-3.174c0-0.643,0.174-1.32,0.521-2.031s0.774-1.392,1.282-2.044
		c0.508-0.651,1.05-1.248,1.625-1.79c0.575-0.542,1.101-0.965,1.574-1.27l1.828,2.133c-0.339,0.254-0.702,0.576-1.092,0.965
		c-0.39,0.39-0.745,0.809-1.066,1.257c-0.321,0.449-0.588,0.914-0.8,1.396s-0.317,0.944-0.317,1.384v2.996
		c0,0.745,0.144,1.528,0.432,2.349c0.288,0.821,0.72,1.579,1.295,2.272c0.575,0.694,1.295,1.27,2.158,1.727s1.87,0.686,3.021,0.686
		c1.27,0,2.332-0.169,3.187-0.508c0.854-0.338,1.545-0.821,2.069-1.447c0.524-0.626,0.901-1.367,1.13-2.222
		c0.229-0.854,0.352-1.807,0.368-2.856l0.051-2.742c0-1.27-0.194-2.382-0.584-3.339c-0.39-0.956-0.893-1.841-1.511-2.653
		s-1.295-1.591-2.031-2.336c-0.736-0.745-1.456-1.54-2.158-2.387c-0.702-0.846-1.333-1.786-1.892-2.818
		c-0.559-1.032-0.965-2.243-1.219-3.631h-7.871V45.239z"/>
	<path fill="#F2F2F2" d="M958.382,62.911c-0.017,1.676-0.152,3.352-0.406,5.027s-0.673,3.225-1.257,4.646s-1.367,2.641-2.349,3.656
		s-2.209,1.693-3.682,2.031l-0.305-3.021c0.609,0,1.185-0.271,1.727-0.813c0.542-0.542,1.016-1.333,1.422-2.374
		s0.728-2.314,0.965-3.821c0.237-1.506,0.355-3.225,0.355-5.154v-9.42c0-1.743-0.102-3.309-0.305-4.697
		c-0.203-1.388-0.555-2.56-1.054-3.517c-0.499-0.956-1.177-1.688-2.031-2.196s-1.942-0.762-3.263-0.762
		c-1.456,0-2.645,0.258-3.567,0.774c-0.923,0.517-1.642,1.261-2.158,2.234c-0.517,0.974-0.872,2.163-1.066,3.567
		c-0.194,1.405-0.292,2.988-0.292,4.748v9.268c0,1.896,0.085,3.597,0.254,5.104c0.169,1.507,0.406,2.78,0.711,3.821
		s0.682,1.841,1.13,2.399s0.952,0.838,1.511,0.838l-0.051,3.021c-0.999-0.186-1.866-0.546-2.603-1.079s-1.367-1.185-1.892-1.955
		c-0.524-0.77-0.956-1.642-1.295-2.615c-0.339-0.973-0.601-1.989-0.787-3.047c-0.187-1.058-0.317-2.141-0.394-3.25
		c-0.076-1.108-0.114-2.188-0.114-3.237v-9.166c0-1.117,0.06-2.251,0.178-3.402c0.118-1.151,0.321-2.264,0.609-3.339
		c0.288-1.075,0.682-2.082,1.181-3.021s1.134-1.76,1.904-2.463c0.771-0.702,1.692-1.257,2.768-1.663s2.332-0.609,3.771-0.609
		c1.456,0,2.729,0.178,3.821,0.533s2.022,0.847,2.793,1.473c0.771,0.626,1.4,1.38,1.892,2.26c0.491,0.88,0.88,1.85,1.168,2.907
		c0.288,1.058,0.486,2.184,0.597,3.377s0.165,2.425,0.165,3.694L958.382,62.911z"/>
	<path fill="#F2F2F2" d="M995.478,69.589c0,1.405-0.263,2.645-0.787,3.72c-0.524,1.075-1.253,1.98-2.184,2.717
		s-2.031,1.295-3.301,1.676s-2.641,0.571-4.113,0.571s-2.844-0.211-4.113-0.635c-1.27-0.423-2.37-1.024-3.301-1.803
		c-0.931-0.778-1.663-1.718-2.196-2.818c-0.533-1.1-0.8-2.336-0.8-3.707v-0.99c0-0.288,0.076-0.643,0.229-1.066
		c0.152-0.423,0.359-0.854,0.622-1.295c0.263-0.44,0.584-0.851,0.965-1.231s0.8-0.673,1.257-0.876l1.879,2.031
		c-0.288,0.271-0.517,0.533-0.686,0.787s-0.296,0.508-0.381,0.762s-0.148,0.508-0.19,0.762s-0.08,0.508-0.114,0.762l-0.051,0.635
		c0,0.88,0.131,1.672,0.394,2.374c0.263,0.703,0.673,1.295,1.231,1.777s1.27,0.855,2.133,1.117c0.863,0.263,1.904,0.394,3.123,0.394
		c1.016,0,1.942-0.114,2.78-0.343s1.558-0.571,2.158-1.028s1.07-1.02,1.409-1.688c0.339-0.668,0.508-1.451,0.508-2.349V58.188
		c0-0.44-0.105-0.952-0.317-1.536s-0.499-1.176-0.863-1.777c-0.364-0.601-0.796-1.189-1.295-1.765
		c-0.499-0.575-1.041-1.092-1.625-1.549s-1.193-0.825-1.828-1.104s-1.273-0.419-1.917-0.419c-0.999,0-1.799,0.131-2.399,0.394
		c-0.601,0.263-1.063,0.588-1.384,0.978c-0.321,0.39-0.533,0.821-0.635,1.295c-0.102,0.474-0.152,0.914-0.152,1.32
		c0,0.508,0.021,0.901,0.063,1.181s0.118,0.521,0.229,0.724s0.275,0.411,0.495,0.622c0.22,0.212,0.508,0.495,0.863,0.851
		l-1.396,2.514c-0.66-0.389-1.215-0.762-1.663-1.117s-0.809-0.749-1.079-1.181s-0.466-0.935-0.584-1.511
		c-0.118-0.575-0.187-1.27-0.203-2.082c-0.017-0.999,0.148-1.921,0.495-2.768c0.347-0.846,0.859-1.583,1.536-2.209
		c0.677-0.626,1.502-1.113,2.476-1.46c0.974-0.347,2.086-0.521,3.339-0.521c0.931,0,1.786,0.148,2.564,0.444
		c0.778,0.296,1.498,0.698,2.158,1.206s1.27,1.092,1.828,1.752s1.075,1.346,1.549,2.057V42.218h-5.027v-2.793h8.303V69.589z"/>
	<path fill="#F2F2F2" d="M1037.144,66.085c0,0.728-0.118,1.536-0.355,2.425s-0.575,1.786-1.016,2.691
		c-0.44,0.906-0.969,1.786-1.587,2.641c-0.618,0.855-1.312,1.612-2.082,2.272s-1.608,1.193-2.514,1.6s-1.857,0.609-2.856,0.609
		v-3.072c0.948,0,1.841-0.305,2.679-0.914s1.565-1.371,2.184-2.285s1.104-1.904,1.46-2.971s0.533-2.048,0.533-2.945v-3.885
		c0-1.692-0.22-3.085-0.66-4.177s-0.981-1.946-1.625-2.564c-0.644-0.618-1.333-1.045-2.069-1.282
		c-0.736-0.237-1.4-0.355-1.993-0.355c-0.677,0-1.388,0.127-2.133,0.381s-1.431,0.682-2.057,1.282
		c-0.626,0.601-1.146,1.396-1.562,2.387s-0.622,2.222-0.622,3.694v5.688h-3.555v-5.688c0-1.473-0.203-2.704-0.609-3.694
		s-0.918-1.786-1.536-2.387c-0.618-0.601-1.295-1.028-2.031-1.282s-1.435-0.381-2.095-0.381c-0.796,0-1.574,0.119-2.336,0.355
		c-0.762,0.237-1.443,0.665-2.044,1.282c-0.601,0.618-1.088,1.473-1.46,2.564s-0.559,2.484-0.559,4.177v4.012
		c0,0.576,0.072,1.198,0.216,1.866c0.144,0.669,0.355,1.337,0.635,2.006c0.279,0.669,0.618,1.312,1.016,1.93
		c0.397,0.618,0.854,1.164,1.371,1.638c0.517,0.474,1.083,0.851,1.701,1.13s1.273,0.419,1.968,0.419v3.021
		c-1.151,0-2.209-0.203-3.174-0.609s-1.832-0.948-2.603-1.625c-0.771-0.677-1.451-1.447-2.044-2.311s-1.083-1.752-1.473-2.666
		s-0.682-1.815-0.876-2.704s-0.292-1.697-0.292-2.425v-3.682c0-1.862,0.156-3.72,0.47-5.573s0.851-3.626,1.612-5.319
		c0.762-1.692,1.79-3.263,3.085-4.71s2.933-2.708,4.913-3.783c1.98-1.075,4.338-1.917,7.071-2.526s5.912-0.914,9.534-0.914v3.072
		c-2.945,0-5.603,0.237-7.973,0.711c-2.37,0.474-4.465,1.143-6.284,2.006s-3.364,1.909-4.634,3.136
		c-1.27,1.228-2.269,2.586-2.996,4.075l1.98-0.584l3.174-0.711c0.762,0,1.532,0.034,2.311,0.102
		c0.778,0.068,1.527,0.292,2.247,0.673s1.38,0.969,1.98,1.765c0.601,0.796,1.104,1.921,1.511,3.377
		c0.491-1.456,1.066-2.581,1.727-3.377c0.66-0.795,1.354-1.384,2.082-1.765s1.464-0.605,2.209-0.673
		c0.745-0.067,1.456-0.102,2.133-0.102c1.253,0,2.472,0.195,3.656,0.584c1.185,0.39,2.243,1.02,3.174,1.892
		c0.931,0.872,1.676,2.019,2.234,3.44s0.838,3.157,0.838,5.205V66.085z"/>
	<path fill="#F2F2F2" d="M1062.763,62.911c-0.017,1.676-0.152,3.352-0.406,5.027s-0.673,3.225-1.257,4.646s-1.367,2.641-2.349,3.656
		s-2.209,1.693-3.682,2.031l-0.305-3.021c0.609,0,1.185-0.271,1.727-0.813c0.542-0.542,1.016-1.333,1.422-2.374
		s0.728-2.314,0.965-3.821c0.237-1.506,0.355-3.225,0.355-5.154v-9.42c0-1.743-0.102-3.309-0.305-4.697
		c-0.203-1.388-0.555-2.56-1.054-3.517c-0.499-0.956-1.177-1.688-2.031-2.196s-1.942-0.762-3.263-0.762
		c-1.456,0-2.645,0.258-3.567,0.774c-0.923,0.517-1.642,1.261-2.158,2.234c-0.517,0.974-0.872,2.163-1.066,3.567
		c-0.194,1.405-0.292,2.988-0.292,4.748v9.268c0,1.896,0.085,3.597,0.254,5.104c0.169,1.507,0.406,2.78,0.711,3.821
		s0.682,1.841,1.13,2.399s0.952,0.838,1.511,0.838l-0.051,3.021c-0.999-0.186-1.866-0.546-2.603-1.079s-1.367-1.185-1.892-1.955
		c-0.524-0.77-0.956-1.642-1.295-2.615c-0.339-0.973-0.601-1.989-0.787-3.047c-0.187-1.058-0.317-2.141-0.394-3.25
		c-0.076-1.108-0.114-2.188-0.114-3.237v-9.166c0-1.117,0.06-2.251,0.178-3.402c0.118-1.151,0.321-2.264,0.609-3.339
		c0.288-1.075,0.682-2.082,1.181-3.021s1.134-1.76,1.904-2.463c0.771-0.702,1.692-1.257,2.768-1.663s2.332-0.609,3.771-0.609
		c1.456,0,2.729,0.178,3.821,0.533s2.022,0.847,2.793,1.473c0.771,0.626,1.4,1.38,1.892,2.26c0.491,0.88,0.88,1.85,1.168,2.907
		c0.288,1.058,0.486,2.184,0.597,3.377s0.165,2.425,0.165,3.694L1062.763,62.911z"/>
	<path fill="#F2F2F2" d="M1090.49,66.771c0,1.659-0.258,3.191-0.774,4.596c-0.517,1.405-1.235,2.62-2.158,3.644
		c-0.923,1.024-2.022,1.824-3.301,2.399c-1.278,0.576-2.67,0.863-4.177,0.863c-1.523,0-2.92-0.237-4.189-0.711
		c-1.27-0.474-2.361-1.197-3.275-2.171c-0.914-0.973-1.629-2.2-2.146-3.682c-0.517-1.481-0.774-3.229-0.774-5.243V39.425h3.529
		v27.041c0,1.608,0.169,2.967,0.508,4.075c0.339,1.109,0.813,2.015,1.422,2.717c0.609,0.703,1.333,1.21,2.171,1.523
		c0.838,0.313,1.756,0.47,2.755,0.47c1.134,0,2.133-0.216,2.996-0.647s1.583-1.032,2.158-1.803c0.575-0.77,1.007-1.697,1.295-2.78
		c0.288-1.083,0.432-2.285,0.432-3.605v-1.473c0-0.88-0.152-1.718-0.457-2.514c-0.305-0.795-0.686-1.553-1.143-2.272
		c-0.457-0.719-0.948-1.409-1.473-2.069s-1.016-1.308-1.473-1.942s-0.838-1.261-1.143-1.879c-0.305-0.618-0.457-1.248-0.457-1.892
		c0-0.711,0.085-1.4,0.254-2.069c0.169-0.668,0.517-1.384,1.041-2.146l3.555,0.99c-0.254,0.339-0.474,0.631-0.66,0.876
		c-0.187,0.246-0.343,0.487-0.47,0.724c-0.127,0.237-0.225,0.482-0.292,0.736s-0.102,0.55-0.102,0.889
		c0,0.626,0.156,1.236,0.47,1.828c0.313,0.593,0.707,1.181,1.181,1.765s0.981,1.185,1.523,1.803c0.542,0.618,1.05,1.27,1.523,1.955
		s0.867,1.414,1.181,2.184c0.313,0.771,0.47,1.612,0.47,2.526V66.771z"/>
	<path fill="#F2F2F2" d="M1116.109,62.911c-0.017,1.676-0.152,3.352-0.406,5.027s-0.673,3.225-1.257,4.646s-1.367,2.641-2.349,3.656
		s-2.209,1.693-3.682,2.031l-0.305-3.021c0.609,0,1.185-0.271,1.727-0.813c0.542-0.542,1.016-1.333,1.422-2.374
		s0.728-2.314,0.965-3.821c0.237-1.506,0.355-3.225,0.355-5.154v-9.42c0-1.743-0.102-3.309-0.305-4.697
		c-0.203-1.388-0.555-2.56-1.054-3.517c-0.499-0.956-1.177-1.688-2.031-2.196s-1.942-0.762-3.263-0.762
		c-1.456,0-2.645,0.258-3.567,0.774c-0.923,0.517-1.642,1.261-2.158,2.234c-0.517,0.974-0.872,2.163-1.066,3.567
		c-0.194,1.405-0.292,2.988-0.292,4.748v9.268c0,1.896,0.085,3.597,0.254,5.104c0.169,1.507,0.406,2.78,0.711,3.821
		s0.682,1.841,1.13,2.399s0.952,0.838,1.511,0.838l-0.051,3.021c-0.999-0.186-1.866-0.546-2.603-1.079s-1.367-1.185-1.892-1.955
		c-0.524-0.77-0.956-1.642-1.295-2.615c-0.339-0.973-0.601-1.989-0.787-3.047c-0.187-1.058-0.317-2.141-0.394-3.25
		c-0.076-1.108-0.114-2.188-0.114-3.237v-9.166c0-1.117,0.06-2.251,0.178-3.402c0.118-1.151,0.321-2.264,0.609-3.339
		c0.288-1.075,0.682-2.082,1.181-3.021s1.134-1.76,1.904-2.463c0.771-0.702,1.692-1.257,2.768-1.663s2.332-0.609,3.771-0.609
		c1.456,0,2.729,0.178,3.821,0.533s2.022,0.847,2.793,1.473c0.771,0.626,1.4,1.38,1.892,2.26c0.491,0.88,0.88,1.85,1.168,2.907
		c0.288,1.058,0.486,2.184,0.597,3.377s0.165,2.425,0.165,3.694L1116.109,62.911z"/>
	<path fill="#F2F2F2" d="M1143.328,67.024c0,7.499-3.47,11.248-10.41,11.248c-1.71,0-3.216-0.288-4.52-0.863
		c-1.304-0.575-2.391-1.358-3.263-2.349s-1.527-2.146-1.968-3.466s-0.66-2.717-0.66-4.189v-1.727c0-1.016,0.254-2.078,0.762-3.187
		c0.508-1.108,1.143-2.196,1.904-3.263l2.438,1.244c-0.254,0.474-0.479,0.957-0.673,1.447c-0.194,0.491-0.355,0.965-0.482,1.422
		s-0.225,0.885-0.292,1.282c-0.067,0.398-0.102,0.749-0.102,1.054v1.879c0,1.236,0.118,2.332,0.355,3.288
		c0.237,0.957,0.622,1.761,1.155,2.412c0.533,0.652,1.24,1.147,2.12,1.485c0.88,0.339,1.955,0.508,3.225,0.508
		c1.185,0,2.209-0.152,3.072-0.457s1.574-0.787,2.133-1.447s0.974-1.523,1.244-2.59s0.406-2.361,0.406-3.885v-2.869
		c0-1.235-0.161-2.357-0.482-3.364c-0.321-1.007-0.745-1.946-1.27-2.818c-0.524-0.872-1.126-1.688-1.803-2.45
		s-1.362-1.515-2.057-2.26c-0.694-0.745-1.38-1.498-2.057-2.26s-1.278-1.565-1.803-2.412c-0.524-0.846-0.948-1.76-1.27-2.742
		c-0.321-0.981-0.482-2.065-0.482-3.25v-3.021h3.275v3.021c0,1.304,0.283,2.497,0.851,3.58c0.567,1.083,1.278,2.133,2.133,3.148
		s1.777,2.031,2.768,3.047s1.913,2.104,2.768,3.263c0.854,1.16,1.565,2.434,2.133,3.821c0.567,1.388,0.851,2.954,0.851,4.697V67.024
		z"/>
	<path fill="#F2F2F2" d="M279.97,139.505v-34.43h20.363v2.844h-17.418v12.924h11.857v2.844h-11.857v12.873h17.418v2.945H279.97z"/>
	<path fill="#F2F2F2" d="M321.61,139.505v-2.895c-0.863,0.965-1.815,1.688-2.856,2.171s-2.222,0.724-3.542,0.724
		c-1.388,0-2.628-0.237-3.72-0.711s-2.095-1.168-3.009-2.082c-0.88-0.863-1.549-2.01-2.006-3.44
		c-0.457-1.43-0.686-3.119-0.686-5.065c0-1.896,0.22-3.555,0.66-4.977c0.44-1.422,1.117-2.606,2.031-3.555
		c0.897-0.897,1.896-1.591,2.996-2.082c1.1-0.491,2.344-0.736,3.732-0.736c1.337,0,2.522,0.245,3.555,0.736
		c1.032,0.491,1.98,1.244,2.844,2.26v-14.777h2.895v34.43H321.61z M315.212,119.802c-1.016,0-1.934,0.165-2.755,0.495
		c-0.821,0.33-1.494,0.809-2.019,1.435c-0.491,0.593-0.897,1.464-1.219,2.615c-0.322,1.151-0.482,2.438-0.482,3.859
		c0,1.489,0.161,2.776,0.482,3.859c0.321,1.083,0.728,1.946,1.219,2.59c0.524,0.694,1.193,1.185,2.006,1.473
		s1.735,0.432,2.768,0.432c0.948,0,1.828-0.144,2.641-0.432s1.498-0.778,2.057-1.473c1.134-1.337,1.701-3.487,1.701-6.449
		c0-1.422-0.144-2.704-0.432-3.847c-0.288-1.143-0.711-2.019-1.27-2.628s-1.244-1.083-2.057-1.422S316.16,119.802,315.212,119.802z"
		/>
	<path fill="#F2F2F2" d="M348.601,116.856v22.648h-2.895v-2.895c-1.761,1.93-3.919,2.895-6.475,2.895
		c-1.32,0-2.531-0.241-3.631-0.724c-1.101-0.482-2.125-1.172-3.072-2.069c-1.812-1.761-2.717-4.596-2.717-8.506v-11.35h2.945v11.35
		c0,1.438,0.169,2.713,0.508,3.821c0.338,1.109,0.753,1.984,1.244,2.628c0.542,0.694,1.21,1.185,2.006,1.473
		c0.795,0.288,1.701,0.432,2.717,0.432c0.948,0,1.819-0.152,2.615-0.457c0.795-0.305,1.489-0.787,2.082-1.447
		c0.559-0.66,0.994-1.527,1.308-2.603c0.313-1.074,0.47-2.357,0.47-3.847v-11.35H348.601z"/>
	<path fill="#F2F2F2" d="M368.05,122.062c-0.626-0.728-1.384-1.286-2.272-1.676s-1.909-0.584-3.06-0.584
		c-1.033,0-1.951,0.165-2.755,0.495c-0.804,0.33-1.477,0.809-2.019,1.435c-1.117,1.27-1.676,3.428-1.676,6.475
		c0,1.507,0.156,2.798,0.47,3.872c0.313,1.075,0.715,1.934,1.206,2.577c0.542,0.66,1.214,1.143,2.019,1.447
		c0.804,0.305,1.722,0.457,2.755,0.457c1.202,0,2.234-0.22,3.098-0.66s1.608-1.092,2.234-1.955l2.818,0.939
		c-1.016,1.507-2.205,2.653-3.567,3.44c-1.363,0.787-2.891,1.181-4.583,1.181c-2.641,0-4.884-0.948-6.729-2.844
		c-0.88-0.914-1.545-2.065-1.993-3.453c-0.449-1.388-0.673-3.056-0.673-5.002c0-1.896,0.211-3.563,0.635-5.002
		c0.423-1.438,1.083-2.615,1.98-3.529c0.863-0.863,1.857-1.549,2.983-2.057c1.125-0.508,2.391-0.762,3.796-0.762
		c1.676,0,3.199,0.39,4.57,1.168s2.564,1.955,3.58,3.529L368.05,122.062z"/>
	<path fill="#F2F2F2" d="M375.286,121.401c0.474-0.728,0.965-1.371,1.473-1.93s1.032-0.99,1.574-1.295
		c0.778-0.44,1.583-0.771,2.412-0.99c0.829-0.22,1.76-0.33,2.793-0.33c1.625,0,2.996,0.194,4.113,0.584s1.946,0.956,2.488,1.701
		c0.508,0.745,0.927,1.591,1.257,2.539s0.495,1.904,0.495,2.869v14.955h-2.895v-0.939c-1.422,0.626-3.242,0.939-5.459,0.939
		c-1.219,0-2.383-0.165-3.491-0.495c-1.109-0.33-2.01-0.774-2.704-1.333c-0.711-0.593-1.253-1.29-1.625-2.095
		c-0.373-0.804-0.559-1.629-0.559-2.476c0-1.676,0.516-3.157,1.549-4.443c0.948-1.253,3.225-1.879,6.83-1.879
		c1.016,0,1.875-0.085,2.577-0.254c0.702-0.169,1.24-0.397,1.612-0.686c0.355-0.288,0.656-0.651,0.901-1.092
		c0.245-0.44,0.368-0.897,0.368-1.371c0-0.491-0.123-0.939-0.368-1.346c-0.246-0.406-0.555-0.804-0.927-1.193
		c-0.39-0.355-0.939-0.618-1.65-0.787s-1.549-0.254-2.514-0.254c-0.491,0-1.028,0.034-1.612,0.102s-1.104,0.212-1.562,0.432
		c-0.406,0.169-0.8,0.437-1.181,0.8c-0.381,0.364-0.665,0.783-0.851,1.257L375.286,121.401z M388.997,128.079
		c-0.644,0.542-1.414,0.936-2.311,1.181c-0.897,0.246-1.904,0.368-3.021,0.368c-1.913,0-3.284,0.271-4.113,0.813
		c-0.491,0.339-0.855,0.72-1.092,1.143c-0.237,0.423-0.355,0.931-0.355,1.523c0,1.235,0.44,2.12,1.32,2.653
		c0.88,0.533,2.251,0.8,4.113,0.8c0.643,0,1.278-0.038,1.904-0.114c0.626-0.076,1.185-0.207,1.676-0.394
		c0.592-0.237,1.054-0.597,1.384-1.079s0.495-1.104,0.495-1.866V128.079z"/>
	<path fill="#F2F2F2" d="M403.216,109.011v7.846h5.941v2.945h-5.941v12.34c0,0.813,0.063,1.515,0.19,2.107s0.334,1.05,0.622,1.371
		c0.288,0.339,0.643,0.58,1.066,0.724c0.423,0.145,0.897,0.216,1.422,0.216c0.491,0,0.956-0.021,1.396-0.063
		c0.44-0.042,0.854-0.123,1.244-0.241v2.666c-0.66,0.39-1.541,0.584-2.641,0.584c-0.897,0-1.731-0.122-2.501-0.368
		c-0.771-0.245-1.452-0.664-2.044-1.257c-0.593-0.609-0.999-1.388-1.219-2.336c-0.22-0.948-0.33-2.082-0.33-3.402v-12.34h-4.113
		v-2.945h4.113v-7.846H403.216z"/>
	<path fill="#F2F2F2" d="M417.257,109.011c0.44,0,0.783,0.14,1.028,0.419c0.245,0.279,0.368,0.613,0.368,1.003
		c0,0.948-0.466,1.422-1.396,1.422c-0.931,0-1.396-0.474-1.396-1.422c0-0.39,0.114-0.724,0.343-1.003
		S416.783,109.011,417.257,109.011z M415.86,139.505v-22.648h2.793v22.648H415.86z"/>
	<path fill="#F2F2F2" d="M425.306,128.206c0-1.896,0.22-3.555,0.66-4.977c0.44-1.422,1.117-2.606,2.031-3.555
		c0.897-0.897,1.896-1.591,2.996-2.082c1.1-0.491,2.344-0.736,3.732-0.736c1.337,0,2.568,0.241,3.694,0.724
		c1.125,0.482,2.146,1.181,3.06,2.095c0.863,0.863,1.502,2.027,1.917,3.491c0.415,1.465,0.622,3.145,0.622,5.04
		c0,3.843-0.847,6.661-2.539,8.455c-1.794,1.896-4.046,2.844-6.754,2.844c-1.388,0-2.628-0.237-3.72-0.711s-2.095-1.168-3.009-2.082
		c-0.88-0.863-1.549-2.01-2.006-3.44C425.534,131.842,425.306,130.152,425.306,128.206z M434.726,119.802
		c-1.016,0-1.934,0.165-2.755,0.495c-0.821,0.33-1.494,0.809-2.019,1.435c-0.491,0.593-0.897,1.464-1.219,2.615
		c-0.322,1.151-0.482,2.438-0.482,3.859c0,1.489,0.161,2.776,0.482,3.859c0.321,1.083,0.728,1.946,1.219,2.59
		c0.524,0.694,1.193,1.185,2.006,1.473s1.735,0.432,2.768,0.432c0.948,0,1.828-0.144,2.641-0.432s1.498-0.778,2.057-1.473
		c1.134-1.337,1.701-3.487,1.701-6.449c0-1.422-0.144-2.704-0.432-3.847c-0.288-1.143-0.711-2.019-1.27-2.628
		s-1.244-1.083-2.057-1.422S435.673,119.802,434.726,119.802z"/>
	<path fill="#F2F2F2" d="M448.843,139.505v-22.648h2.895v2.945c1.76-1.964,3.91-2.945,6.449-2.945c1.337,0,2.581,0.254,3.732,0.762
		c1.151,0.508,2.149,1.193,2.996,2.057c0.863,0.897,1.527,2.069,1.993,3.517c0.465,1.447,0.698,3.119,0.698,5.015v11.299h-2.92
		v-11.299c0-1.422-0.157-2.704-0.47-3.847c-0.313-1.143-0.749-2.019-1.308-2.628c-0.542-0.559-1.228-1.02-2.057-1.384
		c-0.83-0.363-1.718-0.546-2.666-0.546c-1.016,0-1.921,0.165-2.717,0.495c-0.796,0.33-1.464,0.809-2.006,1.435
		c-0.525,0.593-0.944,1.464-1.257,2.615c-0.313,1.151-0.47,2.438-0.47,3.859v11.299H448.843z"/>
	<path fill="#F2F2F2" d="M472.126,121.401c0.474-0.728,0.965-1.371,1.473-1.93s1.032-0.99,1.574-1.295
		c0.778-0.44,1.583-0.771,2.412-0.99c0.829-0.22,1.76-0.33,2.793-0.33c1.625,0,2.996,0.194,4.113,0.584s1.946,0.956,2.488,1.701
		c0.508,0.745,0.927,1.591,1.257,2.539s0.495,1.904,0.495,2.869v14.955h-2.895v-0.939c-1.422,0.626-3.242,0.939-5.459,0.939
		c-1.219,0-2.383-0.165-3.491-0.495c-1.109-0.33-2.01-0.774-2.704-1.333c-0.711-0.593-1.253-1.29-1.625-2.095
		c-0.373-0.804-0.559-1.629-0.559-2.476c0-1.676,0.516-3.157,1.549-4.443c0.948-1.253,3.225-1.879,6.83-1.879
		c1.016,0,1.875-0.085,2.577-0.254c0.702-0.169,1.24-0.397,1.612-0.686c0.355-0.288,0.656-0.651,0.901-1.092
		c0.245-0.44,0.368-0.897,0.368-1.371c0-0.491-0.123-0.939-0.368-1.346c-0.246-0.406-0.555-0.804-0.927-1.193
		c-0.39-0.355-0.939-0.618-1.65-0.787s-1.549-0.254-2.514-0.254c-0.491,0-1.028,0.034-1.612,0.102s-1.104,0.212-1.562,0.432
		c-0.406,0.169-0.8,0.437-1.181,0.8c-0.381,0.364-0.665,0.783-0.851,1.257L472.126,121.401z M485.837,128.079
		c-0.644,0.542-1.414,0.936-2.311,1.181c-0.897,0.246-1.904,0.368-3.021,0.368c-1.913,0-3.284,0.271-4.113,0.813
		c-0.491,0.339-0.855,0.72-1.092,1.143c-0.237,0.423-0.355,0.931-0.355,1.523c0,1.235,0.44,2.12,1.32,2.653
		c0.88,0.533,2.251,0.8,4.113,0.8c0.643,0,1.278-0.038,1.904-0.114c0.626-0.076,1.185-0.207,1.676-0.394
		c0.592-0.237,1.054-0.597,1.384-1.079s0.495-1.104,0.495-1.866V128.079z"/>
	<path fill="#F2F2F2" d="M495.435,139.505v-34.43h2.793v34.43H495.435z"/>
	<path fill="#F2F2F2" d="M529.382,139.505c-1.98,0-3.796-0.415-5.446-1.244s-3.051-1.989-4.202-3.479
		c-1.202-1.558-2.104-3.394-2.704-5.51c-0.601-2.116-0.901-4.435-0.901-6.957c0-4.808,1.202-8.887,3.605-12.238
		c2.403-3.335,5.493-5.002,9.268-5.002c1.591,0,3.009,0.178,4.253,0.533s2.323,0.847,3.237,1.473c0.897,0.609,1.671,1.27,2.323,1.98
		c0.651,0.711,1.214,1.54,1.688,2.488l-2.514,1.295c-0.965-1.676-2.15-2.915-3.555-3.72c-1.405-0.804-3.089-1.206-5.053-1.206
		c-1.591,0-3.021,0.386-4.291,1.155c-1.27,0.771-2.353,1.866-3.25,3.288c-0.948,1.456-1.646,3.005-2.095,4.646
		c-0.449,1.642-0.673,3.411-0.673,5.307c0,1.777,0.232,3.504,0.698,5.18c0.465,1.676,1.155,3.233,2.069,4.672
		c0.897,1.438,1.98,2.53,3.25,3.275s2.7,1.117,4.291,1.117c1.117,0,2.116-0.067,2.996-0.203c0.88-0.136,1.692-0.381,2.438-0.736
		c0.626-0.288,1.206-0.711,1.739-1.27s1.045-1.295,1.536-2.209l2.361,0.965c-0.491,1.016-1.045,1.917-1.663,2.704
		c-0.618,0.787-1.308,1.46-2.069,2.019c-0.813,0.575-1.824,0.999-3.034,1.27C532.475,139.369,531.041,139.505,529.382,139.505z"/>
	<path fill="#F2F2F2" d="M545.987,128.206c0-1.896,0.22-3.555,0.66-4.977c0.44-1.422,1.117-2.606,2.031-3.555
		c0.897-0.897,1.896-1.591,2.996-2.082c1.1-0.491,2.344-0.736,3.732-0.736c1.337,0,2.568,0.241,3.694,0.724
		c1.125,0.482,2.146,1.181,3.06,2.095c0.863,0.863,1.502,2.027,1.917,3.491c0.415,1.465,0.622,3.145,0.622,5.04
		c0,3.843-0.847,6.661-2.539,8.455c-1.794,1.896-4.046,2.844-6.754,2.844c-1.388,0-2.628-0.237-3.72-0.711s-2.095-1.168-3.009-2.082
		c-0.88-0.863-1.549-2.01-2.006-3.44C546.216,131.842,545.987,130.152,545.987,128.206z M555.407,119.802
		c-1.016,0-1.934,0.165-2.755,0.495c-0.821,0.33-1.494,0.809-2.019,1.435c-0.491,0.593-0.897,1.464-1.219,2.615
		c-0.322,1.151-0.482,2.438-0.482,3.859c0,1.489,0.161,2.776,0.482,3.859c0.321,1.083,0.728,1.946,1.219,2.59
		c0.524,0.694,1.193,1.185,2.006,1.473s1.735,0.432,2.768,0.432c0.948,0,1.828-0.144,2.641-0.432s1.498-0.778,2.057-1.473
		c1.134-1.337,1.701-3.487,1.701-6.449c0-1.422-0.144-2.704-0.432-3.847c-0.288-1.143-0.711-2.019-1.27-2.628
		s-1.244-1.083-2.057-1.422S556.355,119.802,555.407,119.802z"/>
	<path fill="#F2F2F2" d="M571.429,139.505v-34.43h2.793v34.43H571.429z"/>
	<path fill="#F2F2F2" d="M583.134,139.505v-34.43h2.793v34.43H583.134z"/>
	<path fill="#F2F2F2" d="M609.998,135.087c-2.015,2.945-4.681,4.418-7.998,4.418c-1.388,0-2.628-0.237-3.72-0.711
		s-2.095-1.168-3.009-2.082c-0.88-0.863-1.549-2.01-2.006-3.44c-0.457-1.43-0.686-3.119-0.686-5.065c0-1.896,0.22-3.567,0.66-5.015
		s1.101-2.619,1.98-3.517c0.897-0.897,1.896-1.591,2.996-2.082s2.361-0.736,3.783-0.736c1.32,0,2.548,0.245,3.682,0.736
		s2.158,1.185,3.072,2.082c0.813,0.829,1.438,1.989,1.879,3.479s0.66,3.267,0.66,5.332h-15.768c0.017,1.388,0.178,2.59,0.482,3.605
		s0.736,1.854,1.295,2.514s1.231,1.151,2.019,1.473S601,136.56,602,136.56c1.202,0,2.234-0.224,3.098-0.673
		c0.863-0.448,1.591-1.079,2.184-1.892L609.998,135.087z M608.271,125.616c-0.152-1.997-0.745-3.428-1.777-4.291
		c-0.542-0.491-1.172-0.867-1.892-1.13c-0.72-0.262-1.587-0.394-2.603-0.394c-0.981,0-1.857,0.118-2.628,0.355
		s-1.426,0.626-1.968,1.168c-0.474,0.457-0.867,1.032-1.181,1.727s-0.512,1.549-0.597,2.564H608.271z"/>
	<path fill="#F2F2F2" d="M621.068,148.036c1.456,0,2.822-0.072,4.101-0.216s2.391-0.419,3.339-0.825s1.697-0.974,2.247-1.701
		s0.825-1.676,0.825-2.844v-5.84c-0.863,0.965-1.815,1.688-2.856,2.171s-2.222,0.724-3.542,0.724c-1.388,0-2.628-0.237-3.72-0.711
		s-2.095-1.168-3.009-2.082c-0.88-0.863-1.549-2.01-2.006-3.44c-0.457-1.43-0.686-3.119-0.686-5.065c0-1.896,0.22-3.555,0.66-4.977
		s1.117-2.606,2.031-3.555c0.897-0.897,1.896-1.591,2.996-2.082s2.345-0.736,3.732-0.736c1.337,0,2.522,0.245,3.555,0.736
		s1.98,1.244,2.844,2.26v-2.996h2.895v25.467c0,1.286-0.194,2.391-0.584,3.313s-0.918,1.697-1.587,2.323s-1.443,1.126-2.323,1.498
		s-1.819,0.656-2.818,0.851s-2.019,0.309-3.06,0.343s-2.053,0.034-3.034,0V148.036z M625.181,119.802
		c-1.016,0-1.934,0.165-2.755,0.495s-1.494,0.809-2.019,1.435c-0.491,0.593-0.897,1.464-1.219,2.615s-0.482,2.438-0.482,3.859
		c0,1.489,0.161,2.776,0.482,3.859s0.728,1.946,1.219,2.59c0.524,0.694,1.193,1.185,2.006,1.473s1.735,0.432,2.768,0.432
		c0.948,0,1.828-0.144,2.641-0.432s1.498-0.778,2.057-1.473c1.134-1.337,1.701-3.487,1.701-6.449c0-1.422-0.144-2.704-0.432-3.847
		s-0.711-2.019-1.27-2.628s-1.244-1.083-2.057-1.422S626.129,119.802,625.181,119.802z"/>
	<path fill="#F2F2F2" d="M657.199,135.087c-2.015,2.945-4.681,4.418-7.998,4.418c-1.388,0-2.628-0.237-3.72-0.711
		s-2.095-1.168-3.009-2.082c-0.88-0.863-1.549-2.01-2.006-3.44c-0.457-1.43-0.686-3.119-0.686-5.065c0-1.896,0.22-3.567,0.66-5.015
		s1.101-2.619,1.98-3.517c0.897-0.897,1.896-1.591,2.996-2.082s2.361-0.736,3.783-0.736c1.32,0,2.548,0.245,3.682,0.736
		s2.158,1.185,3.072,2.082c0.813,0.829,1.438,1.989,1.879,3.479s0.66,3.267,0.66,5.332h-15.768c0.017,1.388,0.178,2.59,0.482,3.605
		s0.736,1.854,1.295,2.514s1.231,1.151,2.019,1.473s1.68,0.482,2.679,0.482c1.202,0,2.234-0.224,3.098-0.673
		c0.863-0.448,1.591-1.079,2.184-1.892L657.199,135.087z M655.472,125.616c-0.152-1.997-0.745-3.428-1.777-4.291
		c-0.542-0.491-1.172-0.867-1.892-1.13c-0.72-0.262-1.587-0.394-2.603-0.394c-0.981,0-1.857,0.118-2.628,0.355
		s-1.426,0.626-1.968,1.168c-0.474,0.457-0.867,1.032-1.181,1.727s-0.512,1.549-0.597,2.564H655.472z"/>
	<path fill="#F2F2F2" d="M687.49,139.505c-1.812,0-3.475-0.397-4.989-1.193s-2.916-1.972-4.202-3.529
		c-1.354-1.625-2.374-3.466-3.06-5.522s-1.028-4.371-1.028-6.944c0-1.151,0.085-2.302,0.254-3.453s0.41-2.26,0.724-3.326
		s0.689-2.077,1.13-3.034c0.44-0.956,0.939-1.807,1.498-2.552c0.524-0.728,1.155-1.392,1.892-1.993
		c0.736-0.601,1.527-1.117,2.374-1.549s1.73-0.762,2.653-0.99s1.841-0.343,2.755-0.343c3.843,0,6.999,1.489,9.471,4.469
		c1.235,1.54,2.2,3.368,2.895,5.484s1.041,4.545,1.041,7.287c0,4.892-0.923,8.718-2.768,11.477l3.072,2.996l-2.412,2.488
		l-3.098-3.123C693.304,138.388,690.571,139.505,687.49,139.505z M690.181,130.618l2.361-2.463l3.174,3.174
		c0.762-1.032,1.324-2.28,1.688-3.745c0.364-1.464,0.546-3.221,0.546-5.269c0-2.015-0.245-3.905-0.736-5.675
		c-0.491-1.769-1.168-3.288-2.031-4.558c-0.897-1.32-2.002-2.345-3.313-3.072s-2.771-1.092-4.38-1.092
		c-1.405,0-2.751,0.335-4.037,1.003c-1.286,0.669-2.403,1.621-3.352,2.856c-1.016,1.27-1.761,2.78-2.234,4.532
		s-0.711,3.754-0.711,6.005c0,4.638,1.092,8.15,3.275,10.537c1.134,1.253,2.276,2.184,3.428,2.793s2.361,0.914,3.631,0.914
		c1.117,0,2.213-0.203,3.288-0.609s2.01-1.092,2.806-2.057L690.181,130.618z"/>
	<path fill="#F2F2F2" d="M707.015,139.505v-22.648h2.844v2.945c0.914-1.032,1.896-1.781,2.945-2.247
		c1.05-0.465,2.218-0.698,3.504-0.698c1.489,0,2.771,0.22,3.847,0.66s2.027,1.117,2.856,2.031l-1.65,2.184
		c-0.677-0.626-1.422-1.104-2.234-1.435s-1.752-0.495-2.818-0.495c-1.016,0-1.908,0.165-2.679,0.495s-1.451,0.809-2.044,1.435
		c-0.593,0.644-1.028,1.507-1.308,2.59s-0.419,2.378-0.419,3.885v11.299H707.015z"/>
	<path fill="#F2F2F2" d="M731.035,109.011c0.44,0,0.783,0.14,1.028,0.419s0.368,0.613,0.368,1.003c0,0.948-0.466,1.422-1.396,1.422
		s-1.396-0.474-1.396-1.422c0-0.39,0.114-0.724,0.343-1.003S730.561,109.011,731.035,109.011z M729.638,139.505v-22.648h2.793
		v22.648H729.638z"/>
	<path fill="#F2F2F2" d="M751.144,121.554c-0.44-0.593-1.045-1.032-1.815-1.32s-1.73-0.432-2.882-0.432
		c-1.727,0-2.895,0.33-3.504,0.99c-0.609,0.609-0.914,1.456-0.914,2.539c0,0.254,0.14,0.533,0.419,0.838s0.669,0.626,1.168,0.965
		s1.101,0.69,1.803,1.054c0.702,0.364,1.477,0.749,2.323,1.155c0.863,0.406,1.667,0.843,2.412,1.308
		c0.745,0.466,1.384,0.952,1.917,1.46s0.952,1.021,1.257,1.536c0.305,0.517,0.457,1.02,0.457,1.511c0,0.863-0.136,1.688-0.406,2.476
		s-0.677,1.485-1.219,2.095c-0.491,0.542-1.235,0.974-2.234,1.295s-2.158,0.482-3.479,0.482c-1.692,0-3.132-0.351-4.316-1.054
		c-1.185-0.702-2.124-1.799-2.818-3.288l2.641-0.838c0.305,0.762,0.838,1.325,1.6,1.688c0.762,0.364,1.727,0.546,2.895,0.546
		c1.523,0,2.653-0.241,3.39-0.724s1.104-1.375,1.104-2.679c0-0.305-0.156-0.626-0.47-0.965s-0.728-0.681-1.244-1.028
		c-0.517-0.347-1.121-0.698-1.815-1.054s-1.422-0.694-2.184-1.016c-0.914-0.406-1.752-0.847-2.514-1.32s-1.413-0.96-1.955-1.46
		c-0.542-0.499-0.961-1.003-1.257-1.511s-0.444-0.999-0.444-1.473c0-0.965,0.144-1.841,0.432-2.628s0.686-1.46,1.193-2.019
		c0.542-0.593,1.304-1.045,2.285-1.358c0.981-0.313,2.142-0.47,3.479-0.47c1.676,0,3.114,0.267,4.316,0.8s2.167,1.358,2.895,2.476
		L751.144,121.554z"/>
	<path fill="#F2F2F2" d="M761.884,109.011c0.44,0,0.783,0.14,1.028,0.419s0.368,0.613,0.368,1.003c0,0.948-0.466,1.422-1.396,1.422
		s-1.396-0.474-1.396-1.422c0-0.39,0.114-0.724,0.343-1.003S761.411,109.011,761.884,109.011z M760.488,139.505v-22.648h2.793
		v22.648H760.488z"/>
	<path fill="#F2F2F2" d="M770.035,121.401c0.474-0.728,0.965-1.371,1.473-1.93s1.032-0.99,1.574-1.295
		c0.778-0.44,1.583-0.771,2.412-0.99s1.761-0.33,2.793-0.33c1.625,0,2.996,0.194,4.113,0.584s1.946,0.956,2.488,1.701
		c0.508,0.745,0.927,1.591,1.257,2.539s0.495,1.904,0.495,2.869v14.955h-2.895v-0.939c-1.422,0.626-3.241,0.939-5.459,0.939
		c-1.219,0-2.383-0.165-3.491-0.495s-2.01-0.774-2.704-1.333c-0.711-0.593-1.253-1.29-1.625-2.095
		c-0.372-0.804-0.559-1.629-0.559-2.476c0-1.676,0.517-3.157,1.549-4.443c0.948-1.253,3.225-1.879,6.83-1.879
		c1.016,0,1.875-0.085,2.577-0.254s1.24-0.397,1.612-0.686c0.355-0.288,0.656-0.651,0.901-1.092s0.368-0.897,0.368-1.371
		c0-0.491-0.123-0.939-0.368-1.346s-0.555-0.804-0.927-1.193c-0.39-0.355-0.939-0.618-1.65-0.787s-1.549-0.254-2.514-0.254
		c-0.491,0-1.028,0.034-1.612,0.102s-1.104,0.212-1.562,0.432c-0.406,0.169-0.8,0.437-1.181,0.8
		c-0.381,0.364-0.664,0.783-0.851,1.257L770.035,121.401z M783.746,128.079c-0.644,0.542-1.413,0.936-2.311,1.181
		c-0.897,0.246-1.904,0.368-3.021,0.368c-1.913,0-3.284,0.271-4.113,0.813c-0.491,0.339-0.854,0.72-1.092,1.143
		s-0.355,0.931-0.355,1.523c0,1.235,0.44,2.12,1.32,2.653s2.251,0.8,4.113,0.8c0.644,0,1.278-0.038,1.904-0.114
		s1.185-0.207,1.676-0.394c0.593-0.237,1.054-0.597,1.384-1.079s0.495-1.104,0.495-1.866V128.079z"/>
</g>
</svg>
