<?xml version="1.0" encoding="utf-8"?>
<!-- Generator: Adobe Illustrator 16.0.3, SVG Export Plug-In . SVG Version: 6.00 Build 0)  -->
<!DOCTYPE svg PUBLIC "-//W3C//DTD SVG 1.1//EN" "http://www.w3.org/Graphics/SVG/1.1/DTD/svg11.dtd">
<svg version="1.1" id="Layer_1" xmlns="http://www.w3.org/2000/svg" xmlns:xlink="http://www.w3.org/1999/xlink" x="0px" y="0px"
	 width="1163.054px" height="193.957px" viewBox="0 0 1163.054 193.957" enable-background="new 0 0 1163.054 193.957"
	 xml:space="preserve">
<g id="Layer_1_1_" display="none">
	
		<image display="inline" overflow="visible" enable-background="new    " width="231" height="218" xlink:href="A411FC13.jpeg"  transform="matrix(1 0 0 1 -6.9385 0)">
	</image>
</g>
<g id="book">
	<g>
		<path fill="#4A9B1D" d="M111.692,191.064c0,0,48.564-47.658,101.786-44.908v9.165
			C213.479,155.321,169.126,153.029,111.692,191.064z"/>
		<path fill="#4A9B1D" d="M111.692,187.4c0,0,38.483-53.607,96.142-57.275v9.166C207.834,139.291,162.278,138.824,111.692,187.4z"/>
		<path fill="#4A9B1D" d="M111.692,193.957c0,0,54.209-34.828,107.432-32.078v9.164
			C219.124,171.042,174.339,167.093,111.692,193.957z"/>
		<path fill="#4A9B1D" d="M107.434,191.064c0,0-48.565-47.658-101.789-44.908v9.165C5.645,155.321,49.998,153.029,107.434,191.064z"
			/>
		<path fill="#4A9B1D" d="M107.434,187.4c0,0-38.485-53.607-96.143-57.275v9.166C11.291,139.291,56.845,138.824,107.434,187.4z"/>
		<path fill="#4A9B1D" d="M107.434,193.957c0,0-54.21-34.828-107.434-32.078v9.164C0,171.042,44.784,167.093,107.434,193.957z"/>
	</g>
</g>
<g id="green_man">
	<g>
		<path fill="#4A9B1D" d="M58.229,82c0,0-15.833,5.833-31.5-9.667c0,0,7.833,15.833,27.833,20.333c0,0-14.833,13.501-7.667,37.833
			c0,0,8.5-41.334,42-21.5c0,0-35.667-27,1.667-56C90.562,53,85.896,50,58.229,82z"/>
		<circle fill="#4A9B1D" cx="54.562" cy="70.833" r="8.5"/>
	</g>
</g>
<g id="blue_man">
	<g>
		<path fill="#4A9B1D" d="M77.312,14.168c0,0,0.625,26.332,19.125,35.832v1.5c0,0-12.25,10.875-13.125,35.625
			c0,0,22.751-51.542,53.084,0c0,0-4.334-29.607-14.667-34.199c0,0,24.333-17.923,29.333-38.758
			C151.062,14.168,109.228,70.669,77.312,14.168z"/>
		<circle fill="#4A9B1D" cx="109.395" cy="23.918" r="9.75"/>
	</g>
</g>
<g id="hat">
	<g>
		<path fill="#4A9B1D" d="M93.562,7l15.834-7l15.666,7l-5.833,3.167L119.062,18c0,0-8.5,7.5-19.5,0v-7.333L93.562,7z"/>
		<g>
			<polygon fill="#4A9B1D" points="95.886,12.769 95.886,6.835 94.98,7.142 94.98,12.769 			"/>
			<path fill="#4A9B1D" d="M94.363,14.159v3.464c0,0.591,0.479,1.07,1.07,1.07c0.591,0,1.07-0.479,1.07-1.07v-3.464
				c0-0.292-0.118-0.558-0.308-0.751h-1.524C94.481,13.602,94.363,13.867,94.363,14.159z"/>
			<polygon fill="#4A9B1D" points="94.535,12.769 94.535,13.408 94.671,13.408 96.195,13.408 96.331,13.408 96.331,12.769 
				95.886,12.769 94.98,12.769 			"/>
		</g>
	</g>
</g>
<g id="red_man">
	<g>
		<path fill="#4A9B1D" d="M128.062,52.926c0,0,38.5,26.574,1.5,54.824c0,0,32.168-17.998,43.334,22.752
			c0,0,5.75-29.252-8.542-37.251c0,0,24.708-9.5,28.458-20.75c0,0-20.5,13.5-29.75,10.25c0,0-8.25-5.25-10.25-9
			C152.812,73.75,143.812,56.102,128.062,52.926z"/>
		<circle fill="#4A9B1D" cx="164.354" cy="70.792" r="8.542"/>
	</g>
</g>
<g id="sun">
	<path fill="#4A9B1D" d="M90.562,155"/>
	<circle fill="#4A9B1D" cx="110.895" cy="138.834" r="25.833"/>
</g>
<g id="sxivi">
	<polygon fill="#4A9B1D" points="109.812,90.5 108.062,110 112.812,110 	"/>
</g>
<g id="sxivi_2">
	<polygon fill="#4A9B1D" points="127.724,94.846 120.607,110.265 125.323,112.365 	"/>
</g>
<g id="sxivi_3">
	<polygon fill="#4A9B1D" points="144.312,106.25 131.062,116.875 134.437,120 	"/>
</g>
<g id="sxivi_4">
	<polygon fill="#4A9B1D" points="140.562,138.25 156.437,140.625 140.562,143.125 	"/>
</g>
<g id="sxivi_5">
	<polygon fill="#4A9B1D" points="152.937,123 137.687,126.25 139.812,130.501 	"/>
</g>
<g id="sxivi_6">
	<polygon fill="#4A9B1D" points="90.562,97 96.437,113.875 100.812,111.625 	"/>
</g>
<g id="sxivi_7">
	<polygon fill="#4A9B1D" points="75.062,109 90.562,118.25 87.312,122 	"/>
</g>
<g id="sxivi_8">
	<polygon fill="#4A9B1D" points="67.187,125.375 83.812,128.25 82.187,133.125 	"/>
</g>
<g id="sxivi_9">
	<polygon fill="#4A9B1D" points="65.437,144.625 81.812,139.625 81.812,144.625 	"/>
</g>
<g>
	<path fill="#FFFFFF" d="M268.839,68.752c0,1.723-0.268,3.313-0.804,4.772c-0.537,1.459-1.283,2.72-2.241,3.784
		c-0.958,1.064-2.101,1.895-3.428,2.492c-1.328,0.598-2.773,0.896-4.337,0.896c-1.582,0-3.032-0.246-4.351-0.738
		c-1.318-0.492-2.452-1.243-3.401-2.254c-0.949-1.011-1.692-2.285-2.228-3.823c-0.537-1.538-0.804-3.353-0.804-5.445V40.354h3.665
		v28.081c0,1.67,0.175,3.081,0.527,4.232c0.352,1.151,0.844,2.092,1.477,2.821c0.633,0.729,1.384,1.257,2.254,1.582
		c0.87,0.326,1.823,0.488,2.861,0.488c1.177,0,2.215-0.224,3.111-0.672s1.644-1.072,2.241-1.872c0.597-0.8,1.045-1.762,1.345-2.887
		c0.299-1.125,0.448-2.373,0.448-3.744v-1.529c0-0.914-0.158-1.784-0.475-2.61c-0.316-0.826-0.712-1.612-1.187-2.36
		c-0.475-0.747-0.985-1.463-1.529-2.149c-0.545-0.686-1.055-1.358-1.529-2.017s-0.87-1.309-1.187-1.951
		c-0.316-0.642-0.475-1.296-0.475-1.964c0-0.738,0.088-1.454,0.264-2.149c0.175-0.694,0.536-1.437,1.081-2.228l3.691,1.028
		c-0.264,0.352-0.492,0.655-0.686,0.91c-0.194,0.255-0.356,0.505-0.488,0.751c-0.132,0.247-0.233,0.501-0.303,0.765
		c-0.07,0.264-0.105,0.571-0.105,0.923c0,0.65,0.162,1.283,0.488,1.898c0.325,0.616,0.734,1.226,1.226,1.833
		c0.492,0.606,1.019,1.23,1.582,1.872c0.563,0.642,1.09,1.318,1.582,2.03c0.492,0.712,0.9,1.468,1.226,2.268
		c0.325,0.8,0.488,1.674,0.488,2.624V68.752z"/>
	<path fill="#FFFFFF" d="M295.734,69.016c0,7.788-3.604,11.681-10.811,11.681c-1.776,0-3.34-0.299-4.693-0.896
		c-1.354-0.597-2.483-1.411-3.388-2.439c-0.906-1.028-1.586-2.228-2.043-3.599c-0.458-1.371-0.686-2.821-0.686-4.351v-1.793
		c0-1.055,0.264-2.158,0.791-3.309c0.527-1.151,1.187-2.281,1.978-3.388l2.531,1.292c-0.264,0.492-0.497,0.993-0.699,1.503
		c-0.202,0.51-0.369,1.002-0.501,1.477s-0.233,0.919-0.303,1.332c-0.07,0.413-0.105,0.778-0.105,1.094v1.951
		c0,1.283,0.123,2.422,0.369,3.415c0.246,0.993,0.646,1.829,1.2,2.505c0.554,0.677,1.288,1.191,2.202,1.542
		c0.914,0.352,2.03,0.527,3.349,0.527c1.23,0,2.294-0.158,3.19-0.475s1.635-0.817,2.215-1.503s1.011-1.582,1.292-2.689
		c0.281-1.107,0.422-2.452,0.422-4.034v-2.979c0-1.283-0.167-2.448-0.501-3.494c-0.334-1.045-0.774-2.021-1.318-2.927
		c-0.545-0.905-1.169-1.753-1.872-2.544c-0.703-0.791-1.415-1.573-2.136-2.347c-0.721-0.773-1.433-1.556-2.136-2.347
		c-0.703-0.791-1.328-1.625-1.872-2.505c-0.545-0.879-0.985-1.828-1.318-2.848c-0.334-1.019-0.501-2.145-0.501-3.375v-3.138h3.401
		v3.138c0,1.354,0.294,2.593,0.883,3.718c0.589,1.125,1.327,2.215,2.215,3.27c0.887,1.055,1.846,2.109,2.874,3.164
		s1.986,2.185,2.874,3.388c0.887,1.204,1.625,2.527,2.215,3.968c0.589,1.441,0.883,3.068,0.883,4.878V69.016z"/>
	<path fill="#FFFFFF" d="M325.792,69.121c-0.018,0.844-0.136,1.714-0.356,2.61c-0.22,0.896-0.554,1.771-1.002,2.624
		c-0.448,0.853-1.015,1.666-1.701,2.439c-0.686,0.774-1.494,1.446-2.426,2.017c-0.932,0.571-1.991,1.028-3.177,1.371
		s-2.509,0.514-3.968,0.514c-1.336,0-2.567-0.18-3.691-0.541c-1.125-0.36-2.149-0.839-3.072-1.437
		c-0.923-0.597-1.736-1.292-2.439-2.083c-0.703-0.791-1.292-1.617-1.767-2.479c-0.475-0.861-0.835-1.727-1.081-2.597
		c-0.247-0.87-0.369-1.683-0.369-2.439V66.01c0-1.529,0.268-3.01,0.804-4.443c0.536-1.433,1.354-2.716,2.452-3.85
		c1.098-1.134,2.487-2.057,4.166-2.769c1.678-0.712,3.669-1.111,5.972-1.2l2.637-5.3c0-0.439-0.119-0.945-0.356-1.516
		c-0.237-0.571-0.576-1.107-1.015-1.608c-0.439-0.501-0.958-0.923-1.556-1.266c-0.598-0.343-1.257-0.514-1.978-0.514
		c-1.793,0-3.116,0.339-3.968,1.015c-0.853,0.677-1.279,1.542-1.279,2.597v3.401h-3.296v-3.401c0-1.002,0.241-1.92,0.725-2.755
		c0.483-0.834,1.121-1.551,1.912-2.149c0.791-0.597,1.701-1.063,2.729-1.397c1.028-0.333,2.087-0.501,3.177-0.501
		c1.371,0,2.571,0.189,3.599,0.567c1.028,0.378,1.885,0.914,2.571,1.608c0.686,0.695,1.195,1.542,1.529,2.544
		c0.333,1.002,0.501,2.127,0.501,3.375l-2.584,5.616c0.896,0.281,1.841,0.738,2.834,1.371c0.993,0.633,1.902,1.428,2.729,2.386
		c0.826,0.958,1.503,2.074,2.03,3.349c0.527,1.275,0.782,2.703,0.765,4.285L325.792,69.121z M322.075,65.403
		c0-0.896-0.158-1.841-0.475-2.834c-0.316-0.993-0.791-1.907-1.424-2.742c-0.633-0.834-1.428-1.525-2.386-2.07
		c-0.958-0.544-2.07-0.817-3.335-0.817h-1.767c-1.301,0-2.461,0.215-3.48,0.646c-1.02,0.431-1.885,1.046-2.597,1.846
		c-0.712,0.8-1.257,1.767-1.635,2.9c-0.378,1.134-0.567,2.413-0.567,3.836v2.531c0,1.038,0.18,2.087,0.541,3.151
		c0.36,1.064,0.91,2.021,1.648,2.874c0.738,0.853,1.665,1.547,2.782,2.083c1.116,0.537,2.43,0.804,3.942,0.804
		c1.494,0,2.795-0.22,3.902-0.659c1.107-0.439,2.017-1.055,2.729-1.846s1.243-1.731,1.595-2.821c0.352-1.09,0.527-2.285,0.527-3.586
		V65.403z"/>
	<path fill="#FFFFFF" d="M352.502,69.016c0,7.788-3.604,11.681-10.811,11.681c-1.776,0-3.34-0.299-4.693-0.896
		c-1.354-0.597-2.483-1.411-3.388-2.439c-0.906-1.028-1.586-2.228-2.043-3.599c-0.458-1.371-0.686-2.821-0.686-4.351v-1.793
		c0-1.055,0.264-2.158,0.791-3.309c0.527-1.151,1.187-2.281,1.978-3.388l2.531,1.292c-0.264,0.492-0.497,0.993-0.699,1.503
		c-0.202,0.51-0.369,1.002-0.501,1.477s-0.233,0.919-0.303,1.332c-0.07,0.413-0.105,0.778-0.105,1.094v1.951
		c0,1.283,0.123,2.422,0.369,3.415c0.246,0.993,0.646,1.829,1.2,2.505c0.554,0.677,1.288,1.191,2.202,1.542
		c0.914,0.352,2.03,0.527,3.349,0.527c1.23,0,2.294-0.158,3.19-0.475s1.635-0.817,2.215-1.503s1.011-1.582,1.292-2.689
		c0.281-1.107,0.422-2.452,0.422-4.034v-2.979c0-1.283-0.167-2.448-0.501-3.494c-0.334-1.045-0.774-2.021-1.318-2.927
		c-0.545-0.905-1.169-1.753-1.872-2.544c-0.703-0.791-1.415-1.573-2.136-2.347c-0.721-0.773-1.433-1.556-2.136-2.347
		c-0.703-0.791-1.328-1.625-1.872-2.505c-0.545-0.879-0.985-1.828-1.318-2.848c-0.334-1.019-0.501-2.145-0.501-3.375v-3.138h3.401
		v3.138c0,1.354,0.294,2.593,0.883,3.718c0.589,1.125,1.327,2.215,2.215,3.27c0.887,1.055,1.846,2.109,2.874,3.164
		s1.986,2.185,2.874,3.388c0.887,1.204,1.625,2.527,2.215,3.968c0.589,1.441,0.883,3.068,0.883,4.878V69.016z"/>
	<path fill="#FFFFFF" d="M379.924,69.886c0,1.652-0.237,3.142-0.712,4.469c-0.475,1.328-1.165,2.461-2.07,3.401
		c-0.906,0.94-2.026,1.666-3.362,2.175c-1.336,0.51-2.874,0.765-4.614,0.765c-1.582,0-3.032-0.25-4.351-0.751
		s-2.461-1.222-3.428-2.162c-0.967-0.94-1.718-2.083-2.254-3.428c-0.537-1.345-0.804-2.852-0.804-4.522V47.922
		c0-1.213,0.167-2.268,0.501-3.164c0.333-0.896,0.787-1.635,1.358-2.215c0.571-0.58,1.243-1.011,2.017-1.292
		c0.773-0.281,1.599-0.422,2.479-0.422c0.738,0,1.467,0.066,2.188,0.198c0.721,0.132,1.437,0.281,2.149,0.448
		c0.712,0.167,1.406,0.316,2.083,0.448c0.676,0.132,1.332,0.198,1.964,0.198c0.527,0,1.024-0.04,1.49-0.119
		c0.465-0.079,0.932-0.193,1.397-0.343c0.465-0.149,0.958-0.333,1.477-0.554c0.518-0.22,1.094-0.47,1.727-0.751v2.742
		c-1.16,0.703-2.241,1.204-3.243,1.503c-1.002,0.299-2.057,0.448-3.164,0.448c-0.65,0-1.279-0.053-1.885-0.158
		s-1.204-0.224-1.793-0.356c-0.589-0.132-1.183-0.25-1.78-0.356c-0.598-0.105-1.213-0.158-1.846-0.158
		c-0.686-0.017-1.27,0.075-1.753,0.277c-0.484,0.202-0.879,0.488-1.187,0.857c-0.308,0.369-0.532,0.804-0.672,1.305
		c-0.141,0.501-0.211,1.042-0.211,1.622v8.78c0.544-0.844,1.134-1.546,1.767-2.109c0.633-0.563,1.279-1.011,1.938-1.345
		c0.659-0.333,1.309-0.567,1.951-0.699c0.642-0.132,1.252-0.198,1.833-0.198c1.74,0,3.278,0.303,4.614,0.91
		c1.335,0.606,2.465,1.411,3.388,2.413s1.622,2.158,2.096,3.467c0.475,1.31,0.712,2.659,0.712,4.047V69.886z M376.259,63.505
		c0-1.125-0.149-2.171-0.448-3.138c-0.299-0.966-0.743-1.802-1.332-2.505c-0.589-0.703-1.328-1.252-2.215-1.648
		c-0.888-0.396-1.921-0.593-3.098-0.593c-0.422,0-0.893,0.013-1.411,0.04c-0.519,0.026-1.042,0.119-1.569,0.277
		s-1.042,0.4-1.542,0.725c-0.501,0.326-0.949,0.778-1.345,1.358s-0.712,1.323-0.949,2.228c-0.237,0.906-0.356,2.008-0.356,3.309
		v6.275c0,1.055,0.145,2.053,0.435,2.993c0.29,0.94,0.725,1.758,1.305,2.452c0.58,0.695,1.318,1.249,2.215,1.661
		c0.896,0.413,1.951,0.62,3.164,0.62c2.408,0,4.201-0.689,5.379-2.07c1.177-1.38,1.767-3.371,1.767-5.972V63.505z"/>
	<path fill="#FFFFFF" d="M406.529,70.044c0,1.635-0.26,3.111-0.778,4.43c-0.519,1.318-1.244,2.439-2.175,3.362
		c-0.932,0.923-2.048,1.631-3.349,2.123c-1.301,0.492-2.742,0.738-4.324,0.738c-1.776,0-3.349-0.286-4.72-0.857
		c-1.371-0.571-2.518-1.362-3.441-2.373c-0.923-1.011-1.622-2.202-2.096-3.573s-0.712-2.865-0.712-4.482v-5.563
		c0-1.318,0.237-2.65,0.712-3.995s1.173-2.562,2.096-3.652c0.923-1.09,2.07-1.978,3.441-2.663s2.944-1.028,4.72-1.028
		c0.597,0,1.226,0.057,1.885,0.171c0.659,0.115,1.309,0.339,1.951,0.672c0.642,0.334,1.256,0.795,1.846,1.384
		c0.589,0.589,1.103,1.358,1.542,2.307v-8.807c0-0.738-0.207-1.397-0.62-1.978c-0.413-0.58-0.949-1.072-1.608-1.477
		c-0.659-0.404-1.402-0.712-2.228-0.923c-0.827-0.211-1.661-0.316-2.505-0.316c-1.055,0-1.978,0.102-2.769,0.303
		c-0.791,0.202-1.45,0.471-1.978,0.804c-0.527,0.334-0.923,0.721-1.187,1.16c-0.264,0.439-0.396,0.906-0.396,1.397v3.032h-3.718
		V47.21c0-0.914,0.286-1.784,0.857-2.61c0.571-0.826,1.327-1.556,2.268-2.188c0.94-0.633,2.017-1.134,3.23-1.503
		s2.461-0.554,3.744-0.554c1.354,0,2.654,0.189,3.902,0.567c1.248,0.378,2.351,0.914,3.309,1.608
		c0.958,0.695,1.723,1.525,2.294,2.492c0.571,0.967,0.857,2.04,0.857,3.217L406.529,70.044z M402.864,63.742
		c0-1.459-0.181-2.703-0.541-3.731c-0.36-1.028-0.857-1.868-1.49-2.518c-0.633-0.65-1.38-1.125-2.241-1.424
		c-0.861-0.299-1.793-0.448-2.795-0.448c-1.178,0-2.215,0.247-3.111,0.738c-0.896,0.492-1.648,1.13-2.254,1.912
		c-0.606,0.782-1.064,1.666-1.371,2.65c-0.308,0.985-0.461,1.96-0.461,2.927v5.563c0,1.249,0.171,2.373,0.514,3.375
		s0.834,1.863,1.477,2.584c0.642,0.721,1.419,1.275,2.333,1.661c0.914,0.387,1.942,0.58,3.085,0.58c2.232,0,3.933-0.708,5.102-2.123
		c1.169-1.415,1.753-3.441,1.753-6.078V63.742z"/>
	<path fill="#FFFFFF" d="M434.241,69.016c0,7.788-3.604,11.681-10.811,11.681c-1.776,0-3.34-0.299-4.693-0.896
		c-1.354-0.597-2.483-1.411-3.388-2.439c-0.906-1.028-1.586-2.228-2.043-3.599c-0.458-1.371-0.686-2.821-0.686-4.351v-1.793
		c0-1.055,0.264-2.158,0.791-3.309c0.527-1.151,1.187-2.281,1.978-3.388l2.531,1.292c-0.264,0.492-0.497,0.993-0.699,1.503
		c-0.202,0.51-0.369,1.002-0.501,1.477s-0.233,0.919-0.303,1.332c-0.07,0.413-0.105,0.778-0.105,1.094v1.951
		c0,1.283,0.123,2.422,0.369,3.415c0.246,0.993,0.646,1.829,1.2,2.505c0.554,0.677,1.288,1.191,2.202,1.542
		c0.914,0.352,2.03,0.527,3.349,0.527c1.23,0,2.294-0.158,3.19-0.475s1.635-0.817,2.215-1.503s1.011-1.582,1.292-2.689
		c0.281-1.107,0.422-2.452,0.422-4.034v-2.979c0-1.283-0.167-2.448-0.501-3.494c-0.334-1.045-0.774-2.021-1.318-2.927
		c-0.545-0.905-1.169-1.753-1.872-2.544c-0.703-0.791-1.415-1.573-2.136-2.347c-0.721-0.773-1.433-1.556-2.136-2.347
		c-0.703-0.791-1.328-1.625-1.872-2.505c-0.545-0.879-0.985-1.828-1.318-2.848c-0.334-1.019-0.501-2.145-0.501-3.375v-3.138h3.401
		v3.138c0,1.354,0.294,2.593,0.883,3.718c0.589,1.125,1.327,2.215,2.215,3.27c0.887,1.055,1.846,2.109,2.874,3.164
		s1.986,2.185,2.874,3.388c0.887,1.204,1.625,2.527,2.215,3.968c0.589,1.441,0.883,3.068,0.883,4.878V69.016z"/>
	<path fill="#FFFFFF" d="M461.663,69.886c0,1.652-0.237,3.142-0.712,4.469c-0.475,1.328-1.165,2.461-2.07,3.401
		c-0.906,0.94-2.026,1.666-3.362,2.175c-1.336,0.51-2.874,0.765-4.614,0.765c-1.582,0-3.032-0.25-4.351-0.751
		s-2.461-1.222-3.428-2.162c-0.967-0.94-1.718-2.083-2.254-3.428c-0.537-1.345-0.804-2.852-0.804-4.522V47.922
		c0-1.213,0.167-2.268,0.501-3.164c0.333-0.896,0.787-1.635,1.358-2.215c0.571-0.58,1.243-1.011,2.017-1.292
		c0.773-0.281,1.599-0.422,2.479-0.422c0.738,0,1.467,0.066,2.188,0.198c0.721,0.132,1.437,0.281,2.149,0.448
		c0.712,0.167,1.406,0.316,2.083,0.448c0.676,0.132,1.332,0.198,1.964,0.198c0.527,0,1.024-0.04,1.49-0.119
		c0.465-0.079,0.932-0.193,1.397-0.343c0.465-0.149,0.958-0.333,1.477-0.554c0.518-0.22,1.094-0.47,1.727-0.751v2.742
		c-1.16,0.703-2.241,1.204-3.243,1.503c-1.002,0.299-2.057,0.448-3.164,0.448c-0.65,0-1.279-0.053-1.885-0.158
		s-1.204-0.224-1.793-0.356c-0.589-0.132-1.183-0.25-1.78-0.356c-0.598-0.105-1.213-0.158-1.846-0.158
		c-0.686-0.017-1.27,0.075-1.753,0.277c-0.484,0.202-0.879,0.488-1.187,0.857c-0.308,0.369-0.532,0.804-0.672,1.305
		c-0.141,0.501-0.211,1.042-0.211,1.622v8.78c0.544-0.844,1.134-1.546,1.767-2.109c0.633-0.563,1.279-1.011,1.938-1.345
		c0.659-0.333,1.309-0.567,1.951-0.699c0.642-0.132,1.252-0.198,1.833-0.198c1.74,0,3.278,0.303,4.614,0.91
		c1.335,0.606,2.465,1.411,3.388,2.413s1.622,2.158,2.096,3.467c0.475,1.31,0.712,2.659,0.712,4.047V69.886z M457.998,63.505
		c0-1.125-0.149-2.171-0.448-3.138c-0.299-0.966-0.743-1.802-1.332-2.505c-0.589-0.703-1.328-1.252-2.215-1.648
		c-0.888-0.396-1.921-0.593-3.098-0.593c-0.422,0-0.893,0.013-1.411,0.04c-0.519,0.026-1.042,0.119-1.569,0.277
		s-1.042,0.4-1.542,0.725c-0.501,0.326-0.949,0.778-1.345,1.358s-0.712,1.323-0.949,2.228c-0.237,0.906-0.356,2.008-0.356,3.309
		v6.275c0,1.055,0.145,2.053,0.435,2.993c0.29,0.94,0.725,1.758,1.305,2.452c0.58,0.695,1.318,1.249,2.215,1.661
		c0.896,0.413,1.951,0.62,3.164,0.62c2.408,0,4.201-0.689,5.379-2.07c1.177-1.38,1.767-3.371,1.767-5.972V63.505z"/>
	<path fill="#FFFFFF" d="M488.557,69.016c0,7.788-3.604,11.681-10.811,11.681c-1.776,0-3.34-0.299-4.693-0.896
		c-1.354-0.597-2.483-1.411-3.388-2.439c-0.906-1.028-1.586-2.228-2.043-3.599c-0.458-1.371-0.686-2.821-0.686-4.351v-1.793
		c0-1.055,0.264-2.158,0.791-3.309c0.527-1.151,1.187-2.281,1.978-3.388l2.531,1.292c-0.264,0.492-0.497,0.993-0.699,1.503
		c-0.202,0.51-0.369,1.002-0.501,1.477s-0.233,0.919-0.303,1.332c-0.07,0.413-0.105,0.778-0.105,1.094v1.951
		c0,1.283,0.123,2.422,0.369,3.415c0.246,0.993,0.646,1.829,1.2,2.505c0.554,0.677,1.288,1.191,2.202,1.542
		c0.914,0.352,2.03,0.527,3.349,0.527c1.23,0,2.294-0.158,3.19-0.475s1.635-0.817,2.215-1.503s1.011-1.582,1.292-2.689
		c0.281-1.107,0.422-2.452,0.422-4.034v-2.979c0-1.283-0.167-2.448-0.501-3.494c-0.334-1.045-0.774-2.021-1.318-2.927
		c-0.545-0.905-1.169-1.753-1.872-2.544c-0.703-0.791-1.415-1.573-2.136-2.347c-0.721-0.773-1.433-1.556-2.136-2.347
		c-0.703-0.791-1.328-1.625-1.872-2.505c-0.545-0.879-0.985-1.828-1.318-2.848c-0.334-1.019-0.501-2.145-0.501-3.375v-3.138h3.401
		v3.138c0,1.354,0.294,2.593,0.883,3.718c0.589,1.125,1.327,2.215,2.215,3.27c0.887,1.055,1.846,2.109,2.874,3.164
		s1.986,2.185,2.874,3.388c0.887,1.204,1.625,2.527,2.215,3.968c0.589,1.441,0.883,3.068,0.883,4.878V69.016z"/>
	<path fill="#FFFFFF" d="M531.272,63.558c0,1.301-0.084,2.624-0.25,3.968c-0.168,1.345-0.432,2.654-0.791,3.929
		c-0.361,1.275-0.827,2.47-1.398,3.586c-0.571,1.117-1.257,2.096-2.057,2.94s-1.723,1.507-2.768,1.991
		c-1.047,0.484-2.229,0.725-3.547,0.725v-3.138c1.178,0,2.215-0.391,3.111-1.173c0.896-0.782,1.639-1.81,2.229-3.085
		c0.588-1.274,1.032-2.729,1.331-4.364s0.448-3.313,0.448-5.036v-7.62c0-1.002-0.018-2.013-0.053-3.032
		c-0.035-1.019-0.119-2.004-0.25-2.953c-0.133-0.949-0.326-1.833-0.58-2.65c-0.256-0.817-0.607-1.529-1.055-2.136
		c-0.449-0.606-1.007-1.085-1.675-1.437c-0.668-0.352-1.477-0.527-2.426-0.527c-1.512,0-2.677,0.211-3.493,0.633
		c-0.818,0.422-1.42,0.972-1.807,1.648c-0.387,0.677-0.615,1.441-0.686,2.294c-0.07,0.853-0.105,1.701-0.105,2.544v15.451
		c0,1.776-0.181,3.529-0.541,5.26c-0.36,1.731-0.953,3.292-1.779,4.68c-0.826,1.389-1.912,2.509-3.256,3.362
		c-1.346,0.853-3.002,1.279-4.971,1.279c-2.109,0-3.846-0.439-5.208-1.318c-1.361-0.879-2.435-2.039-3.217-3.48
		c-0.781-1.441-1.327-3.076-1.635-4.904c-0.307-1.828-0.461-3.691-0.461-5.59V54.593c0-1.143,0.057-2.285,0.172-3.428
		c0.113-1.143,0.316-2.237,0.605-3.283c0.291-1.045,0.689-2.021,1.2-2.927c0.51-0.905,1.151-1.691,1.925-2.36
		c0.773-0.668,1.705-1.195,2.795-1.582c1.09-0.386,2.363-0.589,3.823-0.606c0.738-0.017,1.524,0.031,2.359,0.145
		c0.835,0.115,1.652,0.374,2.453,0.778c0.799,0.405,1.551,0.993,2.254,1.767c0.703,0.774,1.283,1.802,1.74,3.085
		c0.475-1.335,0.976-2.39,1.503-3.164c0.527-0.773,1.103-1.358,1.728-1.753c0.623-0.396,1.313-0.646,2.069-0.751
		s1.6-0.158,2.531-0.158c1.441,0,2.681,0.211,3.718,0.633s1.916,0.998,2.637,1.727c0.721,0.729,1.305,1.586,1.754,2.571
		c0.447,0.985,0.791,2.03,1.027,3.138c0.238,1.107,0.396,2.254,0.475,3.441c0.08,1.187,0.119,2.351,0.119,3.494V63.558z
		 M511.76,50.664c0-0.844-0.123-1.691-0.369-2.544c-0.246-0.853-0.638-1.617-1.174-2.294c-0.536-0.676-1.238-1.226-2.109-1.648
		c-0.869-0.422-1.938-0.633-3.203-0.633c-1.46,0-2.637,0.36-3.533,1.081c-0.896,0.721-1.591,1.657-2.083,2.808
		c-0.492,1.151-0.822,2.448-0.988,3.889c-0.168,1.441-0.251,2.874-0.251,4.298v9.36c0,2.092,0.101,3.92,0.304,5.484
		c0.201,1.565,0.563,2.874,1.08,3.929c0.519,1.055,1.217,1.846,2.097,2.373c0.879,0.527,2.004,0.791,3.375,0.791
		c1.266,0,2.334-0.259,3.203-0.778c0.871-0.518,1.573-1.266,2.109-2.241s0.928-2.158,1.174-3.546
		c0.246-1.388,0.369-2.962,0.369-4.72V50.664z"/>
	<path fill="#FFFFFF" d="M585.641,55.463c0,0.738-0.097,1.556-0.29,2.452s-0.462,1.819-0.804,2.769
		c-0.344,0.949-0.761,1.898-1.253,2.848s-1.037,1.846-1.635,2.689s-1.248,1.613-1.951,2.307c-0.703,0.695-1.433,1.252-2.188,1.674
		l-2.32-2.109c1.02-0.755,1.942-1.678,2.769-2.769c0.826-1.09,1.529-2.228,2.109-3.415s1.028-2.369,1.345-3.546
		c0.316-1.177,0.475-2.232,0.475-3.164v-3.296c0-1.318-0.149-2.482-0.448-3.494c-0.299-1.011-0.708-1.859-1.226-2.544
		c-0.52-0.686-1.126-1.2-1.82-1.542s-1.437-0.514-2.228-0.514c-1.248,0-2.268,0.189-3.059,0.567
		c-0.791,0.378-1.406,0.901-1.846,1.569c-0.439,0.668-0.738,1.45-0.896,2.347s-0.237,1.863-0.237,2.9v8.174h-3.401v-8.174
		c0-1.002-0.07-1.964-0.211-2.887s-0.404-1.736-0.791-2.439c-0.387-0.703-0.937-1.266-1.647-1.688
		c-0.713-0.422-1.631-0.633-2.756-0.633c-1.037,0-1.898,0.215-2.584,0.646c-0.686,0.431-1.239,0.998-1.661,1.701
		c-0.422,0.703-0.721,1.503-0.896,2.399s-0.264,1.811-0.264,2.742v8.332h-3.454v-8.332c0-0.932-0.044-1.833-0.132-2.703
		s-0.321-1.639-0.698-2.307c-0.379-0.668-0.963-1.204-1.754-1.608c-0.791-0.404-1.89-0.606-3.296-0.606
		c-1.037,0-1.921,0.233-2.649,0.699c-0.73,0.466-1.332,1.107-1.807,1.925s-0.822,1.771-1.041,2.861
		c-0.221,1.09-0.33,2.268-0.33,3.533l0.053,3.612c-0.018,2.004,0.312,3.894,0.988,5.669c0.677,1.776,1.64,3.411,2.888,4.904
		c1.248,1.494,2.742,2.834,4.482,4.021s3.665,2.193,5.774,3.019c2.109,0.827,4.363,1.459,6.764,1.898
		c2.398,0.439,4.882,0.659,7.448,0.659h3.771v3.533h-3.665c-3.463,0-6.653-0.312-9.571-0.936c-2.918-0.624-5.563-1.485-7.937-2.584
		c-2.373-1.098-4.461-2.399-6.263-3.902s-3.317-3.133-4.548-4.891c-1.23-1.757-2.167-3.603-2.808-5.537
		c-0.643-1.934-0.98-3.885-1.016-5.854l-0.053-3.771c0-1.705,0.185-3.296,0.554-4.772s0.94-2.751,1.714-3.823
		c0.773-1.072,1.758-1.916,2.953-2.531c1.195-0.615,2.628-0.923,4.298-0.923c0.879,0,1.683,0.075,2.413,0.224
		c0.729,0.149,1.41,0.431,2.043,0.844c0.633,0.413,1.234,0.989,1.807,1.727c0.57,0.738,1.129,1.697,1.674,2.874
		c0.369-1.177,0.773-2.149,1.213-2.914s0.936-1.371,1.49-1.819c0.553-0.448,1.168-0.76,1.846-0.936
		c0.676-0.175,1.428-0.264,2.254-0.264c0.791,0,1.521,0.088,2.188,0.264c0.668,0.176,1.292,0.479,1.872,0.91
		c0.58,0.431,1.111,1.011,1.596,1.74c0.482,0.729,0.936,1.648,1.357,2.755c0.492-1.107,1.041-2.013,1.648-2.716
		c0.605-0.703,1.247-1.252,1.924-1.648s1.371-0.668,2.084-0.817c0.711-0.149,1.419-0.224,2.122-0.224
		c1.318,0,2.558,0.242,3.718,0.725c1.16,0.484,2.171,1.196,3.032,2.136c0.861,0.94,1.538,2.096,2.03,3.467s0.738,2.936,0.738,4.693
		V55.463z"/>
	<path fill="#FFFFFF" d="M612.246,71.626c0,1.6-0.295,2.971-0.884,4.113c-0.589,1.143-1.38,2.083-2.373,2.821
		s-2.14,1.279-3.44,1.622s-2.663,0.514-4.087,0.514c-1.564,0-3.011-0.241-4.338-0.725c-1.327-0.483-2.47-1.156-3.428-2.017
		c-0.958-0.861-1.705-1.881-2.24-3.059c-0.537-1.177-0.805-2.452-0.805-3.823c0-1.283,0.127-2.413,0.383-3.388
		c0.254-0.976,0.605-1.854,1.055-2.637c0.447-0.782,0.975-1.477,1.582-2.083c0.605-0.606,1.261-1.182,1.964-1.727l2.268,2.268
		c-0.668,0.616-1.23,1.165-1.688,1.648c-0.457,0.484-0.826,0.998-1.107,1.542c-0.281,0.545-0.483,1.165-0.606,1.859
		c-0.123,0.695-0.185,1.552-0.185,2.571c0,2.057,0.58,3.643,1.74,4.759c1.16,1.117,2.962,1.674,5.405,1.674
		c1.072,0,2.048-0.141,2.927-0.422c0.879-0.281,1.63-0.686,2.255-1.213c0.623-0.527,1.103-1.164,1.437-1.912
		c0.334-0.747,0.501-1.586,0.501-2.518V49.108c0-0.826-0.145-1.582-0.436-2.268c-0.289-0.686-0.698-1.27-1.226-1.753
		c-0.527-0.483-1.169-0.861-1.925-1.134c-0.756-0.272-1.608-0.409-2.558-0.409c-0.967,0-1.851,0.132-2.649,0.396
		c-0.801,0.264-1.49,0.637-2.07,1.121c-0.58,0.484-1.028,1.072-1.345,1.767c-0.316,0.695-0.475,1.473-0.475,2.333
		c0,0.598,0.079,1.2,0.237,1.806s0.492,1.314,1.002,2.123l-2.716,2.057c-1.318-1.757-1.978-3.753-1.978-5.985
		c0-1.318,0.229-2.518,0.686-3.599s1.107-2.008,1.951-2.782c0.844-0.773,1.859-1.371,3.045-1.793
		c1.188-0.422,2.51-0.633,3.969-0.633c1.424,0,2.756,0.189,3.994,0.567c1.24,0.378,2.316,0.936,3.23,1.674s1.63,1.652,2.148,2.742
		c0.519,1.09,0.778,2.347,0.778,3.771V71.626z"/>
	<path fill="#FFFFFF" d="M625.166,40.354c0,0.738,0.18,1.349,0.54,1.833c0.36,0.484,0.818,0.901,1.371,1.252
		c0.555,0.352,1.147,0.672,1.78,0.962s1.226,0.603,1.78,0.936c0.553,0.334,1.01,0.725,1.371,1.173
		c0.359,0.448,0.54,1.006,0.54,1.674c0,0.527-0.026,0.998-0.079,1.411c-0.053,0.413-0.137,0.809-0.25,1.187
		c-0.115,0.378-0.26,0.756-0.436,1.134c-0.176,0.378-0.387,0.804-0.633,1.279c1.424,0.334,2.663,0.896,3.718,1.688
		s1.938,1.701,2.649,2.729c0.713,1.028,1.244,2.119,1.596,3.27c0.352,1.151,0.527,2.246,0.527,3.283l0.053,5.88
		c0,1.09-0.233,2.254-0.699,3.494s-1.151,2.391-2.057,3.454c-0.905,1.064-2.034,1.947-3.388,2.65
		c-1.354,0.703-2.909,1.055-4.667,1.055c-1.775,0-3.34-0.325-4.693-0.976c-1.354-0.65-2.483-1.49-3.389-2.518
		s-1.586-2.175-2.043-3.441s-0.686-2.522-0.686-3.771v-5.774c0-1.177,0.176-2.364,0.527-3.56c0.352-1.195,0.918-2.303,1.701-3.322
		c0.781-1.019,1.783-1.898,3.006-2.637c1.221-0.738,2.702-1.239,4.442-1.503c0.264-0.633,0.47-1.169,0.62-1.608
		c0.148-0.439,0.264-0.839,0.342-1.2c0.08-0.36,0.128-0.699,0.146-1.015s0.026-0.676,0.026-1.081
		c-0.018-0.439-0.211-0.817-0.58-1.134s-0.83-0.624-1.385-0.923c-0.553-0.299-1.146-0.606-1.779-0.923s-1.222-0.699-1.767-1.147
		s-0.998-0.976-1.358-1.582s-0.54-1.349-0.54-2.228H625.166z M621.764,69.411c0,1.055,0.136,2.074,0.408,3.059
		c0.272,0.985,0.699,1.855,1.279,2.61c0.58,0.756,1.318,1.358,2.215,1.806s1.969,0.672,3.217,0.672c1.301,0,2.403-0.246,3.309-0.738
		c0.905-0.492,1.64-1.121,2.202-1.885s0.971-1.608,1.226-2.531s0.383-1.815,0.383-2.676v-5.353c0-0.914-0.145-1.859-0.436-2.834
		c-0.289-0.976-0.729-1.859-1.318-2.65s-1.331-1.441-2.228-1.951c-0.896-0.51-1.942-0.765-3.138-0.765
		c-1.283,0-2.378,0.224-3.283,0.672s-1.639,1.051-2.201,1.806c-0.563,0.756-0.976,1.644-1.239,2.663
		c-0.264,1.02-0.396,2.092-0.396,3.217V69.411z"/>
	<path fill="#FFFFFF" d="M693.536,55.463c0,0.738-0.097,1.556-0.29,2.452s-0.462,1.819-0.804,2.769
		c-0.344,0.949-0.761,1.898-1.253,2.848s-1.037,1.846-1.635,2.689s-1.248,1.613-1.951,2.307c-0.703,0.695-1.433,1.252-2.188,1.674
		l-2.32-2.109c1.02-0.755,1.942-1.678,2.769-2.769c0.826-1.09,1.529-2.228,2.109-3.415s1.028-2.369,1.345-3.546
		c0.316-1.177,0.475-2.232,0.475-3.164v-3.296c0-1.318-0.149-2.482-0.448-3.494c-0.299-1.011-0.708-1.859-1.226-2.544
		c-0.52-0.686-1.126-1.2-1.82-1.542s-1.437-0.514-2.228-0.514c-1.248,0-2.268,0.189-3.059,0.567
		c-0.791,0.378-1.406,0.901-1.846,1.569c-0.439,0.668-0.738,1.45-0.896,2.347s-0.237,1.863-0.237,2.9v8.174h-3.401v-8.174
		c0-1.002-0.07-1.964-0.211-2.887s-0.404-1.736-0.791-2.439c-0.387-0.703-0.937-1.266-1.647-1.688
		c-0.713-0.422-1.631-0.633-2.756-0.633c-1.037,0-1.898,0.215-2.584,0.646c-0.686,0.431-1.239,0.998-1.661,1.701
		c-0.422,0.703-0.721,1.503-0.896,2.399s-0.264,1.811-0.264,2.742v8.332h-3.454v-8.332c0-0.932-0.044-1.833-0.132-2.703
		s-0.321-1.639-0.698-2.307c-0.379-0.668-0.963-1.204-1.754-1.608c-0.791-0.404-1.89-0.606-3.296-0.606
		c-1.037,0-1.921,0.233-2.649,0.699c-0.73,0.466-1.332,1.107-1.807,1.925s-0.822,1.771-1.041,2.861
		c-0.221,1.09-0.33,2.268-0.33,3.533l0.053,3.612c-0.018,2.004,0.312,3.894,0.988,5.669c0.677,1.776,1.64,3.411,2.888,4.904
		c1.248,1.494,2.742,2.834,4.482,4.021s3.665,2.193,5.774,3.019c2.109,0.827,4.363,1.459,6.764,1.898
		c2.398,0.439,4.882,0.659,7.448,0.659h3.771v3.533h-3.665c-3.463,0-6.653-0.312-9.571-0.936c-2.918-0.624-5.563-1.485-7.937-2.584
		c-2.373-1.098-4.461-2.399-6.263-3.902s-3.317-3.133-4.548-4.891c-1.23-1.757-2.167-3.603-2.808-5.537
		c-0.643-1.934-0.98-3.885-1.016-5.854l-0.053-3.771c0-1.705,0.185-3.296,0.554-4.772s0.94-2.751,1.714-3.823
		c0.773-1.072,1.758-1.916,2.953-2.531c1.195-0.615,2.628-0.923,4.298-0.923c0.879,0,1.683,0.075,2.413,0.224
		c0.729,0.149,1.41,0.431,2.043,0.844c0.633,0.413,1.234,0.989,1.807,1.727c0.57,0.738,1.129,1.697,1.674,2.874
		c0.369-1.177,0.773-2.149,1.213-2.914s0.936-1.371,1.49-1.819c0.553-0.448,1.168-0.76,1.846-0.936
		c0.676-0.175,1.428-0.264,2.254-0.264c0.791,0,1.521,0.088,2.188,0.264c0.668,0.176,1.292,0.479,1.872,0.91
		c0.58,0.431,1.111,1.011,1.596,1.74c0.482,0.729,0.936,1.648,1.357,2.755c0.492-1.107,1.041-2.013,1.648-2.716
		c0.605-0.703,1.247-1.252,1.924-1.648s1.371-0.668,2.084-0.817c0.711-0.149,1.419-0.224,2.122-0.224
		c1.318,0,2.558,0.242,3.718,0.725c1.16,0.484,2.171,1.196,3.032,2.136c0.861,0.94,1.538,2.096,2.03,3.467s0.738,2.936,0.738,4.693
		V55.463z"/>
	<path fill="#FFFFFF" d="M733.271,56.069c0-1.793-0.053-3.454-0.158-4.983s-0.378-2.852-0.817-3.968
		c-0.439-1.116-1.094-1.991-1.965-2.624c-0.869-0.633-2.069-0.949-3.599-0.949c-4.395,0-6.592,2.61-6.592,7.831v16.242h-3.665
		V51.376c0-2.742-0.545-4.733-1.635-5.972s-2.76-1.859-5.01-1.859c-1.424,0-2.563,0.316-3.414,0.949
		c-0.854,0.633-1.513,1.516-1.979,2.65s-0.773,2.483-0.922,4.047c-0.15,1.565-0.225,3.279-0.225,5.142v6.908
		c0,1.143,0.057,2.29,0.172,3.441c0.113,1.151,0.289,2.259,0.527,3.322c0.236,1.064,0.544,2.053,0.922,2.966
		c0.378,0.914,0.831,1.714,1.358,2.399s1.138,1.222,1.833,1.608c0.693,0.387,1.472,0.58,2.333,0.58v3.138
		c-1.441,0-2.712-0.246-3.81-0.738c-1.1-0.492-2.049-1.16-2.848-2.004c-0.801-0.844-1.473-1.833-2.018-2.966
		s-0.98-2.347-1.305-3.639c-0.326-1.292-0.555-2.619-0.686-3.981c-0.133-1.362-0.198-2.703-0.198-4.021v-7.014
		c0-1.318,0.044-2.627,0.132-3.929c0.088-1.301,0.264-2.54,0.527-3.718c0.264-1.177,0.628-2.276,1.094-3.296
		c0.466-1.019,1.082-1.902,1.846-2.65c0.766-0.747,1.696-1.332,2.795-1.753s2.404-0.633,3.916-0.633c1.09,0,2.061,0.132,2.914,0.396
		c0.852,0.264,1.607,0.646,2.268,1.147c0.658,0.501,1.238,1.112,1.74,1.833c0.5,0.721,0.953,1.539,1.357,2.452
		c0.352-0.914,0.773-1.731,1.266-2.452c0.492-0.721,1.081-1.332,1.767-1.833s1.48-0.883,2.386-1.147s1.956-0.396,3.151-0.396
		c1.441,0,2.702,0.207,3.784,0.62c1.08,0.413,1.999,0.985,2.755,1.714c0.756,0.729,1.38,1.591,1.872,2.584
		c0.492,0.993,0.879,2.066,1.16,3.217c0.281,1.151,0.475,2.36,0.58,3.625s0.158,2.531,0.158,3.797l-0.053,7.436
		c0,1.249-0.075,2.544-0.225,3.889s-0.395,2.659-0.738,3.942c-0.342,1.283-0.786,2.501-1.331,3.652
		c-0.545,1.151-1.213,2.162-2.004,3.032s-1.719,1.56-2.782,2.07c-1.063,0.51-2.28,0.765-3.651,0.765v-3.138
		c1.178,0,2.206-0.417,3.085-1.252c0.879-0.834,1.608-1.934,2.188-3.296c0.58-1.362,1.015-2.909,1.306-4.641
		c0.289-1.731,0.435-3.494,0.435-5.287V56.069z"/>
	<path fill="#FFFFFF" d="M774.219,70.097c0,1.459-0.242,2.831-0.726,4.113c-0.483,1.283-1.186,2.409-2.109,3.375
		c-0.922,0.967-2.057,1.727-3.4,2.281c-1.346,0.554-2.87,0.831-4.575,0.831c-1.635,0-3.12-0.272-4.456-0.817
		c-1.336-0.544-2.47-1.248-3.401-2.109c-0.932-0.861-1.652-1.823-2.162-2.887c-0.51-1.063-0.765-2.113-0.765-3.151v-2.32
		c0-0.597,0.101-1.195,0.303-1.793c0.202-0.597,0.475-1.164,0.818-1.701c0.342-0.536,0.733-1.028,1.173-1.477
		s0.896-0.831,1.371-1.147l1.951,2.215c-0.703,0.545-1.204,1.222-1.503,2.03c-0.299,0.809-0.448,1.591-0.448,2.347v1.239
		c0,0.774,0.146,1.542,0.435,2.307c0.291,0.765,0.729,1.455,1.318,2.07c0.589,0.616,1.332,1.112,2.229,1.49
		c0.896,0.378,1.942,0.567,3.138,0.567c1.318,0,2.435-0.188,3.349-0.567c0.914-0.378,1.652-0.905,2.215-1.582
		c0.563-0.676,0.967-1.467,1.213-2.373c0.246-0.905,0.369-1.885,0.369-2.94V67.46c0-1.072-0.145-2.113-0.436-3.125
		c-0.289-1.011-0.694-1.907-1.213-2.689c-0.519-0.782-1.138-1.406-1.858-1.872c-0.721-0.465-1.512-0.699-2.373-0.699h-5.142v-3.164
		h4.904c0.686,0,1.336-0.105,1.951-0.316s1.155-0.527,1.621-0.949s0.835-0.945,1.107-1.569c0.272-0.624,0.409-1.358,0.409-2.202
		v-1.898c0-0.668-0.146-1.327-0.435-1.978c-0.291-0.65-0.669-1.23-1.135-1.74c-0.466-0.51-0.997-0.923-1.595-1.239
		s-1.204-0.475-1.819-0.475v-3.19c0.896,0,1.85,0.215,2.861,0.646c1.01,0.431,1.946,1.028,2.808,1.793s1.573,1.674,2.136,2.729
		s0.844,2.206,0.844,3.454v1.134c0,1.038-0.128,1.947-0.383,2.729c-0.255,0.782-0.615,1.468-1.08,2.057
		c-0.467,0.589-1.033,1.09-1.701,1.503c-0.668,0.413-1.415,0.769-2.241,1.068c1.248,0.387,2.285,0.901,3.111,1.542
		c0.826,0.642,1.485,1.389,1.978,2.241c0.492,0.853,0.839,1.802,1.041,2.848c0.202,1.046,0.304,2.167,0.304,3.362V70.097z"/>
	<path fill="#FFFFFF" d="M813.955,56.069c0-1.793-0.053-3.454-0.158-4.983s-0.378-2.852-0.817-3.968
		c-0.439-1.116-1.094-1.991-1.965-2.624c-0.869-0.633-2.069-0.949-3.599-0.949c-4.395,0-6.592,2.61-6.592,7.831v16.242h-3.665
		V51.376c0-2.742-0.545-4.733-1.635-5.972s-2.76-1.859-5.01-1.859c-1.424,0-2.563,0.316-3.414,0.949
		c-0.854,0.633-1.513,1.516-1.979,2.65s-0.773,2.483-0.922,4.047c-0.15,1.565-0.225,3.279-0.225,5.142v6.908
		c0,1.143,0.057,2.29,0.172,3.441c0.113,1.151,0.289,2.259,0.527,3.322c0.236,1.064,0.544,2.053,0.922,2.966
		c0.378,0.914,0.831,1.714,1.358,2.399s1.138,1.222,1.833,1.608c0.693,0.387,1.472,0.58,2.333,0.58v3.138
		c-1.441,0-2.712-0.246-3.81-0.738c-1.1-0.492-2.049-1.16-2.848-2.004c-0.801-0.844-1.473-1.833-2.018-2.966
		s-0.98-2.347-1.305-3.639c-0.326-1.292-0.555-2.619-0.686-3.981c-0.133-1.362-0.198-2.703-0.198-4.021v-7.014
		c0-1.318,0.044-2.627,0.132-3.929c0.088-1.301,0.264-2.54,0.527-3.718c0.264-1.177,0.628-2.276,1.094-3.296
		c0.466-1.019,1.082-1.902,1.846-2.65c0.766-0.747,1.696-1.332,2.795-1.753s2.404-0.633,3.916-0.633c1.09,0,2.061,0.132,2.914,0.396
		c0.852,0.264,1.607,0.646,2.268,1.147c0.658,0.501,1.238,1.112,1.74,1.833c0.5,0.721,0.953,1.539,1.357,2.452
		c0.352-0.914,0.773-1.731,1.266-2.452c0.492-0.721,1.081-1.332,1.767-1.833s1.48-0.883,2.386-1.147s1.956-0.396,3.151-0.396
		c1.441,0,2.702,0.207,3.784,0.62c1.08,0.413,1.999,0.985,2.755,1.714c0.756,0.729,1.38,1.591,1.872,2.584
		c0.492,0.993,0.879,2.066,1.16,3.217c0.281,1.151,0.475,2.36,0.58,3.625s0.158,2.531,0.158,3.797l-0.053,7.436
		c0,1.249-0.075,2.544-0.225,3.889s-0.395,2.659-0.738,3.942c-0.342,1.283-0.786,2.501-1.331,3.652
		c-0.545,1.151-1.213,2.162-2.004,3.032s-1.719,1.56-2.782,2.07c-1.063,0.51-2.28,0.765-3.651,0.765v-3.138
		c1.178,0,2.206-0.417,3.085-1.252c0.879-0.834,1.608-1.934,2.188-3.296c0.58-1.362,1.015-2.909,1.306-4.641
		c0.289-1.731,0.435-3.494,0.435-5.287V56.069z"/>
	<path fill="#FFFFFF" d="M871.857,55.463c0,0.738-0.097,1.556-0.29,2.452s-0.462,1.819-0.804,2.769
		c-0.344,0.949-0.761,1.898-1.253,2.848s-1.037,1.846-1.635,2.689s-1.248,1.613-1.951,2.307c-0.703,0.695-1.433,1.252-2.188,1.674
		l-2.32-2.109c1.02-0.755,1.942-1.678,2.769-2.769c0.826-1.09,1.529-2.228,2.109-3.415s1.028-2.369,1.345-3.546
		c0.316-1.177,0.475-2.232,0.475-3.164v-3.296c0-1.318-0.149-2.482-0.448-3.494c-0.299-1.011-0.708-1.859-1.226-2.544
		c-0.52-0.686-1.126-1.2-1.82-1.542s-1.437-0.514-2.228-0.514c-1.248,0-2.268,0.189-3.059,0.567
		c-0.791,0.378-1.406,0.901-1.846,1.569c-0.439,0.668-0.738,1.45-0.896,2.347s-0.237,1.863-0.237,2.9v8.174h-3.401v-8.174
		c0-1.002-0.07-1.964-0.211-2.887s-0.404-1.736-0.791-2.439c-0.387-0.703-0.937-1.266-1.647-1.688
		c-0.713-0.422-1.631-0.633-2.756-0.633c-1.037,0-1.898,0.215-2.584,0.646c-0.686,0.431-1.239,0.998-1.661,1.701
		c-0.422,0.703-0.721,1.503-0.896,2.399s-0.264,1.811-0.264,2.742v8.332h-3.454v-8.332c0-0.932-0.044-1.833-0.132-2.703
		s-0.321-1.639-0.698-2.307c-0.379-0.668-0.963-1.204-1.754-1.608c-0.791-0.404-1.89-0.606-3.296-0.606
		c-1.037,0-1.921,0.233-2.649,0.699c-0.73,0.466-1.332,1.107-1.807,1.925s-0.822,1.771-1.041,2.861
		c-0.221,1.09-0.33,2.268-0.33,3.533l0.053,3.612c-0.018,2.004,0.312,3.894,0.988,5.669c0.677,1.776,1.64,3.411,2.888,4.904
		c1.248,1.494,2.742,2.834,4.482,4.021s3.665,2.193,5.774,3.019c2.109,0.827,4.363,1.459,6.764,1.898
		c2.398,0.439,4.882,0.659,7.448,0.659h3.771v3.533h-3.665c-3.463,0-6.653-0.312-9.571-0.936c-2.918-0.624-5.563-1.485-7.937-2.584
		c-2.373-1.098-4.461-2.399-6.263-3.902s-3.317-3.133-4.548-4.891c-1.23-1.757-2.167-3.603-2.808-5.537
		c-0.643-1.934-0.98-3.885-1.016-5.854l-0.053-3.771c0-1.705,0.185-3.296,0.554-4.772s0.94-2.751,1.714-3.823
		c0.773-1.072,1.758-1.916,2.953-2.531c1.195-0.615,2.628-0.923,4.298-0.923c0.879,0,1.683,0.075,2.413,0.224
		c0.729,0.149,1.41,0.431,2.043,0.844c0.633,0.413,1.234,0.989,1.807,1.727c0.57,0.738,1.129,1.697,1.674,2.874
		c0.369-1.177,0.773-2.149,1.213-2.914s0.936-1.371,1.49-1.819c0.553-0.448,1.168-0.76,1.846-0.936
		c0.676-0.175,1.428-0.264,2.254-0.264c0.791,0,1.521,0.088,2.188,0.264c0.668,0.176,1.292,0.479,1.872,0.91
		c0.58,0.431,1.111,1.011,1.596,1.74c0.482,0.729,0.936,1.648,1.357,2.755c0.492-1.107,1.041-2.013,1.648-2.716
		c0.605-0.703,1.247-1.252,1.924-1.648s1.371-0.668,2.084-0.817c0.711-0.149,1.419-0.224,2.122-0.224
		c1.318,0,2.558,0.242,3.718,0.725c1.16,0.484,2.171,1.196,3.032,2.136c0.861,0.94,1.538,2.096,2.03,3.467s0.738,2.936,0.738,4.693
		V55.463z"/>
	<path fill="#FFFFFF" d="M898.461,71.626c0,1.6-0.295,2.971-0.884,4.113c-0.589,1.143-1.38,2.083-2.373,2.821
		s-2.14,1.279-3.44,1.622s-2.663,0.514-4.087,0.514c-1.564,0-3.011-0.241-4.338-0.725c-1.327-0.483-2.47-1.156-3.428-2.017
		c-0.958-0.861-1.705-1.881-2.24-3.059c-0.537-1.177-0.805-2.452-0.805-3.823c0-1.283,0.127-2.413,0.383-3.388
		c0.254-0.976,0.605-1.854,1.055-2.637c0.447-0.782,0.975-1.477,1.582-2.083c0.605-0.606,1.261-1.182,1.964-1.727l2.268,2.268
		c-0.668,0.616-1.23,1.165-1.688,1.648c-0.457,0.484-0.826,0.998-1.107,1.542c-0.281,0.545-0.483,1.165-0.606,1.859
		c-0.123,0.695-0.185,1.552-0.185,2.571c0,2.057,0.58,3.643,1.74,4.759c1.16,1.117,2.962,1.674,5.405,1.674
		c1.072,0,2.048-0.141,2.927-0.422c0.879-0.281,1.63-0.686,2.255-1.213c0.623-0.527,1.103-1.164,1.437-1.912
		c0.334-0.747,0.501-1.586,0.501-2.518V49.108c0-0.826-0.145-1.582-0.436-2.268c-0.289-0.686-0.698-1.27-1.226-1.753
		c-0.527-0.483-1.169-0.861-1.925-1.134c-0.756-0.272-1.608-0.409-2.558-0.409c-0.967,0-1.851,0.132-2.649,0.396
		c-0.801,0.264-1.49,0.637-2.07,1.121c-0.58,0.484-1.028,1.072-1.345,1.767c-0.316,0.695-0.475,1.473-0.475,2.333
		c0,0.598,0.079,1.2,0.237,1.806s0.492,1.314,1.002,2.123l-2.716,2.057c-1.318-1.757-1.978-3.753-1.978-5.985
		c0-1.318,0.229-2.518,0.686-3.599s1.107-2.008,1.951-2.782c0.844-0.773,1.859-1.371,3.045-1.793
		c1.188-0.422,2.51-0.633,3.969-0.633c1.424,0,2.756,0.189,3.994,0.567c1.24,0.378,2.316,0.936,3.23,1.674s1.63,1.652,2.148,2.742
		c0.519,1.09,0.778,2.347,0.778,3.771V71.626z"/>
	<path fill="#FFFFFF" d="M904.289,46.393h7.884V46.34v-5.985h3.401v5.985v0.053h9.255v3.19h-8.912
		c0.281,1.371,0.726,2.549,1.331,3.533c0.607,0.985,1.279,1.876,2.018,2.676c0.738,0.8,1.498,1.565,2.281,2.294
		c0.781,0.729,1.498,1.525,2.148,2.386c0.65,0.861,1.182,1.846,1.596,2.953c0.412,1.107,0.619,2.435,0.619,3.981v2.848
		c0,1.424-0.233,2.769-0.699,4.034s-1.151,2.373-2.057,3.322s-2.025,1.701-3.361,2.254s-2.883,0.831-4.641,0.831
		c-1.793,0-3.366-0.338-4.72-1.015c-1.354-0.676-2.487-1.529-3.401-2.558s-1.6-2.14-2.057-3.335
		c-0.457-1.195-0.686-2.311-0.686-3.349v-3.296c0-0.668,0.18-1.371,0.541-2.109c0.359-0.738,0.804-1.446,1.331-2.123
		c0.527-0.676,1.09-1.296,1.688-1.859c0.598-0.563,1.143-1.002,1.635-1.318l1.898,2.215c-0.352,0.264-0.729,0.598-1.134,1.002
		c-0.404,0.405-0.773,0.84-1.107,1.305c-0.334,0.466-0.611,0.949-0.83,1.45c-0.221,0.501-0.33,0.98-0.33,1.437v3.111
		c0,0.774,0.149,1.586,0.448,2.439c0.299,0.853,0.747,1.639,1.345,2.36c0.598,0.721,1.345,1.318,2.241,1.793
		s1.942,0.712,3.138,0.712c1.318,0,2.421-0.175,3.309-0.527c0.888-0.352,1.604-0.853,2.149-1.503
		c0.545-0.65,0.937-1.419,1.173-2.307c0.238-0.887,0.365-1.876,0.383-2.966l0.053-2.848c0-1.318-0.202-2.474-0.606-3.467
		c-0.404-0.993-0.928-1.912-1.569-2.755s-1.344-1.652-2.109-2.426c-0.764-0.773-1.512-1.599-2.24-2.479
		c-0.73-0.879-1.385-1.854-1.965-2.927c-0.58-1.072-1.002-2.329-1.266-3.771h-8.174V46.393z"/>
	<path fill="#FFFFFF" d="M951.96,64.744c-0.018,1.74-0.158,3.48-0.422,5.221s-0.698,3.349-1.306,4.825
		c-0.605,1.477-1.419,2.742-2.438,3.797s-2.294,1.758-3.823,2.109l-0.316-3.138c0.633,0,1.23-0.281,1.793-0.844
		c0.563-0.563,1.055-1.384,1.477-2.465s0.756-2.403,1.002-3.968c0.246-1.564,0.369-3.349,0.369-5.353v-9.782
		c0-1.81-0.105-3.437-0.316-4.878c-0.211-1.441-0.576-2.659-1.094-3.652c-0.52-0.993-1.223-1.753-2.109-2.281
		c-0.889-0.527-2.018-0.791-3.389-0.791c-1.512,0-2.747,0.268-3.705,0.804c-0.958,0.537-1.705,1.31-2.24,2.32
		c-0.537,1.011-0.906,2.246-1.107,3.705c-0.203,1.459-0.304,3.103-0.304,4.931v9.624c0,1.969,0.088,3.735,0.264,5.3
		c0.176,1.565,0.422,2.887,0.738,3.968s0.707,1.912,1.173,2.492s0.989,0.87,1.569,0.87l-0.053,3.138
		c-1.037-0.193-1.938-0.567-2.702-1.121c-0.766-0.554-1.42-1.23-1.965-2.03c-0.545-0.8-0.993-1.705-1.345-2.716
		c-0.352-1.011-0.624-2.065-0.817-3.164c-0.193-1.098-0.33-2.224-0.408-3.375c-0.08-1.151-0.119-2.271-0.119-3.362V55.41
		c0-1.16,0.062-2.337,0.185-3.533c0.123-1.195,0.334-2.351,0.633-3.467c0.299-1.116,0.707-2.162,1.226-3.138
		s1.178-1.828,1.979-2.558c0.799-0.729,1.757-1.305,2.873-1.727s2.422-0.633,3.916-0.633c1.512,0,2.834,0.185,3.969,0.554
		c1.133,0.369,2.1,0.879,2.9,1.529c0.799,0.65,1.454,1.433,1.964,2.347c0.51,0.914,0.914,1.921,1.213,3.019
		c0.299,1.099,0.505,2.268,0.62,3.507c0.113,1.239,0.171,2.518,0.171,3.836L951.96,64.744z"/>
	<path fill="#FFFFFF" d="M975.955,41.172c-1.318,1.459-2.237,2.742-2.756,3.85s-0.777,2.145-0.777,3.111
		c0,0.211,0.014,0.418,0.039,0.62c0.027,0.202,0.058,0.409,0.093,0.62c0.088-0.035,0.229-0.053,0.422-0.053h0.264
		c0.615,0,1.155,0.181,1.622,0.541c0.465,0.36,0.698,0.866,0.698,1.516c0,0.439-0.075,0.817-0.224,1.134
		c-0.15,0.316-0.344,0.58-0.58,0.791c-0.238,0.211-0.506,0.365-0.805,0.461c-0.299,0.097-0.589,0.145-0.87,0.145
		c-0.844,0-1.521-0.29-2.03-0.87s-0.765-1.546-0.765-2.9c0-0.844,0.109-1.701,0.329-2.571s0.536-1.727,0.949-2.571
		s0.919-1.665,1.517-2.465c0.598-0.8,1.266-1.542,2.004-2.228L975.955,41.172z M983.865,41.172c-1.318,1.459-2.237,2.742-2.756,3.85
		s-0.777,2.145-0.777,3.111c0,0.211,0.014,0.418,0.039,0.62c0.027,0.202,0.058,0.409,0.093,0.62
		c0.088-0.035,0.229-0.053,0.422-0.053h0.264c0.615,0,1.155,0.181,1.622,0.541c0.465,0.36,0.698,0.866,0.698,1.516
		c0,0.439-0.075,0.817-0.224,1.134c-0.15,0.316-0.344,0.58-0.58,0.791c-0.238,0.211-0.506,0.365-0.805,0.461
		c-0.299,0.097-0.589,0.145-0.87,0.145c-0.844,0-1.521-0.29-2.03-0.87s-0.765-1.546-0.765-2.9c0-0.844,0.109-1.701,0.329-2.571
		s0.536-1.727,0.949-2.571s0.919-1.665,1.517-2.465c0.598-0.8,1.266-1.542,2.004-2.228L983.865,41.172z"/>
	<path fill="#FFFFFF" d="M1011.603,71.679c0,1.459-0.272,2.747-0.817,3.863c-0.545,1.117-1.301,2.057-2.268,2.821
		s-2.109,1.345-3.428,1.74s-2.742,0.593-4.271,0.593s-2.953-0.22-4.271-0.659c-1.318-0.439-2.461-1.063-3.428-1.872
		c-0.967-0.808-1.727-1.784-2.281-2.927c-0.553-1.143-0.83-2.426-0.83-3.85V70.36c0-0.299,0.079-0.668,0.237-1.107
		c0.158-0.439,0.373-0.887,0.646-1.345c0.272-0.457,0.607-0.883,1.002-1.279c0.396-0.396,0.831-0.699,1.306-0.91l1.951,2.109
		c-0.299,0.281-0.536,0.554-0.712,0.817s-0.308,0.527-0.396,0.791s-0.154,0.527-0.198,0.791s-0.083,0.527-0.118,0.791l-0.053,0.659
		c0,0.914,0.136,1.736,0.409,2.465c0.271,0.729,0.698,1.345,1.278,1.846s1.318,0.888,2.215,1.16
		c0.896,0.273,1.978,0.409,3.243,0.409c1.055,0,2.018-0.119,2.887-0.356c0.871-0.237,1.617-0.593,2.242-1.068
		c0.623-0.475,1.111-1.059,1.463-1.753c0.352-0.694,0.527-1.507,0.527-2.439V59.84c0-0.457-0.11-0.989-0.33-1.595
		s-0.519-1.222-0.896-1.846c-0.378-0.624-0.826-1.235-1.344-1.833c-0.52-0.597-1.082-1.134-1.688-1.608
		c-0.607-0.475-1.24-0.857-1.898-1.147c-0.66-0.29-1.323-0.435-1.991-0.435c-1.037,0-1.868,0.136-2.491,0.409
		c-0.625,0.273-1.104,0.611-1.438,1.015c-0.334,0.405-0.554,0.853-0.659,1.345c-0.105,0.492-0.158,0.949-0.158,1.371
		c0,0.527,0.021,0.936,0.065,1.226s0.123,0.541,0.238,0.751c0.113,0.211,0.285,0.426,0.514,0.646
		c0.229,0.22,0.527,0.514,0.896,0.883l-1.45,2.61c-0.686-0.404-1.262-0.791-1.728-1.16s-0.839-0.778-1.12-1.226
		s-0.483-0.971-0.606-1.569c-0.123-0.597-0.193-1.318-0.211-2.162c-0.018-1.037,0.153-1.995,0.514-2.874
		c0.36-0.879,0.893-1.644,1.596-2.294c0.703-0.65,1.56-1.156,2.57-1.516c1.011-0.36,2.167-0.541,3.468-0.541
		c0.967,0,1.854,0.154,2.663,0.461c0.809,0.308,1.556,0.725,2.241,1.252s1.318,1.134,1.898,1.819s1.116,1.397,1.608,2.136V43.255
		h-5.221v-2.9h8.622V71.679z"/>
	<path fill="#FFFFFF" d="M1054.872,68.04c0,0.756-0.123,1.595-0.369,2.518s-0.598,1.855-1.055,2.795
		c-0.457,0.94-1.007,1.855-1.648,2.742c-0.642,0.888-1.362,1.674-2.162,2.36s-1.67,1.239-2.609,1.661
		c-0.941,0.422-1.93,0.633-2.967,0.633v-3.19c0.984,0,1.912-0.316,2.781-0.949c0.871-0.633,1.626-1.424,2.268-2.373
		s1.147-1.978,1.517-3.085s0.554-2.126,0.554-3.059v-4.034c0-1.757-0.229-3.204-0.686-4.337s-1.02-2.021-1.688-2.663
		c-0.668-0.642-1.385-1.085-2.148-1.332c-0.766-0.246-1.455-0.369-2.07-0.369c-0.703,0-1.441,0.132-2.215,0.396
		s-1.485,0.708-2.136,1.332c-0.65,0.624-1.191,1.45-1.622,2.479s-0.646,2.307-0.646,3.836v5.906h-3.691v-5.906
		c0-1.529-0.211-2.808-0.633-3.836s-0.954-1.854-1.595-2.479c-0.643-0.624-1.346-1.068-2.109-1.332
		c-0.766-0.264-1.49-0.396-2.176-0.396c-0.826,0-1.635,0.123-2.426,0.369c-0.791,0.247-1.499,0.69-2.123,1.332
		c-0.624,0.642-1.129,1.529-1.516,2.663s-0.58,2.58-0.58,4.337v4.166c0,0.598,0.074,1.244,0.225,1.938
		c0.148,0.695,0.369,1.389,0.658,2.083c0.291,0.695,0.642,1.362,1.055,2.004c0.413,0.642,0.888,1.209,1.424,1.701
		c0.536,0.492,1.125,0.883,1.768,1.173c0.641,0.29,1.322,0.435,2.043,0.435v3.138c-1.195,0-2.294-0.211-3.296-0.633
		s-1.903-0.984-2.702-1.688c-0.801-0.703-1.508-1.503-2.123-2.399s-1.125-1.819-1.529-2.769s-0.708-1.885-0.91-2.808
		s-0.303-1.762-0.303-2.518v-3.823c0-1.934,0.162-3.863,0.488-5.788c0.324-1.925,0.883-3.766,1.674-5.524
		c0.791-1.757,1.859-3.388,3.203-4.891c1.346-1.503,3.046-2.812,5.103-3.929c2.057-1.116,4.504-1.991,7.343-2.624
		s6.14-0.949,9.901-0.949v3.19c-3.059,0-5.818,0.247-8.279,0.738c-2.461,0.492-4.637,1.187-6.526,2.083s-3.493,1.982-4.812,3.256
		c-1.318,1.275-2.355,2.686-3.111,4.232l2.057-0.606l3.296-0.738c0.791,0,1.591,0.036,2.399,0.105
		c0.809,0.07,1.586,0.303,2.333,0.699s1.433,1.006,2.057,1.833c0.624,0.827,1.147,1.995,1.569,3.507
		c0.51-1.512,1.107-2.68,1.793-3.507c0.686-0.826,1.406-1.437,2.162-1.833s1.521-0.628,2.294-0.699
		c0.773-0.07,1.512-0.105,2.215-0.105c1.301,0,2.566,0.202,3.797,0.606c1.23,0.405,2.329,1.059,3.296,1.964
		c0.967,0.906,1.74,2.096,2.32,3.573s0.87,3.279,0.87,5.405V68.04z"/>
	<path fill="#FFFFFF" d="M1081.476,64.744c-0.018,1.74-0.158,3.48-0.422,5.221s-0.698,3.349-1.306,4.825
		c-0.605,1.477-1.419,2.742-2.438,3.797s-2.294,1.758-3.823,2.109l-0.316-3.138c0.633,0,1.23-0.281,1.793-0.844
		c0.563-0.563,1.055-1.384,1.477-2.465s0.756-2.403,1.002-3.968c0.246-1.564,0.369-3.349,0.369-5.353v-9.782
		c0-1.81-0.105-3.437-0.316-4.878c-0.211-1.441-0.576-2.659-1.094-3.652c-0.52-0.993-1.223-1.753-2.109-2.281
		c-0.889-0.527-2.018-0.791-3.389-0.791c-1.512,0-2.747,0.268-3.705,0.804c-0.958,0.537-1.705,1.31-2.24,2.32
		c-0.537,1.011-0.906,2.246-1.107,3.705c-0.203,1.459-0.304,3.103-0.304,4.931v9.624c0,1.969,0.088,3.735,0.264,5.3
		c0.176,1.565,0.422,2.887,0.738,3.968s0.707,1.912,1.173,2.492s0.989,0.87,1.569,0.87l-0.053,3.138
		c-1.037-0.193-1.938-0.567-2.702-1.121c-0.766-0.554-1.42-1.23-1.965-2.03c-0.545-0.8-0.993-1.705-1.345-2.716
		c-0.352-1.011-0.624-2.065-0.817-3.164c-0.193-1.098-0.33-2.224-0.408-3.375c-0.08-1.151-0.119-2.271-0.119-3.362V55.41
		c0-1.16,0.062-2.337,0.185-3.533c0.123-1.195,0.334-2.351,0.633-3.467c0.299-1.116,0.707-2.162,1.226-3.138
		s1.178-1.828,1.979-2.558c0.799-0.729,1.757-1.305,2.873-1.727s2.422-0.633,3.916-0.633c1.512,0,2.834,0.185,3.969,0.554
		c1.133,0.369,2.1,0.879,2.9,1.529c0.799,0.65,1.454,1.433,1.964,2.347c0.51,0.914,0.914,1.921,1.213,3.019
		c0.299,1.099,0.505,2.268,0.62,3.507c0.113,1.239,0.171,2.518,0.171,3.836L1081.476,64.744z"/>
	<path fill="#FFFFFF" d="M1110.269,68.752c0,1.723-0.269,3.313-0.805,4.772c-0.536,1.459-1.283,2.72-2.24,3.784
		c-0.959,1.064-2.102,1.895-3.428,2.492c-1.328,0.598-2.773,0.896-4.338,0.896c-1.582,0-3.032-0.246-4.351-0.738
		c-1.318-0.492-2.452-1.243-3.401-2.254c-0.949-1.011-1.692-2.285-2.229-3.823c-0.536-1.538-0.804-3.353-0.804-5.445V40.354h3.665
		v28.081c0,1.67,0.176,3.081,0.527,4.232c0.352,1.151,0.844,2.092,1.477,2.821c0.633,0.729,1.385,1.257,2.254,1.582
		c0.871,0.326,1.824,0.488,2.861,0.488c1.178,0,2.215-0.224,3.111-0.672s1.644-1.072,2.241-1.872c0.598-0.8,1.046-1.762,1.345-2.887
		c0.299-1.125,0.448-2.373,0.448-3.744v-1.529c0-0.914-0.158-1.784-0.475-2.61c-0.316-0.826-0.712-1.612-1.187-2.36
		c-0.475-0.747-0.984-1.463-1.529-2.149s-1.055-1.358-1.529-2.017s-0.87-1.309-1.187-1.951c-0.316-0.642-0.475-1.296-0.475-1.964
		c0-0.738,0.088-1.454,0.264-2.149c0.176-0.694,0.536-1.437,1.081-2.228l3.691,1.028c-0.264,0.352-0.492,0.655-0.686,0.91
		c-0.193,0.255-0.355,0.505-0.488,0.751c-0.131,0.247-0.232,0.501-0.303,0.765s-0.105,0.571-0.105,0.923
		c0,0.65,0.162,1.283,0.488,1.898c0.324,0.616,0.733,1.226,1.226,1.833s1.02,1.23,1.582,1.872c0.563,0.642,1.09,1.318,1.582,2.03
		s0.9,1.468,1.226,2.268c0.325,0.8,0.488,1.674,0.488,2.624V68.752z"/>
	<path fill="#FFFFFF" d="M1137.164,69.016c0,7.788-3.604,11.681-10.811,11.681c-1.775,0-3.34-0.299-4.693-0.896
		c-1.354-0.597-2.483-1.411-3.389-2.439s-1.586-2.228-2.043-3.599s-0.686-2.821-0.686-4.351v-1.793c0-1.055,0.264-2.158,0.791-3.309
		c0.527-1.151,1.187-2.281,1.978-3.388l2.531,1.292c-0.264,0.492-0.497,0.993-0.698,1.503c-0.203,0.51-0.369,1.002-0.502,1.477
		c-0.131,0.475-0.232,0.919-0.303,1.332c-0.07,0.413-0.105,0.778-0.105,1.094v1.951c0,1.283,0.123,2.422,0.369,3.415
		c0.246,0.993,0.646,1.829,1.199,2.505c0.555,0.677,1.288,1.191,2.202,1.542c0.914,0.352,2.03,0.527,3.349,0.527
		c1.23,0,2.294-0.158,3.19-0.475s1.635-0.817,2.215-1.503s1.011-1.582,1.292-2.689s0.422-2.452,0.422-4.034v-2.979
		c0-1.283-0.167-2.448-0.501-3.494c-0.334-1.045-0.773-2.021-1.318-2.927c-0.545-0.905-1.169-1.753-1.872-2.544
		s-1.415-1.573-2.136-2.347c-0.721-0.773-1.433-1.556-2.136-2.347s-1.327-1.625-1.872-2.505c-0.545-0.879-0.984-1.828-1.318-2.848
		c-0.334-1.019-0.501-2.145-0.501-3.375v-3.138h3.401v3.138c0,1.354,0.294,2.593,0.884,3.718c0.588,1.125,1.326,2.215,2.215,3.27
		c0.887,1.055,1.846,2.109,2.873,3.164c1.029,1.055,1.986,2.185,2.875,3.388c0.887,1.204,1.625,2.527,2.215,3.968
		c0.588,1.441,0.883,3.068,0.883,4.878V69.016z"/>
	<path fill="#FFFFFF" d="M1143.571,53.037c0.65-0.738,1.2-1.419,1.647-2.043c0.449-0.624,0.809-1.217,1.082-1.78
		c0.271-0.563,0.47-1.098,0.593-1.608c0.123-0.51,0.185-1.011,0.185-1.503c0-0.211-0.009-0.422-0.026-0.633
		s-0.044-0.422-0.079-0.633c-0.088,0.036-0.229,0.053-0.422,0.053h-0.264c-0.615,0-1.156-0.18-1.621-0.541
		c-0.467-0.36-0.699-0.866-0.699-1.516c0-0.439,0.074-0.817,0.225-1.134c0.148-0.316,0.342-0.58,0.58-0.791
		c0.236-0.211,0.5-0.365,0.791-0.461c0.289-0.096,0.584-0.145,0.883-0.145c0.844,0,1.521,0.29,2.03,0.87s0.765,1.547,0.765,2.9
		c0,0.844-0.11,1.701-0.33,2.571s-0.536,1.727-0.949,2.571s-0.918,1.666-1.516,2.465c-0.598,0.8-1.266,1.542-2.004,2.228
		L1143.571,53.037z M1151.481,53.037c0.65-0.738,1.2-1.419,1.647-2.043c0.449-0.624,0.809-1.217,1.082-1.78
		c0.271-0.563,0.47-1.098,0.593-1.608c0.123-0.51,0.185-1.011,0.185-1.503c0-0.211-0.009-0.422-0.026-0.633
		s-0.044-0.422-0.079-0.633c-0.088,0.036-0.229,0.053-0.422,0.053h-0.264c-0.615,0-1.156-0.18-1.621-0.541
		c-0.467-0.36-0.699-0.866-0.699-1.516c0-0.439,0.074-0.817,0.225-1.134c0.148-0.316,0.342-0.58,0.58-0.791
		c0.236-0.211,0.5-0.365,0.791-0.461c0.289-0.096,0.584-0.145,0.883-0.145c0.844,0,1.521,0.29,2.03,0.87s0.765,1.547,0.765,2.9
		c0,0.844-0.11,1.701-0.33,2.571s-0.536,1.727-0.949,2.571s-0.918,1.666-1.516,2.465c-0.598,0.8-1.266,1.542-2.004,2.228
		L1151.481,53.037z"/>
	<path fill="#FFFFFF" d="M247.456,144.283v-35.754h21.146v2.953h-18.088v13.422h12.313v2.953h-12.313v13.367h18.088v3.059H247.456z"
		/>
	<path fill="#FFFFFF" d="M275.405,144.283v-35.754h9.334c2.021,0,3.902,0.34,5.643,1.016c1.74,0.677,3.322,1.719,4.746,3.125
		c1.441,1.371,2.509,3.177,3.204,5.418c0.694,2.241,1.042,5.023,1.042,8.346c0,6.24-1.477,10.783-4.43,13.631
		c-2.865,2.813-6.267,4.219-10.204,4.219H275.405z M278.463,141.224h6.275c3.128,0,5.836-1.115,8.121-3.348
		c1.16-1.107,2.026-2.628,2.597-4.563c0.571-1.934,0.857-4.227,0.857-6.881c0-2.531-0.255-4.733-0.765-6.605
		c-0.51-1.872-1.257-3.428-2.241-4.667c-0.985-1.239-2.193-2.162-3.625-2.769c-1.433-0.606-3.081-0.91-4.944-0.91h-6.275V141.224z"
		/>
	<path fill="#FFFFFF" d="M306.149,108.529h3.059v24.021c0,1.266,0.207,2.451,0.62,3.559c0.413,1.107,1.006,2.057,1.78,2.848
		c0.738,0.809,1.657,1.389,2.755,1.74c1.098,0.353,2.298,0.527,3.599,0.527c1.23,0,2.386-0.193,3.467-0.58
		c1.081-0.386,2.008-0.949,2.782-1.688c0.826-0.791,1.433-1.74,1.819-2.848c0.386-1.107,0.58-2.293,0.58-3.559v-24.021h3.059v24.021
		c0,1.758-0.286,3.318-0.857,4.68c-0.571,1.362-1.437,2.615-2.597,3.758c-1.125,1.107-2.36,1.934-3.705,2.479
		s-2.861,0.816-4.548,0.816c-3.428,0-6.258-1.098-8.49-3.295c-1.16-1.107-2.004-2.348-2.531-3.719s-0.791-2.943-0.791-4.719V108.529
		z"/>
	<path fill="#FFFFFF" d="M350.235,144.283c-2.057,0-3.942-0.43-5.656-1.291s-3.168-2.066-4.364-3.613
		c-1.249-1.617-2.185-3.523-2.808-5.721c-0.624-2.197-0.936-4.605-0.936-7.225c0-4.992,1.248-9.229,3.744-12.709
		c2.496-3.463,5.704-5.195,9.624-5.195c1.652,0,3.125,0.186,4.417,0.555s2.413,0.879,3.362,1.529
		c0.932,0.633,1.736,1.318,2.413,2.057c0.676,0.738,1.261,1.6,1.753,2.584l-2.61,1.344c-1.002-1.74-2.232-3.027-3.691-3.862
		c-1.459-0.835-3.208-1.253-5.247-1.253c-1.652,0-3.138,0.4-4.456,1.2s-2.443,1.938-3.375,3.415c-0.985,1.512-1.71,3.12-2.175,4.824
		c-0.466,1.705-0.699,3.543-0.699,5.512c0,1.846,0.241,3.639,0.725,5.379c0.483,1.74,1.2,3.357,2.149,4.852
		c0.932,1.494,2.057,2.627,3.375,3.4c1.318,0.774,2.804,1.16,4.456,1.16c1.16,0,2.197-0.069,3.111-0.211
		c0.914-0.141,1.757-0.395,2.531-0.764c0.65-0.299,1.252-0.738,1.806-1.318s1.085-1.346,1.595-2.295l2.452,1.002
		c-0.51,1.055-1.085,1.991-1.727,2.809c-0.642,0.817-1.358,1.516-2.149,2.096c-0.844,0.598-1.895,1.038-3.151,1.318
		C353.447,144.142,351.958,144.283,350.235,144.283z"/>
	<path fill="#FFFFFF" d="M368.613,144.283l13.553-35.754h3.349l13.5,35.754h-2.953l-3.771-9.914h-16.875l-3.797,9.914H368.613z
		 M376.523,131.416h14.792l-7.462-19.484L376.523,131.416z"/>
	<path fill="#FFFFFF" d="M405.843,111.482v-2.953h27.765v2.953h-12.34v32.801h-3.032v-32.801H405.843z"/>
	<path fill="#FFFFFF" d="M440.384,144.283v-35.754h3.006v35.754H440.384z"/>
	<path fill="#FFFFFF" d="M464.009,144.283c-1.881,0-3.608-0.412-5.181-1.238c-1.573-0.826-3.028-2.048-4.364-3.666
		c-1.407-1.688-2.465-3.599-3.177-5.734s-1.068-4.539-1.068-7.211c0-1.195,0.088-2.391,0.264-3.586
		c0.175-1.195,0.426-2.348,0.751-3.455c0.325-1.107,0.716-2.157,1.173-3.15c0.457-0.992,0.976-1.876,1.556-2.65
		c0.544-0.755,1.2-1.445,1.964-2.069s1.586-1.16,2.465-1.608c0.879-0.448,1.797-0.791,2.755-1.028
		c0.958-0.237,1.912-0.356,2.861-0.356c3.99,0,7.268,1.547,9.835,4.641c1.335,1.6,2.351,3.498,3.045,5.695
		c0.694,2.198,1.042,4.721,1.042,7.568c0,2.672-0.347,5.075-1.042,7.211c-0.695,2.136-1.71,4.047-3.045,5.734
		c-1.318,1.618-2.782,2.84-4.39,3.666S466.03,144.283,464.009,144.283z M464.009,141.224c1.67,0,3.186-0.32,4.548-0.962
		c1.362-0.642,2.509-1.604,3.441-2.888c0.932-1.266,1.644-2.838,2.136-4.719c0.492-1.881,0.738-3.955,0.738-6.223
		c0-2.092-0.255-4.048-0.765-5.867c-0.51-1.819-1.213-3.405-2.109-4.76c-0.949-1.388-2.101-2.455-3.454-3.203
		c-1.354-0.747-2.865-1.121-4.535-1.121c-1.459,0-2.848,0.348-4.166,1.042s-2.488,1.684-3.507,2.966
		c-1.055,1.283-1.819,2.84-2.294,4.668s-0.712,3.92-0.712,6.275c0,4.711,1.116,8.357,3.349,10.941
		c1.072,1.213,2.245,2.158,3.52,2.835C461.474,140.886,462.744,141.224,464.009,141.224z"/>
	<path fill="#FFFFFF" d="M506.645,144.283l-18.853-30.506v30.506h-3.059v-35.754h3.322l18.879,30.375v-30.375h2.979v35.754H506.645z
		"/>
	<path fill="#FFFFFF" d="M516.717,144.283l13.553-35.754h3.349l13.5,35.754h-2.953l-3.771-9.914H523.52l-3.797,9.914H516.717z
		 M524.627,131.416h14.792l-7.462-19.484L524.627,131.416z"/>
	<path fill="#FFFFFF" d="M553.948,144.283v-35.754h3.059v32.695h18.088v3.059H553.948z"/>
	<path fill="#FFFFFF" d="M606.208,144.283c-2.057,0-3.942-0.43-5.655-1.291c-1.715-0.861-3.169-2.066-4.364-3.613
		c-1.248-1.617-2.185-3.523-2.808-5.721c-0.625-2.197-0.937-4.605-0.937-7.225c0-4.992,1.248-9.229,3.744-12.709
		c2.496-3.463,5.704-5.195,9.624-5.195c1.652,0,3.125,0.186,4.416,0.555c1.293,0.369,2.413,0.879,3.362,1.529
		c0.932,0.633,1.735,1.318,2.413,2.057c0.676,0.738,1.261,1.6,1.753,2.584l-2.61,1.344c-1.002-1.74-2.232-3.027-3.691-3.862
		s-3.208-1.253-5.247-1.253c-1.652,0-3.138,0.4-4.456,1.2s-2.443,1.938-3.375,3.415c-0.984,1.512-1.71,3.12-2.176,4.824
		c-0.466,1.705-0.698,3.543-0.698,5.512c0,1.846,0.241,3.639,0.726,5.379c0.482,1.74,1.199,3.357,2.148,4.852
		c0.932,1.494,2.057,2.627,3.375,3.4c1.318,0.774,2.804,1.16,4.456,1.16c1.16,0,2.197-0.069,3.111-0.211
		c0.914-0.141,1.758-0.395,2.531-0.764c0.65-0.299,1.253-0.738,1.806-1.318c0.555-0.58,1.086-1.346,1.596-2.295l2.452,1.002
		c-0.51,1.055-1.086,1.991-1.728,2.809s-1.357,1.516-2.148,2.096c-0.844,0.598-1.895,1.038-3.15,1.318
		C609.419,144.142,607.93,144.283,606.208,144.283z"/>
	<path fill="#FFFFFF" d="M638.375,144.283c-1.881,0-3.608-0.412-5.182-1.238s-3.027-2.048-4.363-3.666
		c-1.406-1.688-2.465-3.599-3.178-5.734c-0.711-2.136-1.067-4.539-1.067-7.211c0-1.195,0.088-2.391,0.264-3.586
		s0.426-2.348,0.751-3.455s0.717-2.157,1.174-3.15c0.457-0.992,0.976-1.876,1.556-2.65c0.545-0.755,1.2-1.445,1.964-2.069
		c0.766-0.624,1.587-1.16,2.466-1.608s1.797-0.791,2.755-1.028s1.912-0.356,2.861-0.356c3.99,0,7.269,1.547,9.835,4.641
		c1.336,1.6,2.351,3.498,3.046,5.695c0.693,2.198,1.041,4.721,1.041,7.568c0,2.672-0.348,5.075-1.041,7.211
		c-0.695,2.136-1.71,4.047-3.046,5.734c-1.318,1.618-2.782,2.84-4.39,3.666C642.211,143.871,640.397,144.283,638.375,144.283z
		 M638.375,141.224c1.67,0,3.186-0.32,4.549-0.962c1.361-0.642,2.509-1.604,3.44-2.888c0.932-1.266,1.644-2.838,2.136-4.719
		s0.738-3.955,0.738-6.223c0-2.092-0.255-4.048-0.765-5.867s-1.213-3.405-2.109-4.76c-0.949-1.388-2.101-2.455-3.454-3.203
		c-1.354-0.747-2.865-1.121-4.535-1.121c-1.459,0-2.848,0.348-4.166,1.042s-2.487,1.684-3.507,2.966
		c-1.055,1.283-1.819,2.84-2.294,4.668s-0.712,3.92-0.712,6.275c0,4.711,1.116,8.357,3.349,10.941
		c1.072,1.213,2.245,2.158,3.52,2.835S637.11,141.224,638.375,141.224z"/>
	<path fill="#FFFFFF" d="M659.1,144.283v-35.754h3.059v32.695h18.088v3.059H659.1z"/>
	<path fill="#FFFFFF" d="M687.049,144.283v-35.754h3.059v32.695h18.088v3.059H687.049z"/>
	<path fill="#FFFFFF" d="M714.999,144.283l13.553-35.754h3.349l13.5,35.754h-2.953l-3.771-9.914h-16.875l-3.797,9.914H714.999z
		 M722.909,131.416h14.792l-7.462-19.484L722.909,131.416z"/>
	<path fill="#FFFFFF" d="M768.023,144.283c-2.76,0-5.159-0.426-7.198-1.278s-3.656-2.061-4.852-3.626
		c-1.248-1.635-2.185-3.546-2.808-5.734c-0.625-2.188-0.937-4.592-0.937-7.211c0-4.992,1.248-9.229,3.744-12.709
		c2.496-3.463,5.704-5.195,9.624-5.195c1.652,0,3.125,0.186,4.416,0.555c1.293,0.369,2.413,0.879,3.362,1.529
		c0.932,0.633,1.735,1.318,2.413,2.057c0.676,0.738,1.261,1.6,1.753,2.584l-2.61,1.344c-1.002-1.74-2.232-3.027-3.691-3.862
		s-3.208-1.253-5.247-1.253c-1.652,0-3.138,0.4-4.456,1.2s-2.443,1.938-3.375,3.415c-0.984,1.512-1.71,3.12-2.176,4.824
		c-0.466,1.705-0.698,3.543-0.698,5.512c0,1.846,0.251,3.639,0.751,5.379c0.502,1.74,1.209,3.357,2.123,4.852
		c0.949,1.547,2.25,2.693,3.902,3.44s3.656,1.12,6.012,1.12c2.461,0,4.667-0.869,6.618-2.609v-8.068h-7.937v-2.953h10.784v12.418
		c-0.633,0.669-1.331,1.266-2.097,1.793c-0.764,0.527-1.564,0.977-2.398,1.346c-0.836,0.369-1.68,0.65-2.531,0.844
		C769.662,144.187,768.832,144.283,768.023,144.283z"/>
	<path fill="#FFFFFF" d="M784.371,144.283v-35.754h21.146v2.953h-18.088v13.422h12.313v2.953h-12.313v13.367h18.088v3.059H784.371z"
		/>
	<path fill="#FFFFFF" d="M828.905,105.972c-1.318,1.459-2.237,2.742-2.756,3.85s-0.777,2.145-0.777,3.111
		c0,0.211,0.014,0.418,0.039,0.619c0.027,0.202,0.058,0.408,0.093,0.619c0.088-0.035,0.229-0.053,0.422-0.053h0.264
		c0.615,0,1.155,0.182,1.622,0.541c0.465,0.36,0.698,0.866,0.698,1.516c0,0.439-0.075,0.818-0.224,1.135
		c-0.15,0.316-0.344,0.58-0.58,0.791c-0.238,0.211-0.506,0.365-0.805,0.461c-0.299,0.097-0.589,0.145-0.87,0.145
		c-0.844,0-1.521-0.289-2.03-0.869s-0.765-1.547-0.765-2.9c0-0.844,0.109-1.701,0.329-2.571s0.536-1.728,0.949-2.571
		s0.919-1.664,1.517-2.465c0.598-0.8,1.266-1.543,2.004-2.229L828.905,105.972z M836.815,105.972
		c-1.318,1.459-2.237,2.742-2.756,3.85s-0.777,2.145-0.777,3.111c0,0.211,0.014,0.418,0.039,0.619
		c0.027,0.202,0.058,0.408,0.093,0.619c0.088-0.035,0.229-0.053,0.422-0.053h0.264c0.615,0,1.155,0.182,1.622,0.541
		c0.465,0.36,0.698,0.866,0.698,1.516c0,0.439-0.075,0.818-0.224,1.135c-0.15,0.316-0.344,0.58-0.58,0.791
		c-0.238,0.211-0.506,0.365-0.805,0.461c-0.299,0.097-0.589,0.145-0.87,0.145c-0.844,0-1.521-0.289-2.03-0.869
		s-0.765-1.547-0.765-2.9c0-0.844,0.109-1.701,0.329-2.571s0.536-1.728,0.949-2.571s0.919-1.664,1.517-2.465
		c0.598-0.8,1.266-1.543,2.004-2.229L836.815,105.972z"/>
	<path fill="#FFFFFF" d="M857.777,144.283c-1.881,0-3.608-0.412-5.182-1.238s-3.027-2.048-4.363-3.666
		c-1.406-1.688-2.465-3.599-3.178-5.734c-0.711-2.136-1.067-4.539-1.067-7.211c0-1.195,0.088-2.391,0.264-3.586
		s0.426-2.348,0.751-3.455s0.717-2.157,1.174-3.15c0.457-0.992,0.976-1.876,1.556-2.65c0.545-0.755,1.2-1.445,1.964-2.069
		c0.766-0.624,1.587-1.16,2.466-1.608s1.797-0.791,2.755-1.028s1.912-0.356,2.861-0.356c3.99,0,7.269,1.547,9.835,4.641
		c1.283,1.6,2.285,3.498,3.006,5.695c0.721,2.198,1.081,4.721,1.081,7.568c0,5.08-0.958,9.053-2.874,11.918l3.19,3.111l-2.505,2.584
		l-3.217-3.244C863.815,143.123,860.976,144.283,857.777,144.283z M860.572,135.054l2.452-2.557l3.296,3.295
		c0.791-1.071,1.375-2.368,1.754-3.889c0.377-1.52,0.566-3.344,0.566-5.471c0-2.092-0.255-4.057-0.765-5.894
		s-1.213-3.415-2.109-4.733c-0.932-1.371-2.079-2.434-3.44-3.189c-1.363-0.756-2.879-1.135-4.549-1.135
		c-1.459,0-2.856,0.348-4.192,1.042s-2.496,1.684-3.48,2.966c-1.055,1.318-1.828,2.888-2.32,4.707s-0.738,3.898-0.738,6.236
		c0,4.816,1.134,8.463,3.401,10.941c1.178,1.302,2.364,2.268,3.56,2.9s2.452,0.949,3.771,0.949c1.16,0,2.298-0.211,3.414-0.633
		s2.088-1.133,2.914-2.135L860.572,135.054z"/>
	<path fill="#FFFFFF" d="M888.205,108.529c1.758,0,3.234,0.211,4.43,0.633s2.197,1.082,3.006,1.979s1.389,1.929,1.74,3.098
		c0.352,1.17,0.527,2.465,0.527,3.889c0,1.091-0.102,2.049-0.304,2.875s-0.527,1.578-0.975,2.254
		c-0.449,0.677-1.038,1.31-1.768,1.898c-0.729,0.59-1.621,1.183-2.676,1.779c0.475,0.264,0.918,0.673,1.332,1.227
		c0.412,0.554,0.799,1.209,1.16,1.965c0.359,0.756,0.689,1.591,0.988,2.504c0.299,0.914,0.563,1.855,0.791,2.822
		c0.51,2.162,1.081,3.964,1.714,5.404c0.633,1.441,1.239,2.584,1.819,3.428h-3.111c-0.211-0.175-0.431-0.491-0.659-0.949
		c-0.229-0.457-0.462-1.015-0.698-1.674c-0.238-0.659-0.479-1.393-0.726-2.201s-0.492-1.662-0.738-2.559
		c-0.316-1.213-0.664-2.363-1.042-3.453s-0.782-2.053-1.213-2.888s-0.9-1.493-1.41-1.978c-0.51-0.483-1.063-0.725-1.661-0.725
		h-6.855v16.426h-3.059v-35.754H888.205z M881.876,124.904h6.618c0.896,0,1.727-0.137,2.492-0.409
		c0.764-0.272,1.437-0.689,2.017-1.253c0.598-0.58,1.046-1.287,1.345-2.122s0.448-1.833,0.448-2.993
		c0-1.055-0.141-1.999-0.422-2.834c-0.281-0.834-0.721-1.543-1.318-2.123c-0.615-0.58-1.323-1.006-2.122-1.278
		c-0.801-0.272-1.71-0.409-2.729-0.409h-6.328V124.904z"/>
	<path fill="#FFFFFF" d="M906.82,144.283v-35.754h3.006v35.754H906.82z"/>
	<path fill="#FFFFFF" d="M926.411,144.283c-1.336,0-2.558-0.127-3.665-0.382s-2.021-0.689-2.742-1.306
		c-0.668-0.597-1.257-1.208-1.767-1.832c-0.51-0.623-1.011-1.322-1.503-2.096l2.399-2.031c0.422,0.738,0.909,1.416,1.464,2.031
		c0.553,0.615,1.067,1.098,1.542,1.449c0.633,0.439,1.292,0.734,1.978,0.884s1.45,0.224,2.294,0.224
		c0.949,0,1.823-0.105,2.624-0.316c0.799-0.211,1.516-0.57,2.148-1.08c0.58-0.457,1.041-1.121,1.385-1.991
		c0.342-0.87,0.514-1.858,0.514-2.966c0-0.949-0.185-1.873-0.554-2.77s-0.844-1.625-1.424-2.188
		c-0.65-0.633-1.578-1.297-2.782-1.991s-2.614-1.411-4.231-2.149c-1.107-0.491-2.136-1.01-3.085-1.555s-1.758-1.151-2.426-1.82
		c-0.598-0.649-1.068-1.388-1.41-2.215c-0.344-0.826-0.515-1.713-0.515-2.662c0-1.389,0.229-2.646,0.686-3.771
		c0.457-1.124,1.151-2.073,2.083-2.848c1.934-1.582,4.263-2.373,6.987-2.373c1.793,0,3.393,0.309,4.799,0.924
		s2.646,1.607,3.718,2.979l-2.347,1.846c-0.791-0.896-1.696-1.586-2.716-2.069s-2.171-0.726-3.454-0.726
		c-0.879,0-1.688,0.129-2.426,0.383c-0.738,0.255-1.468,0.629-2.188,1.121c-1.389,0.914-2.083,2.276-2.083,4.086
		c0,0.65,0.153,1.289,0.462,1.912c0.307,0.624,0.733,1.223,1.278,1.793c0.545,0.571,1.178,1.099,1.898,1.582
		c0.721,0.484,1.503,0.91,2.347,1.279c1.758,0.791,3.326,1.604,4.707,2.438c1.379,0.835,2.465,1.675,3.256,2.519
		s1.397,1.766,1.819,2.768s0.633,2.093,0.633,3.27c0,3.059-0.817,5.432-2.452,7.119S929.61,144.283,926.411,144.283z"/>
	<path fill="#FFFFFF" d="M942.89,144.283v-35.754h3.006v35.754H942.89z"/>
	<path fill="#FFFFFF" d="M952.725,144.283l13.553-35.754h3.349l13.5,35.754h-2.953l-3.771-9.914h-16.875l-3.797,9.914H952.725z
		 M960.635,131.416h14.792l-7.462-19.484L960.635,131.416z"/>
	<path fill="#FFFFFF" d="M990.325,117.837c0.65-0.738,1.2-1.42,1.647-2.044c0.449-0.624,0.809-1.217,1.082-1.78
		c0.271-0.563,0.47-1.098,0.593-1.607s0.185-1.012,0.185-1.504c0-0.211-0.009-0.422-0.026-0.633s-0.044-0.422-0.079-0.633
		c-0.088,0.036-0.229,0.053-0.422,0.053h-0.264c-0.615,0-1.156-0.18-1.621-0.54c-0.467-0.36-0.699-0.866-0.699-1.517
		c0-0.438,0.074-0.816,0.225-1.133c0.148-0.316,0.342-0.58,0.58-0.791c0.236-0.211,0.5-0.365,0.791-0.462
		c0.289-0.097,0.584-0.146,0.883-0.146c0.844,0,1.521,0.291,2.03,0.871s0.765,1.547,0.765,2.9c0,0.844-0.11,1.7-0.33,2.57
		s-0.536,1.727-0.949,2.57s-0.918,1.666-1.516,2.466s-1.266,1.542-2.004,2.228L990.325,117.837z M998.235,117.837
		c0.65-0.738,1.2-1.42,1.647-2.044c0.449-0.624,0.809-1.217,1.082-1.78c0.271-0.563,0.47-1.098,0.593-1.607s0.185-1.012,0.185-1.504
		c0-0.211-0.009-0.422-0.026-0.633s-0.044-0.422-0.079-0.633c-0.088,0.036-0.229,0.053-0.422,0.053h-0.264
		c-0.615,0-1.156-0.18-1.621-0.54c-0.467-0.36-0.699-0.866-0.699-1.517c0-0.438,0.074-0.816,0.225-1.133
		c0.148-0.316,0.342-0.58,0.58-0.791c0.236-0.211,0.5-0.365,0.791-0.462c0.289-0.097,0.584-0.146,0.883-0.146
		c0.844,0,1.521,0.291,2.03,0.871s0.765,1.547,0.765,2.9c0,0.844-0.11,1.7-0.33,2.57s-0.536,1.727-0.949,2.57
		s-0.918,1.666-1.516,2.466s-1.266,1.542-2.004,2.228L998.235,117.837z"/>
</g>
</svg>
