<?xml version="1.0" encoding="utf-8"?>
<!-- Generator: Adobe Illustrator 16.0.3, SVG Export Plug-In . SVG Version: 6.00 Build 0)  -->
<!DOCTYPE svg PUBLIC "-//W3C//DTD SVG 1.1//EN" "http://www.w3.org/Graphics/SVG/1.1/DTD/svg11.dtd">
<svg version="1.1" xmlns="http://www.w3.org/2000/svg" xmlns:xlink="http://www.w3.org/1999/xlink" x="0px" y="0px"
	 width="424.256px" height="56.636px" viewBox="0 0 424.256 56.636" enable-background="new 0 0 424.256 56.636"
	 xml:space="preserve">
<g id="Layer_2" display="none">
	<g display="inline">
		<rect x="-138.744" y="-93.959" fill="#F90606" width="767" height="257"/>
		<path d="M628.756,163.541h-768v-258h768V163.541z M-138.244,162.541h766v-256h-766V162.541z"/>
	</g>
</g>
<g id="Objects">
	<g>
		<g>
			<g>
				<path fill="#4A9B1D" d="M16.262,14.48l34.485-0.007v-3.229H16.262c-4.056,0-5.565-1.086-5.565-3.994
					c0-3.748,1.482-4.021,3.929-4.021c0.266,0,0.524,0.007,0.776,0.014c0.266,0,0.524,0.007,0.769,0.007h34.576V0.014H16.171
					c-0.231,0-0.468,0-0.713-0.007C15.186,0.007,14.906,0,14.626,0c-1.958,0-7.167,0-7.167,7.251
					C7.459,12.047,10.424,14.48,16.262,14.48L16.262,14.48z M16.262,14.48"/>
			</g>
			<g>
				<rect x="14.242" y="4.393" fill="#4A9B1D" width="34.485" height="1.072"/>
			</g>
			<g>
				<rect x="14.242" y="6.635" fill="#4A9B1D" width="34.485" height="1.07"/>
			</g>
			<g>
				<rect x="14.242" y="9.015" fill="#4A9B1D" width="34.485" height="1.079"/>
			</g>
		</g>
		<g>
			<polygon fill="#4A9B1D" points="50.748,0 53.562,1.625 50.748,3.25 			"/>
		</g>
		<g>
			<polygon fill="#4A9B1D" points="52.774,1.17 52.774,2.08 53.562,1.625 			"/>
		</g>
	</g>
	<g>
		<g>
			<g>
				<path fill="#FFFFFF" d="M45.353,34.534c0.322,0,0.65,0.007,0.986,0.007c2.328,0,8.53,0,8.53-8.628
					c0-5.71-3.524-8.607-10.481-8.607H3.337v3.854h41.051c4.832,0,6.635,1.285,6.635,4.753c0,4.461-1.769,4.783-4.684,4.783
					c-0.315,0-0.623-0.007-0.93-0.014c-0.308,0-0.616-0.007-0.909-0.007H3.337v3.845H44.5C44.772,34.52,45.06,34.527,45.353,34.534
					L45.353,34.534z M45.353,34.534"/>
			</g>
			<g>
				<rect x="5.743" y="28.143" fill="#FFFFFF" width="41.059" height="1.07"/>
			</g>
			<g>
				<rect x="5.743" y="25.465" fill="#FFFFFF" width="41.059" height="1.079"/>
			</g>
			<g>
				<rect x="5.743" y="22.633" fill="#FFFFFF" width="41.059" height="1.079"/>
			</g>
		</g>
		<g>
			<polygon fill="#FFFFFF" points="3.337,21.16 0,19.232 3.337,17.306 			"/>
		</g>
		<g>
			<polygon fill="#FFFFFF" points="0.934,19.772 0.934,18.693 0,19.232 			"/>
		</g>
	</g>
	<g>
		<g>
			<g>
				<path fill="#4A9B1D" d="M57.858,37.422H11.92c-0.308,0-0.623-0.007-0.951-0.007c-0.357-0.007-0.728-0.014-1.098-0.014
					c-2.601,0-9.523,0-9.523,9.628c0,6.376,3.937,9.607,11.698,9.607h45.812v-4.3l-45.812,0.007c-5.398,0-7.405-1.441-7.405-5.314
					c0-4.979,1.979-5.335,5.23-5.335c0.35,0,0.692,0.007,1.028,0.014c0.35,0.007,0.692,0.007,1.021,0.007h45.938V37.422z
					 M57.858,37.422"/>
			</g>
			<g>
				<rect x="9.354" y="43.406" fill="#4A9B1D" width="45.819" height="1.077"/>
			</g>
			<g>
				<rect x="9.354" y="46.392" fill="#4A9B1D" width="45.819" height="1.077"/>
			</g>
			<g>
				<rect x="9.354" y="49.553" fill="#4A9B1D" width="45.819" height="1.077"/>
			</g>
		</g>
		<g>
			<polygon fill="#4A9B1D" points="57.858,37.422 61.576,39.568 57.858,41.715 			"/>
		</g>
		<g>
			<polygon fill="#4A9B1D" points="60.536,38.968 60.536,40.169 61.576,39.568 			"/>
		</g>
	</g>
	<g display="none">
		<path display="inline" fill="#FFFFFF" d="M89.291,15.862c0,2.807-1.844,4.881-4.399,4.881c-2.577,0-4.4-1.592-4.4-5.007V4.297
			h1.488v11.439c0,2.724,1.215,3.729,2.912,3.729c1.927,0,2.912-1.529,2.912-3.75v-0.607c0-2.263-2.598-3.708-2.598-5.321
			c0-0.607,0.105-1.152,0.545-1.781l1.508,0.419c-0.419,0.544-0.649,0.796-0.649,1.362c0,1.592,2.682,2.786,2.682,5.091V15.862z"/>
		<path display="inline" fill="#FFFFFF" d="M100.249,15.987c0,3.164-1.488,4.756-4.42,4.756c-2.892,0-4.4-2.095-4.4-4.609v-0.733
			c0-0.859,0.482-1.823,1.131-2.724l1.027,0.524c-0.419,0.817-0.65,1.697-0.65,2.2v0.796c0,2.095,0.733,3.268,2.892,3.268
			c2.011,0,2.912-0.963,2.912-3.541v-1.215c0-4.169-4.756-5.112-4.756-9.134V4.297h1.383v1.278c0,3.31,4.881,4.693,4.881,9.134
			V15.987z"/>
		<path display="inline" fill="#FFFFFF" d="M112.485,16.029c-0.042,2.053-1.571,4.714-5.133,4.714c-3.247,0-5.07-2.849-5.07-4.714
			v-1.278c0-2.493,1.718-4.861,5.468-4.986l1.068-2.158c0-0.733-0.838-2.011-2.011-2.011c-1.445,0-2.137,0.628-2.137,1.487v1.383
			h-1.341V7.083c0-1.634,1.718-2.787,3.478-2.787c2.263,0,3.352,1.278,3.352,3.311l-1.047,2.283c1.467,0.461,3.436,2.074,3.394,4.63
			L112.485,16.029z M110.977,14.5c0-1.446-1.027-3.436-3.101-3.436h-0.733c-2.095,0-3.373,1.446-3.373,3.75v1.027
			c0,1.697,1.173,3.645,3.646,3.645c2.451,0,3.562-1.529,3.562-3.645V14.5z"/>
		<path display="inline" fill="#FFFFFF" d="M123.381,15.987c0,3.164-1.488,4.756-4.42,4.756c-2.892,0-4.4-2.095-4.4-4.609v-0.733
			c0-0.859,0.482-1.823,1.131-2.724l1.027,0.524c-0.419,0.817-0.65,1.697-0.65,2.2v0.796c0,2.095,0.733,3.268,2.892,3.268
			c2.011,0,2.912-0.963,2.912-3.541v-1.215c0-4.169-4.756-5.112-4.756-9.134V4.297h1.383v1.278c0,3.31,4.881,4.693,4.881,9.134
			V15.987z"/>
		<path display="inline" fill="#FFFFFF" d="M134.549,16.343c0,2.682-1.55,4.4-4.379,4.4c-2.577,0-4.42-1.697-4.42-4.42V7.377
			c0-1.97,1.152-2.871,2.598-2.871c1.194,0,2.367,0.524,3.415,0.524c0.859,0,1.446-0.272,2.472-0.733v1.131
			c-0.943,0.566-1.697,0.796-2.619,0.796c-1.047,0-1.927-0.419-2.975-0.419c-1.11-0.042-1.55,0.691-1.55,1.655v3.562
			c0.901-1.383,2.116-1.76,3.059-1.76c2.829,0,4.4,2.137,4.4,4.399V16.343z M133.061,13.725c0-1.844-0.963-3.205-2.891-3.205
			c-1.026,0-2.933,0.042-2.933,3.226v2.577c0,1.718,0.921,3.142,2.912,3.142c1.949,0,2.912-1.173,2.912-3.289V13.725z"/>
		<path display="inline" fill="#FFFFFF" d="M145.381,16.406c0,2.661-1.76,4.337-4.336,4.337c-2.891,0-4.462-1.99-4.462-4.609v-2.262
			c0-2.137,1.571-4.609,4.462-4.609c0.984,0,2.242,0.293,2.954,1.844V7.523c0-1.215-1.466-1.927-2.828-1.927
			c-1.718,0-2.577,0.712-2.577,1.508V8.34h-1.529V7.104c0-1.508,2.032-2.808,4.127-2.808c2.2,0,4.211,1.299,4.211,3.227
			L145.381,16.406z M143.894,13.83c0-2.368-1.257-3.31-2.891-3.31c-1.907,0-2.933,1.76-2.933,3.352v2.262
			c0,2.032,1.173,3.352,3.017,3.352c1.822,0,2.807-1.215,2.807-3.352V13.83z"/>
		<path display="inline" fill="#FFFFFF" d="M156.675,15.987c0,3.164-1.488,4.756-4.42,4.756c-2.892,0-4.4-2.095-4.4-4.609v-0.733
			c0-0.859,0.482-1.823,1.131-2.724l1.027,0.524c-0.419,0.817-0.65,1.697-0.65,2.2v0.796c0,2.095,0.733,3.268,2.892,3.268
			c2.011,0,2.912-0.963,2.912-3.541v-1.215c0-4.169-4.756-5.112-4.756-9.134V4.297h1.383v1.278c0,3.31,4.881,4.693,4.881,9.134
			V15.987z"/>
		<path display="inline" fill="#FFFFFF" d="M167.843,16.343c0,2.682-1.55,4.4-4.379,4.4c-2.577,0-4.42-1.697-4.42-4.42V7.377
			c0-1.97,1.152-2.871,2.598-2.871c1.194,0,2.367,0.524,3.415,0.524c0.859,0,1.446-0.272,2.472-0.733v1.131
			c-0.943,0.566-1.697,0.796-2.619,0.796c-1.047,0-1.927-0.419-2.975-0.419c-1.11-0.042-1.55,0.691-1.55,1.655v3.562
			c0.901-1.383,2.116-1.76,3.059-1.76c2.829,0,4.4,2.137,4.4,4.399V16.343z M166.355,13.725c0-1.844-0.963-3.205-2.891-3.205
			c-1.026,0-2.933,0.042-2.933,3.226v2.577c0,1.718,0.921,3.142,2.912,3.142c1.949,0,2.912-1.173,2.912-3.289V13.725z"/>
		<path display="inline" fill="#FFFFFF" d="M178.801,15.987c0,3.164-1.488,4.756-4.42,4.756c-2.892,0-4.4-2.095-4.4-4.609v-0.733
			c0-0.859,0.482-1.823,1.131-2.724l1.027,0.524c-0.419,0.817-0.65,1.697-0.65,2.2v0.796c0,2.095,0.733,3.268,2.892,3.268
			c2.011,0,2.912-0.963,2.912-3.541v-1.215c0-4.169-4.755-5.112-4.755-9.134V4.297h1.383v1.278c0,3.31,4.881,4.693,4.881,9.134
			V15.987z"/>
		<path display="inline" fill="#FFFFFF" d="M196.191,13.746c0,3.185-1.173,6.998-4.399,6.998v-1.278
			c1.927,0,2.912-2.786,2.912-5.573v-3.101c0-2.451-0.147-5.195-2.472-5.195c-2.451,0-2.472,1.529-2.472,2.912v6.285
			c0,2.891-1.089,5.95-4.295,5.95c-3.436,0-4.295-3.143-4.295-6.243v-4.4c0-2.807,0.712-5.74,4.295-5.782
			c1.194-0.021,2.828,0.251,3.583,2.368c0.775-2.179,1.676-2.389,3.185-2.389c3.52,0,3.959,3.331,3.959,6.118V13.746z M188.25,8.508
			c0-1.383-0.733-2.912-2.786-2.912c-2.388,0-2.807,2.598-2.807,4.923v3.813c0,3.394,0.565,5.133,2.807,5.133
			c2.053,0,2.786-1.739,2.786-4.609V8.508z"/>
		<path display="inline" fill="#FFFFFF" d="M218.359,10.457c0,1.802-1.467,4.965-3.311,6.013l-0.942-0.859
			c1.655-1.236,2.723-3.75,2.723-5.259V9.011c0-2.158-1.047-3.31-2.325-3.31c-2.053,0-2.472,1.341-2.472,3.017v3.331h-1.383V8.718
			c0-1.634-0.356-3.122-2.2-3.122c-1.676,0-2.2,1.55-2.2,3.059v3.394h-1.404V8.655c0-1.508-0.104-2.954-2.409-2.954
			c-1.676,0-2.368,1.634-2.368,3.688l0.021,1.466c-0.042,4.902,5.28,8.212,11.544,8.212h1.55v1.446h-1.508
			c-8.443,0-13.01-4.84-13.094-9.658l-0.021-1.529c0-2.808,1.173-4.923,3.876-4.923c1.445,0,2.346,0.398,3.247,2.326
			c0.587-1.928,1.404-2.431,2.766-2.431c1.278,0,2.179,0.503,2.849,2.326c0.817-1.823,2.032-2.221,3.185-2.221
			c2.158,0,3.876,1.613,3.876,4.504V10.457z"/>
		<path display="inline" fill="#FFFFFF" d="M229.192,17.035c0,2.619-2.074,3.708-4.399,3.708c-2.556,0-4.399-1.676-4.399-3.918
			c0-2.095,0.901-3.143,2.032-4.022l0.921,0.922c-1.089,1.006-1.466,1.446-1.466,3.122c0,1.676,0.922,2.619,2.912,2.619
			c1.76,0,2.912-0.963,2.912-2.472V7.879c0-1.362-0.964-2.283-2.514-2.283c-1.571,0-2.661,0.88-2.661,2.304
			c0,0.482,0.084,0.943,0.503,1.592l-1.11,0.838c-0.524-0.712-0.796-1.529-0.796-2.43c0-2.158,1.55-3.604,3.939-3.604
			c2.325,0,4.127,1.257,4.127,3.583V17.035z"/>
		<path display="inline" fill="#FFFFFF" d="M234.452,4.297c0,1.802,3.017,1.55,3.017,3.206c0,0.859-0.168,1.257-0.565,2.032
			c2.304,0.544,3.456,2.766,3.456,4.462l0.021,2.409c0,1.76-1.529,4.337-4.42,4.337c-2.892,0-4.4-2.347-4.4-4.358v-2.367
			c0-1.907,1.11-4.064,3.939-4.483c0.44-1.026,0.461-1.362,0.461-1.99c-0.042-1.068-3.017-1.11-3.017-3.248H234.452z
			 M233.069,16.134c0,1.739,0.88,3.331,2.892,3.331c2.116,0,2.912-1.781,2.912-3.205v-2.179c0-1.488-0.942-3.331-2.912-3.331
			c-2.095,0-2.892,1.55-2.892,3.394V16.134z"/>
		<path display="inline" fill="#FFFFFF" d="M262.317,10.457c0,1.802-1.466,4.965-3.31,6.013l-0.943-0.859
			c1.655-1.236,2.724-3.75,2.724-5.259V9.011c0-2.158-1.047-3.31-2.325-3.31c-2.053,0-2.473,1.341-2.473,3.017v3.331h-1.382V8.718
			c0-1.634-0.356-3.122-2.2-3.122c-1.676,0-2.2,1.55-2.2,3.059v3.394h-1.403V8.655c0-1.508-0.104-2.954-2.409-2.954
			c-1.676,0-2.367,1.634-2.367,3.688l0.021,1.466c-0.042,4.902,5.279,8.212,11.544,8.212h1.55v1.446h-1.508
			c-8.443,0-13.011-4.84-13.094-9.658l-0.021-1.529c0-2.808,1.173-4.923,3.876-4.923c1.445,0,2.347,0.398,3.247,2.326
			c0.587-1.928,1.404-2.431,2.766-2.431c1.278,0,2.179,0.503,2.85,2.326c0.816-1.823,2.032-2.221,3.184-2.221
			c2.158,0,3.876,1.613,3.876,4.504V10.457z"/>
		<path display="inline" fill="#FFFFFF" d="M278.495,10.708c0-2.933-0.168-5.112-2.661-5.112c-1.802,0-2.682,1.089-2.682,3.205v6.6
			h-1.487v-6.6c0-2.242-0.88-3.205-2.702-3.205c-2.326,0-2.682,2.179-2.682,5.216v2.808c0,2.807,0.796,5.845,2.912,5.845v1.278
			c-3.521,0-4.421-3.855-4.421-7.082v-2.849c0-3.205,0.503-6.516,4.211-6.516c1.781,0,2.702,0.88,3.373,2.389
			c0.565-1.509,1.55-2.389,3.478-2.389c3.541,0,4.211,3.248,4.211,6.348l-0.021,3.017c0,3.059-1.048,7.082-4.379,7.082v-1.278
			c1.928,0,2.85-2.975,2.85-5.908V10.708z"/>
		<path display="inline" fill="#FFFFFF" d="M295.298,16.406c0,2.661-1.76,4.337-4.337,4.337c-2.891,0-4.462-1.99-4.462-4.609v-2.262
			c0-2.137,1.571-4.609,4.462-4.609c0.985,0,2.242,0.293,2.954,1.844V7.523c0-1.215-1.466-1.927-2.828-1.927
			c-1.718,0-2.577,0.712-2.577,1.508V8.34h-1.529V7.104c0-1.508,2.032-2.808,4.128-2.808c2.199,0,4.211,1.299,4.211,3.227
			L295.298,16.406z M293.811,13.83c0-2.368-1.257-3.31-2.892-3.31c-1.906,0-2.933,1.76-2.933,3.352v2.262
			c0,2.032,1.173,3.352,3.017,3.352c1.823,0,2.808-1.215,2.808-3.352V13.83z"/>
		<path display="inline" fill="#FFFFFF" d="M298.002,8.068c0-2.535,0.733-3.771,2.996-3.771c1.152,0,1.864,0.461,2.535,1.55
			c0.586-1.131,1.194-1.55,2.556-1.55c1.341,0,2.409,1.027,2.409,2.368v1.404h-1.215V6.665c0-0.545-0.356-1.173-1.341-1.173
			c-0.943,0-1.823,0.628-1.823,1.865v0.586h-1.257V7.356c0-1.089-0.461-1.865-1.592-1.865c-1.76,0-1.886,0.691-1.886,2.64v3.227
			c0.922-1.152,2.2-1.571,3.227-1.571c2.807,0,4.63,2.346,4.63,4.902v1.404c0,2.451-1.781,4.651-4.63,4.651
			c-2.64,0-4.609-2.011-4.609-4.693V8.068z M299.49,15.862c0,1.885,1.132,3.603,3.122,3.603c2.032,0,3.079-1.676,3.079-3.478v-1.194
			c0-1.131-0.272-2.032-0.796-2.682s-1.299-1.005-2.283-1.005c-2.074,0-3.122,0.796-3.122,3.164V15.862z"/>
		<path display="inline" fill="#FFFFFF" d="M318.787,16.951c0,1.99-1.508,3.792-4.399,3.792c-2.912,0-4.399-1.969-4.399-3.729
			v-0.838c0-0.775,0.439-1.885,1.487-2.556l1.173,0.712c-0.88,0.691-1.173,1.069-1.173,1.928v0.649c0,1.383,0.964,2.556,2.912,2.556
			c1.99,0,2.912-0.984,2.912-2.514v-1.76c0-1.006-0.419-2.619-1.697-2.619h-1.403v-1.299h1.403c1.425,0,1.593-1.969,1.593-2.87
			V7.921c0-1.131-0.817-2.325-2.682-2.325c-1.613,0-2.598,1.215-2.598,2.053v0.335c0,0.838,0.209,1.194,0.628,1.781l-1.236,0.565
			c-0.565-0.733-0.9-1.445-0.9-2.262V7.544c0-1.529,1.697-3.248,4.106-3.248c2.807,0,4.169,1.76,4.169,3.52v0.712
			c0,0.754,0.104,2.326-1.928,3.373c2.032,1.006,2.032,2.284,2.032,3.29V16.951z"/>
		<path display="inline" fill="#FFFFFF" d="M329.766,15.987c0,3.164-1.487,4.756-4.421,4.756c-2.891,0-4.399-2.095-4.399-4.609
			v-0.733c0-0.859,0.482-1.823,1.132-2.724l1.026,0.524c-0.419,0.817-0.649,1.697-0.649,2.2v0.796c0,2.095,0.733,3.268,2.891,3.268
			c2.012,0,2.912-0.963,2.912-3.541v-1.215c0-4.169-4.756-5.112-4.756-9.134V4.297h1.383v1.278c0,3.31,4.882,4.693,4.882,9.134
			V15.987z"/>
		<path display="inline" fill="#FFFFFF" d="M340.933,16.343c0,2.682-1.55,4.4-4.378,4.4c-2.577,0-4.421-1.697-4.421-4.42V7.377
			c0-1.97,1.152-2.871,2.598-2.871c1.194,0,2.367,0.524,3.415,0.524c0.859,0,1.445-0.272,2.473-0.733v1.131
			c-0.943,0.566-1.697,0.796-2.619,0.796c-1.048,0-1.928-0.419-2.975-0.419c-1.11-0.042-1.551,0.691-1.551,1.655v3.562
			c0.901-1.383,2.116-1.76,3.059-1.76c2.828,0,4.399,2.137,4.399,4.399V16.343z M339.446,13.725c0-1.844-0.964-3.205-2.891-3.205
			c-1.027,0-2.934,0.042-2.934,3.226v2.577c0,1.718,0.922,3.142,2.912,3.142c1.948,0,2.912-1.173,2.912-3.289V13.725z"/>
		<path display="inline" fill="#FFFFFF" d="M351.766,17.035c0,2.619-2.074,3.708-4.399,3.708c-2.556,0-4.399-1.676-4.399-3.918
			c0-2.095,0.9-3.143,2.032-4.022l0.922,0.922c-1.09,1.006-1.467,1.446-1.467,3.122c0,1.676,0.922,2.619,2.912,2.619
			c1.76,0,2.912-0.963,2.912-2.472V7.879c0-1.362-0.964-2.283-2.514-2.283c-1.571,0-2.661,0.88-2.661,2.304
			c0,0.482,0.084,0.943,0.503,1.592l-1.11,0.838c-0.523-0.712-0.796-1.529-0.796-2.43c0-2.158,1.55-3.604,3.938-3.604
			c2.325,0,4.127,1.257,4.127,3.583V17.035z"/>
		<path display="inline" fill="#FFFFFF" d="M368.758,15.841c0,2.849-2.179,4.902-5.027,4.902c-2.934,0-5.301-2.305-5.301-5.761
			v-4.106c0-1.446,0.23-4.169,1.718-6.579l0.985,0.88c-0.88,1.592-1.194,4.169-1.194,5.699v4.106c0,2.095,1.466,4.483,3.792,4.483
			c2.263,0,3.52-1.739,3.52-3.624v-0.775c0-1.634-0.607-2.828-2.054-2.828h-1.592v-1.278h1.592c1.467,0,2.054-1.341,2.054-1.97
			c0-1.781-3.227-1.697-3.227-4.693h1.257c0,2.158,3.478,2.242,3.478,4.651c0,0.733-0.021,2.032-2.576,2.661
			c2.556,0.628,2.576,2.367,2.576,3.394V15.841z"/>
		<path display="inline" fill="#FFFFFF" d="M379.571,17.035c0,2.619-2.074,3.708-4.399,3.708c-2.556,0-4.399-1.676-4.399-3.918
			c0-2.095,0.9-3.143,2.032-4.022l0.922,0.922c-1.09,1.006-1.467,1.446-1.467,3.122c0,1.676,0.922,2.619,2.912,2.619
			c1.76,0,2.912-0.963,2.912-2.472V7.879c0-1.362-0.964-2.283-2.514-2.283c-1.571,0-2.661,0.88-2.661,2.304
			c0,0.482,0.084,0.943,0.503,1.592l-1.11,0.838c-0.523-0.712-0.796-1.529-0.796-2.43c0-2.158,1.55-3.604,3.938-3.604
			c2.325,0,4.127,1.257,4.127,3.583V17.035z"/>
		<path display="inline" fill="#FFFFFF" d="M390.968,16.343c0,2.682-1.55,4.4-4.378,4.4c-2.577,0-4.421-1.697-4.421-4.42V7.377
			c0-1.97,1.152-2.871,2.598-2.871c1.194,0,2.367,0.524,3.415,0.524c0.859,0,1.445-0.272,2.473-0.733v1.131
			c-0.943,0.566-1.697,0.796-2.619,0.796c-1.048,0-1.928-0.419-2.975-0.419c-1.11-0.042-1.551,0.691-1.551,1.655v3.562
			c0.901-1.383,2.116-1.76,3.059-1.76c2.828,0,4.399,2.137,4.399,4.399V16.343z M389.481,13.725c0-1.844-0.964-3.205-2.891-3.205
			c-1.027,0-2.934,0.042-2.934,3.226v2.577c0,1.718,0.922,3.142,2.912,3.142c1.948,0,2.912-1.173,2.912-3.289V13.725z"/>
		<path display="inline" fill="#FFFFFF" d="M404.713,14.982c0,3.31-3.017,5.761-5.887,5.761c-2.912,0-5.929-2.409-5.929-5.761
			v-3.164c0-3.436,2.682-5.929,5.426-6.202l-0.671-1.32h2.158l-0.565,1.32c2.766,0.23,5.468,2.703,5.468,6.202V14.982z
			 M403.206,11.818c0-3.185-1.551-4.756-3.96-4.923l0.335,7.018h-1.592l0.335-7.018c-2.242,0.23-3.938,1.781-3.938,4.923v3.164
			c0,2.221,1.738,4.483,4.441,4.483c2.556,0,4.379-2.074,4.379-4.483V11.818z"/>
		<path display="inline" fill="#FFFFFF" d="M421.895,15.589c0,1.844-1.864,5.175-4.399,5.175v-1.299
			c1.613,0,2.912-2.346,2.912-3.854v-1.655c0-2.87-1.697-3.541-2.703-3.541c-1.131,0-2.682,0.775-2.682,3.268v2.41h-1.508v-2.41
			c0-2.493-1.529-3.268-2.661-3.268c-1.319,0-2.702,0.67-2.702,3.541v1.697c0,1.466,1.131,3.813,2.912,3.813v1.278
			c-2.912,0-4.421-3.394-4.421-5.217v-1.571c0-4.714,2.074-9.658,11.292-9.658v1.299c-4.965,0-8.023,1.676-9.26,4.211l0.838-0.251
			l1.341-0.293c1.299,0,2.724,0.042,3.415,2.493c0.817-2.451,2.305-2.493,3.436-2.493c2.116,0,4.19,1.215,4.19,4.693V15.589z"/>
		<path display="inline" fill="#FFFFFF" d="M423.467,16.155v-1.445h7.354v1.445H423.467z"/>
		<path display="inline" fill="#FFFFFF" d="M440.564,16.427c0,2.368-1.613,4.316-4.399,4.316c-2.682,0-4.399-1.969-4.399-3.667
			v-0.943c0-0.984,0.712-1.969,1.487-2.493l0.796,0.901c-0.565,0.44-0.796,1.173-0.796,1.801v0.503c0,1.257,0.942,2.619,2.912,2.619
			c2.157,0,2.912-1.32,2.912-3.038v-1.089c0-1.76-1.006-3.415-2.409-3.415h-2.096v-1.278h2.012c1.11,0,2.074-0.691,2.074-2.053
			V7.817c0-1.089-1.048-2.221-2.032-2.221V4.297c1.445,0,3.52,1.488,3.52,3.52v0.461c0,1.676-0.859,2.514-2.2,2.996
			c2.032,0.628,2.619,2.137,2.619,4.064V16.427z"/>
		<path display="inline" fill="#FFFFFF" d="M456.739,10.708c0-2.933-0.168-5.112-2.661-5.112c-1.802,0-2.682,1.089-2.682,3.205v6.6
			h-1.487v-6.6c0-2.242-0.88-3.205-2.702-3.205c-2.326,0-2.682,2.179-2.682,5.216v2.808c0,2.807,0.796,5.845,2.912,5.845v1.278
			c-3.521,0-4.421-3.855-4.421-7.082v-2.849c0-3.205,0.503-6.516,4.211-6.516c1.781,0,2.702,0.88,3.373,2.389
			c0.565-1.509,1.55-2.389,3.478-2.389c3.541,0,4.211,3.248,4.211,6.348l-0.021,3.017c0,3.059-1.048,7.082-4.379,7.082v-1.278
			c1.928,0,2.85-2.975,2.85-5.908V10.708z"/>
		<path display="inline" fill="#FFFFFF" d="M480.352,10.457c0,1.802-1.466,4.965-3.31,6.013l-0.943-0.859
			c1.655-1.236,2.724-3.75,2.724-5.259V9.011c0-2.158-1.047-3.31-2.325-3.31c-2.053,0-2.473,1.341-2.473,3.017v3.331h-1.382V8.718
			c0-1.634-0.356-3.122-2.2-3.122c-1.676,0-2.2,1.55-2.2,3.059v3.394h-1.403V8.655c0-1.508-0.104-2.954-2.409-2.954
			c-1.676,0-2.367,1.634-2.367,3.688l0.021,1.466c-0.042,4.902,5.279,8.212,11.544,8.212h1.55v1.446h-1.508
			c-8.443,0-13.011-4.84-13.094-9.658l-0.021-1.529c0-2.808,1.173-4.923,3.876-4.923c1.445,0,2.347,0.398,3.247,2.326
			c0.587-1.928,1.404-2.431,2.766-2.431c1.278,0,2.179,0.503,2.85,2.326c0.816-1.823,2.032-2.221,3.184-2.221
			c2.158,0,3.876,1.613,3.876,4.504V10.457z"/>
		<path display="inline" fill="#FFFFFF" d="M491.186,17.035c0,2.619-2.074,3.708-4.399,3.708c-2.556,0-4.399-1.676-4.399-3.918
			c0-2.095,0.9-3.143,2.032-4.022l0.922,0.922c-1.09,1.006-1.467,1.446-1.467,3.122c0,1.676,0.922,2.619,2.912,2.619
			c1.76,0,2.912-0.963,2.912-2.472V7.879c0-1.362-0.964-2.283-2.514-2.283c-1.571,0-2.661,0.88-2.661,2.304
			c0,0.482,0.084,0.943,0.503,1.592l-1.11,0.838c-0.523-0.712-0.796-1.529-0.796-2.43c0-2.158,1.55-3.604,3.938-3.604
			c2.325,0,4.127,1.257,4.127,3.583V17.035z"/>
		<path display="inline" fill="#FFFFFF" d="M493.554,6.769h3.227V6.748V4.297h1.383v2.451v0.021h3.771v1.299h-3.645
			c0.69,3.352,4.085,3.457,4.085,7.249v1.173c0,2.305-1.529,4.253-4.399,4.253c-2.912,0-4.421-2.493-4.421-4.19v-1.341
			c0-1.09,1.32-2.493,2.116-3.017l0.775,0.901c-0.587,0.44-1.383,1.362-1.383,2.116v1.278c0,1.236,0.984,2.975,2.912,2.975
			c2.157,0,2.828-1.215,2.87-2.975l0.021-1.173c0-3.206-3.331-3.75-3.98-7.249h-3.331V6.769z"/>
		<path display="inline" fill="#FFFFFF" d="M512.977,14.249c-0.021,2.807-0.754,5.929-3.247,6.495l-0.126-1.278
			c1.026,0,1.886-1.885,1.886-5.153v-3.981c0-2.975-0.587-4.734-2.828-4.734c-2.451,0-2.996,1.801-2.996,4.797v3.918
			c0,3.205,0.587,5.153,1.529,5.153l-0.021,1.278c-2.535-0.482-2.996-3.771-2.996-6.432v-3.876c0-2.828,0.754-6.139,4.399-6.139
			c3.729,0,4.421,2.829,4.421,6.034L512.977,14.249z"/>
		<path display="inline" fill="#FFFFFF" d="M522.762,4.632c-1.089,1.194-1.445,2.032-1.445,2.849c0,0.167,0.021,0.314,0.042,0.503
			c0.042-0.021,0.104-0.021,0.188-0.021h0.104c0.503,0,0.943,0.314,0.943,0.838c0,0.691-0.565,1.027-1.006,1.027
			c-0.691,0-1.152-0.44-1.152-1.53c0-1.382,0.733-2.891,1.97-4.022L522.762,4.632z M525.968,4.632
			c-1.068,1.194-1.425,2.032-1.425,2.849c0,0.167,0.021,0.314,0.042,0.503c0.042-0.021,0.104-0.021,0.167-0.021h0.126
			c0.482,0,0.943,0.314,0.943,0.838c0,0.691-0.545,1.027-1.027,1.027c-0.67,0-1.131-0.44-1.131-1.53
			c0-1.403,0.754-2.891,1.948-4.022L525.968,4.632z"/>
		<path display="inline" fill="#FFFFFF" d="M538.686,16.029c-0.042,2.053-1.571,4.714-5.133,4.714c-3.248,0-5.07-2.849-5.07-4.714
			v-1.278c0-2.493,1.718-4.861,5.468-4.986l1.068-2.158c0-0.733-0.838-2.011-2.011-2.011c-1.446,0-2.137,0.628-2.137,1.487v1.383
			h-1.342V7.083c0-1.634,1.719-2.787,3.479-2.787c2.263,0,3.352,1.278,3.352,3.311l-1.047,2.283c1.466,0.461,3.436,2.074,3.394,4.63
			L538.686,16.029z M537.177,14.5c0-1.446-1.026-3.436-3.101-3.436h-0.733c-2.095,0-3.373,1.446-3.373,3.75v1.027
			c0,1.697,1.173,3.645,3.646,3.645c2.451,0,3.562-1.529,3.562-3.645V14.5z"/>
		<path display="inline" fill="#FFFFFF" d="M554.798,10.708c0-2.933-0.168-5.112-2.661-5.112c-1.802,0-2.682,1.089-2.682,3.205v6.6
			h-1.487v-6.6c0-2.242-0.88-3.205-2.702-3.205c-2.326,0-2.682,2.179-2.682,5.216v2.808c0,2.807,0.796,5.845,2.912,5.845v1.278
			c-3.521,0-4.421-3.855-4.421-7.082v-2.849c0-3.205,0.503-6.516,4.211-6.516c1.78,0,2.702,0.88,3.373,2.389
			c0.565-1.509,1.55-2.389,3.478-2.389c3.541,0,4.211,3.248,4.211,6.348l-0.021,3.017c0,3.059-1.048,7.082-4.379,7.082v-1.278
			c1.928,0,2.85-2.975,2.85-5.908V10.708z"/>
		<path display="inline" fill="#FFFFFF" d="M567.642,16.343c0,2.682-1.55,4.4-4.378,4.4c-2.577,0-4.421-1.697-4.421-4.42V7.377
			c0-1.97,1.152-2.871,2.598-2.871c1.194,0,2.367,0.524,3.415,0.524c0.859,0,1.445-0.272,2.473-0.733v1.131
			c-0.943,0.566-1.697,0.796-2.619,0.796c-1.048,0-1.928-0.419-2.975-0.419c-1.11-0.042-1.551,0.691-1.551,1.655v3.562
			c0.901-1.383,2.116-1.76,3.059-1.76c2.828,0,4.399,2.137,4.399,4.399V16.343z M566.155,13.725c0-1.844-0.964-3.205-2.891-3.205
			c-1.027,0-2.934,0.042-2.934,3.226v2.577c0,1.718,0.922,3.142,2.912,3.142c1.948,0,2.912-1.173,2.912-3.289V13.725z"/>
		<path display="inline" fill="#FFFFFF" d="M578.475,14.249c-0.021,2.807-0.754,5.929-3.247,6.495l-0.126-1.278
			c1.026,0,1.886-1.885,1.886-5.153v-3.981c0-2.975-0.587-4.734-2.828-4.734c-2.451,0-2.996,1.801-2.996,4.797v3.918
			c0,3.205,0.587,5.153,1.529,5.153l-0.021,1.278c-2.535-0.482-2.996-3.771-2.996-6.432v-3.876c0-2.828,0.754-6.139,4.399-6.139
			c3.729,0,4.421,2.829,4.421,6.034L578.475,14.249z"/>
		<path display="inline" fill="#FFFFFF" d="M581.639,23.55c1.048-1.173,1.445-2.032,1.445-2.828c0-0.167-0.042-0.335-0.063-0.503
			c-0.021,0.021-0.084,0.021-0.168,0.021h-0.104c-0.503,0-0.942-0.314-0.942-0.838c0-0.733,0.544-1.048,1.005-1.048
			c0.691,0,1.152,0.44,1.152,1.551c0,1.341-0.732,2.87-1.969,4.001L581.639,23.55z"/>
		<path display="inline" fill="#FFFFFF" d="M587.025,23.55c1.048-1.173,1.445-2.032,1.445-2.828c0-0.167-0.042-0.335-0.063-0.503
			c-0.021,0.021-0.084,0.021-0.168,0.021h-0.104c-0.503,0-0.942-0.314-0.942-0.838c0-0.733,0.544-1.048,1.005-1.048
			c0.691,0,1.152,0.44,1.152,1.551c0,1.341-0.732,2.87-1.969,4.001L587.025,23.55z"/>
		<path display="inline" fill="#FFFFFF" d="M80.701,48.897V33.011h1.371v14.538h8.023v1.349H80.701z"/>
		<path display="inline" fill="#FFFFFF" d="M100.656,46.863c-0.938,1.349-2.171,2.034-3.703,2.034c-1.28,0-2.263-0.434-3.108-1.28
			c-0.8-0.8-1.234-2.149-1.234-3.932c0-1.737,0.411-3.109,1.211-3.932c0.823-0.823,1.829-1.303,3.131-1.303
			c1.234,0,2.286,0.48,3.131,1.303c0.731,0.754,1.166,2.171,1.166,4.069h-7.269c0.023,2.56,1.143,3.726,2.972,3.726
			c1.097,0,1.897-0.434,2.446-1.188L100.656,46.863z M99.855,42.497c-0.068-0.938-0.343-1.6-0.823-1.989
			c-0.503-0.457-1.143-0.708-2.08-0.708c-0.892,0-1.6,0.229-2.103,0.708c-0.434,0.434-0.754,1.051-0.823,1.989H99.855z"/>
		<path display="inline" fill="#FFFFFF" d="M103.353,40.554c0.435-0.686,0.915-1.211,1.417-1.508c0.708-0.389,1.44-0.594,2.4-0.594
			c1.486,0,2.537,0.366,3.04,1.051c0.48,0.686,0.8,1.6,0.8,2.492v6.903h-1.326v-0.434c-0.663,0.297-1.508,0.434-2.514,0.434
			c-1.12,0-2.24-0.32-2.857-0.846c-0.663-0.526-1.006-1.326-1.006-2.103c0-0.754,0.229-1.463,0.708-2.057
			c0.434-0.571,1.486-0.869,3.154-0.869c0.915,0,1.577-0.16,1.92-0.434c0.343-0.251,0.594-0.686,0.594-1.12
			c0-0.457-0.251-0.823-0.594-1.188c-0.366-0.32-1.051-0.48-1.92-0.48c-0.457,0-1.051,0.045-1.463,0.251
			c-0.389,0.16-0.777,0.525-0.937,0.96L103.353,40.554z M109.684,43.617c-0.594,0.503-1.44,0.731-2.468,0.731
			c-0.869,0-1.509,0.114-1.897,0.366c-0.434,0.297-0.663,0.686-0.663,1.234c0,1.143,0.8,1.6,2.514,1.6
			c0.594,0,1.188-0.068,1.646-0.251c0.548-0.206,0.868-0.663,0.868-1.349V43.617z"/>
		<path display="inline" fill="#FFFFFF" d="M113.227,48.897V38.451h1.326V39.8c0.823-0.938,1.783-1.349,2.971-1.349
			c1.349,0,2.332,0.389,3.086,1.234l-0.754,1.005c-0.617-0.571-1.372-0.891-2.332-0.891c-0.937,0-1.646,0.32-2.171,0.891
			c-0.549,0.594-0.8,1.6-0.8,2.995v5.211H113.227z"/>
		<path display="inline" fill="#FFFFFF" d="M122.782,48.897V38.451h1.349V39.8c0.8-0.892,1.806-1.349,2.972-1.349
			c1.234,0,2.332,0.503,3.108,1.303c0.777,0.823,1.234,2.194,1.234,3.932v5.211h-1.349v-5.211c0-1.303-0.297-2.423-0.823-2.995
			c-0.48-0.502-1.303-0.891-2.171-0.891c-0.937,0-1.691,0.32-2.171,0.891c-0.48,0.549-0.8,1.692-0.8,2.995v5.211H122.782z"/>
		<path display="inline" fill="#FFFFFF" d="M135.171,34.817c0.412,0,0.64,0.32,0.64,0.663c0,0.435-0.229,0.663-0.64,0.663
			c-0.435,0-0.64-0.229-0.64-0.663C134.531,35.137,134.736,34.817,135.171,34.817z M134.531,48.897V38.451h1.28v10.446H134.531z"/>
		<path display="inline" fill="#FFFFFF" d="M139.033,48.897V38.451h1.349V39.8c0.8-0.892,1.806-1.349,2.972-1.349
			c1.234,0,2.332,0.503,3.109,1.303c0.777,0.823,1.234,2.194,1.234,3.932v5.211h-1.349v-5.211c0-1.303-0.297-2.423-0.823-2.995
			c-0.48-0.502-1.303-0.891-2.171-0.891c-0.937,0-1.691,0.32-2.171,0.891c-0.48,0.549-0.8,1.692-0.8,2.995v5.211H139.033z"/>
		<path display="inline" fill="#FFFFFF" d="M152.177,52.829c2.697,0,4.869-0.412,4.869-2.56v-2.697
			c-0.8,0.892-1.737,1.326-2.972,1.326c-1.28,0-2.263-0.434-3.108-1.28c-0.8-0.8-1.234-2.149-1.234-3.932
			c0-1.737,0.411-3.063,1.234-3.932c0.823-0.823,1.829-1.303,3.108-1.303c1.234,0,2.171,0.457,2.972,1.371v-1.371h1.326V50.2
			c0,3.566-3.475,3.955-6.194,3.84V52.829z M154.074,39.8c-0.914,0-1.714,0.32-2.194,0.891c-0.457,0.549-0.777,1.692-0.777,2.995
			c0,1.349,0.32,2.4,0.777,2.971c0.48,0.64,1.257,0.892,2.194,0.892c0.869,0,1.668-0.251,2.171-0.892
			c0.526-0.594,0.8-1.623,0.8-2.971c0-1.303-0.274-2.423-0.8-2.995C155.742,40.143,154.942,39.8,154.074,39.8z"/>
		<path display="inline" fill="#FFFFFF" d="M167.948,52.829c2.697,0,4.869-0.412,4.869-2.56v-2.697
			c-0.8,0.892-1.737,1.326-2.972,1.326c-1.28,0-2.263-0.434-3.108-1.28c-0.8-0.8-1.234-2.149-1.234-3.932
			c0-1.737,0.411-3.063,1.234-3.932c0.823-0.823,1.829-1.303,3.108-1.303c1.234,0,2.171,0.457,2.972,1.371v-1.371h1.326V50.2
			c0,3.566-3.475,3.955-6.194,3.84V52.829z M169.845,39.8c-0.914,0-1.714,0.32-2.194,0.891c-0.457,0.549-0.777,1.692-0.777,2.995
			c0,1.349,0.32,2.4,0.777,2.971c0.48,0.64,1.257,0.892,2.194,0.892c0.869,0,1.668-0.251,2.171-0.892
			c0.526-0.594,0.8-1.623,0.8-2.971c0-1.303-0.274-2.423-0.8-2.995C171.514,40.143,170.714,39.8,169.845,39.8z"/>
		<path display="inline" fill="#FFFFFF" d="M176.748,48.897V38.451h1.326V39.8c0.823-0.938,1.783-1.349,2.971-1.349
			c1.349,0,2.332,0.389,3.086,1.234l-0.754,1.005c-0.617-0.571-1.372-0.891-2.332-0.891c-0.937,0-1.646,0.32-2.171,0.891
			c-0.548,0.594-0.8,1.6-0.8,2.995v5.211H176.748z"/>
		<path display="inline" fill="#FFFFFF" d="M194.189,46.863c-0.938,1.349-2.171,2.034-3.703,2.034c-1.28,0-2.263-0.434-3.108-1.28
			c-0.8-0.8-1.234-2.149-1.234-3.932c0-1.737,0.411-3.109,1.211-3.932c0.823-0.823,1.829-1.303,3.131-1.303
			c1.234,0,2.286,0.48,3.131,1.303c0.731,0.754,1.166,2.171,1.166,4.069h-7.269c0.023,2.56,1.143,3.726,2.972,3.726
			c1.097,0,1.897-0.434,2.446-1.188L194.189,46.863z M193.389,42.497c-0.068-0.938-0.343-1.6-0.823-1.989
			c-0.503-0.457-1.143-0.708-2.08-0.708c-0.892,0-1.6,0.229-2.103,0.708c-0.434,0.434-0.754,1.051-0.823,1.989H193.389z"/>
		<path display="inline" fill="#FFFFFF" d="M204.886,46.863c-0.938,1.349-2.171,2.034-3.703,2.034c-1.28,0-2.263-0.434-3.108-1.28
			c-0.8-0.8-1.234-2.149-1.234-3.932c0-1.737,0.411-3.109,1.211-3.932c0.823-0.823,1.829-1.303,3.131-1.303
			c1.234,0,2.286,0.48,3.131,1.303c0.731,0.754,1.166,2.171,1.166,4.069h-7.269c0.023,2.56,1.143,3.726,2.972,3.726
			c1.097,0,1.897-0.434,2.446-1.188L204.886,46.863z M204.086,42.497c-0.068-0.938-0.343-1.6-0.823-1.989
			c-0.503-0.457-1.143-0.708-2.08-0.708c-0.892,0-1.6,0.229-2.103,0.708c-0.434,0.434-0.754,1.051-0.823,1.989H204.086z"/>
		<path display="inline" fill="#FFFFFF" d="M207.697,48.897V38.451h1.349V39.8c0.8-0.892,1.806-1.349,2.972-1.349
			c1.234,0,2.332,0.503,3.109,1.303c0.777,0.823,1.234,2.194,1.234,3.932v5.211h-1.349v-5.211c0-1.303-0.297-2.423-0.823-2.995
			c-0.48-0.502-1.303-0.891-2.171-0.891c-0.937,0-1.691,0.32-2.171,0.891c-0.48,0.549-0.8,1.692-0.8,2.995v5.211H207.697z"/>
		<path display="inline" fill="#FFFFFF" d="M229.87,40.851c-0.571-0.663-1.417-1.051-2.469-1.051c-0.937,0-1.691,0.32-2.194,0.891
			c-0.525,0.594-0.777,1.577-0.777,2.995c0,1.372,0.32,2.4,0.777,2.971c0.503,0.617,1.257,0.892,2.194,0.892
			c1.097,0,1.897-0.412,2.469-1.211l1.303,0.435c-0.937,1.371-2.217,2.125-3.771,2.125c-1.234,0-2.263-0.434-3.108-1.303
			c-0.8-0.846-1.211-2.126-1.211-3.909c0-1.737,0.366-3.086,1.188-3.932c0.8-0.8,1.852-1.303,3.131-1.303
			c1.532,0,2.834,0.731,3.771,2.171L229.87,40.851z"/>
		<path display="inline" fill="#FFFFFF" d="M241.207,46.863c-0.938,1.349-2.172,2.034-3.703,2.034c-1.28,0-2.263-0.434-3.108-1.28
			c-0.8-0.8-1.234-2.149-1.234-3.932c0-1.737,0.411-3.109,1.211-3.932c0.823-0.823,1.829-1.303,3.131-1.303
			c1.234,0,2.286,0.48,3.132,1.303c0.731,0.754,1.165,2.171,1.165,4.069h-7.269c0.023,2.56,1.143,3.726,2.972,3.726
			c1.098,0,1.897-0.434,2.446-1.188L241.207,46.863z M240.407,42.497c-0.069-0.938-0.343-1.6-0.823-1.989
			c-0.503-0.457-1.143-0.708-2.08-0.708c-0.892,0-1.6,0.229-2.103,0.708c-0.434,0.434-0.754,1.051-0.823,1.989H240.407z"/>
		<path display="inline" fill="#FFFFFF" d="M244.018,48.897V38.451h1.349V39.8c0.8-0.892,1.806-1.349,2.972-1.349
			c1.233,0,2.331,0.503,3.108,1.303c0.777,0.823,1.234,2.194,1.234,3.932v5.211h-1.349v-5.211c0-1.303-0.298-2.423-0.823-2.995
			c-0.479-0.502-1.303-0.891-2.171-0.891c-0.938,0-1.692,0.32-2.172,0.891c-0.48,0.549-0.8,1.692-0.8,2.995v5.211H244.018z"/>
		<path display="inline" fill="#FFFFFF" d="M257.892,34.817v3.634h2.743V39.8h-2.743v5.691c0,0.754,0.114,1.326,0.366,1.623
			c0.274,0.297,0.686,0.434,1.166,0.434c0.457,0,0.868-0.045,1.211-0.137v1.211c-0.32,0.206-0.731,0.274-1.211,0.274
			c-0.823,0-1.577-0.206-2.104-0.754c-0.549-0.548-0.708-1.417-0.708-2.651V39.8h-1.897v-1.349h1.897v-3.634H257.892z"/>
		<path display="inline" fill="#FFFFFF" d="M270.739,46.863c-0.938,1.349-2.172,2.034-3.703,2.034c-1.28,0-2.263-0.434-3.108-1.28
			c-0.8-0.8-1.234-2.149-1.234-3.932c0-1.737,0.411-3.109,1.211-3.932c0.823-0.823,1.829-1.303,3.132-1.303
			c1.234,0,2.286,0.48,3.132,1.303c0.731,0.754,1.165,2.171,1.165,4.069h-7.269c0.023,2.56,1.144,3.726,2.972,3.726
			c1.098,0,1.897-0.434,2.446-1.188L270.739,46.863z M269.939,42.497c-0.069-0.938-0.343-1.6-0.823-1.989
			c-0.503-0.457-1.143-0.708-2.08-0.708c-0.892,0-1.6,0.229-2.103,0.708c-0.435,0.434-0.755,1.051-0.823,1.989H269.939z"/>
		<path display="inline" fill="#FFFFFF" d="M273.55,48.897V38.451h1.325V39.8c0.823-0.938,1.783-1.349,2.972-1.349
			c1.349,0,2.332,0.389,3.086,1.234l-0.754,1.005c-0.617-0.571-1.372-0.891-2.332-0.891c-0.938,0-1.646,0.32-2.171,0.891
			c-0.549,0.594-0.801,1.6-0.801,2.995v5.211H273.55z"/>
		<path display="inline" fill="#FFFFFF" d="M294.419,40.851c-0.572-0.663-1.418-1.051-2.469-1.051c-0.938,0-1.691,0.32-2.194,0.891
			c-0.526,0.594-0.777,1.577-0.777,2.995c0,1.372,0.32,2.4,0.777,2.971c0.503,0.617,1.257,0.892,2.194,0.892
			c1.097,0,1.896-0.412,2.469-1.211l1.303,0.435c-0.938,1.371-2.218,2.125-3.771,2.125c-1.234,0-2.264-0.434-3.109-1.303
			c-0.8-0.846-1.211-2.126-1.211-3.909c0-1.737,0.365-3.086,1.188-3.932c0.8-0.8,1.852-1.303,3.132-1.303
			c1.531,0,2.834,0.731,3.771,2.171L294.419,40.851z"/>
		<path display="inline" fill="#FFFFFF" d="M297.71,43.686c0-1.737,0.411-3.063,1.234-3.932c0.822-0.823,1.828-1.303,3.108-1.303
			c1.234,0,2.286,0.457,3.132,1.303c0.8,0.8,1.165,2.194,1.165,3.932c0,1.783-0.388,3.086-1.165,3.909
			c-0.846,0.869-1.897,1.303-3.132,1.303c-1.28,0-2.263-0.434-3.108-1.28C298.145,46.817,297.71,45.468,297.71,43.686z
			 M302.053,39.8c-0.914,0-1.714,0.32-2.194,0.891c-0.457,0.549-0.777,1.692-0.777,2.995c0,1.349,0.32,2.4,0.777,2.971
			c0.48,0.64,1.257,0.892,2.194,0.892c0.869,0,1.669-0.251,2.172-0.892c0.525-0.594,0.8-1.623,0.8-2.971
			c0-1.303-0.274-2.423-0.8-2.995C303.722,40.143,302.922,39.8,302.053,39.8z"/>
		<path display="inline" fill="#FFFFFF" d="M309.459,48.897V33.011h1.279v15.886H309.459z"/>
		<path display="inline" fill="#FFFFFF" d="M314.854,48.897V33.011h1.279v15.886H314.854z"/>
		<path display="inline" fill="#FFFFFF" d="M327.242,46.863c-0.938,1.349-2.172,2.034-3.703,2.034c-1.28,0-2.263-0.434-3.108-1.28
			c-0.8-0.8-1.234-2.149-1.234-3.932c0-1.737,0.411-3.109,1.211-3.932c0.823-0.823,1.829-1.303,3.132-1.303
			c1.234,0,2.286,0.48,3.132,1.303c0.731,0.754,1.165,2.171,1.165,4.069h-7.269c0.023,2.56,1.144,3.726,2.972,3.726
			c1.098,0,1.897-0.434,2.446-1.188L327.242,46.863z M326.442,42.497c-0.069-0.938-0.343-1.6-0.823-1.989
			c-0.503-0.457-1.143-0.708-2.08-0.708c-0.892,0-1.6,0.229-2.103,0.708c-0.435,0.434-0.755,1.051-0.823,1.989H326.442z"/>
		<path display="inline" fill="#FFFFFF" d="M332.339,52.829c2.697,0,4.869-0.412,4.869-2.56v-2.697
			c-0.8,0.892-1.737,1.326-2.972,1.326c-1.28,0-2.263-0.434-3.108-1.28c-0.8-0.8-1.234-2.149-1.234-3.932
			c0-1.737,0.411-3.063,1.234-3.932c0.822-0.823,1.828-1.303,3.108-1.303c1.234,0,2.172,0.457,2.972,1.371v-1.371h1.325V50.2
			c0,3.566-3.474,3.955-6.194,3.84V52.829z M334.237,39.8c-0.914,0-1.714,0.32-2.194,0.891c-0.457,0.549-0.777,1.692-0.777,2.995
			c0,1.349,0.32,2.4,0.777,2.971c0.48,0.64,1.257,0.892,2.194,0.892c0.869,0,1.669-0.251,2.172-0.892
			c0.525-0.594,0.8-1.623,0.8-2.971c0-1.303-0.274-2.423-0.8-2.995C335.906,40.143,335.106,39.8,334.237,39.8z"/>
		<path display="inline" fill="#FFFFFF" d="M349.026,46.863c-0.938,1.349-2.172,2.034-3.703,2.034c-1.28,0-2.263-0.434-3.108-1.28
			c-0.8-0.8-1.234-2.149-1.234-3.932c0-1.737,0.411-3.109,1.211-3.932c0.823-0.823,1.829-1.303,3.132-1.303
			c1.234,0,2.286,0.48,3.132,1.303c0.731,0.754,1.165,2.171,1.165,4.069h-7.269c0.023,2.56,1.144,3.726,2.972,3.726
			c1.098,0,1.897-0.434,2.446-1.188L349.026,46.863z M348.226,42.497c-0.069-0.938-0.343-1.6-0.823-1.989
			c-0.503-0.457-1.143-0.708-2.08-0.708c-0.892,0-1.6,0.229-2.103,0.708c-0.435,0.434-0.755,1.051-0.823,1.989H348.226z"/>
		<path display="inline" fill="#FFFFFF" d="M363.883,48.897c-2.424,0-4.298-0.8-5.35-2.171c-1.097-1.44-1.668-3.429-1.668-5.76
			c0-2.217,0.571-4.114,1.668-5.646c1.098-1.531,2.538-2.309,4.274-2.309c1.463,0,2.606,0.343,3.452,0.915
			c0.822,0.571,1.417,1.211,1.852,2.08l-1.144,0.594c-0.891-1.531-2.171-2.286-3.977-2.286c-1.463,0-2.675,0.754-3.497,2.057
			c-0.846,1.349-1.258,2.857-1.258,4.594c0,1.623,0.457,3.246,1.258,4.549c0.846,1.349,2.354,2.034,4.411,2.034
			c1.097,0,2.08-0.389,2.948-1.166v-3.589h-3.52v-1.303h4.777V47C367.014,48.166,365.323,48.897,363.883,48.897z"/>
		<path display="inline" fill="#FFFFFF" d="M377.278,48.897c-1.669,0-3.063-0.754-4.229-2.171c-1.258-1.486-1.897-3.383-1.897-5.76
			c0-2.125,0.64-4.32,1.668-5.714c0.983-1.349,2.767-2.24,4.458-2.24c1.782,0,3.223,0.686,4.389,2.058
			c1.165,1.417,1.806,3.383,1.806,5.897c0,2.377-0.641,4.274-1.806,5.76C380.478,48.143,379.06,48.897,377.278,48.897z
			 M377.278,47.548c1.485,0,2.742-0.571,3.565-1.714c0.823-1.12,1.28-2.857,1.28-4.869c0-1.852-0.503-3.52-1.28-4.731
			c-0.846-1.211-2.08-1.92-3.565-1.92c-1.28,0-2.492,0.663-3.406,1.783c-0.914,1.143-1.325,2.789-1.325,4.869
			s0.503,3.726,1.485,4.869C374.969,46.886,376.158,47.548,377.278,47.548z"/>
		<path display="inline" fill="#FFFFFF" d="M396.226,48.897l-8.366-13.555v13.555h-1.371V33.011h1.485l8.389,13.509V33.011h1.326
			v15.886H396.226z"/>
		<path display="inline" fill="#FFFFFF" d="M400.707,48.897V33.011h1.349v15.886H400.707z"/>
	</g>
</g>
<g id="Layer_3">
	<g>
		<path fill="#FFFFFF" d="M96.436,18.187c0,0.638-0.099,1.227-0.298,1.768s-0.475,1.007-0.83,1.401s-0.778,0.702-1.27,0.923
			s-1.027,0.332-1.606,0.332c-0.586,0-1.123-0.091-1.611-0.273s-0.908-0.46-1.26-0.835s-0.626-0.846-0.825-1.416
			s-0.298-1.242-0.298-2.017v-10.4h1.357v10.4c0,0.619,0.065,1.141,0.195,1.567s0.313,0.775,0.547,1.045s0.513,0.465,0.835,0.586
			s0.675,0.181,1.06,0.181c0.436,0,0.82-0.083,1.152-0.249s0.609-0.397,0.83-0.693s0.387-0.653,0.498-1.069s0.166-0.879,0.166-1.387
			v-0.566c0-0.338-0.059-0.661-0.176-0.967s-0.264-0.597-0.439-0.874s-0.365-0.542-0.566-0.796s-0.391-0.503-0.566-0.747
			s-0.322-0.485-0.439-0.723s-0.176-0.48-0.176-0.728c0-0.273,0.033-0.539,0.098-0.796s0.199-0.532,0.4-0.825l1.367,0.381
			c-0.098,0.13-0.182,0.243-0.254,0.337s-0.132,0.187-0.181,0.278s-0.086,0.186-0.112,0.283s-0.039,0.211-0.039,0.342
			c0,0.241,0.06,0.475,0.181,0.703s0.272,0.454,0.454,0.679s0.377,0.456,0.586,0.693s0.404,0.488,0.586,0.752
			s0.333,0.543,0.454,0.84s0.181,0.62,0.181,0.972V18.187z"/>
		<path fill="#FFFFFF" d="M106.397,18.284c0,2.884-1.334,4.326-4.004,4.326c-0.658,0-1.237-0.111-1.738-0.332
			s-0.919-0.522-1.255-0.903s-0.587-0.825-0.757-1.333s-0.254-1.045-0.254-1.611v-0.664c0-0.391,0.098-0.799,0.293-1.226
			s0.439-0.845,0.732-1.255l0.938,0.479c-0.098,0.182-0.184,0.368-0.259,0.557s-0.137,0.371-0.186,0.547s-0.086,0.34-0.112,0.493
			s-0.039,0.288-0.039,0.405v0.723c0,0.475,0.045,0.897,0.137,1.265s0.239,0.677,0.444,0.928s0.477,0.441,0.815,0.571
			s0.752,0.195,1.24,0.195c0.456,0,0.85-0.059,1.182-0.176s0.605-0.303,0.82-0.557s0.375-0.586,0.479-0.996s0.156-0.908,0.156-1.494
			v-1.104c0-0.475-0.062-0.907-0.186-1.294s-0.287-0.749-0.488-1.084s-0.433-0.649-0.693-0.942s-0.524-0.583-0.791-0.869
			s-0.531-0.576-0.791-0.869s-0.492-0.602-0.693-0.928s-0.365-0.677-0.488-1.055s-0.186-0.794-0.186-1.25V7.669h1.26v1.162
			c0,0.501,0.109,0.96,0.327,1.377s0.492,0.82,0.82,1.211s0.684,0.781,1.064,1.172s0.736,0.809,1.064,1.255s0.602,0.936,0.82,1.47
			s0.327,1.136,0.327,1.807V18.284z"/>
		<path fill="#FFFFFF" d="M117.53,18.323c-0.006,0.313-0.05,0.635-0.132,0.967s-0.205,0.656-0.371,0.972s-0.376,0.617-0.63,0.903
			s-0.553,0.536-0.898,0.747s-0.737,0.381-1.177,0.508s-0.929,0.19-1.47,0.19c-0.495,0-0.951-0.067-1.367-0.2
			s-0.796-0.311-1.138-0.532s-0.643-0.479-0.903-0.771s-0.479-0.599-0.654-0.918s-0.309-0.64-0.4-0.962s-0.137-0.624-0.137-0.903
			v-1.152c0-0.566,0.099-1.115,0.298-1.646s0.501-1.006,0.908-1.426s0.921-0.762,1.543-1.025s1.359-0.412,2.212-0.444l0.977-1.963
			c0-0.163-0.044-0.35-0.132-0.562s-0.213-0.41-0.376-0.596s-0.355-0.342-0.576-0.469s-0.465-0.19-0.732-0.19
			c-0.664,0-1.154,0.125-1.47,0.376s-0.474,0.571-0.474,0.962v1.26h-1.221v-1.26c0-0.371,0.089-0.711,0.269-1.021
			s0.415-0.575,0.708-0.796s0.63-0.394,1.011-0.518s0.773-0.186,1.177-0.186c0.508,0,0.952,0.07,1.333,0.21s0.698,0.338,0.952,0.596
			s0.443,0.571,0.566,0.942s0.186,0.788,0.186,1.25l-0.957,2.08c0.332,0.104,0.682,0.273,1.05,0.508s0.705,0.529,1.011,0.884
			s0.557,0.768,0.752,1.24s0.29,1.001,0.283,1.587L117.53,18.323z M116.153,16.946c0-0.332-0.059-0.682-0.176-1.05
			s-0.293-0.707-0.527-1.016s-0.529-0.565-0.884-0.767s-0.767-0.303-1.235-0.303h-0.654c-0.482,0-0.912,0.08-1.289,0.239
			s-0.698,0.387-0.962,0.684s-0.465,0.654-0.605,1.074s-0.21,0.894-0.21,1.421v0.938c0,0.384,0.067,0.773,0.2,1.167
			s0.337,0.749,0.61,1.064s0.617,0.573,1.03,0.771s0.9,0.298,1.46,0.298c0.553,0,1.035-0.082,1.445-0.244s0.747-0.391,1.011-0.684
			s0.46-0.641,0.591-1.045s0.195-0.846,0.195-1.328V16.946z"/>
		<path fill="#FFFFFF" d="M127.422,18.284c0,2.884-1.334,4.326-4.004,4.326c-0.658,0-1.237-0.111-1.738-0.332
			s-0.919-0.522-1.255-0.903s-0.587-0.825-0.757-1.333s-0.254-1.045-0.254-1.611v-0.664c0-0.391,0.098-0.799,0.293-1.226
			s0.439-0.845,0.732-1.255l0.938,0.479c-0.098,0.182-0.184,0.368-0.259,0.557s-0.137,0.371-0.186,0.547s-0.086,0.34-0.112,0.493
			s-0.039,0.288-0.039,0.405v0.723c0,0.475,0.045,0.897,0.137,1.265s0.239,0.677,0.444,0.928s0.477,0.441,0.815,0.571
			s0.752,0.195,1.24,0.195c0.456,0,0.85-0.059,1.182-0.176s0.605-0.303,0.82-0.557s0.375-0.586,0.479-0.996s0.156-0.908,0.156-1.494
			v-1.104c0-0.475-0.062-0.907-0.186-1.294s-0.287-0.749-0.488-1.084s-0.433-0.649-0.693-0.942s-0.524-0.583-0.791-0.869
			s-0.531-0.576-0.791-0.869s-0.492-0.602-0.693-0.928s-0.365-0.677-0.488-1.055s-0.186-0.794-0.186-1.25V7.669h1.26v1.162
			c0,0.501,0.109,0.96,0.327,1.377s0.492,0.82,0.82,1.211s0.684,0.781,1.064,1.172s0.736,0.809,1.064,1.255s0.602,0.936,0.82,1.47
			s0.327,1.136,0.327,1.807V18.284z"/>
		<path fill="#FFFFFF" d="M137.579,18.606c0,0.612-0.088,1.164-0.264,1.655s-0.431,0.912-0.767,1.26s-0.75,0.617-1.245,0.806
			s-1.064,0.283-1.709,0.283c-0.586,0-1.123-0.093-1.611-0.278s-0.912-0.453-1.27-0.801s-0.636-0.771-0.835-1.27
			s-0.298-1.056-0.298-1.675v-8.115c0-0.449,0.062-0.84,0.186-1.172s0.292-0.605,0.503-0.82s0.46-0.375,0.747-0.479
			s0.592-0.156,0.918-0.156c0.273,0,0.543,0.024,0.811,0.073s0.532,0.104,0.796,0.166s0.521,0.117,0.771,0.166
			s0.493,0.073,0.728,0.073c0.195,0,0.379-0.015,0.552-0.044s0.345-0.072,0.518-0.127s0.355-0.124,0.547-0.205
			s0.405-0.174,0.64-0.278v1.016c-0.43,0.26-0.83,0.446-1.201,0.557s-0.762,0.166-1.172,0.166c-0.241,0-0.474-0.02-0.698-0.059
			s-0.446-0.083-0.664-0.132s-0.438-0.093-0.659-0.132s-0.449-0.059-0.684-0.059c-0.254-0.006-0.47,0.028-0.649,0.103
			s-0.326,0.181-0.439,0.317s-0.197,0.298-0.249,0.483s-0.078,0.386-0.078,0.601v3.252c0.202-0.313,0.42-0.573,0.654-0.781
			s0.474-0.375,0.718-0.498s0.485-0.21,0.723-0.259s0.464-0.073,0.679-0.073c0.645,0,1.214,0.112,1.709,0.337
			s0.913,0.522,1.255,0.894s0.601,0.799,0.776,1.284s0.264,0.985,0.264,1.499V18.606z M136.221,16.243
			c0-0.417-0.055-0.804-0.166-1.162s-0.275-0.667-0.493-0.928s-0.492-0.464-0.82-0.61s-0.711-0.22-1.147-0.22
			c-0.156,0-0.331,0.005-0.522,0.015s-0.386,0.044-0.581,0.103s-0.386,0.148-0.571,0.269s-0.352,0.288-0.498,0.503
			s-0.264,0.49-0.352,0.825s-0.132,0.744-0.132,1.226v2.324c0,0.391,0.054,0.76,0.161,1.108s0.269,0.651,0.483,0.908
			s0.488,0.462,0.82,0.615s0.723,0.229,1.172,0.229c0.892,0,1.556-0.255,1.992-0.767s0.654-1.249,0.654-2.212V16.243z"/>
		<path fill="#FFFFFF" d="M147.432,18.665c0,0.605-0.096,1.152-0.288,1.641s-0.46,0.903-0.806,1.245s-0.758,0.604-1.24,0.786
			s-1.016,0.273-1.602,0.273c-0.658,0-1.24-0.106-1.748-0.317s-0.933-0.504-1.274-0.879s-0.601-0.815-0.776-1.323
			s-0.264-1.061-0.264-1.66V16.37c0-0.488,0.088-0.981,0.264-1.479s0.435-0.949,0.776-1.353s0.767-0.732,1.274-0.986
			s1.09-0.381,1.748-0.381c0.221,0,0.454,0.021,0.698,0.063s0.485,0.125,0.723,0.249s0.465,0.294,0.684,0.513
			s0.409,0.503,0.571,0.854v-3.262c0-0.273-0.077-0.518-0.229-0.732s-0.352-0.397-0.596-0.547s-0.519-0.264-0.825-0.342
			s-0.615-0.117-0.928-0.117c-0.391,0-0.732,0.038-1.025,0.112s-0.537,0.174-0.732,0.298s-0.342,0.267-0.439,0.43
			s-0.146,0.335-0.146,0.518v1.123h-1.377v-1.123c0-0.338,0.106-0.661,0.317-0.967s0.492-0.576,0.84-0.811s0.747-0.42,1.196-0.557
			s0.912-0.205,1.387-0.205c0.501,0,0.983,0.07,1.445,0.21s0.871,0.338,1.226,0.596s0.638,0.565,0.85,0.923s0.317,0.755,0.317,1.191
			L147.432,18.665z M146.075,16.331c0-0.541-0.067-1.001-0.2-1.382s-0.317-0.692-0.552-0.933s-0.511-0.417-0.83-0.527
			s-0.664-0.166-1.035-0.166c-0.436,0-0.82,0.091-1.152,0.273s-0.61,0.418-0.835,0.708s-0.394,0.617-0.508,0.981
			s-0.171,0.726-0.171,1.084v2.061c0,0.462,0.063,0.879,0.19,1.25s0.309,0.69,0.547,0.957s0.526,0.472,0.864,0.615
			s0.719,0.215,1.143,0.215c0.827,0,1.457-0.262,1.89-0.786s0.649-1.274,0.649-2.251V16.331z"/>
		<path fill="#FFFFFF" d="M157.696,18.284c0,2.884-1.334,4.326-4.004,4.326c-0.658,0-1.237-0.111-1.738-0.332
			s-0.919-0.522-1.255-0.903s-0.587-0.825-0.757-1.333s-0.254-1.045-0.254-1.611v-0.664c0-0.391,0.098-0.799,0.293-1.226
			s0.439-0.845,0.732-1.255l0.938,0.479c-0.098,0.182-0.184,0.368-0.259,0.557s-0.137,0.371-0.186,0.547s-0.086,0.34-0.112,0.493
			s-0.039,0.288-0.039,0.405v0.723c0,0.475,0.045,0.897,0.137,1.265s0.239,0.677,0.444,0.928s0.477,0.441,0.815,0.571
			s0.752,0.195,1.24,0.195c0.456,0,0.85-0.059,1.182-0.176s0.605-0.303,0.82-0.557s0.375-0.586,0.479-0.996s0.156-0.908,0.156-1.494
			v-1.104c0-0.475-0.062-0.907-0.186-1.294s-0.287-0.749-0.488-1.084s-0.433-0.649-0.693-0.942s-0.524-0.583-0.791-0.869
			s-0.531-0.576-0.791-0.869s-0.492-0.602-0.693-0.928s-0.365-0.677-0.488-1.055s-0.186-0.794-0.186-1.25V7.669h1.26v1.162
			c0,0.501,0.109,0.96,0.327,1.377s0.492,0.82,0.82,1.211s0.684,0.781,1.064,1.172s0.736,0.809,1.064,1.255s0.602,0.936,0.82,1.47
			s0.327,1.136,0.327,1.807V18.284z"/>
		<path fill="#FFFFFF" d="M167.852,18.606c0,0.612-0.088,1.164-0.264,1.655s-0.431,0.912-0.767,1.26s-0.75,0.617-1.245,0.806
			s-1.064,0.283-1.709,0.283c-0.586,0-1.123-0.093-1.611-0.278s-0.912-0.453-1.27-0.801s-0.636-0.771-0.835-1.27
			s-0.298-1.056-0.298-1.675v-8.115c0-0.449,0.062-0.84,0.186-1.172s0.292-0.605,0.503-0.82s0.46-0.375,0.747-0.479
			s0.592-0.156,0.918-0.156c0.273,0,0.543,0.024,0.811,0.073s0.532,0.104,0.796,0.166s0.521,0.117,0.771,0.166
			s0.493,0.073,0.728,0.073c0.195,0,0.379-0.015,0.552-0.044s0.345-0.072,0.518-0.127s0.355-0.124,0.547-0.205
			s0.405-0.174,0.64-0.278v1.016c-0.43,0.26-0.83,0.446-1.201,0.557s-0.762,0.166-1.172,0.166c-0.241,0-0.474-0.02-0.698-0.059
			s-0.446-0.083-0.664-0.132s-0.438-0.093-0.659-0.132s-0.449-0.059-0.684-0.059c-0.254-0.006-0.47,0.028-0.649,0.103
			s-0.326,0.181-0.439,0.317s-0.197,0.298-0.249,0.483s-0.078,0.386-0.078,0.601v3.252c0.202-0.313,0.42-0.573,0.654-0.781
			s0.474-0.375,0.718-0.498s0.485-0.21,0.723-0.259s0.464-0.073,0.679-0.073c0.645,0,1.214,0.112,1.709,0.337
			s0.913,0.522,1.255,0.894s0.601,0.799,0.776,1.284s0.264,0.985,0.264,1.499V18.606z M166.495,16.243
			c0-0.417-0.055-0.804-0.166-1.162s-0.275-0.667-0.493-0.928s-0.492-0.464-0.82-0.61s-0.711-0.22-1.147-0.22
			c-0.156,0-0.331,0.005-0.522,0.015s-0.386,0.044-0.581,0.103s-0.386,0.148-0.571,0.269s-0.352,0.288-0.498,0.503
			s-0.264,0.49-0.352,0.825s-0.132,0.744-0.132,1.226v2.324c0,0.391,0.054,0.76,0.161,1.108s0.269,0.651,0.483,0.908
			s0.488,0.462,0.82,0.615s0.723,0.229,1.172,0.229c0.892,0,1.556-0.255,1.992-0.767s0.654-1.249,0.654-2.212V16.243z"/>
		<path fill="#FFFFFF" d="M177.813,18.284c0,2.884-1.334,4.326-4.004,4.326c-0.658,0-1.237-0.111-1.738-0.332
			s-0.919-0.522-1.255-0.903s-0.587-0.825-0.757-1.333s-0.254-1.045-0.254-1.611v-0.664c0-0.391,0.098-0.799,0.293-1.226
			s0.439-0.845,0.732-1.255l0.938,0.479c-0.098,0.182-0.184,0.368-0.259,0.557s-0.137,0.371-0.186,0.547s-0.086,0.34-0.112,0.493
			s-0.039,0.288-0.039,0.405v0.723c0,0.475,0.045,0.897,0.137,1.265s0.239,0.677,0.444,0.928s0.477,0.441,0.815,0.571
			s0.752,0.195,1.24,0.195c0.456,0,0.85-0.059,1.182-0.176s0.605-0.303,0.82-0.557s0.375-0.586,0.479-0.996s0.156-0.908,0.156-1.494
			v-1.104c0-0.475-0.062-0.907-0.186-1.294s-0.287-0.749-0.488-1.084s-0.433-0.649-0.693-0.942s-0.524-0.583-0.791-0.869
			s-0.531-0.576-0.791-0.869s-0.492-0.602-0.693-0.928s-0.365-0.677-0.488-1.055s-0.186-0.794-0.186-1.25V7.669h1.26v1.162
			c0,0.501,0.109,0.96,0.327,1.377s0.492,0.82,0.82,1.211s0.684,0.781,1.064,1.172s0.736,0.809,1.064,1.255s0.602,0.936,0.82,1.47
			s0.327,1.136,0.327,1.807V18.284z"/>
		<path fill="#FFFFFF" d="M193.633,16.263c0,0.482-0.031,0.972-0.093,1.47s-0.16,0.983-0.293,1.455s-0.306,0.915-0.518,1.328
			s-0.465,0.776-0.762,1.089s-0.638,0.558-1.025,0.737s-0.825,0.269-1.313,0.269v-1.162c0.436,0,0.82-0.145,1.152-0.435
			s0.607-0.67,0.825-1.143s0.382-1.011,0.493-1.616s0.166-1.227,0.166-1.865v-2.822c0-0.371-0.006-0.746-0.02-1.123
			s-0.044-0.742-0.093-1.094s-0.121-0.679-0.215-0.981s-0.225-0.566-0.391-0.791s-0.373-0.402-0.62-0.532s-0.547-0.195-0.898-0.195
			c-0.56,0-0.991,0.078-1.294,0.234s-0.526,0.36-0.669,0.61s-0.228,0.534-0.254,0.85s-0.039,0.63-0.039,0.942v5.723
			c0,0.658-0.067,1.307-0.2,1.948s-0.353,1.219-0.659,1.733s-0.708,0.929-1.206,1.245s-1.112,0.474-1.841,0.474
			c-0.781,0-1.424-0.163-1.929-0.488s-0.902-0.755-1.191-1.289s-0.492-1.139-0.605-1.816s-0.171-1.367-0.171-2.07v-4.004
			c0-0.423,0.021-0.846,0.063-1.27s0.117-0.829,0.225-1.216s0.255-0.749,0.444-1.084s0.426-0.626,0.713-0.874
			s0.631-0.443,1.035-0.586s0.875-0.218,1.416-0.225c0.273-0.006,0.565,0.011,0.874,0.054s0.612,0.138,0.908,0.288
			s0.575,0.368,0.835,0.654s0.475,0.667,0.645,1.143c0.176-0.495,0.361-0.885,0.557-1.172s0.409-0.503,0.64-0.649
			s0.487-0.239,0.767-0.278s0.592-0.059,0.938-0.059c0.534,0,0.993,0.078,1.377,0.234s0.709,0.37,0.977,0.64
			s0.483,0.587,0.649,0.952s0.293,0.752,0.381,1.162s0.146,0.835,0.176,1.274s0.044,0.871,0.044,1.294V16.263z M186.407,11.487
			c0-0.313-0.045-0.626-0.137-0.942s-0.236-0.599-0.435-0.85s-0.459-0.454-0.781-0.61s-0.718-0.234-1.187-0.234
			c-0.541,0-0.977,0.133-1.309,0.4s-0.589,0.614-0.771,1.04s-0.304,0.907-0.366,1.44s-0.093,1.064-0.093,1.592v3.467
			c0,0.775,0.038,1.452,0.112,2.031s0.208,1.064,0.4,1.455s0.451,0.684,0.776,0.879s0.742,0.293,1.25,0.293
			c0.469,0,0.864-0.096,1.187-0.288s0.583-0.469,0.781-0.83s0.343-0.799,0.435-1.313s0.137-1.097,0.137-1.748V11.487z"/>
		<path fill="#FFFFFF" d="M213.77,13.265c0,0.273-0.036,0.576-0.107,0.908s-0.171,0.674-0.298,1.025s-0.282,0.703-0.464,1.055
			s-0.384,0.684-0.605,0.996s-0.462,0.597-0.723,0.854s-0.531,0.464-0.811,0.62l-0.859-0.781c0.377-0.28,0.719-0.622,1.025-1.025
			s0.566-0.825,0.781-1.265s0.381-0.877,0.498-1.313s0.176-0.827,0.176-1.172v-1.221c0-0.488-0.055-0.919-0.166-1.294
			s-0.262-0.688-0.454-0.942s-0.417-0.444-0.674-0.571s-0.532-0.19-0.825-0.19c-0.462,0-0.84,0.07-1.133,0.21
			s-0.521,0.333-0.684,0.581s-0.273,0.537-0.332,0.869s-0.088,0.69-0.088,1.074v3.027h-1.26v-3.027c0-0.371-0.026-0.728-0.078-1.069
			s-0.15-0.643-0.293-0.903s-0.347-0.469-0.61-0.625s-0.604-0.234-1.021-0.234c-0.384,0-0.703,0.08-0.957,0.239
			s-0.459,0.37-0.615,0.63s-0.267,0.557-0.332,0.889s-0.098,0.67-0.098,1.016v3.086h-1.279v-3.086c0-0.345-0.016-0.679-0.049-1.001
			s-0.119-0.607-0.259-0.854s-0.356-0.446-0.649-0.596s-0.7-0.225-1.221-0.225c-0.384,0-0.711,0.086-0.981,0.259
			s-0.493,0.41-0.669,0.713s-0.304,0.656-0.386,1.06s-0.122,0.84-0.122,1.309l0.02,1.338c-0.006,0.742,0.116,1.442,0.366,2.1
			s0.607,1.263,1.069,1.816s1.016,1.05,1.66,1.489s1.357,0.812,2.139,1.118s1.616,0.541,2.505,0.703s1.808,0.244,2.759,0.244h1.396
			v1.309h-1.357c-1.283,0-2.464-0.116-3.545-0.347s-2.061-0.55-2.939-0.957s-1.652-0.889-2.319-1.445s-1.229-1.161-1.685-1.812
			s-0.802-1.334-1.04-2.051s-0.363-1.439-0.376-2.168l-0.02-1.396c0-0.631,0.068-1.221,0.205-1.768s0.348-1.019,0.635-1.416
			s0.651-0.709,1.094-0.938s0.973-0.342,1.592-0.342c0.326,0,0.624,0.028,0.894,0.083s0.522,0.16,0.757,0.313
			s0.458,0.366,0.669,0.64s0.418,0.628,0.62,1.064c0.137-0.436,0.287-0.796,0.449-1.079s0.347-0.508,0.552-0.674
			s0.433-0.282,0.684-0.347s0.529-0.098,0.835-0.098c0.293,0,0.563,0.033,0.811,0.098s0.479,0.177,0.693,0.337
			s0.412,0.375,0.591,0.645s0.347,0.61,0.503,1.021c0.182-0.41,0.386-0.746,0.61-1.006s0.462-0.464,0.713-0.61
			s0.508-0.248,0.771-0.303s0.526-0.083,0.786-0.083c0.488,0,0.947,0.089,1.377,0.269s0.804,0.443,1.123,0.791
			s0.57,0.776,0.752,1.284s0.273,1.087,0.273,1.738V13.265z"/>
		<path fill="#FFFFFF" d="M223.624,19.251c0,0.592-0.109,1.1-0.327,1.523s-0.511,0.771-0.879,1.045s-0.792,0.474-1.274,0.601
			s-0.986,0.19-1.514,0.19c-0.58,0-1.115-0.089-1.606-0.269s-0.915-0.428-1.27-0.747s-0.631-0.697-0.83-1.133
			s-0.298-0.908-0.298-1.416c0-0.475,0.047-0.894,0.142-1.255s0.225-0.687,0.391-0.977s0.361-0.547,0.586-0.771
			s0.467-0.438,0.728-0.64l0.84,0.84c-0.248,0.228-0.456,0.431-0.625,0.61s-0.306,0.37-0.41,0.571s-0.179,0.431-0.225,0.688
			s-0.068,0.575-0.068,0.952c0,0.762,0.215,1.349,0.645,1.763s1.097,0.62,2.002,0.62c0.397,0,0.758-0.052,1.084-0.156
			s0.604-0.254,0.835-0.449s0.409-0.431,0.532-0.708s0.186-0.587,0.186-0.933v-8.291c0-0.306-0.054-0.586-0.161-0.84
			s-0.259-0.47-0.454-0.649s-0.433-0.319-0.713-0.42s-0.596-0.151-0.947-0.151c-0.358,0-0.685,0.049-0.981,0.146
			s-0.552,0.236-0.767,0.415s-0.381,0.397-0.498,0.654s-0.176,0.545-0.176,0.864c0,0.221,0.029,0.444,0.088,0.669
			s0.182,0.487,0.371,0.786l-1.006,0.762c-0.488-0.651-0.732-1.39-0.732-2.217c0-0.488,0.084-0.933,0.254-1.333
			s0.41-0.744,0.723-1.03s0.688-0.508,1.128-0.664s0.929-0.234,1.47-0.234c0.527,0,1.021,0.07,1.479,0.21s0.858,0.347,1.196,0.62
			s0.604,0.612,0.796,1.016s0.288,0.869,0.288,1.396V19.251z"/>
		<path fill="#FFFFFF" d="M228.409,7.669c0,0.273,0.067,0.5,0.2,0.679s0.303,0.333,0.508,0.464s0.425,0.249,0.659,0.356
			s0.454,0.223,0.659,0.347s0.375,0.269,0.508,0.435s0.2,0.373,0.2,0.62c0,0.195-0.01,0.37-0.029,0.522s-0.05,0.299-0.093,0.439
			s-0.096,0.28-0.161,0.42s-0.143,0.298-0.234,0.474c0.527,0.124,0.986,0.332,1.377,0.625s0.718,0.63,0.981,1.011
			s0.46,0.785,0.591,1.211s0.195,0.832,0.195,1.216l0.02,2.178c0,0.404-0.086,0.835-0.259,1.294s-0.426,0.885-0.762,1.279
			s-0.753,0.721-1.255,0.981s-1.078,0.391-1.729,0.391c-0.658,0-1.237-0.121-1.738-0.361s-0.919-0.552-1.255-0.933
			s-0.587-0.806-0.757-1.274s-0.254-0.934-0.254-1.396v-2.139c0-0.436,0.065-0.875,0.195-1.318s0.34-0.853,0.63-1.23
			s0.661-0.703,1.113-0.977s1.001-0.459,1.646-0.557c0.098-0.234,0.174-0.433,0.229-0.596s0.098-0.311,0.127-0.444
			s0.047-0.259,0.054-0.376s0.01-0.25,0.01-0.4c-0.006-0.163-0.078-0.303-0.215-0.42s-0.308-0.231-0.513-0.342
			s-0.425-0.225-0.659-0.342s-0.453-0.259-0.654-0.425s-0.37-0.361-0.503-0.586s-0.2-0.5-0.2-0.825H228.409z M227.149,18.431
			c0,0.391,0.05,0.768,0.151,1.133s0.259,0.687,0.474,0.967s0.488,0.503,0.82,0.669s0.729,0.249,1.191,0.249
			c0.482,0,0.89-0.091,1.226-0.273s0.607-0.415,0.815-0.698s0.36-0.596,0.454-0.938s0.142-0.672,0.142-0.991v-1.982
			c0-0.338-0.054-0.688-0.161-1.05s-0.27-0.688-0.488-0.981s-0.493-0.534-0.825-0.723s-0.719-0.283-1.162-0.283
			c-0.475,0-0.88,0.083-1.216,0.249s-0.607,0.389-0.815,0.669s-0.361,0.609-0.459,0.986s-0.146,0.775-0.146,1.191V18.431z"/>
		<path fill="#FFFFFF" d="M253.731,13.265c0,0.273-0.036,0.576-0.107,0.908s-0.171,0.674-0.298,1.025s-0.282,0.703-0.464,1.055
			s-0.384,0.684-0.605,0.996s-0.462,0.597-0.723,0.854s-0.531,0.464-0.811,0.62l-0.859-0.781c0.377-0.28,0.719-0.622,1.025-1.025
			s0.566-0.825,0.781-1.265s0.381-0.877,0.498-1.313s0.176-0.827,0.176-1.172v-1.221c0-0.488-0.055-0.919-0.166-1.294
			s-0.262-0.688-0.454-0.942s-0.417-0.444-0.674-0.571s-0.532-0.19-0.825-0.19c-0.462,0-0.84,0.07-1.133,0.21
			s-0.521,0.333-0.684,0.581s-0.273,0.537-0.332,0.869s-0.088,0.69-0.088,1.074v3.027h-1.26v-3.027c0-0.371-0.026-0.728-0.078-1.069
			s-0.15-0.643-0.293-0.903s-0.347-0.469-0.61-0.625s-0.604-0.234-1.021-0.234c-0.384,0-0.703,0.08-0.957,0.239
			s-0.459,0.37-0.615,0.63s-0.267,0.557-0.332,0.889s-0.098,0.67-0.098,1.016v3.086h-1.279v-3.086c0-0.345-0.016-0.679-0.049-1.001
			s-0.119-0.607-0.259-0.854s-0.356-0.446-0.649-0.596s-0.7-0.225-1.221-0.225c-0.384,0-0.711,0.086-0.981,0.259
			s-0.493,0.41-0.669,0.713s-0.304,0.656-0.386,1.06s-0.122,0.84-0.122,1.309l0.02,1.338c-0.006,0.742,0.116,1.442,0.366,2.1
			s0.607,1.263,1.069,1.816s1.016,1.05,1.66,1.489s1.357,0.812,2.139,1.118s1.616,0.541,2.505,0.703s1.808,0.244,2.759,0.244h1.396
			v1.309h-1.357c-1.283,0-2.464-0.116-3.545-0.347s-2.061-0.55-2.939-0.957s-1.652-0.889-2.319-1.445s-1.229-1.161-1.685-1.812
			s-0.802-1.334-1.04-2.051s-0.363-1.439-0.376-2.168l-0.02-1.396c0-0.631,0.068-1.221,0.205-1.768s0.348-1.019,0.635-1.416
			s0.651-0.709,1.094-0.938s0.973-0.342,1.592-0.342c0.326,0,0.624,0.028,0.894,0.083s0.522,0.16,0.757,0.313
			s0.458,0.366,0.669,0.64s0.418,0.628,0.62,1.064c0.137-0.436,0.287-0.796,0.449-1.079s0.347-0.508,0.552-0.674
			s0.433-0.282,0.684-0.347s0.529-0.098,0.835-0.098c0.293,0,0.563,0.033,0.811,0.098s0.479,0.177,0.693,0.337
			s0.412,0.375,0.591,0.645s0.347,0.61,0.503,1.021c0.182-0.41,0.386-0.746,0.61-1.006s0.462-0.464,0.713-0.61
			s0.508-0.248,0.771-0.303s0.526-0.083,0.786-0.083c0.488,0,0.947,0.089,1.377,0.269s0.804,0.443,1.123,0.791
			s0.57,0.776,0.752,1.284s0.273,1.087,0.273,1.738V13.265z"/>
		<path fill="#FFFFFF" d="M268.448,13.489c0-0.664-0.02-1.279-0.059-1.846s-0.14-1.056-0.303-1.47s-0.405-0.737-0.728-0.972
			s-0.767-0.352-1.333-0.352c-1.627,0-2.441,0.967-2.441,2.9v6.016h-1.357v-6.016c0-1.016-0.202-1.753-0.605-2.212
			s-1.022-0.688-1.855-0.688c-0.527,0-0.949,0.117-1.265,0.352s-0.56,0.562-0.732,0.981s-0.287,0.919-0.342,1.499
			s-0.083,1.214-0.083,1.904v2.559c0,0.423,0.021,0.848,0.063,1.274s0.107,0.836,0.195,1.23s0.202,0.76,0.342,1.099
			s0.308,0.635,0.503,0.889s0.421,0.453,0.679,0.596s0.545,0.215,0.864,0.215v1.162c-0.534,0-1.004-0.091-1.411-0.273
			s-0.758-0.43-1.055-0.742s-0.545-0.679-0.747-1.099s-0.363-0.869-0.483-1.348s-0.205-0.97-0.254-1.475s-0.073-1.001-0.073-1.489
			v-2.598c0-0.488,0.016-0.973,0.049-1.455s0.098-0.941,0.195-1.377s0.233-0.843,0.405-1.221s0.4-0.705,0.684-0.981
			s0.628-0.493,1.035-0.649s0.89-0.234,1.45-0.234c0.404,0,0.763,0.049,1.079,0.146s0.596,0.239,0.84,0.425s0.459,0.412,0.645,0.679
			s0.353,0.57,0.503,0.908c0.13-0.338,0.287-0.641,0.469-0.908s0.4-0.493,0.654-0.679s0.548-0.327,0.884-0.425
			s0.724-0.146,1.167-0.146c0.534,0,1.001,0.077,1.401,0.229s0.741,0.365,1.021,0.635s0.511,0.589,0.693,0.957
			s0.326,0.765,0.43,1.191s0.176,0.874,0.215,1.343s0.059,0.938,0.059,1.406l-0.02,2.754c0,0.462-0.028,0.942-0.083,1.44
			s-0.146,0.985-0.273,1.46s-0.292,0.926-0.493,1.353s-0.449,0.801-0.742,1.123s-0.636,0.578-1.03,0.767s-0.845,0.283-1.353,0.283
			v-1.162c0.436,0,0.817-0.155,1.143-0.464s0.596-0.716,0.811-1.221s0.376-1.078,0.483-1.719s0.161-1.294,0.161-1.958V13.489z"/>
		<path fill="#FFFFFF" d="M283.614,18.685c0,0.541-0.089,1.048-0.269,1.523s-0.439,0.892-0.781,1.25s-0.762,0.64-1.26,0.845
			s-1.063,0.308-1.694,0.308c-0.605,0-1.156-0.101-1.65-0.303s-0.915-0.462-1.26-0.781s-0.612-0.675-0.801-1.069
			s-0.283-0.783-0.283-1.167v-0.859c0-0.221,0.038-0.443,0.112-0.664s0.176-0.431,0.303-0.63s0.272-0.381,0.435-0.547
			s0.332-0.308,0.508-0.425l0.723,0.82c-0.26,0.202-0.446,0.453-0.557,0.752s-0.166,0.589-0.166,0.869v0.459
			c0,0.287,0.054,0.571,0.161,0.854s0.27,0.539,0.488,0.767s0.493,0.412,0.825,0.552s0.719,0.21,1.162,0.21
			c0.488,0,0.902-0.07,1.24-0.21s0.612-0.335,0.82-0.586s0.358-0.543,0.449-0.879s0.137-0.698,0.137-1.089v-0.977
			c0-0.397-0.054-0.783-0.161-1.157s-0.257-0.707-0.449-0.996s-0.421-0.521-0.688-0.693s-0.56-0.259-0.879-0.259h-1.904v-1.172
			h1.816c0.254,0,0.495-0.039,0.723-0.117s0.428-0.195,0.601-0.352s0.309-0.35,0.41-0.581s0.151-0.503,0.151-0.815v-0.703
			c0-0.248-0.054-0.492-0.161-0.732s-0.248-0.456-0.42-0.645s-0.37-0.342-0.591-0.459s-0.446-0.176-0.674-0.176V7.669
			c0.332,0,0.685,0.08,1.06,0.239s0.721,0.381,1.04,0.664s0.583,0.62,0.791,1.011s0.313,0.817,0.313,1.279v0.42
			c0,0.384-0.047,0.721-0.142,1.011s-0.228,0.543-0.4,0.762s-0.382,0.404-0.63,0.557s-0.524,0.285-0.83,0.396
			c0.462,0.143,0.846,0.333,1.152,0.571s0.55,0.514,0.732,0.83s0.311,0.667,0.386,1.055s0.112,0.802,0.112,1.245V18.685z"/>
		<path fill="#FFFFFF" d="M298.331,13.489c0-0.664-0.02-1.279-0.059-1.846s-0.141-1.056-0.303-1.47s-0.405-0.737-0.728-0.972
			s-0.767-0.352-1.333-0.352c-1.627,0-2.441,0.967-2.441,2.9v6.016h-1.357v-6.016c0-1.016-0.202-1.753-0.605-2.212
			s-1.022-0.688-1.855-0.688c-0.527,0-0.949,0.117-1.265,0.352s-0.56,0.562-0.732,0.981s-0.287,0.919-0.342,1.499
			s-0.083,1.214-0.083,1.904v2.559c0,0.423,0.021,0.848,0.063,1.274s0.107,0.836,0.195,1.23s0.202,0.76,0.342,1.099
			s0.308,0.635,0.503,0.889s0.421,0.453,0.679,0.596s0.545,0.215,0.864,0.215v1.162c-0.534,0-1.004-0.091-1.411-0.273
			s-0.758-0.43-1.055-0.742s-0.545-0.679-0.747-1.099s-0.363-0.869-0.483-1.348s-0.205-0.97-0.254-1.475s-0.073-1.001-0.073-1.489
			v-2.598c0-0.488,0.016-0.973,0.049-1.455s0.098-0.941,0.195-1.377s0.233-0.843,0.405-1.221s0.4-0.705,0.684-0.981
			s0.628-0.493,1.035-0.649s0.89-0.234,1.45-0.234c0.404,0,0.763,0.049,1.079,0.146s0.596,0.239,0.84,0.425s0.459,0.412,0.645,0.679
			s0.353,0.57,0.503,0.908c0.13-0.338,0.287-0.641,0.469-0.908s0.4-0.493,0.654-0.679s0.548-0.327,0.884-0.425
			s0.724-0.146,1.167-0.146c0.533,0,1.001,0.077,1.401,0.229s0.741,0.365,1.021,0.635s0.512,0.589,0.693,0.957
			s0.326,0.765,0.43,1.191s0.176,0.874,0.215,1.343s0.059,0.938,0.059,1.406l-0.02,2.754c0,0.462-0.027,0.942-0.083,1.44
			s-0.146,0.985-0.273,1.46s-0.292,0.926-0.493,1.353s-0.449,0.801-0.742,1.123s-0.637,0.578-1.03,0.767s-0.845,0.283-1.353,0.283
			v-1.162c0.436,0,0.816-0.155,1.143-0.464s0.596-0.716,0.811-1.221s0.376-1.078,0.483-1.719s0.161-1.294,0.161-1.958V13.489z"/>
		<path fill="#FFFFFF" d="M319.776,13.265c0,0.273-0.036,0.576-0.107,0.908s-0.171,0.674-0.298,1.025s-0.281,0.703-0.464,1.055
			s-0.384,0.684-0.605,0.996s-0.462,0.597-0.723,0.854s-0.53,0.464-0.811,0.62l-0.859-0.781c0.378-0.28,0.72-0.622,1.025-1.025
			s0.566-0.825,0.781-1.265s0.381-0.877,0.498-1.313s0.176-0.827,0.176-1.172v-1.221c0-0.488-0.056-0.919-0.166-1.294
			s-0.262-0.688-0.454-0.942s-0.417-0.444-0.674-0.571s-0.532-0.19-0.825-0.19c-0.462,0-0.84,0.07-1.133,0.21
			s-0.521,0.333-0.684,0.581s-0.273,0.537-0.332,0.869s-0.088,0.69-0.088,1.074v3.027h-1.26v-3.027c0-0.371-0.026-0.728-0.078-1.069
			s-0.149-0.643-0.293-0.903s-0.347-0.469-0.61-0.625s-0.604-0.234-1.021-0.234c-0.384,0-0.703,0.08-0.957,0.239
			s-0.459,0.37-0.615,0.63s-0.267,0.557-0.332,0.889s-0.098,0.67-0.098,1.016v3.086h-1.279v-3.086c0-0.345-0.016-0.679-0.049-1.001
			s-0.119-0.607-0.259-0.854s-0.356-0.446-0.649-0.596s-0.699-0.225-1.221-0.225c-0.385,0-0.711,0.086-0.981,0.259
			s-0.493,0.41-0.669,0.713s-0.305,0.656-0.386,1.06s-0.122,0.84-0.122,1.309l0.02,1.338c-0.006,0.742,0.115,1.442,0.366,2.1
			s0.606,1.263,1.069,1.816s1.016,1.05,1.66,1.489s1.357,0.812,2.139,1.118s1.616,0.541,2.505,0.703s1.809,0.244,2.759,0.244h1.396
			v1.309h-1.357c-1.282,0-2.464-0.116-3.545-0.347s-2.061-0.55-2.939-0.957s-1.652-0.889-2.319-1.445s-1.229-1.161-1.685-1.812
			s-0.803-1.334-1.04-2.051s-0.362-1.439-0.376-2.168l-0.02-1.396c0-0.631,0.068-1.221,0.205-1.768s0.348-1.019,0.635-1.416
			s0.65-0.709,1.094-0.938s0.973-0.342,1.592-0.342c0.326,0,0.623,0.028,0.894,0.083s0.522,0.16,0.757,0.313s0.457,0.366,0.669,0.64
			s0.418,0.628,0.62,1.064c0.137-0.436,0.286-0.796,0.449-1.079s0.347-0.508,0.552-0.674s0.433-0.282,0.684-0.347
			s0.529-0.098,0.835-0.098c0.293,0,0.563,0.033,0.811,0.098s0.479,0.177,0.693,0.337s0.412,0.375,0.591,0.645
			s0.347,0.61,0.503,1.021c0.183-0.41,0.386-0.746,0.61-1.006s0.462-0.464,0.713-0.61s0.508-0.248,0.771-0.303
			s0.525-0.083,0.786-0.083c0.488,0,0.947,0.089,1.377,0.269s0.804,0.443,1.123,0.791s0.569,0.776,0.752,1.284
			s0.273,1.087,0.273,1.738V13.265z"/>
		<path fill="#FFFFFF" d="M329.629,19.251c0,0.592-0.109,1.1-0.327,1.523s-0.511,0.771-0.879,1.045s-0.793,0.474-1.274,0.601
			s-0.986,0.19-1.514,0.19c-0.579,0-1.115-0.089-1.606-0.269s-0.915-0.428-1.27-0.747s-0.632-0.697-0.83-1.133
			s-0.298-0.908-0.298-1.416c0-0.475,0.047-0.894,0.142-1.255s0.225-0.687,0.391-0.977s0.361-0.547,0.586-0.771
			s0.467-0.438,0.728-0.64l0.84,0.84c-0.247,0.228-0.456,0.431-0.625,0.61s-0.306,0.37-0.41,0.571s-0.179,0.431-0.225,0.688
			s-0.068,0.575-0.068,0.952c0,0.762,0.215,1.349,0.645,1.763s1.097,0.62,2.002,0.62c0.397,0,0.759-0.052,1.084-0.156
			s0.604-0.254,0.835-0.449s0.408-0.431,0.532-0.708s0.186-0.587,0.186-0.933v-8.291c0-0.306-0.054-0.586-0.161-0.84
			s-0.259-0.47-0.454-0.649s-0.433-0.319-0.713-0.42s-0.596-0.151-0.947-0.151c-0.358,0-0.686,0.049-0.981,0.146
			s-0.552,0.236-0.767,0.415s-0.381,0.397-0.498,0.654s-0.176,0.545-0.176,0.864c0,0.221,0.029,0.444,0.088,0.669
			s0.183,0.487,0.371,0.786l-1.006,0.762c-0.488-0.651-0.732-1.39-0.732-2.217c0-0.488,0.085-0.933,0.254-1.333
			s0.41-0.744,0.723-1.03s0.688-0.508,1.128-0.664s0.93-0.234,1.47-0.234c0.527,0,1.021,0.07,1.479,0.21s0.857,0.347,1.196,0.62
			s0.604,0.612,0.796,1.016s0.288,0.869,0.288,1.396V19.251z"/>
		<path fill="#FFFFFF" d="M331.788,9.905h2.92v-0.02V7.669h1.26v2.217v0.02h3.428v1.182h-3.301c0.104,0.508,0.269,0.944,0.493,1.309
			s0.474,0.695,0.747,0.991s0.555,0.58,0.845,0.85s0.555,0.565,0.796,0.884s0.438,0.684,0.591,1.094s0.229,0.902,0.229,1.475v1.055
			c0,0.527-0.086,1.025-0.259,1.494s-0.427,0.879-0.762,1.23s-0.75,0.63-1.245,0.835s-1.067,0.308-1.719,0.308
			c-0.664,0-1.247-0.125-1.748-0.376s-0.921-0.566-1.26-0.947s-0.593-0.792-0.762-1.235s-0.254-0.856-0.254-1.24v-1.221
			c0-0.248,0.066-0.508,0.2-0.781s0.298-0.536,0.493-0.786s0.403-0.48,0.625-0.688s0.423-0.371,0.605-0.488l0.703,0.82
			c-0.13,0.098-0.271,0.221-0.42,0.371s-0.286,0.311-0.41,0.483s-0.227,0.352-0.308,0.537s-0.122,0.363-0.122,0.532v1.152
			c0,0.287,0.056,0.587,0.166,0.903s0.276,0.607,0.498,0.874s0.498,0.488,0.83,0.664s0.72,0.264,1.162,0.264
			c0.488,0,0.896-0.065,1.226-0.195s0.594-0.316,0.796-0.557s0.347-0.526,0.435-0.854s0.135-0.695,0.142-1.099l0.02-1.055
			c0-0.488-0.075-0.917-0.225-1.284s-0.344-0.708-0.581-1.021s-0.498-0.612-0.781-0.898s-0.56-0.592-0.83-0.918
			s-0.513-0.687-0.728-1.084s-0.371-0.863-0.469-1.396h-3.027V9.905z"/>
		<path fill="#FFFFFF" d="M349.444,16.702c-0.007,0.645-0.059,1.289-0.156,1.934s-0.259,1.24-0.483,1.787s-0.525,1.016-0.903,1.406
			s-0.85,0.651-1.416,0.781l-0.117-1.162c0.234,0,0.456-0.104,0.664-0.313s0.391-0.513,0.547-0.913s0.28-0.89,0.371-1.47
			s0.137-1.24,0.137-1.982v-3.623c0-0.67-0.039-1.273-0.117-1.807s-0.213-0.985-0.405-1.353s-0.452-0.649-0.781-0.845
			s-0.747-0.293-1.255-0.293c-0.56,0-1.018,0.099-1.372,0.298s-0.632,0.485-0.83,0.859s-0.335,0.832-0.41,1.372
			s-0.112,1.149-0.112,1.826v3.564c0,0.729,0.032,1.383,0.098,1.963s0.156,1.069,0.273,1.47s0.262,0.708,0.435,0.923
			s0.366,0.322,0.581,0.322l-0.02,1.162c-0.384-0.072-0.718-0.21-1.001-0.415s-0.525-0.456-0.728-0.752s-0.368-0.631-0.498-1.006
			s-0.231-0.765-0.303-1.172s-0.122-0.824-0.151-1.25s-0.044-0.841-0.044-1.245v-3.525c0-0.43,0.022-0.866,0.068-1.309
			s0.124-0.871,0.234-1.284s0.262-0.801,0.454-1.162s0.437-0.677,0.732-0.947s0.651-0.483,1.064-0.64s0.896-0.234,1.45-0.234
			c0.56,0,1.05,0.068,1.47,0.205s0.778,0.326,1.074,0.566s0.539,0.531,0.728,0.869s0.339,0.711,0.449,1.118s0.188,0.84,0.229,1.299
			s0.063,0.933,0.063,1.421L349.444,16.702z"/>
		<path fill="#FFFFFF" d="M363.711,19.271c0,0.541-0.101,1.017-0.303,1.431s-0.481,0.762-0.84,1.045s-0.781,0.498-1.27,0.645
			s-1.016,0.22-1.582,0.22s-1.094-0.082-1.582-0.244s-0.911-0.394-1.27-0.693s-0.64-0.661-0.845-1.084s-0.308-0.898-0.308-1.426
			v-0.381c0-0.111,0.029-0.248,0.088-0.41s0.139-0.329,0.239-0.498s0.225-0.327,0.371-0.474s0.308-0.259,0.483-0.337l0.723,0.781
			c-0.11,0.104-0.198,0.205-0.264,0.303s-0.114,0.195-0.146,0.293s-0.057,0.195-0.073,0.293s-0.031,0.195-0.044,0.293l-0.02,0.244
			c0,0.338,0.051,0.643,0.151,0.913s0.259,0.498,0.474,0.684s0.488,0.329,0.82,0.43s0.732,0.151,1.201,0.151
			c0.391,0,0.747-0.044,1.069-0.132s0.599-0.22,0.83-0.396s0.412-0.392,0.542-0.649s0.195-0.558,0.195-0.903v-4.482
			c0-0.169-0.041-0.366-0.122-0.591s-0.192-0.453-0.332-0.684s-0.306-0.458-0.498-0.679s-0.4-0.42-0.625-0.596
			s-0.459-0.317-0.703-0.425s-0.49-0.161-0.737-0.161c-0.384,0-0.691,0.05-0.923,0.151s-0.408,0.226-0.532,0.376
			s-0.205,0.316-0.244,0.498s-0.059,0.352-0.059,0.508c0,0.195,0.008,0.347,0.024,0.454s0.046,0.2,0.088,0.278
			s0.105,0.158,0.19,0.239s0.195,0.19,0.332,0.327l-0.537,0.967c-0.254-0.15-0.467-0.293-0.64-0.43s-0.311-0.288-0.415-0.454
			s-0.179-0.36-0.225-0.581s-0.071-0.488-0.078-0.801c-0.007-0.384,0.057-0.739,0.19-1.064s0.33-0.609,0.591-0.85
			s0.578-0.428,0.952-0.562s0.803-0.2,1.284-0.2c0.358,0,0.687,0.057,0.986,0.171s0.576,0.269,0.83,0.464s0.488,0.42,0.703,0.674
			s0.413,0.518,0.596,0.791V8.743h-1.934V7.669h3.193V19.271z"/>
		<path fill="#FFFFFF" d="M379.737,17.923c0,0.28-0.046,0.591-0.137,0.933s-0.222,0.687-0.391,1.035s-0.373,0.687-0.61,1.016
			s-0.505,0.62-0.801,0.874s-0.618,0.459-0.967,0.615s-0.715,0.234-1.099,0.234v-1.182c0.364,0,0.708-0.117,1.03-0.352
			s0.603-0.527,0.84-0.879s0.425-0.732,0.562-1.143s0.205-0.788,0.205-1.133v-1.494c0-0.651-0.085-1.187-0.254-1.606
			s-0.378-0.749-0.625-0.986s-0.513-0.402-0.796-0.493s-0.539-0.137-0.767-0.137c-0.261,0-0.534,0.049-0.82,0.146
			s-0.55,0.262-0.791,0.493s-0.441,0.537-0.601,0.918s-0.239,0.854-0.239,1.421v2.188h-1.367v-2.188c0-0.566-0.078-1.04-0.234-1.421
			s-0.354-0.687-0.591-0.918s-0.498-0.396-0.781-0.493s-0.552-0.146-0.806-0.146c-0.306,0-0.605,0.045-0.898,0.137
			s-0.555,0.255-0.786,0.493s-0.418,0.566-0.562,0.986s-0.215,0.956-0.215,1.606v1.543c0,0.221,0.027,0.46,0.083,0.718
			s0.137,0.514,0.244,0.771s0.237,0.504,0.391,0.742s0.329,0.448,0.527,0.63s0.417,0.327,0.654,0.435s0.49,0.161,0.757,0.161v1.162
			c-0.442,0-0.85-0.078-1.221-0.234s-0.705-0.365-1.001-0.625s-0.559-0.557-0.786-0.889s-0.417-0.674-0.566-1.025
			s-0.262-0.698-0.337-1.04s-0.112-0.653-0.112-0.933v-1.416c0-0.716,0.061-1.431,0.181-2.144s0.327-1.395,0.62-2.046
			s0.688-1.255,1.187-1.812s1.128-1.042,1.89-1.455s1.668-0.737,2.72-0.972s2.273-0.352,3.667-0.352v1.182
			c-1.133,0-2.155,0.091-3.066,0.273s-1.717,0.439-2.417,0.771s-1.294,0.734-1.782,1.206s-0.872,0.995-1.152,1.567l0.762-0.225
			l1.221-0.273c0.293,0,0.589,0.013,0.889,0.039s0.588,0.112,0.864,0.259s0.53,0.373,0.762,0.679s0.425,0.739,0.581,1.299
			c0.188-0.56,0.41-0.993,0.664-1.299s0.521-0.532,0.801-0.679s0.563-0.233,0.85-0.259s0.56-0.039,0.82-0.039
			c0.481,0,0.95,0.075,1.406,0.225s0.862,0.392,1.221,0.728s0.645,0.776,0.859,1.323s0.322,1.214,0.322,2.002V17.923z"/>
		<path fill="#FFFFFF" d="M389.59,16.702c-0.007,0.645-0.059,1.289-0.156,1.934s-0.259,1.24-0.483,1.787s-0.525,1.016-0.903,1.406
			s-0.85,0.651-1.416,0.781l-0.117-1.162c0.234,0,0.456-0.104,0.664-0.313s0.391-0.513,0.547-0.913s0.28-0.89,0.371-1.47
			s0.137-1.24,0.137-1.982v-3.623c0-0.67-0.039-1.273-0.117-1.807s-0.213-0.985-0.405-1.353s-0.452-0.649-0.781-0.845
			s-0.747-0.293-1.255-0.293c-0.56,0-1.018,0.099-1.372,0.298s-0.632,0.485-0.83,0.859s-0.335,0.832-0.41,1.372
			s-0.112,1.149-0.112,1.826v3.564c0,0.729,0.032,1.383,0.098,1.963s0.156,1.069,0.273,1.47s0.262,0.708,0.435,0.923
			s0.366,0.322,0.581,0.322l-0.02,1.162c-0.384-0.072-0.718-0.21-1.001-0.415s-0.525-0.456-0.728-0.752s-0.368-0.631-0.498-1.006
			s-0.231-0.765-0.303-1.172s-0.122-0.824-0.151-1.25s-0.044-0.841-0.044-1.245v-3.525c0-0.43,0.022-0.866,0.068-1.309
			s0.124-0.871,0.234-1.284s0.262-0.801,0.454-1.162s0.437-0.677,0.732-0.947s0.651-0.483,1.064-0.64s0.896-0.234,1.45-0.234
			c0.56,0,1.05,0.068,1.47,0.205s0.778,0.326,1.074,0.566s0.539,0.531,0.728,0.869s0.339,0.711,0.449,1.118s0.188,0.84,0.229,1.299
			s0.063,0.933,0.063,1.421L389.59,16.702z"/>
		<path fill="#FFFFFF" d="M400.254,18.187c0,0.638-0.1,1.227-0.298,1.768s-0.476,1.007-0.83,1.401s-0.778,0.702-1.27,0.923
			s-1.027,0.332-1.606,0.332c-0.586,0-1.123-0.091-1.611-0.273s-0.908-0.46-1.26-0.835s-0.627-0.846-0.825-1.416
			s-0.298-1.242-0.298-2.017v-10.4h1.357v10.4c0,0.619,0.065,1.141,0.195,1.567s0.313,0.775,0.547,1.045s0.513,0.465,0.835,0.586
			s0.676,0.181,1.06,0.181c0.437,0,0.82-0.083,1.152-0.249s0.608-0.397,0.83-0.693s0.388-0.653,0.498-1.069s0.166-0.879,0.166-1.387
			v-0.566c0-0.338-0.059-0.661-0.176-0.967s-0.264-0.597-0.439-0.874s-0.364-0.542-0.566-0.796s-0.391-0.503-0.566-0.747
			s-0.322-0.485-0.439-0.723s-0.176-0.48-0.176-0.728c0-0.273,0.032-0.539,0.098-0.796s0.198-0.532,0.4-0.825l1.367,0.381
			c-0.098,0.13-0.183,0.243-0.254,0.337s-0.132,0.187-0.181,0.278s-0.086,0.186-0.112,0.283s-0.039,0.211-0.039,0.342
			c0,0.241,0.061,0.475,0.181,0.703s0.271,0.454,0.454,0.679s0.378,0.456,0.586,0.693s0.403,0.488,0.586,0.752
			s0.334,0.543,0.454,0.84s0.181,0.62,0.181,0.972V18.187z"/>
		<path fill="#FFFFFF" d="M410.108,16.702c-0.007,0.645-0.059,1.289-0.156,1.934s-0.259,1.24-0.483,1.787s-0.525,1.016-0.903,1.406
			s-0.85,0.651-1.416,0.781l-0.117-1.162c0.234,0,0.456-0.104,0.664-0.313s0.391-0.513,0.547-0.913s0.28-0.89,0.371-1.47
			s0.137-1.24,0.137-1.982v-3.623c0-0.67-0.039-1.273-0.117-1.807s-0.213-0.985-0.405-1.353s-0.452-0.649-0.781-0.845
			s-0.747-0.293-1.255-0.293c-0.56,0-1.018,0.099-1.372,0.298s-0.632,0.485-0.83,0.859s-0.335,0.832-0.41,1.372
			s-0.112,1.149-0.112,1.826v3.564c0,0.729,0.032,1.383,0.098,1.963s0.156,1.069,0.273,1.47s0.262,0.708,0.435,0.923
			s0.366,0.322,0.581,0.322l-0.02,1.162c-0.384-0.072-0.718-0.21-1.001-0.415s-0.525-0.456-0.728-0.752s-0.368-0.631-0.498-1.006
			s-0.231-0.765-0.303-1.172s-0.122-0.824-0.151-1.25s-0.044-0.841-0.044-1.245v-3.525c0-0.43,0.022-0.866,0.068-1.309
			s0.124-0.871,0.234-1.284s0.262-0.801,0.454-1.162s0.437-0.677,0.732-0.947s0.651-0.483,1.064-0.64s0.896-0.234,1.45-0.234
			c0.56,0,1.05,0.068,1.47,0.205s0.778,0.326,1.074,0.566s0.539,0.531,0.728,0.869s0.339,0.711,0.449,1.118s0.188,0.84,0.229,1.299
			s0.063,0.933,0.063,1.421L410.108,16.702z"/>
		<path fill="#FFFFFF" d="M420.577,18.284c0,2.884-1.335,4.326-4.004,4.326c-0.657,0-1.237-0.111-1.738-0.332
			s-0.92-0.522-1.255-0.903s-0.588-0.825-0.757-1.333s-0.254-1.045-0.254-1.611v-0.664c0-0.391,0.098-0.799,0.293-1.226
			s0.439-0.845,0.732-1.255l0.938,0.479c-0.098,0.182-0.184,0.368-0.259,0.557s-0.137,0.371-0.186,0.547s-0.086,0.34-0.112,0.493
			s-0.039,0.288-0.039,0.405v0.723c0,0.475,0.046,0.897,0.137,1.265s0.239,0.677,0.444,0.928s0.477,0.441,0.815,0.571
			s0.752,0.195,1.24,0.195c0.456,0,0.85-0.059,1.182-0.176s0.605-0.303,0.82-0.557s0.374-0.586,0.479-0.996s0.156-0.908,0.156-1.494
			v-1.104c0-0.475-0.062-0.907-0.186-1.294s-0.286-0.749-0.488-1.084s-0.433-0.649-0.693-0.942s-0.524-0.583-0.791-0.869
			s-0.53-0.576-0.791-0.869s-0.491-0.602-0.693-0.928s-0.364-0.677-0.488-1.055s-0.186-0.794-0.186-1.25V7.669h1.26v1.162
			c0,0.501,0.109,0.96,0.327,1.377s0.491,0.82,0.82,1.211s0.684,0.781,1.064,1.172s0.735,0.809,1.064,1.255s0.603,0.936,0.82,1.47
			s0.327,1.136,0.327,1.807V18.284z"/>
		<path fill="#FFFFFF" d="M88.516,46.161V32.919h1.133v12.109h6.699v1.133H88.516z"/>
		<path fill="#FFFFFF" d="M105.147,44.462c-0.775,1.133-1.8,1.699-3.076,1.699c-0.534,0-1.011-0.091-1.431-0.273
			s-0.806-0.449-1.157-0.801c-0.338-0.332-0.596-0.773-0.771-1.323s-0.264-1.2-0.264-1.948c0-0.729,0.084-1.372,0.254-1.929
			s0.423-1.007,0.762-1.353c0.345-0.345,0.729-0.612,1.152-0.801s0.908-0.283,1.455-0.283c0.508,0,0.98,0.094,1.416,0.283
			s0.83,0.456,1.182,0.801c0.313,0.319,0.553,0.765,0.723,1.338s0.254,1.256,0.254,2.051h-6.064
			c0.006,0.534,0.068,0.996,0.186,1.387s0.283,0.713,0.498,0.967s0.474,0.443,0.776,0.566s0.646,0.186,1.03,0.186
			c0.462,0,0.859-0.086,1.191-0.259s0.612-0.415,0.84-0.728L105.147,44.462z M104.483,40.819c-0.059-0.768-0.287-1.318-0.684-1.65
			c-0.208-0.189-0.451-0.333-0.728-0.435s-0.61-0.151-1.001-0.151c-0.377,0-0.714,0.045-1.011,0.137s-0.548,0.241-0.757,0.449
			c-0.182,0.176-0.333,0.397-0.454,0.664s-0.197,0.596-0.229,0.986H104.483z"/>
		<path fill="#FFFFFF" d="M107.403,39.198c0.182-0.28,0.371-0.527,0.566-0.742s0.397-0.381,0.605-0.498
			c0.299-0.169,0.609-0.296,0.928-0.381s0.677-0.127,1.074-0.127c0.625,0,1.152,0.075,1.582,0.225s0.749,0.368,0.957,0.654
			c0.195,0.287,0.356,0.612,0.483,0.977s0.19,0.732,0.19,1.104v5.752h-1.113V45.8c-0.547,0.241-1.247,0.361-2.1,0.361
			c-0.469,0-0.917-0.063-1.343-0.19s-0.773-0.298-1.04-0.513c-0.273-0.228-0.482-0.497-0.625-0.806s-0.215-0.626-0.215-0.952
			c0-0.645,0.199-1.214,0.596-1.709c0.365-0.482,1.24-0.723,2.627-0.723c0.391,0,0.721-0.033,0.991-0.098s0.477-0.153,0.62-0.264
			c0.137-0.111,0.252-0.25,0.347-0.42s0.142-0.345,0.142-0.527c0-0.189-0.047-0.361-0.142-0.518s-0.213-0.309-0.356-0.459
			c-0.15-0.137-0.361-0.238-0.635-0.303s-0.596-0.098-0.967-0.098c-0.189,0-0.396,0.013-0.62,0.039s-0.425,0.082-0.601,0.166
			c-0.156,0.065-0.308,0.167-0.454,0.308s-0.255,0.301-0.327,0.483L107.403,39.198z M112.676,41.767
			c-0.248,0.208-0.543,0.36-0.889,0.454s-0.732,0.142-1.162,0.142c-0.736,0-1.263,0.104-1.582,0.313
			c-0.189,0.13-0.329,0.277-0.42,0.439s-0.137,0.358-0.137,0.586c0,0.475,0.169,0.815,0.508,1.021s0.866,0.308,1.582,0.308
			c0.248,0,0.492-0.015,0.732-0.044s0.456-0.08,0.645-0.151c0.228-0.091,0.405-0.229,0.532-0.415s0.19-0.425,0.19-0.718V41.767z"/>
		<path fill="#FFFFFF" d="M115.635,46.161V37.45h1.094v1.133c0.352-0.397,0.729-0.685,1.133-0.864s0.853-0.269,1.348-0.269
			c0.573,0,1.066,0.084,1.479,0.254s0.78,0.43,1.099,0.781l-0.635,0.84c-0.26-0.241-0.547-0.425-0.859-0.552s-0.674-0.19-1.084-0.19
			c-0.391,0-0.734,0.063-1.03,0.19s-0.558,0.311-0.786,0.552c-0.228,0.248-0.396,0.58-0.503,0.996s-0.161,0.915-0.161,1.494v4.346
			H115.635z"/>
		<path fill="#FFFFFF" d="M124.874,34.433c0.169,0,0.301,0.054,0.396,0.161s0.142,0.236,0.142,0.386
			c0,0.365-0.179,0.547-0.537,0.547s-0.537-0.182-0.537-0.547c0-0.15,0.044-0.278,0.132-0.386S124.691,34.433,124.874,34.433z
			 M124.336,46.161V37.45h1.074v8.711H124.336z"/>
		<path fill="#FFFFFF" d="M128.106,46.161V37.45h1.113v1.133c0.677-0.755,1.504-1.133,2.48-1.133c0.514,0,0.993,0.098,1.436,0.293
			s0.827,0.459,1.152,0.791c0.332,0.345,0.587,0.796,0.767,1.353s0.269,1.2,0.269,1.929v4.346H134.2v-4.346
			c0-0.547-0.06-1.04-0.181-1.479s-0.288-0.776-0.503-1.011c-0.208-0.215-0.472-0.392-0.791-0.532s-0.661-0.21-1.025-0.21
			c-0.391,0-0.739,0.063-1.045,0.19s-0.563,0.311-0.771,0.552c-0.202,0.228-0.363,0.563-0.483,1.006s-0.181,0.938-0.181,1.484v4.346
			H128.106z"/>
		<path fill="#FFFFFF" d="M139.063,49.442c0.56,0,1.085-0.028,1.577-0.083s0.919-0.161,1.284-0.317s0.653-0.375,0.864-0.654
			s0.317-0.645,0.317-1.094v-2.246c-0.332,0.371-0.698,0.649-1.099,0.835s-0.854,0.278-1.362,0.278
			c-0.534,0-1.011-0.091-1.431-0.273s-0.806-0.449-1.157-0.801c-0.338-0.332-0.596-0.773-0.771-1.323s-0.264-1.2-0.264-1.948
			c0-0.729,0.084-1.367,0.254-1.914s0.43-1.002,0.781-1.367c0.345-0.345,0.729-0.612,1.152-0.801s0.902-0.283,1.436-0.283
			c0.514,0,0.97,0.094,1.367,0.283s0.762,0.479,1.094,0.869V37.45h1.113v9.795c0,0.495-0.075,0.919-0.225,1.274
			s-0.353,0.653-0.61,0.894s-0.555,0.433-0.894,0.576s-0.7,0.252-1.084,0.327s-0.776,0.119-1.177,0.132s-0.79,0.013-1.167,0V49.442z
			 M140.645,38.583c-0.391,0-0.744,0.063-1.06,0.19s-0.575,0.311-0.776,0.552c-0.189,0.228-0.345,0.563-0.469,1.006
			s-0.186,0.938-0.186,1.484c0,0.573,0.062,1.068,0.186,1.484s0.28,0.749,0.469,0.996c0.202,0.267,0.459,0.456,0.771,0.566
			s0.667,0.166,1.064,0.166c0.365,0,0.703-0.055,1.016-0.166s0.576-0.299,0.791-0.566c0.436-0.514,0.654-1.341,0.654-2.48
			c0-0.547-0.055-1.04-0.166-1.479s-0.273-0.776-0.488-1.011s-0.479-0.417-0.791-0.547S141.01,38.583,140.645,38.583z"/>
		<path fill="#FFFFFF" d="M155.821,39.452c-0.241-0.28-0.532-0.495-0.874-0.645s-0.734-0.225-1.177-0.225
			c-0.397,0-0.75,0.063-1.06,0.19s-0.568,0.311-0.776,0.552c-0.43,0.488-0.645,1.318-0.645,2.49c0,0.58,0.06,1.076,0.181,1.489
			s0.275,0.744,0.464,0.991c0.208,0.254,0.467,0.439,0.776,0.557s0.663,0.176,1.06,0.176c0.462,0,0.859-0.084,1.191-0.254
			s0.619-0.42,0.859-0.752l1.084,0.361c-0.391,0.58-0.848,1.021-1.372,1.323s-1.112,0.454-1.763,0.454
			c-1.016,0-1.878-0.365-2.588-1.094c-0.338-0.352-0.594-0.794-0.767-1.328s-0.259-1.175-0.259-1.924
			c0-0.729,0.082-1.371,0.244-1.924s0.417-1.006,0.762-1.357c0.332-0.332,0.714-0.596,1.147-0.791s0.919-0.293,1.46-0.293
			c0.645,0,1.23,0.15,1.758,0.449s0.986,0.752,1.377,1.357L155.821,39.452z"/>
		<path fill="#FFFFFF" d="M165.264,44.462c-0.775,1.133-1.8,1.699-3.076,1.699c-0.534,0-1.011-0.091-1.431-0.273
			s-0.806-0.449-1.157-0.801c-0.338-0.332-0.596-0.773-0.771-1.323s-0.264-1.2-0.264-1.948c0-0.729,0.084-1.372,0.254-1.929
			s0.423-1.007,0.762-1.353c0.345-0.345,0.729-0.612,1.152-0.801s0.908-0.283,1.455-0.283c0.508,0,0.98,0.094,1.416,0.283
			s0.83,0.456,1.182,0.801c0.313,0.319,0.553,0.765,0.723,1.338s0.254,1.256,0.254,2.051h-6.064
			c0.006,0.534,0.068,0.996,0.186,1.387s0.283,0.713,0.498,0.967s0.474,0.443,0.776,0.566s0.646,0.186,1.03,0.186
			c0.462,0,0.859-0.086,1.191-0.259s0.612-0.415,0.84-0.728L165.264,44.462z M164.6,40.819c-0.059-0.768-0.287-1.318-0.684-1.65
			c-0.208-0.189-0.451-0.333-0.728-0.435s-0.61-0.151-1.001-0.151c-0.377,0-0.714,0.045-1.011,0.137s-0.548,0.241-0.757,0.449
			c-0.182,0.176-0.333,0.397-0.454,0.664s-0.197,0.596-0.229,0.986H164.6z"/>
		<path fill="#FFFFFF" d="M167.618,46.161V37.45h1.113v1.133c0.677-0.755,1.504-1.133,2.48-1.133c0.514,0,0.993,0.098,1.436,0.293
			s0.827,0.459,1.152,0.791c0.332,0.345,0.587,0.796,0.767,1.353s0.269,1.2,0.269,1.929v4.346h-1.123v-4.346
			c0-0.547-0.06-1.04-0.181-1.479s-0.288-0.776-0.503-1.011c-0.208-0.215-0.472-0.392-0.791-0.532s-0.661-0.21-1.025-0.21
			c-0.391,0-0.739,0.063-1.045,0.19s-0.563,0.311-0.771,0.552c-0.202,0.228-0.363,0.563-0.483,1.006s-0.181,0.938-0.181,1.484v4.346
			H167.618z"/>
		<path fill="#FFFFFF" d="M179.18,34.433v3.018h2.285v1.133h-2.285v4.746c0,0.313,0.024,0.583,0.073,0.811s0.128,0.404,0.239,0.527
			c0.111,0.13,0.248,0.223,0.41,0.278s0.345,0.083,0.547,0.083c0.189,0,0.368-0.008,0.537-0.024s0.329-0.047,0.479-0.093v1.025
			c-0.254,0.15-0.592,0.225-1.016,0.225c-0.345,0-0.666-0.047-0.962-0.142s-0.558-0.255-0.786-0.483
			c-0.228-0.234-0.384-0.534-0.469-0.898s-0.127-0.801-0.127-1.309v-4.746h-1.582V37.45h1.582v-3.018H179.18z"/>
		<path fill="#FFFFFF" d="M189.874,44.462c-0.775,1.133-1.8,1.699-3.076,1.699c-0.534,0-1.011-0.091-1.431-0.273
			s-0.806-0.449-1.157-0.801c-0.338-0.332-0.596-0.773-0.771-1.323s-0.264-1.2-0.264-1.948c0-0.729,0.084-1.372,0.254-1.929
			s0.423-1.007,0.762-1.353c0.345-0.345,0.729-0.612,1.152-0.801s0.908-0.283,1.455-0.283c0.508,0,0.98,0.094,1.416,0.283
			s0.83,0.456,1.182,0.801c0.313,0.319,0.553,0.765,0.723,1.338s0.254,1.256,0.254,2.051h-6.064
			c0.006,0.534,0.068,0.996,0.186,1.387s0.283,0.713,0.498,0.967s0.474,0.443,0.776,0.566s0.646,0.186,1.03,0.186
			c0.462,0,0.859-0.086,1.191-0.259s0.612-0.415,0.84-0.728L189.874,44.462z M189.209,40.819c-0.059-0.768-0.287-1.318-0.684-1.65
			c-0.208-0.189-0.451-0.333-0.728-0.435s-0.61-0.151-1.001-0.151c-0.377,0-0.714,0.045-1.011,0.137s-0.548,0.241-0.757,0.449
			c-0.182,0.176-0.333,0.397-0.454,0.664s-0.197,0.596-0.229,0.986H189.209z"/>
		<path fill="#FFFFFF" d="M192.227,46.161V37.45h1.094v1.133c0.352-0.397,0.729-0.685,1.133-0.864s0.853-0.269,1.348-0.269
			c0.573,0,1.066,0.084,1.479,0.254s0.78,0.43,1.099,0.781l-0.635,0.84c-0.26-0.241-0.547-0.425-0.859-0.552s-0.674-0.19-1.084-0.19
			c-0.391,0-0.734,0.063-1.03,0.19s-0.558,0.311-0.786,0.552c-0.228,0.248-0.396,0.58-0.503,0.996s-0.161,0.915-0.161,1.494v4.346
			H192.227z"/>
		<path fill="#FFFFFF" d="M209.493,46.161c-0.697,0-1.336-0.153-1.919-0.459s-1.122-0.758-1.616-1.357
			c-0.521-0.625-0.913-1.333-1.177-2.124s-0.396-1.681-0.396-2.671c0-0.443,0.033-0.885,0.098-1.328s0.158-0.869,0.278-1.279
			s0.265-0.799,0.435-1.167s0.361-0.695,0.576-0.981c0.202-0.28,0.444-0.536,0.728-0.767s0.587-0.43,0.913-0.596
			s0.666-0.293,1.021-0.381s0.708-0.132,1.06-0.132c1.478,0,2.692,0.573,3.643,1.719c0.475,0.592,0.846,1.295,1.113,2.109
			s0.4,1.748,0.4,2.803c0,1.881-0.355,3.353-1.064,4.414l1.182,1.152l-0.928,0.957l-1.191-1.201
			C211.729,45.731,210.678,46.161,209.493,46.161z M210.528,42.743l0.908-0.947l1.221,1.221c0.293-0.397,0.509-0.877,0.649-1.44
			s0.21-1.239,0.21-2.026c0-0.775-0.094-1.502-0.283-2.183s-0.449-1.265-0.781-1.753c-0.345-0.508-0.77-0.902-1.274-1.182
			s-1.066-0.42-1.685-0.42c-0.541,0-1.058,0.128-1.553,0.386s-0.924,0.624-1.289,1.099c-0.391,0.488-0.677,1.069-0.859,1.743
			s-0.273,1.444-0.273,2.31c0,1.784,0.42,3.135,1.26,4.053c0.436,0.482,0.875,0.84,1.318,1.074s0.908,0.352,1.396,0.352
			c0.43,0,0.851-0.078,1.265-0.234s0.773-0.42,1.079-0.791L210.528,42.743z"/>
		<path fill="#FFFFFF" d="M220.762,32.919c0.651,0,1.198,0.078,1.641,0.234s0.814,0.4,1.113,0.732s0.514,0.714,0.645,1.147
			s0.195,0.913,0.195,1.44c0,0.404-0.038,0.758-0.112,1.064s-0.195,0.584-0.361,0.835s-0.384,0.485-0.654,0.703
			s-0.601,0.438-0.991,0.659c0.176,0.098,0.34,0.249,0.493,0.454s0.296,0.448,0.43,0.728s0.255,0.589,0.366,0.928
			s0.208,0.687,0.293,1.045c0.189,0.801,0.4,1.468,0.635,2.002s0.459,0.957,0.674,1.27h-1.152c-0.078-0.065-0.16-0.182-0.244-0.352
			s-0.171-0.376-0.259-0.62s-0.177-0.516-0.269-0.815s-0.182-0.615-0.273-0.947c-0.117-0.449-0.246-0.875-0.386-1.279
			s-0.29-0.76-0.449-1.069s-0.333-0.553-0.522-0.732s-0.394-0.269-0.615-0.269h-2.539v6.084h-1.133V32.919H220.762z M218.418,38.983
			h2.451c0.332,0,0.64-0.05,0.923-0.151s0.532-0.255,0.747-0.464c0.221-0.215,0.387-0.477,0.498-0.786s0.166-0.679,0.166-1.108
			c0-0.391-0.052-0.741-0.156-1.05s-0.267-0.571-0.488-0.786c-0.228-0.215-0.49-0.373-0.786-0.474s-0.633-0.151-1.011-0.151h-2.344
			V38.983z"/>
		<path fill="#FFFFFF" d="M227.657,46.161V32.919h1.113v13.242H227.657z"/>
		<path fill="#FFFFFF" d="M234.913,46.161c-0.495,0-0.947-0.047-1.357-0.142s-0.749-0.255-1.016-0.483
			c-0.248-0.221-0.465-0.448-0.654-0.679s-0.375-0.49-0.557-0.776l0.889-0.752c0.156,0.273,0.337,0.524,0.542,0.752
			s0.396,0.407,0.571,0.537c0.234,0.163,0.479,0.272,0.732,0.327s0.537,0.083,0.85,0.083c0.352,0,0.675-0.039,0.972-0.117
			s0.562-0.211,0.796-0.4c0.215-0.169,0.386-0.415,0.513-0.737s0.19-0.688,0.19-1.099c0-0.352-0.068-0.693-0.205-1.025
			s-0.313-0.602-0.527-0.811c-0.241-0.234-0.584-0.48-1.03-0.737s-0.968-0.522-1.567-0.796c-0.41-0.182-0.791-0.375-1.143-0.576
			s-0.651-0.426-0.898-0.674c-0.221-0.241-0.396-0.514-0.522-0.82s-0.19-0.635-0.19-0.986c0-0.514,0.084-0.98,0.254-1.396
			s0.426-0.768,0.771-1.055c0.716-0.586,1.579-0.879,2.588-0.879c0.664,0,1.256,0.114,1.777,0.342s0.98,0.596,1.377,1.104
			l-0.869,0.684c-0.293-0.332-0.628-0.587-1.006-0.767s-0.804-0.269-1.279-0.269c-0.326,0-0.625,0.047-0.898,0.142
			s-0.543,0.233-0.811,0.415c-0.514,0.338-0.771,0.843-0.771,1.514c0,0.241,0.057,0.477,0.171,0.708s0.272,0.453,0.474,0.664
			s0.436,0.407,0.703,0.586s0.557,0.337,0.869,0.474c0.651,0.293,1.232,0.594,1.743,0.903s0.913,0.62,1.206,0.933
			s0.518,0.654,0.674,1.025s0.234,0.775,0.234,1.211c0,1.133-0.303,2.012-0.908,2.637S236.098,46.161,234.913,46.161z"/>
		<path fill="#FFFFFF" d="M241.016,46.161V32.919h1.113v13.242H241.016z"/>
		<path fill="#FFFFFF" d="M244.659,46.161l5.02-13.242h1.24l5,13.242h-1.094l-1.396-3.672h-6.25l-1.406,3.672H244.659z
			 M247.588,41.396h5.479l-2.764-7.217L247.588,41.396z"/>
	</g>
</g>
</svg>
