<?xml version="1.0" encoding="utf-8"?>
<!-- Generator: Adobe Illustrator 16.0.3, SVG Export Plug-In . SVG Version: 6.00 Build 0)  -->
<!DOCTYPE svg PUBLIC "-//W3C//DTD SVG 1.1//EN" "http://www.w3.org/Graphics/SVG/1.1/DTD/svg11.dtd">
<svg version="1.1" id="Objects" xmlns="http://www.w3.org/2000/svg" xmlns:xlink="http://www.w3.org/1999/xlink" x="0px" y="0px"
	 width="592.333px" height="56.636px" viewBox="0 0 592.333 56.636" enable-background="new 0 0 592.333 56.636"
	 xml:space="preserve">
<g>
	<g>
		<path fill="#4A9B1D" d="M16.262,14.48l34.485-0.007v-3.229H16.262c-4.056,0-5.565-1.086-5.565-3.994
			c0-3.748,1.482-4.021,3.929-4.021c0.266,0,0.524,0.007,0.776,0.014c0.266,0,0.524,0.007,0.769,0.007h34.576V0.014H16.171
			c-0.231,0-0.468,0-0.713-0.007C15.186,0.007,14.906,0,14.626,0c-1.958,0-7.167,0-7.167,7.251
			C7.459,12.047,10.424,14.48,16.262,14.48L16.262,14.48z M16.262,14.48"/>
		<rect x="14.242" y="4.393" fill="#4A9B1D" width="34.485" height="1.072"/>
		<rect x="14.242" y="6.635" fill="#4A9B1D" width="34.485" height="1.07"/>
		<rect x="14.242" y="9.015" fill="#4A9B1D" width="34.485" height="1.079"/>
	</g>
	<polygon fill="#4A9B1D" points="50.748,0 53.562,1.625 50.748,3.25 	"/>
	<polygon fill="#4A9B1D" points="52.774,1.17 52.774,2.08 53.562,1.625 	"/>
</g>
<g>
	<g>
		<path fill="#FFFFFF" d="M45.353,34.534c0.322,0,0.65,0.007,0.986,0.007c2.328,0,8.53,0,8.53-8.628
			c0-5.71-3.524-8.607-10.481-8.607H3.337v3.854h41.051c4.832,0,6.635,1.285,6.635,4.753c0,4.461-1.769,4.783-4.684,4.783
			c-0.315,0-0.623-0.007-0.93-0.014c-0.308,0-0.616-0.007-0.909-0.007H3.337v3.845H44.5C44.772,34.52,45.06,34.527,45.353,34.534
			L45.353,34.534z M45.353,34.534"/>
		<rect x="5.743" y="28.143" fill="#FFFFFF" width="41.059" height="1.07"/>
		<rect x="5.743" y="25.465" fill="#FFFFFF" width="41.059" height="1.079"/>
		<rect x="5.743" y="22.633" fill="#FFFFFF" width="41.059" height="1.079"/>
	</g>
	<polygon fill="#FFFFFF" points="3.337,21.16 0,19.232 3.337,17.306 	"/>
	<polygon fill="#FFFFFF" points="0.934,19.772 0.934,18.693 0,19.232 	"/>
</g>
<g>
	<g>
		<path fill="#4A9B1D" d="M57.858,37.422H11.92c-0.308,0-0.623-0.007-0.951-0.007c-0.357-0.007-0.728-0.014-1.098-0.014
			c-2.601,0-9.523,0-9.523,9.628c0,6.376,3.937,9.607,11.698,9.607h45.812v-4.3l-45.812,0.007c-5.398,0-7.405-1.441-7.405-5.314
			c0-4.979,1.979-5.335,5.23-5.335c0.35,0,0.692,0.007,1.028,0.014c0.35,0.007,0.692,0.007,1.021,0.007h45.938V37.422z
			 M57.858,37.422"/>
		<rect x="9.354" y="43.406" fill="#4A9B1D" width="45.819" height="1.077"/>
		<rect x="9.354" y="46.392" fill="#4A9B1D" width="45.819" height="1.077"/>
		<rect x="9.354" y="49.553" fill="#4A9B1D" width="45.819" height="1.077"/>
	</g>
	<polygon fill="#4A9B1D" points="57.858,37.422 61.576,39.568 57.858,41.715 	"/>
	<polygon fill="#4A9B1D" points="60.536,38.968 60.536,40.169 61.576,39.568 	"/>
</g>
<text transform="matrix(1 0 0 1 79.1924 21.8115)"><tspan x="0" y="0" fill="#FFFFFF" font-family="'BPGNinoMtavruli'" font-size="22">საგანმანათლებლო მწვანე ცენტრ-კოლეჯი “გონი,, </tspan><tspan x="0" y="28.8" fill="#FFFFFF" font-family="'BPGNinoMtavruli'" font-size="24">Learning green center college GONI</tspan></text>
</svg>
