<?xml version="1.0" encoding="utf-8"?>
<!-- Generator: Adobe Illustrator 21.1.0, SVG Export Plug-In . SVG Version: 6.00 Build 0)  -->
<svg version="1.1" id="Layer_1" xmlns="http://www.w3.org/2000/svg" xmlns:xlink="http://www.w3.org/1999/xlink" x="0px" y="0px"
	 viewBox="0 0 589.2 137.2" style="enable-background:new 0 0 589.2 137.2;" xml:space="preserve">
<style type="text/css">
	.st0{fill:#232D4B;}
	.st1{fill:#E57200;}
</style>
<g>
	<path class="st0" d="M214.1,4.5c-1.3,0-5,0.4-18.6,0.4c-9.8,0-16.6-0.4-17.9-0.4c-0.7,0-0.9,0.3-0.9,1v3.7c0,0.9,0.1,1.3,0.7,1.3
		h4.6c4.3,0,6,3.1,6,4.8c0,1.8,0,4.3-1.5,8.1c-2.3,6.6-6.9,18.9-9.7,26.1c-1.9,5.3-9.1,23.6-13.4,33.5h-0.6l-11.2-32.7
		c-3.1-8.5-8.7-26-9.8-31.3c-0.4-2.1-0.4-3.8-0.4-5c0-1.9,2.8-3.5,6.3-3.5h6.3c1,0,1.2-0.6,1.2-1.3V5.8c0-0.9-0.1-1.3-1.5-1.3
		c-1.3,0-7.9,0.4-23.2,0.4c-10.7,0-17,0-20.6,0l0,0c-0.5,0-1.2,0-2.2,0s-1.7,0-2.2,0l0,0c-2.7,0-6.5,0-11.1,0
		c-10,0-16.7-0.4-18.2-0.4c-0.9,0-1,0.3-1,1v3.8c0,0.7,0.1,1.2,1,1.2H81c2.5,0,4.8,2.6,5.4,6.5c0.6,3.4,2.1,19.5,2.1,31.9v22.6
		c0,10.6-3.4,18.6-9.3,23.9c-4,3.7-11.9,6.5-17.3,6.5c-6.6,0-13.5-2.3-18.4-8.2c-3.2-4.1-4.6-10.7-4.7-17.5
		c-0.1-4.7-0.7-23.3-0.7-31.1v-9.7c0-7.5,0.1-17.5,0.3-19.1c0.3-2.9,2.8-5.7,7.8-5.7h5c1,0,1.2-0.3,1.2-1V5.7c0-0.9-0.1-1.2-1.3-1.2
		c-1.6,0-8.7,0.4-21.6,0.4C14,4.9,6.8,4.5,5.4,4.5C4.2,4.5,4,4.8,4,5.7v3.5c0,1,0.1,1.3,1,1.3h7c3.1,0,4.1,2.3,4.1,7.5v34.7
		c0,19.2,0.6,29.1,3.1,35.4c3.5,9.4,10,16.3,17,19.4c6.2,2.6,15.6,3.7,22.5,3.7c9.5,0,19.5-3.4,26-9.1c7.6-6.8,11.6-16,12.5-28
		c0.4-5.7,0.7-31.4,0.7-33.5s0-22.3,0.3-24.4c0.3-1.5,0.7-5.6,6.3-5.6h5.6c3.1,0,4.8,1.5,6.3,4.8c1.8,4.1,9.1,25.4,13.2,35.5
		c4.1,10.1,17.5,45.7,22.9,57.3c0.9,1.9,1.5,3.7,3.4,3.7c1.6,0,2.4-0.7,3.4-2.5c2.5-4.3,19.1-43.6,22.8-51.5
		c5.6-12.3,11.9-29.7,17.8-39.6c3.8-6.6,8.4-7.6,10.9-7.6h3.4c0.9,0,1-0.4,1-1V5.8C215.1,4.8,214.9,4.5,214.1,4.5"/>
	<path class="st0" d="M293.4,103.3h-5c-2.2,0-6-1.8-8.5-6.6c-2.1-4-11.6-31.3-15-42.7c-2.8-9.4-14.2-42.3-17-51.5
		c-0.4-1.6-0.7-2.5-1.6-2.5c-0.7,0-1.2,0.6-1.9,1.3c-2.2,2.5-11.7,6.3-16.4,7.3c-1.2,0.3-1.5,0.9-1.5,1.3c0,0.6,0.6,1.3,1,1.9
		c1,1.6,0.3,3.5-0.1,5c-1.3,4-13.2,35.5-14.4,38.5c-4.8,12.9-15.3,38.5-17.3,41.6c-2.9,4.4-6.5,6.5-10,6.5h-3.8c-0.9,0-1,0.4-1,1.3
		v2.8c0,1,0.1,1.9,1,1.9c2.1,0,5.3-0.4,16-0.4c12,0,18.1,0.4,20,0.4c1.2,0,1.3-0.4,1.3-1.6v-3.2c0-0.6-0.1-1.2-1.6-1.2h-5.1
		c-4.4,0-5.7-3.5-5.7-6.8c0-4.7,7.2-24.8,8.4-27.9h32.2c1.8,5.3,7.5,24.1,8.8,29.4c0.9,3.8-0.4,5.3-4.4,5.3h-4.1
		c-0.7,0-0.9,0.6-0.9,1.3v2.8c0,1,0.1,1.9,1.6,1.9c2.9,0,8.1-0.4,20.3-0.4c18.8,0,23.2-0.2,26-0.2v-4
		C294.4,103.9,294.3,103.3,293.4,103.3 M216.9,62.8c1.2-3.7,13.8-38.3,14.5-40.2c0.4-1.3,0.9-1.9,1.8-1.9c0.7,0,1,1,1.6,3.2l11,38.9
		H216.9z"/>
	<polyline class="st1" points="337.5,4.6 337.5,24.1 316.3,24.1 316.3,108.6 293.6,108.6 293.6,24.1 272.8,24.1 272.8,4.6 
		337.5,4.6 	"/>
	<path class="st1" d="M386.4,70.1c0,24.6-8.9,40.1-31.3,40.1c-22.1,0-31.2-15.3-31.2-40.1c0-24,8.4-40.1,31.3-40.1
		C378,30,386.4,46.1,386.4,70.1 M355.1,45c-6.9,0-9,6.2-9,25.1c0,20.4,2.8,25.1,9.2,25.1c6.2,0,9-4.5,9-25.1c0-19.8-2.5-25.1-9-25.1
		C355.3,45,355.1,45,355.1,45z"/>
	<path class="st1" d="M454,4.6v104h-19.8V96c-2.2,5.6-5.5,13.7-17.6,13.7c-20.6,0-24.5-23.9-24.5-39.1c0-6.1,0-39.9,25.4-39.9
		c10.3,0,13.4,5,15.4,8.1V4.6H454 M433,64c0-6.9,0-19.2-9.4-19.2c-8.3,0-9.4,10-9.4,22.3c0,15,0,27.7,9.2,27.7
		c9.5,0,9.5-11.7,9.5-17.3L433,64L433,64z"/>
	<path class="st1" d="M462.9,54.1c0.6-4.4,1.9-13.6,12.8-19.8c5.5-3.1,11.9-4.2,18.2-4.2c8.1,0,16.5,2,22.3,8.1
		c4.7,4.7,5,13.4,5,22.8v30.6c0,13.1,0.5,14.5,1.3,17.1h-19.8c-0.9-3.1-1.1-4.8-1.1-11.8c-2.8,5-7.8,13.4-21.2,13.4
		c-10.3,0-20.1-5.9-20.1-21.1c0-21.4,16.7-27,39.6-28.2v-3c0-6.7,0-13.7-7.6-13.7c-7.2,0-8.6,5.8-9.2,11.9L462.9,54.1 M499.9,71.8
		c-12.3,1.6-17.5,4.5-17.5,14.5c0,5.5,2,9.7,7.2,9.7c2.7,0,5-1.2,7-4.2c3-4.4,3.3-9.2,3.3-16.2V71.8z"/>
	<path class="st1" d="M545.2,31.8l10.4,47.1l10-47.1H584L561,110c-4.4,14.5-7.8,25.9-24.8,25.9c-4.2,0-6.5-0.6-9.2-1.2v-16.8
		c2,0.3,3.6,0.5,6.1,0.5c8.4,0,10.1-1.9,12.8-11.1l-22-75.5L545.2,31.8"/>
</g>
</svg>
