<?xml version="1.0" encoding="utf-8"?>
<!-- Generator: Adobe Illustrator 16.0.3, SVG Export Plug-In . SVG Version: 6.00 Build 0)  -->
<!DOCTYPE svg PUBLIC "-//W3C//DTD SVG 1.1//EN" "http://www.w3.org/Graphics/SVG/1.1/DTD/svg11.dtd">
<svg version="1.1" id="Objects" xmlns="http://www.w3.org/2000/svg" xmlns:xlink="http://www.w3.org/1999/xlink" x="0px" y="0px"
	 width="592.333px" height="56.636px" viewBox="0 0 592.333 56.636" enable-background="new 0 0 592.333 56.636"
	 xml:space="preserve">
<g>
	<g>
		<g>
			<path fill="#4A9B1D" d="M16.262,14.48l34.485-0.007v-3.229H16.262c-4.056,0-5.565-1.086-5.565-3.994
				c0-3.748,1.482-4.021,3.929-4.021c0.266,0,0.524,0.007,0.776,0.014c0.266,0,0.524,0.007,0.769,0.007h34.576V0.014H16.171
				c-0.231,0-0.468,0-0.713-0.007C15.186,0.007,14.906,0,14.626,0c-1.958,0-7.167,0-7.167,7.251
				C7.459,12.047,10.424,14.48,16.262,14.48L16.262,14.48z M16.262,14.48"/>
		</g>
		<g>
			<rect x="14.242" y="4.393" fill="#4A9B1D" width="34.485" height="1.072"/>
		</g>
		<g>
			<rect x="14.242" y="6.635" fill="#4A9B1D" width="34.485" height="1.07"/>
		</g>
		<g>
			<rect x="14.242" y="9.015" fill="#4A9B1D" width="34.485" height="1.079"/>
		</g>
	</g>
	<g>
		<polygon fill="#4A9B1D" points="50.748,0 53.562,1.625 50.748,3.25 		"/>
	</g>
	<g>
		<polygon fill="#4A9B1D" points="52.774,1.17 52.774,2.08 53.562,1.625 		"/>
	</g>
</g>
<g>
	<g>
		<g>
			<path fill="#FFFFFF" d="M45.353,34.534c0.322,0,0.65,0.007,0.986,0.007c2.328,0,8.53,0,8.53-8.628
				c0-5.71-3.524-8.607-10.481-8.607H3.337v3.854h41.051c4.832,0,6.635,1.285,6.635,4.753c0,4.461-1.769,4.783-4.684,4.783
				c-0.315,0-0.623-0.007-0.93-0.014c-0.308,0-0.616-0.007-0.909-0.007H3.337v3.845H44.5C44.772,34.52,45.06,34.527,45.353,34.534
				L45.353,34.534z M45.353,34.534"/>
		</g>
		<g>
			<rect x="5.743" y="28.143" fill="#FFFFFF" width="41.059" height="1.07"/>
		</g>
		<g>
			<rect x="5.743" y="25.465" fill="#FFFFFF" width="41.059" height="1.079"/>
		</g>
		<g>
			<rect x="5.743" y="22.633" fill="#FFFFFF" width="41.059" height="1.079"/>
		</g>
	</g>
	<g>
		<polygon fill="#FFFFFF" points="3.337,21.16 0,19.232 3.337,17.306 		"/>
	</g>
	<g>
		<polygon fill="#FFFFFF" points="0.934,19.772 0.934,18.693 0,19.232 		"/>
	</g>
</g>
<g>
	<g>
		<g>
			<path fill="#4A9B1D" d="M57.858,37.422H11.92c-0.308,0-0.623-0.007-0.951-0.007c-0.357-0.007-0.728-0.014-1.098-0.014
				c-2.601,0-9.523,0-9.523,9.628c0,6.376,3.937,9.607,11.698,9.607h45.812v-4.3l-45.812,0.007c-5.398,0-7.405-1.441-7.405-5.314
				c0-4.979,1.979-5.335,5.23-5.335c0.35,0,0.692,0.007,1.028,0.014c0.35,0.007,0.692,0.007,1.021,0.007h45.938V37.422z
				 M57.858,37.422"/>
		</g>
		<g>
			<rect x="9.354" y="43.406" fill="#4A9B1D" width="45.819" height="1.077"/>
		</g>
		<g>
			<rect x="9.354" y="46.392" fill="#4A9B1D" width="45.819" height="1.077"/>
		</g>
		<g>
			<rect x="9.354" y="49.553" fill="#4A9B1D" width="45.819" height="1.077"/>
		</g>
	</g>
	<g>
		<polygon fill="#4A9B1D" points="57.858,37.422 61.576,39.568 57.858,41.715 		"/>
	</g>
	<g>
		<polygon fill="#4A9B1D" points="60.536,38.968 60.536,40.169 61.576,39.568 		"/>
	</g>
</g>
<g>
	<path fill="#FFFFFF" d="M89.291,15.862c0,2.807-1.844,4.881-4.399,4.881c-2.577,0-4.4-1.592-4.4-5.007V4.297h1.488v11.439
		c0,2.724,1.215,3.729,2.912,3.729c1.927,0,2.912-1.529,2.912-3.75v-0.607c0-2.263-2.598-3.708-2.598-5.321
		c0-0.607,0.105-1.152,0.545-1.781l1.508,0.419c-0.419,0.544-0.649,0.796-0.649,1.362c0,1.592,2.682,2.786,2.682,5.091V15.862z"/>
	<path fill="#FFFFFF" d="M100.249,15.987c0,3.164-1.488,4.756-4.42,4.756c-2.892,0-4.4-2.095-4.4-4.609v-0.733
		c0-0.859,0.482-1.823,1.131-2.724l1.027,0.524c-0.419,0.817-0.65,1.697-0.65,2.2v0.796c0,2.095,0.733,3.268,2.892,3.268
		c2.011,0,2.912-0.963,2.912-3.541v-1.215c0-4.169-4.756-5.112-4.756-9.134V4.297h1.383v1.278c0,3.31,4.881,4.693,4.881,9.134
		V15.987z"/>
	<path fill="#FFFFFF" d="M112.485,16.029c-0.042,2.053-1.571,4.714-5.133,4.714c-3.247,0-5.07-2.849-5.07-4.714v-1.278
		c0-2.493,1.718-4.861,5.468-4.986l1.068-2.158c0-0.733-0.838-2.011-2.011-2.011c-1.445,0-2.137,0.628-2.137,1.487v1.383h-1.341
		V7.083c0-1.634,1.718-2.787,3.478-2.787c2.263,0,3.352,1.278,3.352,3.311l-1.047,2.283c1.467,0.461,3.436,2.074,3.394,4.63
		L112.485,16.029z M110.977,14.5c0-1.446-1.027-3.436-3.101-3.436h-0.733c-2.095,0-3.373,1.446-3.373,3.75v1.027
		c0,1.697,1.173,3.645,3.646,3.645c2.451,0,3.562-1.529,3.562-3.645V14.5z"/>
	<path fill="#FFFFFF" d="M123.381,15.987c0,3.164-1.488,4.756-4.42,4.756c-2.892,0-4.4-2.095-4.4-4.609v-0.733
		c0-0.859,0.482-1.823,1.131-2.724l1.027,0.524c-0.419,0.817-0.65,1.697-0.65,2.2v0.796c0,2.095,0.733,3.268,2.892,3.268
		c2.011,0,2.912-0.963,2.912-3.541v-1.215c0-4.169-4.756-5.112-4.756-9.134V4.297h1.383v1.278c0,3.31,4.881,4.693,4.881,9.134
		V15.987z"/>
	<path fill="#FFFFFF" d="M134.549,16.343c0,2.682-1.55,4.4-4.379,4.4c-2.577,0-4.42-1.697-4.42-4.42V7.377
		c0-1.97,1.152-2.871,2.598-2.871c1.194,0,2.367,0.524,3.415,0.524c0.859,0,1.446-0.272,2.472-0.733v1.131
		c-0.943,0.566-1.697,0.796-2.619,0.796c-1.047,0-1.927-0.419-2.975-0.419c-1.11-0.042-1.55,0.691-1.55,1.655v3.562
		c0.901-1.383,2.116-1.76,3.059-1.76c2.829,0,4.4,2.137,4.4,4.399V16.343z M133.061,13.725c0-1.844-0.963-3.205-2.891-3.205
		c-1.026,0-2.933,0.042-2.933,3.226v2.577c0,1.718,0.921,3.142,2.912,3.142c1.949,0,2.912-1.173,2.912-3.289V13.725z"/>
	<path fill="#FFFFFF" d="M145.381,16.406c0,2.661-1.76,4.337-4.336,4.337c-2.891,0-4.462-1.99-4.462-4.609v-2.262
		c0-2.137,1.571-4.609,4.462-4.609c0.984,0,2.242,0.293,2.954,1.844V7.523c0-1.215-1.466-1.927-2.828-1.927
		c-1.718,0-2.577,0.712-2.577,1.508V8.34h-1.529V7.104c0-1.508,2.032-2.808,4.127-2.808c2.2,0,4.211,1.299,4.211,3.227
		L145.381,16.406z M143.894,13.83c0-2.368-1.257-3.31-2.891-3.31c-1.907,0-2.933,1.76-2.933,3.352v2.262
		c0,2.032,1.173,3.352,3.017,3.352c1.822,0,2.807-1.215,2.807-3.352V13.83z"/>
	<path fill="#FFFFFF" d="M156.675,15.987c0,3.164-1.488,4.756-4.42,4.756c-2.892,0-4.4-2.095-4.4-4.609v-0.733
		c0-0.859,0.482-1.823,1.131-2.724l1.027,0.524c-0.419,0.817-0.65,1.697-0.65,2.2v0.796c0,2.095,0.733,3.268,2.892,3.268
		c2.011,0,2.912-0.963,2.912-3.541v-1.215c0-4.169-4.756-5.112-4.756-9.134V4.297h1.383v1.278c0,3.31,4.881,4.693,4.881,9.134
		V15.987z"/>
	<path fill="#FFFFFF" d="M167.843,16.343c0,2.682-1.55,4.4-4.379,4.4c-2.577,0-4.42-1.697-4.42-4.42V7.377
		c0-1.97,1.152-2.871,2.598-2.871c1.194,0,2.367,0.524,3.415,0.524c0.859,0,1.446-0.272,2.472-0.733v1.131
		c-0.943,0.566-1.697,0.796-2.619,0.796c-1.047,0-1.927-0.419-2.975-0.419c-1.11-0.042-1.55,0.691-1.55,1.655v3.562
		c0.901-1.383,2.116-1.76,3.059-1.76c2.829,0,4.4,2.137,4.4,4.399V16.343z M166.355,13.725c0-1.844-0.963-3.205-2.891-3.205
		c-1.026,0-2.933,0.042-2.933,3.226v2.577c0,1.718,0.921,3.142,2.912,3.142c1.949,0,2.912-1.173,2.912-3.289V13.725z"/>
	<path fill="#FFFFFF" d="M178.801,15.987c0,3.164-1.488,4.756-4.42,4.756c-2.892,0-4.4-2.095-4.4-4.609v-0.733
		c0-0.859,0.482-1.823,1.131-2.724l1.027,0.524c-0.419,0.817-0.65,1.697-0.65,2.2v0.796c0,2.095,0.733,3.268,2.892,3.268
		c2.011,0,2.912-0.963,2.912-3.541v-1.215c0-4.169-4.755-5.112-4.755-9.134V4.297h1.383v1.278c0,3.31,4.881,4.693,4.881,9.134
		V15.987z"/>
	<path fill="#FFFFFF" d="M196.191,13.746c0,3.185-1.173,6.998-4.399,6.998v-1.278c1.927,0,2.912-2.786,2.912-5.573v-3.101
		c0-2.451-0.147-5.195-2.472-5.195c-2.451,0-2.472,1.529-2.472,2.912v6.285c0,2.891-1.089,5.95-4.295,5.95
		c-3.436,0-4.295-3.143-4.295-6.243v-4.4c0-2.807,0.712-5.74,4.295-5.782c1.194-0.021,2.828,0.251,3.583,2.368
		c0.775-2.179,1.676-2.389,3.185-2.389c3.52,0,3.959,3.331,3.959,6.118V13.746z M188.25,8.508c0-1.383-0.733-2.912-2.786-2.912
		c-2.388,0-2.807,2.598-2.807,4.923v3.813c0,3.394,0.565,5.133,2.807,5.133c2.053,0,2.786-1.739,2.786-4.609V8.508z"/>
	<path fill="#FFFFFF" d="M218.359,10.457c0,1.802-1.467,4.965-3.311,6.013l-0.942-0.859c1.655-1.236,2.723-3.75,2.723-5.259V9.011
		c0-2.158-1.047-3.31-2.325-3.31c-2.053,0-2.472,1.341-2.472,3.017v3.331h-1.383V8.718c0-1.634-0.356-3.122-2.2-3.122
		c-1.676,0-2.2,1.55-2.2,3.059v3.394h-1.404V8.655c0-1.508-0.104-2.954-2.409-2.954c-1.676,0-2.368,1.634-2.368,3.688l0.021,1.466
		c-0.042,4.902,5.28,8.212,11.544,8.212h1.55v1.446h-1.508c-8.443,0-13.01-4.84-13.094-9.658l-0.021-1.529
		c0-2.808,1.173-4.923,3.876-4.923c1.445,0,2.346,0.398,3.247,2.326c0.587-1.928,1.404-2.431,2.766-2.431
		c1.278,0,2.179,0.503,2.849,2.326c0.817-1.823,2.032-2.221,3.185-2.221c2.158,0,3.876,1.613,3.876,4.504V10.457z"/>
	<path fill="#FFFFFF" d="M229.192,17.035c0,2.619-2.074,3.708-4.399,3.708c-2.556,0-4.399-1.676-4.399-3.918
		c0-2.095,0.901-3.143,2.032-4.022l0.921,0.922c-1.089,1.006-1.466,1.446-1.466,3.122c0,1.676,0.922,2.619,2.912,2.619
		c1.76,0,2.912-0.963,2.912-2.472V7.879c0-1.362-0.964-2.283-2.514-2.283c-1.571,0-2.661,0.88-2.661,2.304
		c0,0.482,0.084,0.943,0.503,1.592l-1.11,0.838c-0.524-0.712-0.796-1.529-0.796-2.43c0-2.158,1.55-3.604,3.939-3.604
		c2.325,0,4.127,1.257,4.127,3.583V17.035z"/>
	<path fill="#FFFFFF" d="M234.452,4.297c0,1.802,3.017,1.55,3.017,3.206c0,0.859-0.168,1.257-0.565,2.032
		c2.304,0.544,3.456,2.766,3.456,4.462l0.021,2.409c0,1.76-1.529,4.337-4.42,4.337c-2.892,0-4.4-2.347-4.4-4.358v-2.367
		c0-1.907,1.11-4.064,3.939-4.483c0.44-1.026,0.461-1.362,0.461-1.99c-0.042-1.068-3.017-1.11-3.017-3.248H234.452z M233.069,16.134
		c0,1.739,0.88,3.331,2.892,3.331c2.116,0,2.912-1.781,2.912-3.205v-2.179c0-1.488-0.942-3.331-2.912-3.331
		c-2.095,0-2.892,1.55-2.892,3.394V16.134z"/>
	<path fill="#FFFFFF" d="M262.317,10.457c0,1.802-1.466,4.965-3.31,6.013l-0.943-0.859c1.655-1.236,2.724-3.75,2.724-5.259V9.011
		c0-2.158-1.047-3.31-2.325-3.31c-2.053,0-2.473,1.341-2.473,3.017v3.331h-1.382V8.718c0-1.634-0.356-3.122-2.2-3.122
		c-1.676,0-2.2,1.55-2.2,3.059v3.394h-1.403V8.655c0-1.508-0.104-2.954-2.409-2.954c-1.676,0-2.367,1.634-2.367,3.688l0.021,1.466
		c-0.042,4.902,5.279,8.212,11.544,8.212h1.55v1.446h-1.508c-8.443,0-13.011-4.84-13.094-9.658l-0.021-1.529
		c0-2.808,1.173-4.923,3.876-4.923c1.445,0,2.347,0.398,3.247,2.326c0.587-1.928,1.404-2.431,2.766-2.431
		c1.278,0,2.179,0.503,2.85,2.326c0.816-1.823,2.032-2.221,3.184-2.221c2.158,0,3.876,1.613,3.876,4.504V10.457z"/>
	<path fill="#FFFFFF" d="M278.495,10.708c0-2.933-0.168-5.112-2.661-5.112c-1.802,0-2.682,1.089-2.682,3.205v6.6h-1.487v-6.6
		c0-2.242-0.88-3.205-2.702-3.205c-2.326,0-2.682,2.179-2.682,5.216v2.808c0,2.807,0.796,5.845,2.912,5.845v1.278
		c-3.521,0-4.421-3.855-4.421-7.082v-2.849c0-3.205,0.503-6.516,4.211-6.516c1.781,0,2.702,0.88,3.373,2.389
		c0.565-1.509,1.55-2.389,3.478-2.389c3.541,0,4.211,3.248,4.211,6.348l-0.021,3.017c0,3.059-1.048,7.082-4.379,7.082v-1.278
		c1.928,0,2.85-2.975,2.85-5.908V10.708z"/>
	<path fill="#FFFFFF" d="M295.298,16.406c0,2.661-1.76,4.337-4.337,4.337c-2.891,0-4.462-1.99-4.462-4.609v-2.262
		c0-2.137,1.571-4.609,4.462-4.609c0.985,0,2.242,0.293,2.954,1.844V7.523c0-1.215-1.466-1.927-2.828-1.927
		c-1.718,0-2.577,0.712-2.577,1.508V8.34h-1.529V7.104c0-1.508,2.032-2.808,4.128-2.808c2.199,0,4.211,1.299,4.211,3.227
		L295.298,16.406z M293.811,13.83c0-2.368-1.257-3.31-2.892-3.31c-1.906,0-2.933,1.76-2.933,3.352v2.262
		c0,2.032,1.173,3.352,3.017,3.352c1.823,0,2.808-1.215,2.808-3.352V13.83z"/>
	<path fill="#FFFFFF" d="M298.002,8.068c0-2.535,0.733-3.771,2.996-3.771c1.152,0,1.864,0.461,2.535,1.55
		c0.586-1.131,1.194-1.55,2.556-1.55c1.341,0,2.409,1.027,2.409,2.368v1.404h-1.215V6.665c0-0.545-0.356-1.173-1.341-1.173
		c-0.943,0-1.823,0.628-1.823,1.865v0.586h-1.257V7.356c0-1.089-0.461-1.865-1.592-1.865c-1.76,0-1.886,0.691-1.886,2.64v3.227
		c0.922-1.152,2.2-1.571,3.227-1.571c2.807,0,4.63,2.346,4.63,4.902v1.404c0,2.451-1.781,4.651-4.63,4.651
		c-2.64,0-4.609-2.011-4.609-4.693V8.068z M299.49,15.862c0,1.885,1.132,3.603,3.122,3.603c2.032,0,3.079-1.676,3.079-3.478v-1.194
		c0-1.131-0.272-2.032-0.796-2.682s-1.299-1.005-2.283-1.005c-2.074,0-3.122,0.796-3.122,3.164V15.862z"/>
	<path fill="#FFFFFF" d="M318.787,16.951c0,1.99-1.508,3.792-4.399,3.792c-2.912,0-4.399-1.969-4.399-3.729v-0.838
		c0-0.775,0.439-1.885,1.487-2.556l1.173,0.712c-0.88,0.691-1.173,1.069-1.173,1.928v0.649c0,1.383,0.964,2.556,2.912,2.556
		c1.99,0,2.912-0.984,2.912-2.514v-1.76c0-1.006-0.419-2.619-1.697-2.619h-1.403v-1.299h1.403c1.425,0,1.593-1.969,1.593-2.87V7.921
		c0-1.131-0.817-2.325-2.682-2.325c-1.613,0-2.598,1.215-2.598,2.053v0.335c0,0.838,0.209,1.194,0.628,1.781l-1.236,0.565
		c-0.565-0.733-0.9-1.445-0.9-2.262V7.544c0-1.529,1.697-3.248,4.106-3.248c2.807,0,4.169,1.76,4.169,3.52v0.712
		c0,0.754,0.104,2.326-1.928,3.373c2.032,1.006,2.032,2.284,2.032,3.29V16.951z"/>
	<path fill="#FFFFFF" d="M329.766,15.987c0,3.164-1.487,4.756-4.421,4.756c-2.891,0-4.399-2.095-4.399-4.609v-0.733
		c0-0.859,0.482-1.823,1.132-2.724l1.026,0.524c-0.419,0.817-0.649,1.697-0.649,2.2v0.796c0,2.095,0.733,3.268,2.891,3.268
		c2.012,0,2.912-0.963,2.912-3.541v-1.215c0-4.169-4.756-5.112-4.756-9.134V4.297h1.383v1.278c0,3.31,4.882,4.693,4.882,9.134
		V15.987z"/>
	<path fill="#FFFFFF" d="M340.933,16.343c0,2.682-1.55,4.4-4.378,4.4c-2.577,0-4.421-1.697-4.421-4.42V7.377
		c0-1.97,1.152-2.871,2.598-2.871c1.194,0,2.367,0.524,3.415,0.524c0.859,0,1.445-0.272,2.473-0.733v1.131
		c-0.943,0.566-1.697,0.796-2.619,0.796c-1.048,0-1.928-0.419-2.975-0.419c-1.11-0.042-1.551,0.691-1.551,1.655v3.562
		c0.901-1.383,2.116-1.76,3.059-1.76c2.828,0,4.399,2.137,4.399,4.399V16.343z M339.446,13.725c0-1.844-0.964-3.205-2.891-3.205
		c-1.027,0-2.934,0.042-2.934,3.226v2.577c0,1.718,0.922,3.142,2.912,3.142c1.948,0,2.912-1.173,2.912-3.289V13.725z"/>
	<path fill="#FFFFFF" d="M351.766,17.035c0,2.619-2.074,3.708-4.399,3.708c-2.556,0-4.399-1.676-4.399-3.918
		c0-2.095,0.9-3.143,2.032-4.022l0.922,0.922c-1.09,1.006-1.467,1.446-1.467,3.122c0,1.676,0.922,2.619,2.912,2.619
		c1.76,0,2.912-0.963,2.912-2.472V7.879c0-1.362-0.964-2.283-2.514-2.283c-1.571,0-2.661,0.88-2.661,2.304
		c0,0.482,0.084,0.943,0.503,1.592l-1.11,0.838c-0.523-0.712-0.796-1.529-0.796-2.43c0-2.158,1.55-3.604,3.938-3.604
		c2.325,0,4.127,1.257,4.127,3.583V17.035z"/>
	<path fill="#FFFFFF" d="M368.758,15.841c0,2.849-2.179,4.902-5.027,4.902c-2.934,0-5.301-2.305-5.301-5.761v-4.106
		c0-1.446,0.23-4.169,1.718-6.579l0.985,0.88c-0.88,1.592-1.194,4.169-1.194,5.699v4.106c0,2.095,1.466,4.483,3.792,4.483
		c2.263,0,3.52-1.739,3.52-3.624v-0.775c0-1.634-0.607-2.828-2.054-2.828h-1.592v-1.278h1.592c1.467,0,2.054-1.341,2.054-1.97
		c0-1.781-3.227-1.697-3.227-4.693h1.257c0,2.158,3.478,2.242,3.478,4.651c0,0.733-0.021,2.032-2.576,2.661
		c2.556,0.628,2.576,2.367,2.576,3.394V15.841z"/>
	<path fill="#FFFFFF" d="M379.571,17.035c0,2.619-2.074,3.708-4.399,3.708c-2.556,0-4.399-1.676-4.399-3.918
		c0-2.095,0.9-3.143,2.032-4.022l0.922,0.922c-1.09,1.006-1.467,1.446-1.467,3.122c0,1.676,0.922,2.619,2.912,2.619
		c1.76,0,2.912-0.963,2.912-2.472V7.879c0-1.362-0.964-2.283-2.514-2.283c-1.571,0-2.661,0.88-2.661,2.304
		c0,0.482,0.084,0.943,0.503,1.592l-1.11,0.838c-0.523-0.712-0.796-1.529-0.796-2.43c0-2.158,1.55-3.604,3.938-3.604
		c2.325,0,4.127,1.257,4.127,3.583V17.035z"/>
	<path fill="#FFFFFF" d="M390.968,16.343c0,2.682-1.55,4.4-4.378,4.4c-2.577,0-4.421-1.697-4.421-4.42V7.377
		c0-1.97,1.152-2.871,2.598-2.871c1.194,0,2.367,0.524,3.415,0.524c0.859,0,1.445-0.272,2.473-0.733v1.131
		c-0.943,0.566-1.697,0.796-2.619,0.796c-1.048,0-1.928-0.419-2.975-0.419c-1.11-0.042-1.551,0.691-1.551,1.655v3.562
		c0.901-1.383,2.116-1.76,3.059-1.76c2.828,0,4.399,2.137,4.399,4.399V16.343z M389.481,13.725c0-1.844-0.964-3.205-2.891-3.205
		c-1.027,0-2.934,0.042-2.934,3.226v2.577c0,1.718,0.922,3.142,2.912,3.142c1.948,0,2.912-1.173,2.912-3.289V13.725z"/>
	<path fill="#FFFFFF" d="M404.713,14.982c0,3.31-3.017,5.761-5.887,5.761c-2.912,0-5.929-2.409-5.929-5.761v-3.164
		c0-3.436,2.682-5.929,5.426-6.202l-0.671-1.32h2.158l-0.565,1.32c2.766,0.23,5.468,2.703,5.468,6.202V14.982z M403.206,11.818
		c0-3.185-1.551-4.756-3.96-4.923l0.335,7.018h-1.592l0.335-7.018c-2.242,0.23-3.938,1.781-3.938,4.923v3.164
		c0,2.221,1.738,4.483,4.441,4.483c2.556,0,4.379-2.074,4.379-4.483V11.818z"/>
	<path fill="#FFFFFF" d="M421.895,15.589c0,1.844-1.864,5.175-4.399,5.175v-1.299c1.613,0,2.912-2.346,2.912-3.854v-1.655
		c0-2.87-1.697-3.541-2.703-3.541c-1.131,0-2.682,0.775-2.682,3.268v2.41h-1.508v-2.41c0-2.493-1.529-3.268-2.661-3.268
		c-1.319,0-2.702,0.67-2.702,3.541v1.697c0,1.466,1.131,3.813,2.912,3.813v1.278c-2.912,0-4.421-3.394-4.421-5.217v-1.571
		c0-4.714,2.074-9.658,11.292-9.658v1.299c-4.965,0-8.023,1.676-9.26,4.211l0.838-0.251l1.341-0.293
		c1.299,0,2.724,0.042,3.415,2.493c0.817-2.451,2.305-2.493,3.436-2.493c2.116,0,4.19,1.215,4.19,4.693V15.589z"/>
	<path fill="#FFFFFF" d="M423.467,16.155v-1.445h7.354v1.445H423.467z"/>
	<path fill="#FFFFFF" d="M440.564,16.427c0,2.368-1.613,4.316-4.399,4.316c-2.682,0-4.399-1.969-4.399-3.667v-0.943
		c0-0.984,0.712-1.969,1.487-2.493l0.796,0.901c-0.565,0.44-0.796,1.173-0.796,1.801v0.503c0,1.257,0.942,2.619,2.912,2.619
		c2.157,0,2.912-1.32,2.912-3.038v-1.089c0-1.76-1.006-3.415-2.409-3.415h-2.096v-1.278h2.012c1.11,0,2.074-0.691,2.074-2.053V7.817
		c0-1.089-1.048-2.221-2.032-2.221V4.297c1.445,0,3.52,1.488,3.52,3.52v0.461c0,1.676-0.859,2.514-2.2,2.996
		c2.032,0.628,2.619,2.137,2.619,4.064V16.427z"/>
	<path fill="#FFFFFF" d="M456.739,10.708c0-2.933-0.168-5.112-2.661-5.112c-1.802,0-2.682,1.089-2.682,3.205v6.6h-1.487v-6.6
		c0-2.242-0.88-3.205-2.702-3.205c-2.326,0-2.682,2.179-2.682,5.216v2.808c0,2.807,0.796,5.845,2.912,5.845v1.278
		c-3.521,0-4.421-3.855-4.421-7.082v-2.849c0-3.205,0.503-6.516,4.211-6.516c1.781,0,2.702,0.88,3.373,2.389
		c0.565-1.509,1.55-2.389,3.478-2.389c3.541,0,4.211,3.248,4.211,6.348l-0.021,3.017c0,3.059-1.048,7.082-4.379,7.082v-1.278
		c1.928,0,2.85-2.975,2.85-5.908V10.708z"/>
	<path fill="#FFFFFF" d="M480.352,10.457c0,1.802-1.466,4.965-3.31,6.013l-0.943-0.859c1.655-1.236,2.724-3.75,2.724-5.259V9.011
		c0-2.158-1.047-3.31-2.325-3.31c-2.053,0-2.473,1.341-2.473,3.017v3.331h-1.382V8.718c0-1.634-0.356-3.122-2.2-3.122
		c-1.676,0-2.2,1.55-2.2,3.059v3.394h-1.403V8.655c0-1.508-0.104-2.954-2.409-2.954c-1.676,0-2.367,1.634-2.367,3.688l0.021,1.466
		c-0.042,4.902,5.279,8.212,11.544,8.212h1.55v1.446h-1.508c-8.443,0-13.011-4.84-13.094-9.658l-0.021-1.529
		c0-2.808,1.173-4.923,3.876-4.923c1.445,0,2.347,0.398,3.247,2.326c0.587-1.928,1.404-2.431,2.766-2.431
		c1.278,0,2.179,0.503,2.85,2.326c0.816-1.823,2.032-2.221,3.184-2.221c2.158,0,3.876,1.613,3.876,4.504V10.457z"/>
	<path fill="#FFFFFF" d="M491.186,17.035c0,2.619-2.074,3.708-4.399,3.708c-2.556,0-4.399-1.676-4.399-3.918
		c0-2.095,0.9-3.143,2.032-4.022l0.922,0.922c-1.09,1.006-1.467,1.446-1.467,3.122c0,1.676,0.922,2.619,2.912,2.619
		c1.76,0,2.912-0.963,2.912-2.472V7.879c0-1.362-0.964-2.283-2.514-2.283c-1.571,0-2.661,0.88-2.661,2.304
		c0,0.482,0.084,0.943,0.503,1.592l-1.11,0.838c-0.523-0.712-0.796-1.529-0.796-2.43c0-2.158,1.55-3.604,3.938-3.604
		c2.325,0,4.127,1.257,4.127,3.583V17.035z"/>
	<path fill="#FFFFFF" d="M493.554,6.769h3.227V6.748V4.297h1.383v2.451v0.021h3.771v1.299h-3.645
		c0.69,3.352,4.085,3.457,4.085,7.249v1.173c0,2.305-1.529,4.253-4.399,4.253c-2.912,0-4.421-2.493-4.421-4.19v-1.341
		c0-1.09,1.32-2.493,2.116-3.017l0.775,0.901c-0.587,0.44-1.383,1.362-1.383,2.116v1.278c0,1.236,0.984,2.975,2.912,2.975
		c2.157,0,2.828-1.215,2.87-2.975l0.021-1.173c0-3.206-3.331-3.75-3.98-7.249h-3.331V6.769z"/>
	<path fill="#FFFFFF" d="M512.977,14.249c-0.021,2.807-0.754,5.929-3.247,6.495l-0.126-1.278c1.026,0,1.886-1.885,1.886-5.153
		v-3.981c0-2.975-0.587-4.734-2.828-4.734c-2.451,0-2.996,1.801-2.996,4.797v3.918c0,3.205,0.587,5.153,1.529,5.153l-0.021,1.278
		c-2.535-0.482-2.996-3.771-2.996-6.432v-3.876c0-2.828,0.754-6.139,4.399-6.139c3.729,0,4.421,2.829,4.421,6.034L512.977,14.249z"
		/>
	<path fill="#FFFFFF" d="M522.762,4.632c-1.089,1.194-1.445,2.032-1.445,2.849c0,0.167,0.021,0.314,0.042,0.503
		c0.042-0.021,0.104-0.021,0.188-0.021h0.104c0.503,0,0.943,0.314,0.943,0.838c0,0.691-0.565,1.027-1.006,1.027
		c-0.691,0-1.152-0.44-1.152-1.53c0-1.382,0.733-2.891,1.97-4.022L522.762,4.632z M525.968,4.632
		c-1.068,1.194-1.425,2.032-1.425,2.849c0,0.167,0.021,0.314,0.042,0.503c0.042-0.021,0.104-0.021,0.167-0.021h0.126
		c0.482,0,0.943,0.314,0.943,0.838c0,0.691-0.545,1.027-1.027,1.027c-0.67,0-1.131-0.44-1.131-1.53c0-1.403,0.754-2.891,1.948-4.022
		L525.968,4.632z"/>
	<path fill="#FFFFFF" d="M538.686,16.029c-0.042,2.053-1.571,4.714-5.133,4.714c-3.248,0-5.07-2.849-5.07-4.714v-1.278
		c0-2.493,1.718-4.861,5.468-4.986l1.068-2.158c0-0.733-0.838-2.011-2.011-2.011c-1.446,0-2.137,0.628-2.137,1.487v1.383h-1.342
		V7.083c0-1.634,1.719-2.787,3.479-2.787c2.263,0,3.352,1.278,3.352,3.311l-1.047,2.283c1.466,0.461,3.436,2.074,3.394,4.63
		L538.686,16.029z M537.177,14.5c0-1.446-1.026-3.436-3.101-3.436h-0.733c-2.095,0-3.373,1.446-3.373,3.75v1.027
		c0,1.697,1.173,3.645,3.646,3.645c2.451,0,3.562-1.529,3.562-3.645V14.5z"/>
	<path fill="#FFFFFF" d="M554.798,10.708c0-2.933-0.168-5.112-2.661-5.112c-1.802,0-2.682,1.089-2.682,3.205v6.6h-1.487v-6.6
		c0-2.242-0.88-3.205-2.702-3.205c-2.326,0-2.682,2.179-2.682,5.216v2.808c0,2.807,0.796,5.845,2.912,5.845v1.278
		c-3.521,0-4.421-3.855-4.421-7.082v-2.849c0-3.205,0.503-6.516,4.211-6.516c1.78,0,2.702,0.88,3.373,2.389
		c0.565-1.509,1.55-2.389,3.478-2.389c3.541,0,4.211,3.248,4.211,6.348l-0.021,3.017c0,3.059-1.048,7.082-4.379,7.082v-1.278
		c1.928,0,2.85-2.975,2.85-5.908V10.708z"/>
	<path fill="#FFFFFF" d="M567.642,16.343c0,2.682-1.55,4.4-4.378,4.4c-2.577,0-4.421-1.697-4.421-4.42V7.377
		c0-1.97,1.152-2.871,2.598-2.871c1.194,0,2.367,0.524,3.415,0.524c0.859,0,1.445-0.272,2.473-0.733v1.131
		c-0.943,0.566-1.697,0.796-2.619,0.796c-1.048,0-1.928-0.419-2.975-0.419c-1.11-0.042-1.551,0.691-1.551,1.655v3.562
		c0.901-1.383,2.116-1.76,3.059-1.76c2.828,0,4.399,2.137,4.399,4.399V16.343z M566.155,13.725c0-1.844-0.964-3.205-2.891-3.205
		c-1.027,0-2.934,0.042-2.934,3.226v2.577c0,1.718,0.922,3.142,2.912,3.142c1.948,0,2.912-1.173,2.912-3.289V13.725z"/>
	<path fill="#FFFFFF" d="M578.475,14.249c-0.021,2.807-0.754,5.929-3.247,6.495l-0.126-1.278c1.026,0,1.886-1.885,1.886-5.153
		v-3.981c0-2.975-0.587-4.734-2.828-4.734c-2.451,0-2.996,1.801-2.996,4.797v3.918c0,3.205,0.587,5.153,1.529,5.153l-0.021,1.278
		c-2.535-0.482-2.996-3.771-2.996-6.432v-3.876c0-2.828,0.754-6.139,4.399-6.139c3.729,0,4.421,2.829,4.421,6.034L578.475,14.249z"
		/>
	<path fill="#FFFFFF" d="M581.639,23.55c1.048-1.173,1.445-2.032,1.445-2.828c0-0.167-0.042-0.335-0.063-0.503
		c-0.021,0.021-0.084,0.021-0.168,0.021h-0.104c-0.503,0-0.942-0.314-0.942-0.838c0-0.733,0.544-1.048,1.005-1.048
		c0.691,0,1.152,0.44,1.152,1.551c0,1.341-0.732,2.87-1.969,4.001L581.639,23.55z"/>
	<path fill="#FFFFFF" d="M587.025,23.55c1.048-1.173,1.445-2.032,1.445-2.828c0-0.167-0.042-0.335-0.063-0.503
		c-0.021,0.021-0.084,0.021-0.168,0.021h-0.104c-0.503,0-0.942-0.314-0.942-0.838c0-0.733,0.544-1.048,1.005-1.048
		c0.691,0,1.152,0.44,1.152,1.551c0,1.341-0.732,2.87-1.969,4.001L587.025,23.55z"/>
	<path fill="#FFFFFF" d="M80.701,48.897V33.011h1.371v14.538h8.023v1.349H80.701z"/>
	<path fill="#FFFFFF" d="M100.656,46.863c-0.938,1.349-2.171,2.034-3.703,2.034c-1.28,0-2.263-0.434-3.108-1.28
		c-0.8-0.8-1.234-2.149-1.234-3.932c0-1.737,0.411-3.109,1.211-3.932c0.823-0.823,1.829-1.303,3.131-1.303
		c1.234,0,2.286,0.48,3.131,1.303c0.731,0.754,1.166,2.171,1.166,4.069h-7.269c0.023,2.56,1.143,3.726,2.972,3.726
		c1.097,0,1.897-0.434,2.446-1.188L100.656,46.863z M99.855,42.497c-0.068-0.938-0.343-1.6-0.823-1.989
		c-0.503-0.457-1.143-0.708-2.08-0.708c-0.892,0-1.6,0.229-2.103,0.708c-0.434,0.434-0.754,1.051-0.823,1.989H99.855z"/>
	<path fill="#FFFFFF" d="M103.353,40.554c0.435-0.686,0.915-1.211,1.417-1.508c0.708-0.389,1.44-0.594,2.4-0.594
		c1.486,0,2.537,0.366,3.04,1.051c0.48,0.686,0.8,1.6,0.8,2.492v6.903h-1.326v-0.434c-0.663,0.297-1.508,0.434-2.514,0.434
		c-1.12,0-2.24-0.32-2.857-0.846c-0.663-0.526-1.006-1.326-1.006-2.103c0-0.754,0.229-1.463,0.708-2.057
		c0.434-0.571,1.486-0.869,3.154-0.869c0.915,0,1.577-0.16,1.92-0.434c0.343-0.251,0.594-0.686,0.594-1.12
		c0-0.457-0.251-0.823-0.594-1.188c-0.366-0.32-1.051-0.48-1.92-0.48c-0.457,0-1.051,0.045-1.463,0.251
		c-0.389,0.16-0.777,0.525-0.937,0.96L103.353,40.554z M109.684,43.617c-0.594,0.503-1.44,0.731-2.468,0.731
		c-0.869,0-1.509,0.114-1.897,0.366c-0.434,0.297-0.663,0.686-0.663,1.234c0,1.143,0.8,1.6,2.514,1.6
		c0.594,0,1.188-0.068,1.646-0.251c0.548-0.206,0.868-0.663,0.868-1.349V43.617z"/>
	<path fill="#FFFFFF" d="M113.227,48.897V38.451h1.326V39.8c0.823-0.938,1.783-1.349,2.971-1.349c1.349,0,2.332,0.389,3.086,1.234
		l-0.754,1.005c-0.617-0.571-1.372-0.891-2.332-0.891c-0.937,0-1.646,0.32-2.171,0.891c-0.549,0.594-0.8,1.6-0.8,2.995v5.211
		H113.227z"/>
	<path fill="#FFFFFF" d="M122.782,48.897V38.451h1.349V39.8c0.8-0.892,1.806-1.349,2.972-1.349c1.234,0,2.332,0.503,3.108,1.303
		c0.777,0.823,1.234,2.194,1.234,3.932v5.211h-1.349v-5.211c0-1.303-0.297-2.423-0.823-2.995c-0.48-0.502-1.303-0.891-2.171-0.891
		c-0.937,0-1.691,0.32-2.171,0.891c-0.48,0.549-0.8,1.692-0.8,2.995v5.211H122.782z"/>
	<path fill="#FFFFFF" d="M135.171,34.817c0.412,0,0.64,0.32,0.64,0.663c0,0.435-0.229,0.663-0.64,0.663
		c-0.435,0-0.64-0.229-0.64-0.663C134.531,35.137,134.736,34.817,135.171,34.817z M134.531,48.897V38.451h1.28v10.446H134.531z"/>
	<path fill="#FFFFFF" d="M139.033,48.897V38.451h1.349V39.8c0.8-0.892,1.806-1.349,2.972-1.349c1.234,0,2.332,0.503,3.109,1.303
		c0.777,0.823,1.234,2.194,1.234,3.932v5.211h-1.349v-5.211c0-1.303-0.297-2.423-0.823-2.995c-0.48-0.502-1.303-0.891-2.171-0.891
		c-0.937,0-1.691,0.32-2.171,0.891c-0.48,0.549-0.8,1.692-0.8,2.995v5.211H139.033z"/>
	<path fill="#FFFFFF" d="M152.177,52.829c2.697,0,4.869-0.412,4.869-2.56v-2.697c-0.8,0.892-1.737,1.326-2.972,1.326
		c-1.28,0-2.263-0.434-3.108-1.28c-0.8-0.8-1.234-2.149-1.234-3.932c0-1.737,0.411-3.063,1.234-3.932
		c0.823-0.823,1.829-1.303,3.108-1.303c1.234,0,2.171,0.457,2.972,1.371v-1.371h1.326V50.2c0,3.566-3.475,3.955-6.194,3.84V52.829z
		 M154.074,39.8c-0.914,0-1.714,0.32-2.194,0.891c-0.457,0.549-0.777,1.692-0.777,2.995c0,1.349,0.32,2.4,0.777,2.971
		c0.48,0.64,1.257,0.892,2.194,0.892c0.869,0,1.668-0.251,2.171-0.892c0.526-0.594,0.8-1.623,0.8-2.971
		c0-1.303-0.274-2.423-0.8-2.995C155.742,40.143,154.942,39.8,154.074,39.8z"/>
	<path fill="#FFFFFF" d="M167.948,52.829c2.697,0,4.869-0.412,4.869-2.56v-2.697c-0.8,0.892-1.737,1.326-2.972,1.326
		c-1.28,0-2.263-0.434-3.108-1.28c-0.8-0.8-1.234-2.149-1.234-3.932c0-1.737,0.411-3.063,1.234-3.932
		c0.823-0.823,1.829-1.303,3.108-1.303c1.234,0,2.171,0.457,2.972,1.371v-1.371h1.326V50.2c0,3.566-3.475,3.955-6.194,3.84V52.829z
		 M169.845,39.8c-0.914,0-1.714,0.32-2.194,0.891c-0.457,0.549-0.777,1.692-0.777,2.995c0,1.349,0.32,2.4,0.777,2.971
		c0.48,0.64,1.257,0.892,2.194,0.892c0.869,0,1.668-0.251,2.171-0.892c0.526-0.594,0.8-1.623,0.8-2.971
		c0-1.303-0.274-2.423-0.8-2.995C171.514,40.143,170.714,39.8,169.845,39.8z"/>
	<path fill="#FFFFFF" d="M176.748,48.897V38.451h1.326V39.8c0.823-0.938,1.783-1.349,2.971-1.349c1.349,0,2.332,0.389,3.086,1.234
		l-0.754,1.005c-0.617-0.571-1.372-0.891-2.332-0.891c-0.937,0-1.646,0.32-2.171,0.891c-0.548,0.594-0.8,1.6-0.8,2.995v5.211
		H176.748z"/>
	<path fill="#FFFFFF" d="M194.189,46.863c-0.938,1.349-2.171,2.034-3.703,2.034c-1.28,0-2.263-0.434-3.108-1.28
		c-0.8-0.8-1.234-2.149-1.234-3.932c0-1.737,0.411-3.109,1.211-3.932c0.823-0.823,1.829-1.303,3.131-1.303
		c1.234,0,2.286,0.48,3.131,1.303c0.731,0.754,1.166,2.171,1.166,4.069h-7.269c0.023,2.56,1.143,3.726,2.972,3.726
		c1.097,0,1.897-0.434,2.446-1.188L194.189,46.863z M193.389,42.497c-0.068-0.938-0.343-1.6-0.823-1.989
		c-0.503-0.457-1.143-0.708-2.08-0.708c-0.892,0-1.6,0.229-2.103,0.708c-0.434,0.434-0.754,1.051-0.823,1.989H193.389z"/>
	<path fill="#FFFFFF" d="M204.886,46.863c-0.938,1.349-2.171,2.034-3.703,2.034c-1.28,0-2.263-0.434-3.108-1.28
		c-0.8-0.8-1.234-2.149-1.234-3.932c0-1.737,0.411-3.109,1.211-3.932c0.823-0.823,1.829-1.303,3.131-1.303
		c1.234,0,2.286,0.48,3.131,1.303c0.731,0.754,1.166,2.171,1.166,4.069h-7.269c0.023,2.56,1.143,3.726,2.972,3.726
		c1.097,0,1.897-0.434,2.446-1.188L204.886,46.863z M204.086,42.497c-0.068-0.938-0.343-1.6-0.823-1.989
		c-0.503-0.457-1.143-0.708-2.08-0.708c-0.892,0-1.6,0.229-2.103,0.708c-0.434,0.434-0.754,1.051-0.823,1.989H204.086z"/>
	<path fill="#FFFFFF" d="M207.697,48.897V38.451h1.349V39.8c0.8-0.892,1.806-1.349,2.972-1.349c1.234,0,2.332,0.503,3.109,1.303
		c0.777,0.823,1.234,2.194,1.234,3.932v5.211h-1.349v-5.211c0-1.303-0.297-2.423-0.823-2.995c-0.48-0.502-1.303-0.891-2.171-0.891
		c-0.937,0-1.691,0.32-2.171,0.891c-0.48,0.549-0.8,1.692-0.8,2.995v5.211H207.697z"/>
	<path fill="#FFFFFF" d="M229.87,40.851c-0.571-0.663-1.417-1.051-2.469-1.051c-0.937,0-1.691,0.32-2.194,0.891
		c-0.525,0.594-0.777,1.577-0.777,2.995c0,1.372,0.32,2.4,0.777,2.971c0.503,0.617,1.257,0.892,2.194,0.892
		c1.097,0,1.897-0.412,2.469-1.211l1.303,0.435c-0.937,1.371-2.217,2.125-3.771,2.125c-1.234,0-2.263-0.434-3.108-1.303
		c-0.8-0.846-1.211-2.126-1.211-3.909c0-1.737,0.366-3.086,1.188-3.932c0.8-0.8,1.852-1.303,3.131-1.303
		c1.532,0,2.834,0.731,3.771,2.171L229.87,40.851z"/>
	<path fill="#FFFFFF" d="M241.207,46.863c-0.938,1.349-2.172,2.034-3.703,2.034c-1.28,0-2.263-0.434-3.108-1.28
		c-0.8-0.8-1.234-2.149-1.234-3.932c0-1.737,0.411-3.109,1.211-3.932c0.823-0.823,1.829-1.303,3.131-1.303
		c1.234,0,2.286,0.48,3.132,1.303c0.731,0.754,1.165,2.171,1.165,4.069h-7.269c0.023,2.56,1.143,3.726,2.972,3.726
		c1.098,0,1.897-0.434,2.446-1.188L241.207,46.863z M240.407,42.497c-0.069-0.938-0.343-1.6-0.823-1.989
		c-0.503-0.457-1.143-0.708-2.08-0.708c-0.892,0-1.6,0.229-2.103,0.708c-0.434,0.434-0.754,1.051-0.823,1.989H240.407z"/>
	<path fill="#FFFFFF" d="M244.018,48.897V38.451h1.349V39.8c0.8-0.892,1.806-1.349,2.972-1.349c1.233,0,2.331,0.503,3.108,1.303
		c0.777,0.823,1.234,2.194,1.234,3.932v5.211h-1.349v-5.211c0-1.303-0.298-2.423-0.823-2.995c-0.479-0.502-1.303-0.891-2.171-0.891
		c-0.938,0-1.692,0.32-2.172,0.891c-0.48,0.549-0.8,1.692-0.8,2.995v5.211H244.018z"/>
	<path fill="#FFFFFF" d="M257.892,34.817v3.634h2.743V39.8h-2.743v5.691c0,0.754,0.114,1.326,0.366,1.623
		c0.274,0.297,0.686,0.434,1.166,0.434c0.457,0,0.868-0.045,1.211-0.137v1.211c-0.32,0.206-0.731,0.274-1.211,0.274
		c-0.823,0-1.577-0.206-2.104-0.754c-0.549-0.548-0.708-1.417-0.708-2.651V39.8h-1.897v-1.349h1.897v-3.634H257.892z"/>
	<path fill="#FFFFFF" d="M270.739,46.863c-0.938,1.349-2.172,2.034-3.703,2.034c-1.28,0-2.263-0.434-3.108-1.28
		c-0.8-0.8-1.234-2.149-1.234-3.932c0-1.737,0.411-3.109,1.211-3.932c0.823-0.823,1.829-1.303,3.132-1.303
		c1.234,0,2.286,0.48,3.132,1.303c0.731,0.754,1.165,2.171,1.165,4.069h-7.269c0.023,2.56,1.144,3.726,2.972,3.726
		c1.098,0,1.897-0.434,2.446-1.188L270.739,46.863z M269.939,42.497c-0.069-0.938-0.343-1.6-0.823-1.989
		c-0.503-0.457-1.143-0.708-2.08-0.708c-0.892,0-1.6,0.229-2.103,0.708c-0.435,0.434-0.755,1.051-0.823,1.989H269.939z"/>
	<path fill="#FFFFFF" d="M273.55,48.897V38.451h1.325V39.8c0.823-0.938,1.783-1.349,2.972-1.349c1.349,0,2.332,0.389,3.086,1.234
		l-0.754,1.005c-0.617-0.571-1.372-0.891-2.332-0.891c-0.938,0-1.646,0.32-2.171,0.891c-0.549,0.594-0.801,1.6-0.801,2.995v5.211
		H273.55z"/>
	<path fill="#FFFFFF" d="M294.419,40.851c-0.572-0.663-1.418-1.051-2.469-1.051c-0.938,0-1.691,0.32-2.194,0.891
		c-0.526,0.594-0.777,1.577-0.777,2.995c0,1.372,0.32,2.4,0.777,2.971c0.503,0.617,1.257,0.892,2.194,0.892
		c1.097,0,1.896-0.412,2.469-1.211l1.303,0.435c-0.938,1.371-2.218,2.125-3.771,2.125c-1.234,0-2.264-0.434-3.109-1.303
		c-0.8-0.846-1.211-2.126-1.211-3.909c0-1.737,0.365-3.086,1.188-3.932c0.8-0.8,1.852-1.303,3.132-1.303
		c1.531,0,2.834,0.731,3.771,2.171L294.419,40.851z"/>
	<path fill="#FFFFFF" d="M297.71,43.686c0-1.737,0.411-3.063,1.234-3.932c0.822-0.823,1.828-1.303,3.108-1.303
		c1.234,0,2.286,0.457,3.132,1.303c0.8,0.8,1.165,2.194,1.165,3.932c0,1.783-0.388,3.086-1.165,3.909
		c-0.846,0.869-1.897,1.303-3.132,1.303c-1.28,0-2.263-0.434-3.108-1.28C298.145,46.817,297.71,45.468,297.71,43.686z M302.053,39.8
		c-0.914,0-1.714,0.32-2.194,0.891c-0.457,0.549-0.777,1.692-0.777,2.995c0,1.349,0.32,2.4,0.777,2.971
		c0.48,0.64,1.257,0.892,2.194,0.892c0.869,0,1.669-0.251,2.172-0.892c0.525-0.594,0.8-1.623,0.8-2.971
		c0-1.303-0.274-2.423-0.8-2.995C303.722,40.143,302.922,39.8,302.053,39.8z"/>
	<path fill="#FFFFFF" d="M309.459,48.897V33.011h1.279v15.886H309.459z"/>
	<path fill="#FFFFFF" d="M314.854,48.897V33.011h1.279v15.886H314.854z"/>
	<path fill="#FFFFFF" d="M327.242,46.863c-0.938,1.349-2.172,2.034-3.703,2.034c-1.28,0-2.263-0.434-3.108-1.28
		c-0.8-0.8-1.234-2.149-1.234-3.932c0-1.737,0.411-3.109,1.211-3.932c0.823-0.823,1.829-1.303,3.132-1.303
		c1.234,0,2.286,0.48,3.132,1.303c0.731,0.754,1.165,2.171,1.165,4.069h-7.269c0.023,2.56,1.144,3.726,2.972,3.726
		c1.098,0,1.897-0.434,2.446-1.188L327.242,46.863z M326.442,42.497c-0.069-0.938-0.343-1.6-0.823-1.989
		c-0.503-0.457-1.143-0.708-2.08-0.708c-0.892,0-1.6,0.229-2.103,0.708c-0.435,0.434-0.755,1.051-0.823,1.989H326.442z"/>
	<path fill="#FFFFFF" d="M332.339,52.829c2.697,0,4.869-0.412,4.869-2.56v-2.697c-0.8,0.892-1.737,1.326-2.972,1.326
		c-1.28,0-2.263-0.434-3.108-1.28c-0.8-0.8-1.234-2.149-1.234-3.932c0-1.737,0.411-3.063,1.234-3.932
		c0.822-0.823,1.828-1.303,3.108-1.303c1.234,0,2.172,0.457,2.972,1.371v-1.371h1.325V50.2c0,3.566-3.474,3.955-6.194,3.84V52.829z
		 M334.237,39.8c-0.914,0-1.714,0.32-2.194,0.891c-0.457,0.549-0.777,1.692-0.777,2.995c0,1.349,0.32,2.4,0.777,2.971
		c0.48,0.64,1.257,0.892,2.194,0.892c0.869,0,1.669-0.251,2.172-0.892c0.525-0.594,0.8-1.623,0.8-2.971
		c0-1.303-0.274-2.423-0.8-2.995C335.906,40.143,335.106,39.8,334.237,39.8z"/>
	<path fill="#FFFFFF" d="M349.026,46.863c-0.938,1.349-2.172,2.034-3.703,2.034c-1.28,0-2.263-0.434-3.108-1.28
		c-0.8-0.8-1.234-2.149-1.234-3.932c0-1.737,0.411-3.109,1.211-3.932c0.823-0.823,1.829-1.303,3.132-1.303
		c1.234,0,2.286,0.48,3.132,1.303c0.731,0.754,1.165,2.171,1.165,4.069h-7.269c0.023,2.56,1.144,3.726,2.972,3.726
		c1.098,0,1.897-0.434,2.446-1.188L349.026,46.863z M348.226,42.497c-0.069-0.938-0.343-1.6-0.823-1.989
		c-0.503-0.457-1.143-0.708-2.08-0.708c-0.892,0-1.6,0.229-2.103,0.708c-0.435,0.434-0.755,1.051-0.823,1.989H348.226z"/>
	<path fill="#FFFFFF" d="M363.883,48.897c-2.424,0-4.298-0.8-5.35-2.171c-1.097-1.44-1.668-3.429-1.668-5.76
		c0-2.217,0.571-4.114,1.668-5.646c1.098-1.531,2.538-2.309,4.274-2.309c1.463,0,2.606,0.343,3.452,0.915
		c0.822,0.571,1.417,1.211,1.852,2.08l-1.144,0.594c-0.891-1.531-2.171-2.286-3.977-2.286c-1.463,0-2.675,0.754-3.497,2.057
		c-0.846,1.349-1.258,2.857-1.258,4.594c0,1.623,0.457,3.246,1.258,4.549c0.846,1.349,2.354,2.034,4.411,2.034
		c1.097,0,2.08-0.389,2.948-1.166v-3.589h-3.52v-1.303h4.777V47C367.014,48.166,365.323,48.897,363.883,48.897z"/>
	<path fill="#FFFFFF" d="M377.278,48.897c-1.669,0-3.063-0.754-4.229-2.171c-1.258-1.486-1.897-3.383-1.897-5.76
		c0-2.125,0.64-4.32,1.668-5.714c0.983-1.349,2.767-2.24,4.458-2.24c1.782,0,3.223,0.686,4.389,2.058
		c1.165,1.417,1.806,3.383,1.806,5.897c0,2.377-0.641,4.274-1.806,5.76C380.478,48.143,379.06,48.897,377.278,48.897z
		 M377.278,47.548c1.485,0,2.742-0.571,3.565-1.714c0.823-1.12,1.28-2.857,1.28-4.869c0-1.852-0.503-3.52-1.28-4.731
		c-0.846-1.211-2.08-1.92-3.565-1.92c-1.28,0-2.492,0.663-3.406,1.783c-0.914,1.143-1.325,2.789-1.325,4.869
		s0.503,3.726,1.485,4.869C374.969,46.886,376.158,47.548,377.278,47.548z"/>
	<path fill="#FFFFFF" d="M396.226,48.897l-8.366-13.555v13.555h-1.371V33.011h1.485l8.389,13.509V33.011h1.326v15.886H396.226z"/>
	<path fill="#FFFFFF" d="M400.707,48.897V33.011h1.349v15.886H400.707z"/>
</g>
</svg>
